<?xml version="1.0" encoding="utf-8"?>
<!-- Generator: Adobe Illustrator 16.0.0, SVG Export Plug-In . SVG Version: 6.00 Build 0)  -->
<!DOCTYPE svg PUBLIC "-//W3C//DTD SVG 1.1//EN" "http://www.w3.org/Graphics/SVG/1.1/DTD/svg11.dtd">
<svg version="1.1" id="Layer_1" xmlns="http://www.w3.org/2000/svg" xmlns:xlink="http://www.w3.org/1999/xlink" x="0px" y="0px"
	 width="100px" height="100px" viewBox="0 0 100 100" enable-background="new 0 0 100 100" xml:space="preserve">
<path d="M86.887,9.942c-5.263-5.261-12.258-8.158-19.7-8.158S52.749,4.682,47.489,9.942c-7.923,7.924-10.328,19.76-6.129,30.153
	l0.125,0.307L5.7,76.186c-0.468,0.469-0.731,1.105-0.732,1.768l0.003,17.761c-0.001,1.38,1.118,2.5,2.5,2.5h11.352
	c0.009,0.001,0.015,0.001,0.02,0c1.381,0,2.449-1.119,2.449-2.5c0.001-0.108,0.018-14.723,0.018-14.723l14.891-0.006
	c0,0,0.002,0,0.003,0c0.661,0,1.297-0.263,1.767-0.73c0.469-0.469,0.733-1.105,0.732-1.769l0.004-11.138l14.049-14.037
	c4.498,2.694,9.535,4.108,14.69,4.108c7.326,0,14.23-2.871,19.443-8.083C97.746,38.478,97.746,20.806,86.887,9.942z M84.064,28.203
	l-3.889,3.889c-0.781,0.781-2.048,0.781-2.829,0l-12.61-12.611c-0.781-0.781-0.781-2.047,0-2.828l3.889-3.889
	c0.781-0.781,2.048-0.781,2.829,0l12.61,12.61C84.846,26.156,84.846,27.422,84.064,28.203z"/>
</svg>
