<?xml version="1.0" encoding="utf-8"?>
<!-- Generator: Adobe Illustrator 16.0.0, SVG Export Plug-In . SVG Version: 6.00 Build 0)  -->
<!DOCTYPE svg PUBLIC "-//W3C//DTD SVG 1.1//EN" "http://www.w3.org/Graphics/SVG/1.1/DTD/svg11.dtd">
<svg version="1.1" id="Layer_4" xmlns="http://www.w3.org/2000/svg" xmlns:xlink="http://www.w3.org/1999/xlink" x="0px" y="0px"
	 width="100px" height="100px" viewBox="0 0 100 100" enable-background="new 0 0 100 100" xml:space="preserve">
<path d="M71.736,43.2c8.048-8.43,30.512-33.077,24.332-39.261c-0.715-0.715-1.703-1.078-2.936-1.078
	c-6.117,0-19.667,9.484-36.326,25.41L18.644,15.113c-0.787-0.269-1.682-0.062-2.27,0.526L4.731,27.282
	c-0.503,0.501-0.733,1.218-0.617,1.926c0.12,0.699,0.572,1.301,1.206,1.609L38.8,47.169C32,54.794,25.802,62.29,21.123,68.545
	l-8.285-5.717c-0.853-0.586-2.068-0.477-2.805,0.257l-6.523,6.523c-0.853,0.856-0.853,2.25,0.002,3.11l9.09,9.091
	c-0.973,2.139-1.662,4.511-0.289,5.884c0.352,0.353,0.997,0.771,2.069,0.771c0.977,0,2.23-0.349,3.813-1.063l9.096,9.095
	c0.416,0.414,0.968,0.642,1.554,0.642c0.587,0,1.139-0.229,1.556-0.645l6.523-6.522c0.748-0.75,0.855-1.929,0.253-2.804
	l-5.716-8.284c6.251-4.676,13.747-10.874,21.377-17.677l16.351,33.48c0.311,0.636,0.914,1.087,1.621,1.208
	c0.119,0.02,0.236,0.028,0.354,0.028c0.581,0,1.149-0.235,1.559-0.646l11.644-11.645c0.59-0.589,0.796-1.48,0.525-2.272L71.736,43.2
	z"/>
</svg>
