<?xml version="1.0" encoding="utf-8"?>
<!-- Generator: Adobe Illustrator 16.0.0, SVG Export Plug-In . SVG Version: 6.00 Build 0)  -->
<!DOCTYPE svg PUBLIC "-//W3C//DTD SVG 1.1//EN" "http://www.w3.org/Graphics/SVG/1.1/DTD/svg11.dtd">
<svg version="1.1" id="Layer_3" xmlns="http://www.w3.org/2000/svg" xmlns:xlink="http://www.w3.org/1999/xlink" x="0px" y="0px"
	 width="100px" height="100px" viewBox="0 0 100 100" enable-background="new 0 0 100 100" xml:space="preserve">
<path d="M87.447,61.379c-1.172-4.259-2.385-8.663-2.385-13.184c0-19.13-11.611-35.58-27.469-39.633
	c-0.378-3.856-3.64-6.88-7.593-6.88s-7.215,3.023-7.593,6.88c-15.858,4.053-27.469,20.503-27.469,39.633
	c0,4.521-1.212,8.925-2.385,13.184c-1.866,6.775-3.627,13.175,0.224,18.532c3.382,4.703,10.479,7.326,22.796,8.36
	c0,0,1.273,0.15,4.321,0.279c0.189,5.424,4.636,9.767,10.106,9.767c5.468,0,9.913-4.34,10.106-9.762
	c3.078-0.13,4.321-0.284,4.321-0.284c12.317-1.034,19.414-3.657,22.796-8.36C91.074,74.555,89.313,68.155,87.447,61.379z
	 M79.671,74.214c-2.095,2.914-8.766,4.703-19.826,5.317l-2.394,0.133l-0.002-0.005l-2.396,0.059
	c-1.601,0.04-3.277,0.061-5.053,0.061s-3.453-0.021-5.053-0.061l-2.396-0.059l-0.002,0.005l-2.394-0.133
	c-11.061-0.615-17.731-2.403-19.826-5.317c-1.74-2.42-0.551-6.739,0.826-11.74c1.172-4.256,2.5-9.081,2.5-14.278
	c0-15.883,9.907-29.35,23.044-31.325c0,0,1.613-0.243,3.302-0.243s3.302,0.243,3.302,0.243
	c13.137,1.976,23.044,15.442,23.044,31.325c0,5.197,1.328,10.022,2.5,14.278C80.223,67.475,81.412,71.793,79.671,74.214z"/>
</svg>
