<?xml version="1.0" encoding="utf-8"?>
<!-- Generator: Adobe Illustrator 16.0.0, SVG Export Plug-In . SVG Version: 6.00 Build 0)  -->
<!DOCTYPE svg PUBLIC "-//W3C//DTD SVG 1.1//EN" "http://www.w3.org/Graphics/SVG/1.1/DTD/svg11.dtd">
<svg version="1.1" id="Layer_3" xmlns="http://www.w3.org/2000/svg" xmlns:xlink="http://www.w3.org/1999/xlink" x="0px" y="0px"
	 width="100px" height="100px" viewBox="0 0 100 100" enable-background="new 0 0 100 100" xml:space="preserve">
<g>
	<rect x="7.049" y="36.392" width="10.984" height="43.273"/>
	<rect x="32.049" y="36.392" width="10.984" height="43.273"/>
	<rect x="57.049" y="36.392" width="10.984" height="43.273"/>
	<rect x="82.049" y="36.392" width="10.984" height="43.273"/>
	<path d="M97.5,21.403h-1.058v-0.178c0-0.834-0.518-1.581-1.299-1.873L50.701,2.723c-0.453-0.169-0.949-0.169-1.402,0L4.856,19.352
		c-0.781,0.292-1.299,1.039-1.299,1.873v0.178H2.5c-1.104,0-2,0.896-2,2v6.603c0,1.104,0.896,2,2,2h95c1.104,0,2-0.896,2-2v-6.603
		C99.5,22.299,98.604,21.403,97.5,21.403z"/>
	<path d="M97.5,84.403h-95c-1.104,0-2,0.896-2,2v9c0,1.104,0.896,2,2,2h95c1.104,0,2-0.896,2-2v-9
		C99.5,85.299,98.604,84.403,97.5,84.403z"/>
</g>
</svg>
