<?xml version="1.0" encoding="utf-8"?>
<!-- Generator: Adobe Illustrator 16.0.0, SVG Export Plug-In . SVG Version: 6.00 Build 0)  -->
<!DOCTYPE svg PUBLIC "-//W3C//DTD SVG 1.1//EN" "http://www.w3.org/Graphics/SVG/1.1/DTD/svg11.dtd">
<svg version="1.1" id="Layer_2" xmlns="http://www.w3.org/2000/svg" xmlns:xlink="http://www.w3.org/1999/xlink" x="0px" y="0px"
	 width="100px" height="100px" viewBox="0 0 100 100" enable-background="new 0 0 100 100" xml:space="preserve">
<g>
	<path d="M87.656,34.167H12.344c-1.104,0-2,0.896-2,2v57c0,1.104,0.896,2,2,2h75.313c1.104,0,2-0.896,2-2v-57
		C89.656,35.063,88.761,34.167,87.656,34.167z M62.834,55.5c0,0.829-0.672,1.5-1.5,1.5H38.666c-0.828,0-1.5-0.671-1.5-1.5V49
		c0-0.829,0.672-1.5,1.5-1.5h22.668c0.828,0,1.5,0.671,1.5,1.5V55.5z"/>
	<path d="M95,4.833H5c-1.104,0-2,0.896-2,2v19c0,1.104,0.896,2,2,2h90c1.104,0,2-0.896,2-2v-19C97,5.729,96.104,4.833,95,4.833z"/>
</g>
</svg>
