<?xml version="1.0" encoding="utf-8"?>
<!-- Generator: Adobe Illustrator 16.0.0, SVG Export Plug-In . SVG Version: 6.00 Build 0)  -->
<!DOCTYPE svg PUBLIC "-//W3C//DTD SVG 1.1//EN" "http://www.w3.org/Graphics/SVG/1.1/DTD/svg11.dtd">
<svg version="1.1" id="Layer_3" xmlns="http://www.w3.org/2000/svg" xmlns:xlink="http://www.w3.org/1999/xlink" x="0px" y="0px"
	 width="100px" height="100px" viewBox="0 0 100 100" enable-background="new 0 0 100 100" xml:space="preserve">
<path d="M51.563,97.802l14.01-17.563c0.479-0.601,0.573-1.423,0.239-2.115c-0.333-0.692-1.034-1.132-1.802-1.132h-4.631V23.008
	h4.631c0.768,0,1.469-0.44,1.802-1.132c0.333-0.693,0.24-1.514-0.239-2.115L51.563,2.198C51.184,1.722,50.608,1.445,50,1.445
	s-1.184,0.277-1.563,0.753L34.427,19.761c-0.479,0.601-0.572,1.421-0.238,2.115c0.333,0.692,1.034,1.132,1.802,1.132h4.632v53.984
	H35.99c-0.768,0-1.469,0.44-1.802,1.132c-0.334,0.692-0.241,1.514,0.238,2.115l14.009,17.563c0.379,0.476,0.955,0.753,1.563,0.753
	S51.184,98.278,51.563,97.802z"/>
</svg>
