<?xml version="1.0" encoding="utf-8"?>
<!-- Generator: Adobe Illustrator 16.0.0, SVG Export Plug-In . SVG Version: 6.00 Build 0)  -->
<!DOCTYPE svg PUBLIC "-//W3C//DTD SVG 1.1//EN" "http://www.w3.org/Graphics/SVG/1.1/DTD/svg11.dtd">
<svg version="1.1" id="Layer_2" xmlns="http://www.w3.org/2000/svg" xmlns:xlink="http://www.w3.org/1999/xlink" x="0px" y="0px"
	 width="100px" height="100px" viewBox="0 0 100 100" enable-background="new 0 0 100 100" xml:space="preserve">
<g>
	<path d="M98.159,10.942c-0.582-0.416-1.341-0.49-1.991-0.193l-10.848,4.935C75.084,6.293,61.819,1.121,47.97,1.121
		c-15.632,0-30.602,6.666-41.07,18.289c-0.359,0.399-0.543,0.926-0.51,1.461c0.033,0.536,0.28,1.036,0.686,1.388l11.301,9.801
		c0.818,0.711,2.055,0.639,2.787-0.162C28.03,24.386,37.8,20.077,47.97,20.077c6.135,0,12.229,1.584,17.622,4.583l-7.827,3.561
		c-0.65,0.296-1.094,0.916-1.163,1.627c-0.069,0.711,0.247,1.405,0.828,1.82l34.33,24.519c0.345,0.247,0.752,0.373,1.163,0.373
		c0.281,0,0.563-0.059,0.828-0.18c0.65-0.296,1.094-0.916,1.163-1.627l4.075-41.989C99.056,12.052,98.741,11.358,98.159,10.942z"/>
	<path d="M81.623,67.94c-0.82-0.71-2.055-0.639-2.787,0.162c-6.867,7.513-16.638,11.822-26.806,11.822
		c-6.135,0-12.229-1.584-17.622-4.583l7.827-3.561c0.65-0.296,1.094-0.916,1.163-1.627c0.069-0.711-0.247-1.405-0.828-1.82
		L8.241,43.814c-0.583-0.416-1.341-0.49-1.991-0.193c-0.65,0.296-1.094,0.916-1.163,1.627L1.013,87.237
		c-0.069,0.711,0.247,1.405,0.828,1.821c0.583,0.416,1.341,0.489,1.991,0.193l10.848-4.935
		c10.237,9.391,23.502,14.563,37.351,14.563c15.632,0,30.602-6.666,41.07-18.289c0.359-0.399,0.543-0.926,0.51-1.461
		c-0.033-0.536-0.28-1.036-0.686-1.388L81.623,67.94z"/>
</g>
</svg>
