<?xml version="1.0" encoding="utf-8"?>
<!-- Generator: Adobe Illustrator 16.0.0, SVG Export Plug-In . SVG Version: 6.00 Build 0)  -->
<!DOCTYPE svg PUBLIC "-//W3C//DTD SVG 1.1//EN" "http://www.w3.org/Graphics/SVG/1.1/DTD/svg11.dtd">
<svg version="1.1" id="Layer_1" xmlns="http://www.w3.org/2000/svg" xmlns:xlink="http://www.w3.org/1999/xlink" x="0px" y="0px"
	 width="100px" height="100px" viewBox="0 0 100 100" enable-background="new 0 0 100 100" xml:space="preserve">
<path d="M65.753,92.268V79.475c0-1.021-0.829-1.849-1.849-1.849H35.481v0.007h-1.333c-8.453,0-15.33-6.876-15.33-15.33
	c0-8.452,6.877-15.33,15.33-15.33l34.397-0.025L55.244,60.198c-0.687,0.687-0.687,1.902,0,2.588l8.267,8.267
	c0.343,0.343,0.81,0.536,1.294,0.536c0.485,0,0.951-0.193,1.294-0.536L97.119,40.03c0.717-0.715,0.717-1.873,0-2.589L66.099,6.42
	c-0.715-0.714-1.873-0.714-2.588,0l-8.267,8.265c-0.343,0.343-0.536,0.809-0.536,1.294s0.193,0.951,0.536,1.295l13.302,13.202
	l-34.397,0.023c-17.537,0-31.805,14.267-31.805,31.804s14.268,31.805,31.805,31.805l29.756,0.009
	C64.924,94.116,65.753,93.289,65.753,92.268z"/>
</svg>
