<?xml version="1.0" encoding="utf-8"?>
<!-- Generator: Adobe Illustrator 16.0.0, SVG Export Plug-In . SVG Version: 6.00 Build 0)  -->
<!DOCTYPE svg PUBLIC "-//W3C//DTD SVG 1.1//EN" "http://www.w3.org/Graphics/SVG/1.1/DTD/svg11.dtd">
<svg version="1.1" id="Layer_4" xmlns="http://www.w3.org/2000/svg" xmlns:xlink="http://www.w3.org/1999/xlink" x="0px" y="0px"
	 width="100px" height="100px" viewBox="0 0 100 100" enable-background="new 0 0 100 100" xml:space="preserve">
<path d="M95.397,45.651L55.7,22.727c-0.618-0.357-1.381-0.357-2,0c-0.619,0.357-1,1.018-1,1.732v9.599l-0.001,0
	c-0.279,0.036-28.08,3.903-47.527,30.506l-1.21,1.735c-0.538,0.772-0.465,1.814,0.174,2.504c0.64,0.688,1.674,0.841,2.484,0.361
	l1.813-1.071c0.346-0.206,1.097-0.63,1.141-0.656c10.484-6.259,20.815-9.433,30.706-9.433c7.402,0,11.848,1.86,12.418,2.108
	L52.7,70.305c0,0.714,0.381,1.375,1,1.732c0.31,0.179,0.655,0.268,1,0.268s0.691-0.089,1-0.268l39.697-22.922
	c0.619-0.357,1-1.018,1-1.732S96.016,46.008,95.397,45.651z"/>
</svg>
