<?xml version="1.0" encoding="utf-8"?>
<!-- Generator: Adobe Illustrator 16.0.0, SVG Export Plug-In . SVG Version: 6.00 Build 0)  -->
<!DOCTYPE svg PUBLIC "-//W3C//DTD SVG 1.1//EN" "http://www.w3.org/Graphics/SVG/1.1/DTD/svg11.dtd">
<svg version="1.1" id="Layer_1" xmlns="http://www.w3.org/2000/svg" xmlns:xlink="http://www.w3.org/1999/xlink" x="0px" y="0px"
	 width="100px" height="100px" viewBox="0 0 100 100" enable-background="new 0 0 100 100" xml:space="preserve">
<path d="M20.068,43.735c10.711-13.518,25.166-24.058,41.798-30.48l0.399-0.154l-1.27-7.174c-0.131-0.73,0.14-1.476,0.709-1.953
	c0.567-0.479,1.348-0.616,2.046-0.362l33.955,12.333c0.698,0.254,1.207,0.859,1.337,1.591c0.129,0.73-0.141,1.476-0.709,1.953
	L70.68,42.733c-0.567,0.477-1.348,0.617-2.046,0.362c-0.698-0.254-1.208-0.86-1.337-1.591l-1.182-6.674l-0.609,0.273
	C40.479,46.328,24.004,69.106,22.508,94.55c-0.064,1.099-0.973,1.956-2.073,1.957L3.004,96.515l0,0c-0.57,0-1.115-0.234-1.508-0.647
	c-0.394-0.414-0.599-0.97-0.568-1.54C1.889,76.066,8.685,58.099,20.068,43.735z"/>
</svg>
