<?xml version="1.0" encoding="utf-8"?>
<!-- Generator: Adobe Illustrator 16.0.0, SVG Export Plug-In . SVG Version: 6.00 Build 0)  -->
<!DOCTYPE svg PUBLIC "-//W3C//DTD SVG 1.1//EN" "http://www.w3.org/Graphics/SVG/1.1/DTD/svg11.dtd">
<svg version="1.1" id="Layer_3" xmlns="http://www.w3.org/2000/svg" xmlns:xlink="http://www.w3.org/1999/xlink" x="0px" y="0px"
	 width="100px" height="100px" viewBox="0 0 100 100" enable-background="new 0 0 100 100" xml:space="preserve">
<path d="M83.801,18.506L67.532,2.236c-0.469-0.469-1.104-0.732-1.768-0.732H17.967c-1.381,0-2.5,1.119-2.5,2.5v91.992
	c0,1.381,1.119,2.5,2.5,2.5h64.066c1.381,0,2.5-1.119,2.5-2.5V20.273C84.533,19.609,84.27,18.975,83.801,18.506z M50.138,63.713
	c0,0.775-0.448,1.48-1.149,1.81c-0.271,0.128-0.562,0.19-0.851,0.19c-0.457,0-0.91-0.157-1.276-0.46l-10.933-9.06h-5.823
	c-1.104,0-2-0.896-2-2v-7.969c0-1.104,0.896-2,2-2h5.823l10.933-9.06c0.598-0.495,1.426-0.601,2.127-0.27
	c0.701,0.329,1.149,1.034,1.149,1.81V63.713z M57.823,60.588c-0.048,0.003-0.096,0.005-0.144,0.005
	c-0.528,0-1.038-0.209-1.414-0.586l-0.269-0.269c-0.701-0.7-0.783-1.81-0.192-2.605c1.497-2.019,2.288-4.413,2.288-6.924
	c0-2.701-0.898-5.234-2.597-7.326c-0.646-0.795-0.587-1.95,0.138-2.675l0.268-0.268c0.399-0.399,0.935-0.617,1.515-0.583
	c0.564,0.028,1.091,0.294,1.448,0.731c2.355,2.883,3.601,6.383,3.601,10.12c0,3.48-1.101,6.794-3.183,9.581
	C58.935,60.255,58.402,60.546,57.823,60.588z M66.092,66.768c-0.361,0.428-0.885,0.685-1.444,0.708
	c-0.027,0.001-0.056,0.002-0.084,0.002c-0.529,0-1.038-0.21-1.414-0.586l-0.263-0.263c-0.734-0.733-0.784-1.907-0.116-2.701
	c3.226-3.836,5.002-8.708,5.002-13.719c0-5.212-1.901-10.229-5.354-14.128c-0.7-0.791-0.665-1.989,0.08-2.737l0.262-0.263
	c0.39-0.391,0.895-0.606,1.475-0.588c0.551,0.016,1.071,0.259,1.438,0.671c4.174,4.699,6.473,10.753,6.473,17.045
	C72.145,56.263,69.995,62.144,66.092,66.768z M63.555,23.846c-0.337,0-0.659-0.133-0.897-0.371
	c-0.237-0.238-0.372-0.561-0.372-0.897l0.002-15.126l16.395,16.395H63.555z"/>
</svg>
