<?xml version="1.0" encoding="utf-8"?>
<!-- Generator: Adobe Illustrator 16.0.0, SVG Export Plug-In . SVG Version: 6.00 Build 0)  -->
<!DOCTYPE svg PUBLIC "-//W3C//DTD SVG 1.1//EN" "http://www.w3.org/Graphics/SVG/1.1/DTD/svg11.dtd">
<svg version="1.1" id="Layer_1" xmlns="http://www.w3.org/2000/svg" xmlns:xlink="http://www.w3.org/1999/xlink" x="0px" y="0px"
	 width="100px" height="100px" viewBox="0 0 100 100" enable-background="new 0 0 100 100" xml:space="preserve">
<g>
	<path d="M84.938,43.024c-0.158,0.604-0.626,1.08-1.229,1.246c-0.153,0.041-0.309,0.062-0.464,0.062
		c-0.454,0-0.897-0.177-1.229-0.504L70.867,32.83c-0.445-0.439-0.622-1.083-0.464-1.688c0.158-0.605,0.626-1.08,1.229-1.246
		l1.561-0.429c-4.002-4.794-10.006-7.688-16.308-7.806c-0.954-0.018-1.717-0.797-1.717-1.75v-6.956c0-0.468,0.188-0.916,0.521-1.245
		s0.798-0.48,1.252-0.504c11.135,0.152,21.165,5.863,26.967,15.313l2.826-0.777c0.603-0.165,1.248,0.004,1.693,0.441
		c0.445,0.439,0.622,1.083,0.464,1.688L84.938,43.024z"/>
	<path d="M0.772,2.667v73.701c0,1.104,0.896,2,2,2h18.754l-0.001,18.681c-0.013,0.093-0.02,0.188-0.02,0.284c0,1.104,0.896,2,2,2
		c0.006,0,0.013,0,0.02,0h73.703c1.104,0,2-0.896,2-2v-46.56c0-1.104-0.896-2-2-2H51.333V2.667c0-1.104-0.896-2-2-2H2.772
		C1.668,0.667,0.772,1.563,0.772,2.667z M30.463,90.396V57.71h59.827v32.686H30.463z M21.526,50.773v18.657H9.709V9.604h32.686
		v39.169H23.526C22.422,48.773,21.526,49.669,21.526,50.773z"/>
</g>
</svg>
