<?xml version="1.0" encoding="utf-8"?>
<!-- Generator: Adobe Illustrator 16.0.0, SVG Export Plug-In . SVG Version: 6.00 Build 0)  -->
<!DOCTYPE svg PUBLIC "-//W3C//DTD SVG 1.1//EN" "http://www.w3.org/Graphics/SVG/1.1/DTD/svg11.dtd">
<svg version="1.1" id="Layer_1" xmlns="http://www.w3.org/2000/svg" xmlns:xlink="http://www.w3.org/1999/xlink" x="0px" y="0px"
	 width="100px" height="100px" viewBox="0 0 100 100" enable-background="new 0 0 100 100" xml:space="preserve">
<path d="M50,2.953C24.017,2.953,2.953,24.017,2.953,50S24.017,97.047,50,97.047S97.047,75.983,97.047,50S75.983,2.953,50,2.953z
	 M64.023,74.727c0,0.946-0.534,1.812-1.381,2.235c-0.354,0.177-0.737,0.265-1.119,0.265c-0.53,0-1.057-0.168-1.498-0.499
	L26.979,52.001c-0.631-0.472-1.002-1.213-1.002-2.001s0.371-1.53,1.002-2.001l33.047-24.727c0.759-0.568,1.771-0.657,2.617-0.234
	c0.847,0.424,1.381,1.289,1.381,2.235V74.727z"/>
</svg>
