<?xml version="1.0" encoding="utf-8"?>
<!-- Generator: Adobe Illustrator 16.0.0, SVG Export Plug-In . SVG Version: 6.00 Build 0)  -->
<!DOCTYPE svg PUBLIC "-//W3C//DTD SVG 1.1//EN" "http://www.w3.org/Graphics/SVG/1.1/DTD/svg11.dtd">
<svg version="1.1" id="Layer_4" xmlns="http://www.w3.org/2000/svg" xmlns:xlink="http://www.w3.org/1999/xlink" x="0px" y="0px"
	 width="100px" height="100px" viewBox="0 0 100 100" enable-background="new 0 0 100 100" xml:space="preserve">
<g>
	<path d="M2.451,4.588v90.824c0,1.178,0.959,2.137,2.137,2.137h90.824c1.178,0,2.137-0.959,2.137-2.137V4.588
		c0-1.178-0.959-2.137-2.137-2.137H4.588C3.41,2.451,2.451,3.41,2.451,4.588z M88.551,11.449v77.102H11.449V11.449H88.551z"/>
	<path d="M67.936,76.414v-52.83c0-0.445-0.333-0.846-0.852-1.015c-0.514-0.171-1.105-0.077-1.5,0.237L32.469,49.223
		c-0.269,0.215-0.404,0.496-0.404,0.776s0.136,0.562,0.404,0.777l33.115,26.415c0.395,0.314,0.986,0.41,1.5,0.238
		C67.603,77.26,67.936,76.859,67.936,76.414z"/>
</g>
</svg>
