<?xml version="1.0" encoding="utf-8"?>
<!-- Generator: Adobe Illustrator 16.0.0, SVG Export Plug-In . SVG Version: 6.00 Build 0)  -->
<!DOCTYPE svg PUBLIC "-//W3C//DTD SVG 1.1//EN" "http://www.w3.org/Graphics/SVG/1.1/DTD/svg11.dtd">
<svg version="1.1" id="Layer_3" xmlns="http://www.w3.org/2000/svg" xmlns:xlink="http://www.w3.org/1999/xlink" x="0px" y="0px"
	 width="100px" height="100px" viewBox="0 0 100 100" enable-background="new 0 0 100 100" xml:space="preserve">
<g>
	<path d="M11.167,15.882H5.333c-0.552,0-1,0.448-1,1v66.236c0,0.552,0.448,1,1,1h5.834c0.552,0,1-0.448,1-1V16.882
		C12.167,16.33,11.719,15.882,11.167,15.882z"/>
	<path d="M66.376,15.882h-4.168c-0.552,0-1,0.448-1,1v66.236c0,0.552,0.448,1,1,1h4.168c0.552,0,1-0.448,1-1V16.882
		C67.376,16.33,66.928,15.882,66.376,15.882z"/>
	<path d="M21.333,15.882h-4c-0.552,0-1,0.448-1,1v66.236c0,0.552,0.448,1,1,1h4c0.552,0,1-0.448,1-1V16.882
		C22.333,16.33,21.885,15.882,21.333,15.882z"/>
	<path d="M94.667,15.882h-4c-0.552,0-1,0.448-1,1v66.236c0,0.552,0.448,1,1,1h4c0.552,0,1-0.448,1-1V16.882
		C95.667,16.33,95.219,15.882,94.667,15.882z"/>
	<path d="M85.5,15.882h-2.724c-0.552,0-1,0.448-1,1v66.236c0,0.552,0.448,1,1,1H85.5c0.552,0,1-0.448,1-1V16.882
		C86.5,16.33,86.052,15.882,85.5,15.882z"/>
	<path d="M56.208,15.882h-4c-0.552,0-1,0.448-1,1v66.236c0,0.552,0.448,1,1,1h4c0.552,0,1-0.448,1-1V16.882
		C57.208,16.33,56.76,15.882,56.208,15.882z"/>
	<path d="M46.5,15.882H44c-0.552,0-1,0.448-1,1v66.236c0,0.552,0.448,1,1,1h2.5c0.552,0,1-0.448,1-1V16.882
		C47.5,16.33,47.052,15.882,46.5,15.882z"/>
	<path d="M77.856,15.882h-1.543c-0.552,0-1,0.448-1,1v66.236c0,0.552,0.448,1,1,1h1.543c0.552,0,1-0.448,1-1V16.882
		C78.856,16.33,78.409,15.882,77.856,15.882z"/>
	<path d="M38,15.882h-4c-0.552,0-1,0.448-1,1v66.236c0,0.552,0.448,1,1,1h4c0.552,0,1-0.448,1-1V16.882
		C39,16.33,38.552,15.882,38,15.882z"/>
	<path d="M28,15.882h-1c-0.552,0-1,0.448-1,1v66.236c0,0.552,0.448,1,1,1h1c0.552,0,1-0.448,1-1V16.882
		C29,16.33,28.552,15.882,28,15.882z"/>
	<path d="M71.559,15.882h-0.362c-0.552,0-1,0.448-1,1v66.236c0,0.552,0.448,1,1,1h0.362c0.552,0,1-0.448,1-1V16.882
		C72.559,16.33,72.111,15.882,71.559,15.882z"/>
</g>
</svg>
