<?xml version="1.0" encoding="utf-8"?>
<!-- Generator: Adobe Illustrator 16.0.0, SVG Export Plug-In . SVG Version: 6.00 Build 0)  -->
<!DOCTYPE svg PUBLIC "-//W3C//DTD SVG 1.1//EN" "http://www.w3.org/Graphics/SVG/1.1/DTD/svg11.dtd">
<svg version="1.1" id="Layer_1" xmlns="http://www.w3.org/2000/svg" xmlns:xlink="http://www.w3.org/1999/xlink" x="0px" y="0px"
	 width="100px" height="100px" viewBox="0 0 100 100" enable-background="new 0 0 100 100" xml:space="preserve">
<path d="M73.361,48.337L73.361,48.337c8.132-3.628,12.61-10.272,12.61-18.709c0-18.142-11.399-28.133-32.098-28.133H13.118
	c-1.104,0-2,0.896-2,2v93.01c0,1.104,0.896,2,2,2h40.756c23.557,0,35.008-9.339,35.008-28.549
	C88.882,64.447,85.088,51.914,73.361,48.337z M53.874,81.458h-24.74V56.514h24.74c8.171,0,16.854,4.435,16.854,12.653
	C70.729,77.657,62.264,81.458,53.874,81.458z M53.874,40.438h-24.74V18.126h24.74c12.937,0,13.942,9.122,13.942,11.918
	C67.816,34.884,66.231,40.438,53.874,40.438z"/>
</svg>
