<?xml version="1.0" encoding="utf-8"?>
<!-- Generator: Adobe Illustrator 16.0.0, SVG Export Plug-In . SVG Version: 6.00 Build 0)  -->
<!DOCTYPE svg PUBLIC "-//W3C//DTD SVG 1.1//EN" "http://www.w3.org/Graphics/SVG/1.1/DTD/svg11.dtd">
<svg version="1.1" id="Layer_3" xmlns="http://www.w3.org/2000/svg" xmlns:xlink="http://www.w3.org/1999/xlink" x="0px" y="0px"
	 width="100px" height="100px" viewBox="0 0 100 100" enable-background="new 0 0 100 100" xml:space="preserve">
<path d="M98.426,28.431L97.158,21.5c-0.174-0.951-1.002-1.641-1.967-1.641c-0.004,0-0.006,0-0.01,0
	c-0.969,0.004-1.795,0.703-1.961,1.658L81.813,87.238L23.678,87.24c-1.393,0-2.682-0.576-3.633-1.622
	c-1.09-1.201-1.697-2.992-1.551-4.526c0.426-3.7,3.1-6.385,6.354-6.385h48.516c0.975,0,1.809-0.704,1.971-1.667L86.693,5.892
	c0.098-0.581-0.064-1.175-0.445-1.625c-0.379-0.45-0.938-0.709-1.527-0.709H36.244c-11.059,0-21.855,8.994-24.068,20.042
	L1.818,74.318c-0.932,5.937,0.514,11.52,4.072,15.721c3.494,4.125,8.617,6.397,14.426,6.397l0.926-0.003
	c0.018,0,0.035,0.001,0.055,0.001c3.094,0.003,62.264,0.007,62.881,0.007c2.24,0,4.148-1.604,4.543-3.858l9.713-63.491
	C98.469,28.873,98.465,28.649,98.426,28.431z"/>
</svg>
