<?xml version="1.0" encoding="utf-8"?>
<!-- Generator: Adobe Illustrator 16.0.0, SVG Export Plug-In . SVG Version: 6.00 Build 0)  -->
<!DOCTYPE svg PUBLIC "-//W3C//DTD SVG 1.1//EN" "http://www.w3.org/Graphics/SVG/1.1/DTD/svg11.dtd">
<svg version="1.1" id="Layer_3" xmlns="http://www.w3.org/2000/svg" xmlns:xlink="http://www.w3.org/1999/xlink" x="0px" y="0px"
	 width="100px" height="100px" viewBox="0 0 100 100" enable-background="new 0 0 100 100" xml:space="preserve">
<path d="M95.72,92.68L65.448,33.734v-19.23h1.713c1.403,0,2.542-1.139,2.542-2.541V5.066c0-1.404-1.139-2.543-2.542-2.543H32.839
	c-1.403,0-2.542,1.139-2.542,2.543v6.896c0,1.402,1.139,2.541,2.542,2.541h1.713v19.229L4.28,92.68
	c-0.521,1.014-0.477,2.248,0.118,3.221c0.594,0.973,1.67,1.576,2.81,1.576h85.584c1.14,0,2.216-0.604,2.81-1.576
	C96.196,94.928,96.241,93.693,95.72,92.68z M26.057,64.689l14.715-28.656c0.238-0.463,0.364-0.982,0.364-1.504V14.504h17.729v20.027
	c0,0.52,0.126,1.039,0.364,1.504l14.717,28.658L26.057,64.689z"/>
</svg>
