<?xml version="1.0" encoding="utf-8"?>
<!-- Generator: Adobe Illustrator 16.0.0, SVG Export Plug-In . SVG Version: 6.00 Build 0)  -->
<!DOCTYPE svg PUBLIC "-//W3C//DTD SVG 1.1//EN" "http://www.w3.org/Graphics/SVG/1.1/DTD/svg11.dtd">
<svg version="1.1" id="Layer_3" xmlns="http://www.w3.org/2000/svg" xmlns:xlink="http://www.w3.org/1999/xlink" x="0px" y="0px"
	 width="100px" height="100px" viewBox="0 0 100 100" enable-background="new 0 0 100 100" xml:space="preserve">
<path d="M83.042,4.086H16.958c-1.104,0-2,0.896-2,2v87.828c0,1.104,0.896,2,2,2h19.375c1.104,0,2-0.896,2-2V78h23.333v15.914
	c0,1.104,0.896,2,2,2h19.375c1.104,0,2-0.896,2-2V6.086C85.042,4.981,84.146,4.086,83.042,4.086z M37.083,63.083
	c0,0.829-0.671,1.5-1.5,1.5h-8.917c-0.829,0-1.5-0.671-1.5-1.5v-8.917c0-0.829,0.671-1.5,1.5-1.5h8.917c0.829,0,1.5,0.671,1.5,1.5
	V63.083z M37.083,44.208c0,0.829-0.671,1.5-1.5,1.5h-8.917c-0.829,0-1.5-0.671-1.5-1.5v-8.917c0-0.829,0.671-1.5,1.5-1.5h8.917
	c0.829,0,1.5,0.671,1.5,1.5V44.208z M37.083,25.333c0,0.829-0.671,1.5-1.5,1.5h-8.917c-0.829,0-1.5-0.671-1.5-1.5v-8.917
	c0-0.829,0.671-1.5,1.5-1.5h8.917c0.829,0,1.5,0.671,1.5,1.5V25.333z M55.958,63.083c0,0.829-0.671,1.5-1.5,1.5h-8.917
	c-0.829,0-1.5-0.671-1.5-1.5v-8.917c0-0.829,0.671-1.5,1.5-1.5h8.917c0.829,0,1.5,0.671,1.5,1.5V63.083z M55.958,44.208
	c0,0.829-0.671,1.5-1.5,1.5h-8.917c-0.829,0-1.5-0.671-1.5-1.5v-8.917c0-0.829,0.671-1.5,1.5-1.5h8.917c0.829,0,1.5,0.671,1.5,1.5
	V44.208z M55.958,25.333c0,0.829-0.671,1.5-1.5,1.5h-8.917c-0.829,0-1.5-0.671-1.5-1.5v-8.917c0-0.829,0.671-1.5,1.5-1.5h8.917
	c0.829,0,1.5,0.671,1.5,1.5V25.333z M74.833,63.083c0,0.829-0.671,1.5-1.5,1.5h-8.917c-0.829,0-1.5-0.671-1.5-1.5v-8.917
	c0-0.829,0.671-1.5,1.5-1.5h8.917c0.829,0,1.5,0.671,1.5,1.5V63.083z M74.833,44.208c0,0.829-0.671,1.5-1.5,1.5h-8.917
	c-0.829,0-1.5-0.671-1.5-1.5v-8.917c0-0.829,0.671-1.5,1.5-1.5h8.917c0.829,0,1.5,0.671,1.5,1.5V44.208z M74.833,25.333
	c0,0.829-0.671,1.5-1.5,1.5h-8.917c-0.829,0-1.5-0.671-1.5-1.5v-8.917c0-0.829,0.671-1.5,1.5-1.5h8.917c0.829,0,1.5,0.671,1.5,1.5
	V25.333z"/>
</svg>
