<?xml version="1.0" encoding="utf-8"?>
<!-- Generator: Adobe Illustrator 16.0.0, SVG Export Plug-In . SVG Version: 6.00 Build 0)  -->
<!DOCTYPE svg PUBLIC "-//W3C//DTD SVG 1.1//EN" "http://www.w3.org/Graphics/SVG/1.1/DTD/svg11.dtd">
<svg version="1.1" id="Layer_2" xmlns="http://www.w3.org/2000/svg" xmlns:xlink="http://www.w3.org/1999/xlink" x="0px" y="0px"
	 width="100px" height="100px" viewBox="0 0 100 100" enable-background="new 0 0 100 100" xml:space="preserve">
<path d="M90.769,20.174c-3.019,0-5.591,1.924-6.573,4.607l-13.799,1.777c-1.286-1.54-3.218-2.522-5.376-2.522
	c-3.862,0-7.006,3.144-7.006,7.006c0,1.562,0.521,3.001,1.389,4.168L49.211,58.138c-0.655,0.073-1.283,0.238-1.872,0.48
	l-8.328-8.042c0.117-0.507,0.185-1.031,0.185-1.573c0-3.862-3.144-7.005-7.006-7.005s-7.005,3.143-7.005,7.005
	c0,0.712,0.108,1.399,0.307,2.048L11.184,66.097c-0.621-0.181-1.274-0.282-1.952-0.282c-3.862,0-7.006,3.144-7.006,7.006
	s3.144,7.006,7.006,7.006s7.005-3.144,7.005-7.006c0-0.801-0.142-1.568-0.391-2.285l14.152-14.883
	c0.69,0.229,1.426,0.356,2.191,0.356c0.934,0,1.824-0.188,2.64-0.521l8.344,8.057c-0.113,0.5-0.179,1.018-0.179,1.551
	c0,3.862,3.144,7.006,7.006,7.006s7.006-3.144,7.006-7.006c0-1.784-0.676-3.409-1.778-4.647l9.962-22.41
	c3.154-0.076,5.792-2.243,6.585-5.167l13.241-1.705c1.267,1.821,3.371,3.019,5.753,3.019c3.862,0,7.006-3.143,7.006-7.005
	S94.631,20.174,90.769,20.174z"/>
</svg>
