<?xml version="1.0" encoding="utf-8"?>
<!-- Generator: Adobe Illustrator 16.0.0, SVG Export Plug-In . SVG Version: 6.00 Build 0)  -->
<!DOCTYPE svg PUBLIC "-//W3C//DTD SVG 1.1//EN" "http://www.w3.org/Graphics/SVG/1.1/DTD/svg11.dtd">
<svg version="1.1" id="Layer_3" xmlns="http://www.w3.org/2000/svg" xmlns:xlink="http://www.w3.org/1999/xlink" x="0px" y="0px"
	 width="100px" height="100px" viewBox="0 0 100 100" enable-background="new 0 0 100 100" xml:space="preserve">
<g>
	<path d="M25.5,37.5H4.5c-1.104,0-2,0.896-2,2v21c0,1.104,0.896,2,2,2H25.5c1.104,0,2-0.896,2-2v-21
		C27.5,38.396,26.605,37.5,25.5,37.5z"/>
	<path d="M60.5,37.5H39.5c-1.104,0-2,0.896-2,2v21c0,1.104,0.896,2,2,2H60.5c1.104,0,2-0.896,2-2v-21
		C62.5,38.396,61.605,37.5,60.5,37.5z"/>
	<path d="M95.5,37.5H74.5c-1.104,0-2,0.896-2,2v21c0,1.104,0.896,2,2,2H95.5c1.104,0,2-0.896,2-2v-21
		C97.5,38.396,96.605,37.5,95.5,37.5z"/>
</g>
</svg>
