<?xml version="1.0" encoding="utf-8"?>
<!-- Generator: Adobe Illustrator 16.0.0, SVG Export Plug-In . SVG Version: 6.00 Build 0)  -->
<!DOCTYPE svg PUBLIC "-//W3C//DTD SVG 1.1//EN" "http://www.w3.org/Graphics/SVG/1.1/DTD/svg11.dtd">
<svg version="1.1" id="Layer_2" xmlns="http://www.w3.org/2000/svg" xmlns:xlink="http://www.w3.org/1999/xlink" x="0px" y="0px"
	 width="100px" height="100px" viewBox="0 0 100 100" enable-background="new 0 0 100 100" xml:space="preserve">
<g>
	<path d="M23.917,52.458c-0.135,0.485-0.576,0.821-1.08,0.821h-7.239c-0.355,0-0.689-0.169-0.901-0.455
		c-0.211-0.285-0.274-0.654-0.171-0.994l11.844-38.748c0.144-0.472,0.579-0.793,1.071-0.793h10.507c0.491,0,0.926,0.319,1.071,0.788
		l5.28,17.026h19.62V3.144c0-0.826-0.669-1.495-1.494-1.495H3.144c-0.825,0-1.495,0.669-1.495,1.495v59.281
		c0,0.825,0.67,1.494,1.495,1.494h26.968V42.758h-3.5L23.917,52.458z"/>
	<path d="M32.678,20.396l-0.293-1.174h-0.118c-0.244,0.979-0.489,2.063-0.738,3.167c-0.369,1.637-0.749,3.321-1.149,4.741
		l-2.43,8.696h2.162v-4.229c0-0.825,0.669-1.494,1.494-1.494h3.725l-0.876-2.981C33.841,25.074,33.223,22.589,32.678,20.396z"/>
	<path d="M96.856,36.081H37.575c-0.825,0-1.494,0.669-1.494,1.494v59.281c0,0.826,0.669,1.495,1.494,1.495h59.281
		c0.825,0,1.495-0.669,1.495-1.495V37.575C98.352,36.75,97.682,36.081,96.856,36.081z M85.219,63.186
		c0,0.62-0.502,1.121-1.121,1.121l-5.235,0.002c-0.478,3.471-1.71,6.713-3.663,9.64c2.446,1.496,4.813,2.356,7.035,2.56
		c0.578,0.053,1.02,0.536,1.02,1.116v8.992c0,0.308-0.126,0.602-0.35,0.813c-0.208,0.198-0.484,0.308-0.771,0.308
		c-0.021,0-0.04,0-0.06-0.002c-6.348-0.337-11.713-3.329-15.096-5.779c-3.691,2.458-8.235,4.447-12.467,5.456
		c-0.293,0.071-0.606,0.018-0.864-0.146c-0.257-0.165-0.435-0.426-0.494-0.726l-1.763-8.819c-0.116-0.581,0.239-1.15,0.811-1.303
		c3.018-0.805,13.033-4.058,15.239-12.109v-0.002H50.334c-0.618,0-1.121-0.501-1.121-1.121v-8.97c0-0.619,0.503-1.121,1.121-1.121
		H61.61v-5.308c0-0.619,0.502-1.121,1.121-1.121h8.97c0.619,0,1.121,0.502,1.121,1.121v5.308h11.275
		c0.619,0,1.121,0.502,1.121,1.121V63.186z"/>
</g>
</svg>
