<?xml version="1.0" encoding="utf-8"?>
<!-- Generator: Adobe Illustrator 16.0.0, SVG Export Plug-In . SVG Version: 6.00 Build 0)  -->
<!DOCTYPE svg PUBLIC "-//W3C//DTD SVG 1.1//EN" "http://www.w3.org/Graphics/SVG/1.1/DTD/svg11.dtd">
<svg version="1.1" id="Layer_4" xmlns="http://www.w3.org/2000/svg" xmlns:xlink="http://www.w3.org/1999/xlink" x="0px" y="0px"
	 width="100px" height="100px" viewBox="0 0 100 100" enable-background="new 0 0 100 100" xml:space="preserve">
<g>
	<g>
		<path d="M71.293,28.412c1.399,1.175,3.174,1.821,4.996,1.821c2.312,0,4.489-1.014,5.974-2.782c2.76-3.289,2.329-8.211-0.96-10.973
			c-1.4-1.175-3.176-1.822-5-1.822c-2.311,0-4.487,1.014-5.971,2.782C67.572,20.728,68.003,25.649,71.293,28.412z"/>
		<path d="M89.675,37.326c-0.483,0-0.971,0.043-1.448,0.127c-4.486,0.791-7.493,5.086-6.702,9.573
			c0.696,3.955,4.111,6.825,8.119,6.825c0.482,0,0.971-0.043,1.451-0.126c4.485-0.792,7.492-5.086,6.701-9.571
			C97.098,40.198,93.682,37.326,89.675,37.326z"/>
		<path d="M89.388,64.344c-1.328-0.768-2.834-1.173-4.355-1.173c-3.118,0-6.022,1.675-7.579,4.372
			c-1.165,2.018-1.476,4.37-0.872,6.625c0.605,2.254,2.052,4.138,4.07,5.303c1.329,0.768,2.835,1.174,4.357,1.174
			c3.116,0,6.02-1.674,7.576-4.369C94.991,72.104,93.557,66.751,89.388,64.344z"/>
		<path d="M64.546,79.876c-1.07,0-2.13,0.188-3.15,0.558c-2.31,0.841-4.154,2.532-5.194,4.761c-1.039,2.229-1.148,4.729-0.307,7.04
			c1.32,3.626,4.798,6.063,8.654,6.063c1.07,0,2.13-0.188,3.148-0.558c2.307-0.841,4.15-2.532,5.191-4.764
			c1.04-2.231,1.15-4.73,0.311-7.037C71.881,82.313,68.403,79.876,64.546,79.876z"/>
		<path d="M41.133,79.987c-1.074-0.39-2.188-0.588-3.31-0.588c-4.054,0-7.71,2.562-9.097,6.375c-0.886,2.431-0.771,5.06,0.322,7.403
			c1.092,2.344,3.031,4.121,5.462,5.006c1.072,0.39,2.187,0.587,3.312,0.587c4.056,0,7.711-2.561,9.097-6.372
			c0.884-2.426,0.768-5.054-0.326-7.401C45.498,82.65,43.56,80.871,41.133,79.987z"/>
		<path d="M26.146,66.829c-1.81-3.132-5.183-5.078-8.805-5.078c-1.771,0-3.522,0.472-5.067,1.362
			c-2.35,1.357-4.03,3.548-4.731,6.166c-0.703,2.62-0.343,5.357,1.014,7.706c1.81,3.134,5.184,5.08,8.806,5.08
			c1.77,0,3.521-0.471,5.065-1.362C27.276,77.904,28.944,71.68,26.146,66.829z"/>
		<path d="M12.725,56.221c5.158,0,9.555-3.695,10.453-8.786c0.492-2.797-0.133-5.617-1.762-7.94
			c-1.627-2.326-4.063-3.878-6.861-4.372c-0.62-0.108-1.247-0.163-1.86-0.163c-5.158,0-9.555,3.694-10.453,8.785
			c-0.492,2.795,0.133,5.615,1.762,7.941c1.628,2.325,4.065,3.878,6.861,4.371C11.482,56.165,12.108,56.221,12.725,56.221z"/>
		<path d="M26.079,33.549c2.599,0,5.131-0.923,7.13-2.598c2.268-1.903,3.659-4.58,3.918-7.538s-0.647-5.836-2.551-8.104
			c-2.114-2.52-5.217-3.965-8.511-3.965c-2.603,0-5.135,0.922-7.131,2.597c-2.271,1.906-3.665,4.583-3.923,7.537
			c-0.259,2.952,0.648,5.831,2.555,8.104C19.683,32.103,22.785,33.549,26.079,33.549z"/>
	</g>
	<circle cx="51.185" cy="13.306" r="12.076"/>
</g>
</svg>
