<?xml version="1.0" encoding="utf-8"?>
<!-- Generator: Adobe Illustrator 16.0.0, SVG Export Plug-In . SVG Version: 6.00 Build 0)  -->
<!DOCTYPE svg PUBLIC "-//W3C//DTD SVG 1.1//EN" "http://www.w3.org/Graphics/SVG/1.1/DTD/svg11.dtd">
<svg version="1.1" id="Layer_1" xmlns="http://www.w3.org/2000/svg" xmlns:xlink="http://www.w3.org/1999/xlink" x="0px" y="0px"
	 width="100px" height="100px" viewBox="0 0 100 100" enable-background="new 0 0 100 100" xml:space="preserve">
<path d="M50,1.869C23.46,1.869,1.869,23.46,1.869,50S23.46,98.131,50,98.131S98.131,76.54,98.131,50S76.54,1.869,50,1.869z
	 M82.861,34.654c-2.414,4.063-10.228,5.382-23.574,7.22c-3.625,0.499-6.949,1.961-8.478,4.647c-0.727,1.277-0.755,2.554-0.088,4.015
	c1.908,4.178,6.298,7.169,10.543,10.062c1.375,0.937,2.668,1.817,3.917,2.762c4.23,3.198,11.26,10.823,7.588,16.798
	c-2.585,4.206-12.253,9.945-23.025,9.633c-17.41-0.505-33.853-12.125-37.026-29.818c0,0-0.64-3.62,2.73-3.324
	c3.834,0.336,10.058,4.142,14.603,6.867c11.09,6.65,13.122,4.314,13.534,3.488c1.462-2.932,0.195-6.8-1.073-9.842
	c-0.489-1.175-1.123-2.361-1.793-3.62c-1.954-3.664-4.168-7.817-3.203-12.813c0.798-4.129,4.344-6.122,7.192-7.725
	c1.244-0.698,2.417-1.358,3.163-2.059c1.741-1.636,2.682-3.978,2.777-6.774c0.185-5.462-4.294-9.612-3.522-12.186
	c0.717-2.391,5.283-1.776,5.364-1.771c13.368,0.926,24.859,8.179,29.993,18.93C82.499,29.176,84.096,32.573,82.861,34.654z"/>
</svg>
