<?xml version="1.0" encoding="utf-8"?>
<!-- Generator: Adobe Illustrator 16.0.0, SVG Export Plug-In . SVG Version: 6.00 Build 0)  -->
<!DOCTYPE svg PUBLIC "-//W3C//DTD SVG 1.1//EN" "http://www.w3.org/Graphics/SVG/1.1/DTD/svg11.dtd">
<svg version="1.1" id="Layer_3" xmlns="http://www.w3.org/2000/svg" xmlns:xlink="http://www.w3.org/1999/xlink" x="0px" y="0px"
	 width="100px" height="100px" viewBox="0 0 100 100" enable-background="new 0 0 100 100" xml:space="preserve">
<path fill="#231F20" d="M85.344,51.513l-3.127-3.128L44.008,10.177c-7.57-7.57-19.888-7.57-27.458,0
	c-7.329,7.329-7.542,19.093-0.685,26.704c0.106,0.135,0.201,0.274,0.324,0.396l32.546,32.547c5.155,5.153,13.541,5.154,18.695,0
	c5.156-5.156,5.156-13.543,0.003-18.697l-18.63-18.629c-1.8-1.801-4.721-1.8-6.521,0c-1.801,1.8-1.802,4.719,0,6.521l18.629,18.629
	c1.56,1.56,1.56,4.097-0.001,5.656c-1.56,1.56-4.097,1.56-5.656,0L23.068,31.117c-3.976-3.976-3.975-10.444,0-14.421
	c3.977-3.975,10.444-3.975,14.42,0l38.208,38.209l3.128,3.127c6.455,6.455,6.455,16.957,0,23.411c-6.453,6.454-16.955,6.454-23.41,0
	L14.988,41.018c-1.8-1.8-4.719-1.801-6.52,0c-1.801,1.8-1.8,4.72,0,6.52l40.426,40.425c10.05,10.05,26.401,10.052,36.451,0.003
	C95.395,77.915,95.394,61.563,85.344,51.513z"/>
</svg>
