<?xml version="1.0" encoding="utf-8"?>
<!-- Generator: Adobe Illustrator 16.0.0, SVG Export Plug-In . SVG Version: 6.00 Build 0)  -->
<!DOCTYPE svg PUBLIC "-//W3C//DTD SVG 1.1//EN" "http://www.w3.org/Graphics/SVG/1.1/DTD/svg11.dtd">
<svg version="1.1" id="Layer_2" xmlns="http://www.w3.org/2000/svg" xmlns:xlink="http://www.w3.org/1999/xlink" x="0px" y="0px"
	 width="100px" height="100px" viewBox="0 0 100 100" enable-background="new 0 0 100 100" xml:space="preserve">
<g>
	<path d="M95.406,33.251L84.56,26.587c0.157-2.303-0.543-4.6-1.967-6.432c-0.127-3.51-1.169-9.511-6.428-12.742
		c-1.959-1.204-4.173-1.814-6.582-1.814c-3.027,0-5.805,0.967-7.689,1.837c-2.284-0.446-4.653-0.029-6.627,1.15L44.42,1.921
		c-0.831-0.509-1.991-0.23-2.501,0.598L3.996,64.234c-0.523,0.854-0.256,1.976,0.598,2.501l50.985,31.329
		c0.287,0.177,0.616,0.27,0.952,0.27c0.637,0,1.216-0.323,1.55-0.866l37.922-61.715C96.528,34.9,96.261,33.778,95.406,33.251z
		 M59.803,76.413l-2.926,4.762c-0.208,0.339-0.542,0.582-0.929,0.674c-0.115,0.027-0.232,0.041-0.349,0.041
		c-0.275,0-0.547-0.076-0.785-0.222l-35.24-21.654c-0.706-0.434-0.927-1.357-0.493-2.063l2.926-4.762
		c0.208-0.339,0.542-0.582,0.929-0.674c0.389-0.091,0.796-0.027,1.134,0.181L59.31,74.35C60.016,74.784,60.237,75.708,59.803,76.413
		z M69.093,61.294l-2.926,4.762c-0.208,0.339-0.542,0.582-0.929,0.674c-0.115,0.027-0.232,0.041-0.349,0.041
		c-0.275,0-0.547-0.076-0.785-0.222l-35.24-21.654c-0.706-0.434-0.927-1.357-0.493-2.063l2.926-4.762
		c0.208-0.339,0.542-0.582,0.929-0.674c0.389-0.091,0.796-0.026,1.134,0.181L68.6,59.231C69.306,59.665,69.527,60.589,69.093,61.294
		z M78.383,46.176l-2.926,4.762c-0.283,0.461-0.775,0.715-1.279,0.715c-0.268,0-0.539-0.071-0.784-0.222L38.154,29.777
		c-0.706-0.434-0.927-1.357-0.493-2.063l2.926-4.762c0.208-0.339,0.542-0.582,0.929-0.674c0.389-0.091,0.795-0.027,1.134,0.181
		l35.24,21.654c0.339,0.208,0.582,0.542,0.674,0.93C78.656,45.43,78.591,45.837,78.383,46.176z M78.04,27.255
		c-0.78,1.269-2.14,2.027-3.636,2.027c-0.783,0-1.551-0.217-2.22-0.629l-13.168-8.092c-2-1.229-2.627-3.856-1.398-5.856
		c0.78-1.27,2.139-2.027,3.635-2.027c0.528,0,1.044,0.097,1.533,0.288l0.417,0.162l0.393-0.214c1.161-0.633,3.478-1.694,5.954-1.694
		c1.368,0,2.603,0.333,3.67,0.988c3.533,2.171,3.777,6.95,3.718,8.904l-0.014,0.447l0.333,0.299
		C78.788,23.231,79.117,25.501,78.04,27.255z"/>
	<path d="M71.663,14.739c-0.55-0.338-1.182-0.517-1.825-0.517c-1.224,0-2.337,0.623-2.978,1.664
		c-0.488,0.795-0.638,1.732-0.421,2.639c0.216,0.907,0.773,1.675,1.568,2.164c0.551,0.338,1.182,0.517,1.825,0.517
		c1.224,0,2.337-0.623,2.977-1.664c0.488-0.794,0.638-1.731,0.422-2.639C73.015,15.996,72.458,15.227,71.663,14.739z"/>
</g>
</svg>
