<?xml version="1.0" encoding="utf-8"?>
<!-- Generator: Adobe Illustrator 16.0.0, SVG Export Plug-In . SVG Version: 6.00 Build 0)  -->
<!DOCTYPE svg PUBLIC "-//W3C//DTD SVG 1.1//EN" "http://www.w3.org/Graphics/SVG/1.1/DTD/svg11.dtd">
<svg version="1.1" id="Layer_4" xmlns="http://www.w3.org/2000/svg" xmlns:xlink="http://www.w3.org/1999/xlink" x="0px" y="0px"
	 width="100px" height="100px" viewBox="0 0 100 100" enable-background="new 0 0 100 100" xml:space="preserve">
<g>
	<path d="M32.38,21.162h35.237c0.579,0,1.129-0.251,1.509-0.687c0.38-0.437,0.552-1.017,0.473-1.589L68.114,8.221
		c-0.138-0.989-0.983-1.725-1.981-1.725h-7.479c-0.958-3.428-4.598-5.916-8.654-5.916c-4.058,0-7.697,2.488-8.655,5.916h-7.479
		c-0.998,0-1.843,0.735-1.98,1.725l-1.484,10.666c-0.08,0.572,0.093,1.152,0.473,1.589C31.251,20.911,31.802,21.162,32.38,21.162z"
		/>
	<path d="M91.499,6.791c0-1.104-0.896-2-2-2h-13c-1.104,0-2,0.896-2,2v16.482c0,1.103-0.897,2-2,2h-45c-1.104,0-2-0.897-2-2V6.791
		c0-1.104-0.896-2-2-2h-13c-1.104,0-2,0.896-2,2V97.42c0,1.104,0.896,2,2,2h79.002c0.53,0,1.039-0.211,1.414-0.586
		s0.586-0.884,0.586-1.414L91.499,6.791z M64.952,46.947c0,0.828-0.672,1.5-1.5,1.5h-8.443V79.83c0,0.828-0.672,1.5-1.5,1.5h-7.018
		c-0.828,0-1.5-0.672-1.5-1.5V48.447h-8.443c-0.828,0-1.5-0.672-1.5-1.5V41.67c0-0.828,0.672-1.5,1.5-1.5h26.904
		c0.828,0,1.5,0.672,1.5,1.5V46.947z"/>
</g>
</svg>
