<?xml version="1.0" encoding="utf-8"?>
<!-- Generator: Adobe Illustrator 16.0.0, SVG Export Plug-In . SVG Version: 6.00 Build 0)  -->
<!DOCTYPE svg PUBLIC "-//W3C//DTD SVG 1.1//EN" "http://www.w3.org/Graphics/SVG/1.1/DTD/svg11.dtd">
<svg version="1.1" id="Layer_2" xmlns="http://www.w3.org/2000/svg" xmlns:xlink="http://www.w3.org/1999/xlink" x="0px" y="0px"
	 width="100px" height="100px" viewBox="0 0 100 100" enable-background="new 0 0 100 100" xml:space="preserve">
<path d="M93.487,54.907c0.367-1.621,0.578-3.3,0.578-5.031c0-12.551-10.175-22.726-22.726-22.726c-2.485,0-4.871,0.413-7.108,1.15
	c-5.503-8.327-14.941-13.824-25.669-13.824c-16.98,0-30.746,13.765-30.746,30.746c0,2.692,0.349,5.303,0.998,7.792
	c-4.667,3.214-7.73,8.589-7.73,14.685c0,9.844,7.979,17.824,17.824,17.824h62.184c9.846,0,17.824-7.98,17.824-17.824
	C98.916,62.676,96.832,58.147,93.487,54.907z"/>
</svg>
