<?xml version="1.0" encoding="utf-8"?>
<!-- Generator: Adobe Illustrator 16.0.0, SVG Export Plug-In . SVG Version: 6.00 Build 0)  -->
<!DOCTYPE svg PUBLIC "-//W3C//DTD SVG 1.1//EN" "http://www.w3.org/Graphics/SVG/1.1/DTD/svg11.dtd">
<svg version="1.1" id="Layer_1" xmlns="http://www.w3.org/2000/svg" xmlns:xlink="http://www.w3.org/1999/xlink" x="0px" y="0px"
	 width="100px" height="100px" viewBox="0 0 100 100" enable-background="new 0 0 100 100" xml:space="preserve">
<g>
	<path d="M95.82,48.576L64.565,17.32c-0.781-0.781-2.048-0.781-2.828,0l-6.728,6.728c-0.375,0.375-0.586,0.884-0.586,1.414
		s0.211,1.039,0.586,1.414L78.123,49.99L55.01,73.104c-0.375,0.375-0.586,0.884-0.586,1.414c0,0.531,0.211,1.04,0.586,1.415
		l6.731,6.728c0.39,0.39,0.902,0.585,1.414,0.585s1.024-0.195,1.415-0.586l31.251-31.256C96.602,50.623,96.602,49.357,95.82,48.576z
		"/>
	<path d="M21.877,49.99l23.114-23.114c0.375-0.375,0.586-0.884,0.586-1.414s-0.211-1.039-0.586-1.414l-6.728-6.728
		c-0.781-0.781-2.048-0.781-2.828,0L4.18,48.576c-0.375,0.375-0.586,0.884-0.586,1.414s0.211,1.039,0.586,1.414l31.26,31.256
		c0.375,0.375,0.884,0.586,1.415,0.586c0.53,0,1.039-0.211,1.414-0.586l6.724-6.728c0.781-0.781,0.781-2.048,0-2.828L21.877,49.99z"
		/>
</g>
</svg>
