<?xml version="1.0" encoding="utf-8"?>
<!-- Generator: Adobe Illustrator 16.0.0, SVG Export Plug-In . SVG Version: 6.00 Build 0)  -->
<!DOCTYPE svg PUBLIC "-//W3C//DTD SVG 1.1//EN" "http://www.w3.org/Graphics/SVG/1.1/DTD/svg11.dtd">
<svg version="1.1" id="Layer_1" xmlns="http://www.w3.org/2000/svg" xmlns:xlink="http://www.w3.org/1999/xlink" x="0px" y="0px"
	 width="100px" height="100px" viewBox="0 0 100 100" enable-background="new 0 0 100 100" xml:space="preserve">
<path d="M79.91,87.671c-0.494,0.494-1.213,0.688-1.889,0.506c-0.674-0.181-1.201-0.708-1.381-1.382L71.84,68.856
	c-0.18-0.674,0.01-1.394,0.506-1.888c0.494-0.494,1.213-0.688,1.887-0.506l17.934,4.807c0.674,0.181,1.201,0.707,1.383,1.382
	c0.18,0.673-0.014,1.395-0.506,1.889l-3.098,3.097l8.68,10.912V11.451l-8.68,10.912l3.098,3.097
	c0.492,0.494,0.686,1.216,0.506,1.889c-0.182,0.675-0.709,1.201-1.383,1.382l-17.934,4.807c-0.674,0.182-1.393-0.012-1.887-0.506
	c-0.496-0.494-0.686-1.214-0.506-1.888l4.801-17.938c0.18-0.674,0.707-1.201,1.381-1.382c0.676-0.182,1.395,0.012,1.889,0.506
	l3.1,3.1l11.04-8.779H5.95l11.04,8.779l3.1-3.1c0.494-0.494,1.213-0.688,1.889-0.506c0.674,0.181,1.201,0.708,1.381,1.382
	l4.801,17.938c0.18,0.674-0.01,1.394-0.506,1.888c-0.494,0.494-1.213,0.688-1.887,0.506L7.834,28.73
	c-0.674-0.181-1.201-0.707-1.383-1.382c-0.18-0.673,0.014-1.395,0.506-1.889l3.098-3.097l-8.68-10.912v77.098l8.68-10.912
	L6.957,74.54c-0.492-0.494-0.686-1.216-0.506-1.889c0.182-0.675,0.709-1.201,1.383-1.382l17.934-4.807
	c0.674-0.182,1.393,0.012,1.887,0.506c0.496,0.494,0.686,1.214,0.506,1.888l-4.801,17.938c-0.18,0.674-0.707,1.201-1.381,1.382
	c-0.676,0.182-1.395-0.012-1.889-0.506l-3.1-3.1L5.95,93.351h88.1l-11.04-8.779L79.91,87.671z"/>
</svg>
