<?xml version="1.0" encoding="utf-8"?>
<!-- Generator: Adobe Illustrator 16.0.0, SVG Export Plug-In . SVG Version: 6.00 Build 0)  -->
<!DOCTYPE svg PUBLIC "-//W3C//DTD SVG 1.1//EN" "http://www.w3.org/Graphics/SVG/1.1/DTD/svg11.dtd">
<svg version="1.1" id="Layer_3" xmlns="http://www.w3.org/2000/svg" xmlns:xlink="http://www.w3.org/1999/xlink" x="0px" y="0px"
	 width="100px" height="100px" viewBox="0 0 100 100" enable-background="new 0 0 100 100" xml:space="preserve">
<path d="M86.317,41.609L74.748,30.038c-0.333-0.333-0.785-0.521-1.257-0.521H62.279V14.853c0-0.473-0.188-0.924-0.521-1.257
	L50.188,2.024c-0.333-0.333-0.785-0.521-1.257-0.521H14.939c-0.982,0-1.778,0.796-1.778,1.778v65.422
	c0,0.982,0.796,1.778,1.778,1.778h22.781v26.235c0,0.982,0.796,1.778,1.777,1.778h45.563c0.982,0,1.778-0.796,1.778-1.778V42.866
	C86.839,42.394,86.651,41.942,86.317,41.609z M18.851,7.193h27.653l0.014,9.142c0,0.239,0.096,0.469,0.265,0.639
	c0.169,0.169,0.398,0.264,0.638,0.264h9.17v47.556H18.851V7.193z M81.149,92.807H43.41V70.482h17.092
	c0.981,0,1.777-0.796,1.777-1.778V35.207h8.783l0.014,9.142c0,0.239,0.096,0.469,0.265,0.639c0.17,0.169,0.399,0.264,0.639,0.264
	h9.17V92.807z"/>
</svg>
