<?xml version="1.0" encoding="utf-8"?>
<!-- Generator: Adobe Illustrator 16.0.0, SVG Export Plug-In . SVG Version: 6.00 Build 0)  -->
<!DOCTYPE svg PUBLIC "-//W3C//DTD SVG 1.1//EN" "http://www.w3.org/Graphics/SVG/1.1/DTD/svg11.dtd">
<svg version="1.1" id="Layer_2" xmlns="http://www.w3.org/2000/svg" xmlns:xlink="http://www.w3.org/1999/xlink" x="0px" y="0px"
	 width="100px" height="100px" viewBox="0 0 100 100" enable-background="new 0 0 100 100" xml:space="preserve">
<path d="M58.468,50l38.374-38.373c0.827-0.827,0.827-2.167,0-2.994l-5.473-5.476c-0.397-0.396-0.936-0.62-1.498-0.62
	c-0.562,0-1.1,0.224-1.497,0.62L50,41.531L11.626,3.157c-0.795-0.795-2.202-0.794-2.995,0L3.158,8.633
	c-0.827,0.827-0.827,2.167,0,2.994L41.532,50L3.158,88.373c-0.827,0.827-0.827,2.167,0,2.994l5.473,5.476
	c0.397,0.396,0.936,0.62,1.498,0.62c0.562,0,1.1-0.224,1.497-0.62L50,58.469l38.374,38.374c0.397,0.396,0.936,0.62,1.497,0.62
	c0.562,0,1.101-0.224,1.498-0.62l5.473-5.476c0.827-0.827,0.827-2.167,0-2.994L58.468,50z"/>
</svg>
