<?xml version="1.0" encoding="utf-8"?>
<!-- Generator: Adobe Illustrator 16.0.0, SVG Export Plug-In . SVG Version: 6.00 Build 0)  -->
<!DOCTYPE svg PUBLIC "-//W3C//DTD SVG 1.1//EN" "http://www.w3.org/Graphics/SVG/1.1/DTD/svg11.dtd">
<svg version="1.1" id="Layer_2" xmlns="http://www.w3.org/2000/svg" xmlns:xlink="http://www.w3.org/1999/xlink" x="0px" y="0px"
	 width="100px" height="100px" viewBox="0 0 100 100" enable-background="new 0 0 100 100" xml:space="preserve">
<path d="M64.849,50l32.534-32.534c0.781-0.781,0.781-2.047,0-2.828L85.363,2.616c-0.375-0.375-0.884-0.586-1.414-0.586
	s-1.039,0.211-1.414,0.586L50,35.151L17.465,2.616c-0.75-0.75-2.078-0.75-2.828,0L2.617,14.638c-0.781,0.781-0.781,2.047,0,2.828
	L35.151,50L2.617,82.534c-0.781,0.781-0.781,2.047,0,2.828l12.02,12.021c0.375,0.375,0.884,0.586,1.414,0.586
	s1.039-0.211,1.414-0.586L50,64.849l32.535,32.535c0.375,0.375,0.884,0.586,1.414,0.586s1.039-0.211,1.414-0.586l12.02-12.021
	c0.781-0.781,0.781-2.047,0-2.828L64.849,50z"/>
</svg>
