<?xml version="1.0" encoding="utf-8"?>
<!-- Generator: Adobe Illustrator 16.0.0, SVG Export Plug-In . SVG Version: 6.00 Build 0)  -->
<!DOCTYPE svg PUBLIC "-//W3C//DTD SVG 1.1//EN" "http://www.w3.org/Graphics/SVG/1.1/DTD/svg11.dtd">
<svg version="1.1" id="Layer_3" xmlns="http://www.w3.org/2000/svg" xmlns:xlink="http://www.w3.org/1999/xlink" x="0px" y="0px"
	 width="100px" height="100px" viewBox="0 0 100 100" enable-background="new 0 0 100 100" xml:space="preserve">
<path d="M97.671,53.81l-22.985-8.419v-25.62c0-0.494-0.313-0.934-0.78-1.096l-23.532-8.619c-0.244-0.086-0.518-0.084-0.762,0
	l-23.488,8.381c-0.237,0.084-0.441,0.238-0.542,0.398c-0.172,0.207-0.267,0.471-0.267,0.738V45.38L2.357,53.571
	C2.12,53.655,1.916,53.81,1.815,53.97c-0.172,0.207-0.267,0.471-0.267,0.738v26.043c0,0.49,0.313,0.932,0.778,1.094l23.502,8.1
	c0.245,0.084,0.518,0.084,0.763,0L50,81.882l23.36,8.063c0.245,0.084,0.518,0.084,0.763,0l23.508-8.111
	c0.489-0.15,0.82-0.596,0.82-1.109V54.905C98.451,54.411,98.139,53.972,97.671,53.81z M70.59,43.63l-18.064,6.113V30.37
	l18.064-6.625V43.63z M49.992,14.261l16.801,6.277l-16.781,6.215l-17.73-6.119L49.992,14.261z M26.246,61.888l-17.73-6.119
	l17.711-6.373l16.801,6.277L26.246,61.888z M46.824,78.765L28.76,84.878V65.505l18.064-6.625V78.765z M73.777,61.888l-17.73-6.119
	l17.711-6.373l16.801,6.277L73.777,61.888z M94.355,78.765l-18.064,6.113V65.505l18.064-6.625V78.765z"/>
</svg>
