<?xml version="1.0" encoding="utf-8"?>
<!-- Generator: Adobe Illustrator 16.0.0, SVG Export Plug-In . SVG Version: 6.00 Build 0)  -->
<!DOCTYPE svg PUBLIC "-//W3C//DTD SVG 1.1//EN" "http://www.w3.org/Graphics/SVG/1.1/DTD/svg11.dtd">
<svg version="1.1" id="Layer_4" xmlns="http://www.w3.org/2000/svg" xmlns:xlink="http://www.w3.org/1999/xlink" x="0px" y="0px"
	 width="100px" height="100px" viewBox="0 0 100 100" enable-background="new 0 0 100 100" xml:space="preserve">
<g>
	<path d="M97.333,38.025H2.667c-1.104,0-2,0.896-2,2v19.949c0,1.104,0.896,2,2,2h94.667c1.104,0,2-0.896,2-2V40.025
		C99.333,38.921,98.438,38.025,97.333,38.025z M84.464,55h-26.8c-2.761,0-5-2.238-5-5s2.239-5,5-5h26.8c2.761,0,5,2.238,5,5
		S87.225,55,84.464,55z"/>
	<path d="M97.333,69.448H2.667c-1.104,0-2,0.896-2,2v19.949c0,1.104,0.896,2,2,2h94.667c1.104,0,2-0.896,2-2V71.448
		C99.333,70.344,98.438,69.448,97.333,69.448z M84.464,86H26.663c-2.761,0-5-2.238-5-5s2.239-5,5-5h57.801c2.761,0,5,2.238,5,5
		S87.225,86,84.464,86z"/>
	<path d="M97.333,6.603H2.667c-1.104,0-2,0.896-2,2v19.948c0,1.104,0.896,2,2,2h94.667c1.104,0,2-0.896,2-2V8.603
		C99.333,7.498,98.438,6.603,97.333,6.603z M84.464,24h-39.2c-2.761,0-5-2.238-5-5s2.239-5,5-5h39.2c2.761,0,5,2.238,5,5
		S87.225,24,84.464,24z"/>
</g>
</svg>
