<?xml version="1.0" encoding="utf-8"?>
<!-- Generator: Adobe Illustrator 16.0.0, SVG Export Plug-In . SVG Version: 6.00 Build 0)  -->
<!DOCTYPE svg PUBLIC "-//W3C//DTD SVG 1.1//EN" "http://www.w3.org/Graphics/SVG/1.1/DTD/svg11.dtd">
<svg version="1.1" id="Layer_3" xmlns="http://www.w3.org/2000/svg" xmlns:xlink="http://www.w3.org/1999/xlink" x="0px" y="0px"
	 width="100px" height="100px" viewBox="0 0 100 100" enable-background="new 0 0 100 100" xml:space="preserve">
<g>
	<path d="M99.328,19.081c0.002-0.063,0.015-0.124,0.015-0.188C99.343,9.209,77.252,1.359,50,1.359S0.657,9.209,0.657,18.893
		c0,0.064,0.013,0.125,0.015,0.188c-0.01,0.008-0.017,0.015-0.025,0.021v14.796C8.775,40.731,27.812,45.525,50,45.525
		s41.225-4.794,49.354-11.627V19.103C99.345,19.096,99.338,19.089,99.328,19.081z"/>
	<g>
		<path d="M98.333,47.521c-0.629-0.355-1.4-0.341-2.02,0.035C86.71,53.402,68.964,57.033,50,57.033s-36.71-3.631-46.313-9.477
			c-0.618-0.376-1.39-0.391-2.02-0.035c-0.631,0.354-1.021,1.021-1.021,1.743v10.229c0,0.624,0.291,1.212,0.787,1.591
			C10.197,67.766,29.261,72.083,50,72.083s39.803-4.317,48.566-10.998c0.496-0.379,0.787-0.967,0.787-1.591V49.265
			C99.354,48.542,98.964,47.875,98.333,47.521z"/>
		<path d="M98.333,74.079c-0.629-0.354-1.4-0.341-2.02,0.035C86.71,79.96,68.964,83.591,50,83.591S13.29,79.96,3.687,74.114
			c-0.618-0.376-1.39-0.39-2.02-0.035c-0.631,0.354-1.021,1.021-1.021,1.743v10.229c0,0.624,0.291,1.212,0.787,1.591
			C10.197,94.323,29.261,98.641,50,98.641s39.803-4.317,48.566-10.998c0.496-0.379,0.787-0.967,0.787-1.591V75.822
			C99.354,75.1,98.964,74.433,98.333,74.079z"/>
	</g>
</g>
</svg>
