<?xml version="1.0" encoding="utf-8"?>
<!-- Generator: Adobe Illustrator 16.0.0, SVG Export Plug-In . SVG Version: 6.00 Build 0)  -->
<!DOCTYPE svg PUBLIC "-//W3C//DTD SVG 1.1//EN" "http://www.w3.org/Graphics/SVG/1.1/DTD/svg11.dtd">
<svg version="1.1" id="Layer_1" xmlns="http://www.w3.org/2000/svg" xmlns:xlink="http://www.w3.org/1999/xlink" x="0px" y="0px"
	 width="100px" height="100px" viewBox="0 0 100 100" enable-background="new 0 0 100 100" xml:space="preserve">
<g>
	<path d="M96.034,2.269H3.966c-1.2,0-2.173,0.974-2.173,2.173v25.984c0,1.201,0.973,2.173,2.173,2.173h92.068
		c1.2,0,2.173-0.972,2.173-2.173V4.441C98.207,3.242,97.234,2.269,96.034,2.269z M24.47,22.337c0,0.899-0.73,1.63-1.63,1.63H11.976
		c-0.899,0-1.629-0.73-1.629-1.63V11.473c0-0.899,0.729-1.629,1.629-1.629H22.84c0.899,0,1.63,0.729,1.63,1.629V22.337z
		 M46.197,22.337c0,0.899-0.729,1.63-1.629,1.63H33.704c-0.899,0-1.63-0.73-1.63-1.63V11.473c0-0.899,0.73-1.629,1.63-1.629h10.864
		c0.899,0,1.629,0.729,1.629,1.629V22.337z M67.926,22.337c0,0.899-0.73,1.63-1.63,1.63H55.432c-0.899,0-1.629-0.73-1.629-1.63
		V11.473c0-0.899,0.729-1.629,1.629-1.629h10.864c0.899,0,1.63,0.729,1.63,1.629V22.337z M89.653,22.337
		c0,0.899-0.729,1.63-1.629,1.63H77.16c-0.899,0-1.63-0.73-1.63-1.63V11.473c0-0.899,0.73-1.629,1.63-1.629h10.864
		c0.899,0,1.629,0.729,1.629,1.629V22.337z"/>
	<path d="M96.034,40.536H3.966c-1.2,0-2.173,0.972-2.173,2.173v52.85c0,1.199,0.973,2.173,2.173,2.173h92.068
		c1.2,0,2.173-0.974,2.173-2.173v-52.85C98.207,41.508,97.234,40.536,96.034,40.536z M10.347,52.493c0-0.899,0.729-1.63,1.629-1.63
		H22.84c0.899,0,1.63,0.73,1.63,1.63v10.864c0,0.899-0.73,1.629-1.63,1.629H11.976c-0.899,0-1.629-0.729-1.629-1.629V52.493z
		 M46.197,87.258c0,0.9-0.729,1.63-1.629,1.63H11.976c-0.899,0-1.629-0.729-1.629-1.63V76.395c0-0.9,0.729-1.63,1.629-1.63h32.593
		c0.899,0,1.629,0.729,1.629,1.63V87.258z M46.197,63.357c0,0.899-0.729,1.629-1.629,1.629H33.704c-0.899,0-1.63-0.729-1.63-1.629
		V52.493c0-0.899,0.73-1.63,1.63-1.63h10.864c0.899,0,1.629,0.73,1.629,1.63V63.357z M67.926,87.258c0,0.9-0.73,1.63-1.63,1.63
		H55.432c-0.899,0-1.629-0.729-1.629-1.63V76.395c0-0.9,0.729-1.63,1.629-1.63h10.864c0.899,0,1.63,0.729,1.63,1.63V87.258z
		 M89.653,87.258c0,0.9-0.729,1.63-1.629,1.63H77.16c-0.899,0-1.63-0.729-1.63-1.63V76.395c0-0.9,0.73-1.63,1.63-1.63h10.864
		c0.899,0,1.629,0.729,1.629,1.63V87.258z M89.653,63.357c0,0.899-0.729,1.629-1.629,1.629H55.432c-0.899,0-1.629-0.729-1.629-1.629
		V52.493c0-0.899,0.729-1.63,1.629-1.63h32.593c0.899,0,1.629,0.73,1.629,1.63V63.357z"/>
</g>
</svg>
