<?xml version="1.0" encoding="utf-8"?>
<!-- Generator: Adobe Illustrator 16.0.0, SVG Export Plug-In . SVG Version: 6.00 Build 0)  -->
<!DOCTYPE svg PUBLIC "-//W3C//DTD SVG 1.1//EN" "http://www.w3.org/Graphics/SVG/1.1/DTD/svg11.dtd">
<svg version="1.1" id="Layer_3" xmlns="http://www.w3.org/2000/svg" xmlns:xlink="http://www.w3.org/1999/xlink" x="0px" y="0px"
	 width="100px" height="100px" viewBox="0 0 100 100" enable-background="new 0 0 100 100" xml:space="preserve">
<path d="M81.32,13.615c0-6.708-5.456-12.166-12.164-12.166c-6.707,0-12.166,5.458-12.166,12.166c0,3.939,1.891,7.437,4.803,9.661
	c-2.767,5.206-8.14,7.45-14.78,10.2c-3.533,1.463-7.384,3.061-10.84,5.349V24.534c4.041-1.98,6.837-6.124,6.837-10.918
	c0-6.708-5.459-12.166-12.166-12.166S18.68,6.907,18.68,13.615c0,4.794,2.796,8.938,6.835,10.918v50.933
	c-4.039,1.98-6.835,6.124-6.835,10.918c0,6.708,5.457,12.166,12.164,12.166S43.01,93.093,43.01,86.385
	c0-4.794-2.796-8.938-6.837-10.918V59.445c0-9.5,5.117-12.061,14.92-16.122c7.597-3.146,17.333-7.209,21.428-18.027
	C77.594,23.832,81.32,19.154,81.32,13.615z M30.844,6.779c3.77,0,6.836,3.067,6.836,6.836s-3.066,6.836-6.836,6.836
	c-3.768,0-6.835-3.066-6.835-6.836S27.076,6.779,30.844,6.779z M30.844,93.221c-3.768,0-6.835-3.067-6.835-6.836
	s3.067-6.836,6.835-6.836c3.77,0,6.836,3.066,6.836,6.836S34.613,93.221,30.844,93.221z M69.156,20.451
	c-3.77,0-6.836-3.066-6.836-6.836s3.066-6.836,6.836-6.836c3.769,0,6.835,3.067,6.835,6.836S72.925,20.451,69.156,20.451z"/>
</svg>
