<?xml version="1.0" encoding="utf-8"?>
<!-- Generator: Adobe Illustrator 16.0.0, SVG Export Plug-In . SVG Version: 6.00 Build 0)  -->
<!DOCTYPE svg PUBLIC "-//W3C//DTD SVG 1.1//EN" "http://www.w3.org/Graphics/SVG/1.1/DTD/svg11.dtd">
<svg version="1.1" id="Layer_2" xmlns="http://www.w3.org/2000/svg" xmlns:xlink="http://www.w3.org/1999/xlink" x="0px" y="0px"
	 width="100px" height="100px" viewBox="0 0 100 100" enable-background="new 0 0 100 100" xml:space="preserve">
<g>
	<path d="M94.812,1.284H5.188c-1.104,0-2,0.896-2,2v59.168c0,1.104,0.896,2,2,2h7.364c1.104,0,2-0.896,2-2V12.647h70.895v49.805
		c0,1.104,0.896,2,2,2h7.364c1.104,0,2-0.896,2-2V3.284C96.812,2.18,95.916,1.284,94.812,1.284z"/>
	<path d="M71.946,61.503c-0.781-0.781-2.047-0.781-2.828,0l-12.162,12.16V21.021c0-1.104-0.896-2-2-2h-9.912c-1.104,0-2,0.896-2,2
		v52.643l-12.162-12.16c-0.781-0.781-2.047-0.781-2.828,0l-6.389,6.387c-0.375,0.375-0.586,0.884-0.586,1.414
		s0.211,1.039,0.586,1.414l26.921,26.921c0.391,0.391,0.902,0.586,1.414,0.586s1.023-0.195,1.414-0.586l26.921-26.921
		c0.375-0.375,0.586-0.884,0.586-1.414s-0.211-1.039-0.586-1.414L71.946,61.503z"/>
</g>
</svg>
