<?xml version="1.0" encoding="utf-8"?>
<!-- Generator: Adobe Illustrator 16.0.0, SVG Export Plug-In . SVG Version: 6.00 Build 0)  -->
<!DOCTYPE svg PUBLIC "-//W3C//DTD SVG 1.1//EN" "http://www.w3.org/Graphics/SVG/1.1/DTD/svg11.dtd">
<svg version="1.1" id="Layer_3" xmlns="http://www.w3.org/2000/svg" xmlns:xlink="http://www.w3.org/1999/xlink" x="0px" y="0px"
	 width="100px" height="100px" viewBox="0 0 100 100" enable-background="new 0 0 100 100" xml:space="preserve">
<g>
	<path d="M42.049,96.715c1.814,0,3.484-0.597,4.844-1.597c0,0,3.304-2.55,3.304-5.32c0-1.598,0.029-14.684,0.045-22.063
		c4.367,2.805,9.565,1.612,11.318,1.075c1.875-0.377,3.031-0.298,5.394-0.53c2.767-0.357,6.013-1.816,9.012-4.741
		c0.608-0.438,1.675-0.674,2.804-0.919c3.042-0.66,7.639-1.661,8.925-8.506l0.023-0.163c0.05-0.558,1.196-13.787-1.604-21.409
		c-1.046-2.85-1.989-4.479-2.746-5.79c-0.598-1.035-1.073-1.875-1.428-3.08c2.546-0.25,4.549-2.379,4.549-4.99V8.325
		c0-2.779-2.26-5.04-5.039-5.04H34.508c-2.779,0-5.039,2.261-5.039,5.04v10.358c0,2.755,2.223,4.994,4.969,5.032
		c-0.843,3.996-4.137,9.353-14.337,14.086c-0.981,0.346-8.092,3.059-8.093,9.105c0,0.155,0.039,3.814,3.327,5.739
		c3.709,2.172,9.802,1.039,18.129-3.365c0.203,0.769,0.383,1.868,0.383,3.329v35.904C33.848,93.036,37.527,96.715,42.049,96.715z
		 M35.068,18.124V8.884h45.821v9.239H35.068z"/>
	<circle cx="40.762" cy="13.511" r="3.266"/>
</g>
</svg>
