<?xml version="1.0" encoding="utf-8"?>
<!-- Generator: Adobe Illustrator 16.0.0, SVG Export Plug-In . SVG Version: 6.00 Build 0)  -->
<!DOCTYPE svg PUBLIC "-//W3C//DTD SVG 1.1//EN" "http://www.w3.org/Graphics/SVG/1.1/DTD/svg11.dtd">
<svg version="1.1" id="Layer_2" xmlns="http://www.w3.org/2000/svg" xmlns:xlink="http://www.w3.org/1999/xlink" x="0px" y="0px"
	 width="100px" height="100px" viewBox="0 0 100 100" enable-background="new 0 0 100 100" xml:space="preserve">
<g>
	<path d="M5.188,98.471h89.623c1.104,0,2-0.896,2-2V37.303c0-1.105-0.896-2-2-2h-7.364c-1.104,0-2,0.895-2,2v49.805H14.553V37.303
		c0-1.105-0.896-2-2-2H5.188c-1.104,0-2,0.895-2,2v59.168C3.188,97.574,4.084,98.471,5.188,98.471z"/>
	<path d="M28.054,38.252c0.781,0.781,2.047,0.781,2.828,0l12.162-12.16v52.643c0,1.104,0.896,2,2,2h9.912c1.104,0,2-0.896,2-2
		V26.092l12.162,12.16c0.781,0.781,2.047,0.781,2.828,0l6.389-6.387c0.375-0.375,0.586-0.885,0.586-1.414
		c0-0.531-0.211-1.039-0.586-1.414L51.414,2.115C51.023,1.725,50.512,1.529,50,1.529s-1.023,0.195-1.414,0.586L21.665,29.037
		c-0.375,0.375-0.586,0.883-0.586,1.414c0,0.529,0.211,1.039,0.586,1.414L28.054,38.252z"/>
</g>
</svg>
