<?xml version="1.0" encoding="utf-8"?>
<!-- Generator: Adobe Illustrator 16.0.0, SVG Export Plug-In . SVG Version: 6.00 Build 0)  -->
<!DOCTYPE svg PUBLIC "-//W3C//DTD SVG 1.1//EN" "http://www.w3.org/Graphics/SVG/1.1/DTD/svg11.dtd">
<svg version="1.1" id="Layer_4" xmlns="http://www.w3.org/2000/svg" xmlns:xlink="http://www.w3.org/1999/xlink" x="0px" y="0px"
	 width="100px" height="100px" viewBox="0 0 100 100" enable-background="new 0 0 100 100" xml:space="preserve">
<g>
	<path d="M44.951,35.712h10.098c1.104,0,2-0.896,2-2V4.058c0-1.104-0.896-2-2-2H44.951c-1.104,0-2,0.896-2,2v29.654
		C42.951,34.816,43.847,35.712,44.951,35.712z"/>
	<path d="M55.049,64.288H44.951c-1.104,0-2,0.896-2,2v29.654c0,1.104,0.896,2,2,2h10.098c1.104,0,2-0.896,2-2V66.288
		C57.049,65.184,56.153,64.288,55.049,64.288z"/>
	<path d="M59.431,41.428H40.57c-1.104,0-2,0.896-2,2v13.145c0,1.104,0.896,2,2,2h18.86c1.104,0,2-0.896,2-2V43.428
		C61.431,42.323,60.535,41.428,59.431,41.428z"/>
	<path d="M10.659,15.137h10.099c1.104,0,2-0.896,2-2V4.058c0-1.104-0.896-2-2-2H10.659c-1.104,0-2,0.896-2,2v9.079
		C8.659,14.241,9.555,15.137,10.659,15.137z"/>
	<path d="M20.758,43.713H10.659c-1.104,0-2,0.896-2,2v50.229c0,1.104,0.896,2,2,2h10.099c1.104,0,2-0.896,2-2V45.713
		C22.758,44.608,21.862,43.713,20.758,43.713z"/>
	<path d="M25.139,20.853H6.278c-1.104,0-2,0.896-2,2v13.146c0,1.104,0.896,2,2,2h18.86c1.104,0,2-0.896,2-2V22.853
		C27.139,21.748,26.243,20.853,25.139,20.853z"/>
	<path d="M79.242,25.424h10.099c1.104,0,2-0.896,2-2V4.058c0-1.104-0.896-2-2-2H79.242c-1.104,0-2,0.896-2,2v19.366
		C77.242,24.528,78.138,25.424,79.242,25.424z"/>
	<path d="M89.341,54.001H79.242c-1.104,0-2,0.896-2,2v39.941c0,1.104,0.896,2,2,2h10.099c1.104,0,2-0.896,2-2V56.001
		C91.341,54.896,90.445,54.001,89.341,54.001z"/>
	<path d="M93.722,31.14h-18.86c-1.104,0-2,0.896-2,2v13.146c0,1.104,0.896,2,2,2h18.86c1.104,0,2-0.896,2-2V33.14
		C95.722,32.035,94.826,31.14,93.722,31.14z"/>
</g>
</svg>
