<?xml version="1.0" encoding="utf-8"?>
<!-- Generator: Adobe Illustrator 16.0.0, SVG Export Plug-In . SVG Version: 6.00 Build 0)  -->
<!DOCTYPE svg PUBLIC "-//W3C//DTD SVG 1.1//EN" "http://www.w3.org/Graphics/SVG/1.1/DTD/svg11.dtd">
<svg version="1.1" id="Layer_3" xmlns="http://www.w3.org/2000/svg" xmlns:xlink="http://www.w3.org/1999/xlink" x="0px" y="0px"
	 width="100px" height="100px" viewBox="0 0 100 100" enable-background="new 0 0 100 100" xml:space="preserve">
<path d="M96.517,15.883H85.529V4.182c0-1.104-0.896-2-2-2H67.006c-1.104,0-2,0.896-2,2v11.701H34.994V4.182c0-1.104-0.896-2-2-2
	H16.471c-1.104,0-2,0.896-2,2v11.701H3.483c-1.104,0-2,0.896-2,2v77.935c0,1.104,0.896,2,2,2h93.033c1.104,0,2-0.896,2-2V17.883
	C98.517,16.778,97.621,15.883,96.517,15.883z M70.815,7.989h8.907v21.732c0,0.829-0.672,1.5-1.5,1.5h-5.907
	c-0.828,0-1.5-0.671-1.5-1.5V7.989z M20.277,7.989h8.907v21.732c0,0.829-0.672,1.5-1.5,1.5h-5.907c-0.828,0-1.5-0.671-1.5-1.5V7.989
	z M88.16,85.994c0,0.829-0.672,1.5-1.5,1.5H13.34c-0.828,0-1.5-0.671-1.5-1.5V46.188c0-0.829,0.672-1.5,1.5-1.5h73.32
	c0.828,0,1.5,0.671,1.5,1.5V85.994z"/>
</svg>
