<?xml version="1.0" encoding="utf-8"?>
<!-- Generator: Adobe Illustrator 16.0.0, SVG Export Plug-In . SVG Version: 6.00 Build 0)  -->
<!DOCTYPE svg PUBLIC "-//W3C//DTD SVG 1.1//EN" "http://www.w3.org/Graphics/SVG/1.1/DTD/svg11.dtd">
<svg version="1.1" id="Layer_3" xmlns="http://www.w3.org/2000/svg" xmlns:xlink="http://www.w3.org/1999/xlink" x="0px" y="0px"
	 width="100px" height="100px" viewBox="0 0 100 100" enable-background="new 0 0 100 100" xml:space="preserve">
<g>
	<path d="M62.635,2.318c-0.377-0.387-0.894-0.605-1.434-0.605H38.799c-0.54,0-1.057,0.219-1.434,0.605s-0.58,0.91-0.565,1.45
		l1.68,60.798c0.029,1.082,0.916,1.944,1.999,1.944h19.046c1.083,0,1.97-0.862,1.999-1.945L63.2,3.768
		C63.215,3.229,63.012,2.705,62.635,2.318z"/>
	<path d="M59.485,76.747H40.517c-1.104,0-2,0.896-2,2v17.54c0,1.104,0.896,2,2,2h18.969c1.104,0,2-0.896,2-2v-17.54
		C61.485,77.643,60.59,76.747,59.485,76.747z"/>
</g>
</svg>
