<?xml version="1.0" encoding="utf-8"?>
<!-- Generator: Adobe Illustrator 16.0.0, SVG Export Plug-In . SVG Version: 6.00 Build 0)  -->
<!DOCTYPE svg PUBLIC "-//W3C//DTD SVG 1.1//EN" "http://www.w3.org/Graphics/SVG/1.1/DTD/svg11.dtd">
<svg version="1.1" id="Layer_3" xmlns="http://www.w3.org/2000/svg" xmlns:xlink="http://www.w3.org/1999/xlink" x="0px" y="0px"
	 width="100px" height="100px" viewBox="0 0 100 100" enable-background="new 0 0 100 100" xml:space="preserve">
<path d="M97.802,48.417l-17.563-14.01c-0.601-0.479-1.423-0.573-2.115-0.239c-0.692,0.333-1.132,1.034-1.132,1.802v4.631H59.378
	V22.988h4.631c0.007,0,0.013,0,0.02,0c1.104,0,2-0.896,2-2c0-0.562-0.231-1.069-0.604-1.433L51.563,2.178
	c-0.759-0.952-2.368-0.952-3.127,0L34.427,19.741c-0.479,0.601-0.572,1.422-0.238,2.115c0.333,0.692,1.034,1.132,1.802,1.132h4.632
	v17.614H23.008v-4.631c0-0.768-0.44-1.469-1.132-1.802c-0.693-0.333-1.514-0.24-2.115,0.239L2.198,48.417
	c-0.476,0.379-0.753,0.955-0.753,1.563s0.277,1.184,0.753,1.563l17.563,14.009c0.601,0.479,1.421,0.572,2.115,0.238
	c0.692-0.333,1.132-1.034,1.132-1.802v-4.632h17.614v17.614H35.99c-0.768,0-1.469,0.44-1.802,1.132
	c-0.333,0.692-0.241,1.514,0.238,2.115l14.009,17.563c0.379,0.476,0.955,0.753,1.563,0.753s1.184-0.277,1.563-0.753l14.01-17.563
	c0.479-0.601,0.572-1.422,0.239-2.115c-0.333-0.692-1.034-1.132-1.802-1.132h-4.631V59.358h17.614v4.632
	c0,0.768,0.44,1.469,1.132,1.802c0.692,0.334,1.514,0.241,2.115-0.238l17.563-14.009c0.476-0.379,0.753-0.955,0.753-1.563
	S98.278,48.797,97.802,48.417z"/>
</svg>
