<?xml version="1.0" encoding="utf-8"?>
<!-- Generator: Adobe Illustrator 16.0.0, SVG Export Plug-In . SVG Version: 6.00 Build 0)  -->
<!DOCTYPE svg PUBLIC "-//W3C//DTD SVG 1.1//EN" "http://www.w3.org/Graphics/SVG/1.1/DTD/svg11.dtd">
<svg version="1.1" id="Layer_1" xmlns="http://www.w3.org/2000/svg" xmlns:xlink="http://www.w3.org/1999/xlink" x="0px" y="0px"
	 width="100px" height="100px" viewBox="0 0 100 100" enable-background="new 0 0 100 100" xml:space="preserve">
<path d="M98.499,89.146l-4.736-17.672c-0.181-0.674-0.707-1.201-1.382-1.382c-0.673-0.181-1.395,0.012-1.889,0.506l-3.097,3.097
	L72.112,61.54V38.461l15.283-12.156l3.097,3.097c0.494,0.493,1.216,0.687,1.889,0.506c0.675-0.181,1.201-0.708,1.382-1.383
	l4.807-17.933c0.182-0.674-0.012-1.394-0.506-1.888c-0.494-0.495-1.214-0.686-1.888-0.506l-17.938,4.801
	c-0.674,0.181-1.201,0.707-1.382,1.382c-0.182,0.675,0.012,1.395,0.506,1.889l3.1,3.099L68.054,34.97H31.93L19.522,19.368
	l3.098-3.099c0.495-0.494,0.688-1.215,0.506-1.889c-0.18-0.675-0.708-1.201-1.382-1.382L3.808,8.198
	c-0.677-0.18-1.395,0.011-1.889,0.506c-0.494,0.494-0.687,1.214-0.506,1.888l4.808,17.933c0.18,0.675,0.707,1.202,1.382,1.383
	c0.673,0.181,1.395-0.013,1.888-0.506l3.098-3.097l15.284,12.157v23.077L12.588,73.695L9.49,70.599
	c-0.493-0.493-1.215-0.687-1.888-0.506c-0.675,0.181-1.202,0.708-1.382,1.382L1.413,89.408c-0.181,0.674,0.012,1.394,0.506,1.888
	c0.372,0.371,0.871,0.573,1.383,0.573c0.169,0,0.339-0.022,0.506-0.067l17.937-4.801c0.674-0.181,1.202-0.707,1.382-1.382
	c0.182-0.674-0.011-1.395-0.506-1.889l-3.098-3.099L31.931,65.03h36.122l12.408,15.602l-3.1,3.099
	c-0.494,0.494-0.688,1.214-0.506,1.889c0.181,0.675,0.708,1.201,1.383,1.382l17.938,4.8c0.167,0.045,0.336,0.067,0.505,0.067
	c0.007,0,0.016,0,0.019,0c1.081,0,1.955-0.876,1.955-1.955C98.654,89.641,98.599,89.383,98.499,89.146z"/>
</svg>
