<?xml version="1.0" encoding="utf-8"?>
<!-- Generator: Adobe Illustrator 16.0.0, SVG Export Plug-In . SVG Version: 6.00 Build 0)  -->
<!DOCTYPE svg PUBLIC "-//W3C//DTD SVG 1.1//EN" "http://www.w3.org/Graphics/SVG/1.1/DTD/svg11.dtd">
<svg version="1.1" id="Layer_2" xmlns="http://www.w3.org/2000/svg" xmlns:xlink="http://www.w3.org/1999/xlink" x="0px" y="0px"
	 width="100px" height="100px" viewBox="0 0 100 100" enable-background="new 0 0 100 100" xml:space="preserve">
<path d="M74.028,1.958l-12.466-0.02c-14.004,0-23.053,9.285-23.053,23.656v10.907H25.975c-1.083,0-1.96,0.878-1.96,1.961v15.803
	c0,1.083,0.878,1.96,1.96,1.96h12.533v39.876c0,1.083,0.877,1.96,1.96,1.96H56.82c1.083,0,1.96-0.878,1.96-1.96V56.225h14.654
	c1.083,0,1.96-0.877,1.96-1.96L75.4,38.462c0-0.52-0.207-1.018-0.574-1.386c-0.368-0.368-0.867-0.575-1.387-0.575H58.781v-9.246
	c0-4.444,1.059-6.7,6.847-6.7l8.398-0.003c1.082,0,1.959-0.878,1.959-1.96V3.918C75.985,2.837,75.109,1.96,74.028,1.958z"/>
</svg>
