<?xml version="1.0" encoding="utf-8"?>
<!-- Generator: Adobe Illustrator 16.0.0, SVG Export Plug-In . SVG Version: 6.00 Build 0)  -->
<!DOCTYPE svg PUBLIC "-//W3C//DTD SVG 1.1//EN" "http://www.w3.org/Graphics/SVG/1.1/DTD/svg11.dtd">
<svg version="1.1" id="Layer_1" xmlns="http://www.w3.org/2000/svg" xmlns:xlink="http://www.w3.org/1999/xlink" x="0px" y="0px"
	 width="100px" height="100px" viewBox="0 0 100 100" enable-background="new 0 0 100 100" xml:space="preserve">
<path d="M50.636,0.865C23.499,0.865,1.501,22.864,1.501,50s21.998,49.135,49.135,49.135c27.136,0,49.135-21.999,49.135-49.135
	S77.771,0.865,50.636,0.865z M54.735,82.951c-1.539,1.521-3.683,2.293-6.369,2.293c-2.746,0-4.918-0.754-6.456-2.241
	c-1.545-1.495-2.328-3.604-2.328-6.268c0-2.755,0.769-4.888,2.284-6.337c1.51-1.44,3.696-2.171,6.5-2.171
	c2.714,0,4.862,0.746,6.386,2.219c1.528,1.479,2.304,3.595,2.304,6.289C57.056,79.337,56.275,81.429,54.735,82.951z M69.925,41.16
	c-1.572,2.511-4.566,5.354-8.9,8.45c-2.818,2.084-4.627,3.684-5.356,4.74c-0.686,0.995-1.034,2.346-1.034,4.013v1.981
	c0,0.828-0.672,1.5-1.5,1.5H42.546c-0.828,0-1.5-0.672-1.5-1.5v-2.621c0-3.042,0.663-5.733,1.972-8.001
	c1.296-2.244,3.665-4.638,7.043-7.116c3.135-2.239,5.21-4.06,6.183-5.422c0.923-1.297,1.392-2.768,1.392-4.369
	c0-1.742-0.615-3.024-1.881-3.92c-1.329-0.941-3.246-1.419-5.698-1.419c-4.252,0-9.173,1.366-14.624,4.061
	c-0.739,0.366-1.639,0.064-2.008-0.676l-4.316-8.67c-0.36-0.725-0.082-1.604,0.63-1.988c6.689-3.614,13.864-5.447,21.325-5.447
	c6.421,0,11.613,1.578,15.434,4.69c3.865,3.15,5.825,7.402,5.825,12.639C72.321,35.562,71.515,38.614,69.925,41.16z"/>
</svg>
