<?xml version="1.0" encoding="utf-8"?>
<!-- Generator: Adobe Illustrator 16.0.0, SVG Export Plug-In . SVG Version: 6.00 Build 0)  -->
<!DOCTYPE svg PUBLIC "-//W3C//DTD SVG 1.1//EN" "http://www.w3.org/Graphics/SVG/1.1/DTD/svg11.dtd">
<svg version="1.1" id="Layer_3" xmlns="http://www.w3.org/2000/svg" xmlns:xlink="http://www.w3.org/1999/xlink" x="0px" y="0px"
	 width="100px" height="100px" viewBox="0 0 100 100" enable-background="new 0 0 100 100" xml:space="preserve">
<g>
	<path d="M24.042,19.208H5.375c-0.552,0-1,0.447-1,1v67.5c0,0.553,0.448,1,1,1h18.667c0.552,0,1-0.447,1-1v-67.5
		C25.042,19.655,24.594,19.208,24.042,19.208z"/>
	<path d="M94.625,26.748h-2.167v-5.163l-9.59-11.001h-49.91c-1.654,0-3,1.346-3,3v13.164h-2.167c-0.552,0-1,0.447-1,1v60.668
		c0,0.553,0.448,1,1,1h66.833c0.552,0,1-0.447,1-1V27.748C95.625,27.195,95.177,26.748,94.625,26.748z M45.25,77.75H35.5V68h9.75
		V77.75z M45.25,62.75H35.5V53h9.75V62.75z M45.25,47.75H35.5V38h9.75V47.75z M60.25,77.75H50.5V68h9.75V77.75z M60.25,62.75H50.5
		V53h9.75V62.75z M60.25,47.75H50.5V38h9.75V47.75z M75.25,77.75H65.5V68h9.75V77.75z M75.25,62.75H65.5V53h9.75V62.75z
		 M75.25,47.75H65.5V38h9.75V47.75z M88.458,26.748h-54.5V14.584h45.935v8.449h8.522l0.043,0.05V26.748z"/>
</g>
</svg>
