<?xml version="1.0" encoding="utf-8"?>
<!-- Generator: Adobe Illustrator 16.0.0, SVG Export Plug-In . SVG Version: 6.00 Build 0)  -->
<!DOCTYPE svg PUBLIC "-//W3C//DTD SVG 1.1//EN" "http://www.w3.org/Graphics/SVG/1.1/DTD/svg11.dtd">
<svg version="1.1" id="Layer_1" xmlns="http://www.w3.org/2000/svg" xmlns:xlink="http://www.w3.org/1999/xlink" x="0px" y="0px"
	 width="100px" height="100px" viewBox="0 0 100 100" enable-background="new 0 0 100 100" xml:space="preserve">
<path d="M87.142,18h-8.167V4.188c0-1.381-1.119-2.5-2.5-2.5H12.358c-1.381,0-2.5,1.119-2.5,2.5v91.624c0,1.381,1.119,2.5,2.5,2.5
	h64.116c1.381,0,2.5-1.119,2.5-2.5V34.125h8.167c1.656,0,3-1.343,3-3V21C90.142,19.343,88.798,18,87.142,18z M85.625,29.637H73.438
	v12.188h-7.125V29.637H54.125v-7.125h12.188V10.324h7.125v12.188h12.188V29.637z"/>
</svg>
