<?xml version="1.0" encoding="utf-8"?>
<!-- Generator: Adobe Illustrator 16.0.0, SVG Export Plug-In . SVG Version: 6.00 Build 0)  -->
<!DOCTYPE svg PUBLIC "-//W3C//DTD SVG 1.1//EN" "http://www.w3.org/Graphics/SVG/1.1/DTD/svg11.dtd">
<svg version="1.1" id="Layer_3" xmlns="http://www.w3.org/2000/svg" xmlns:xlink="http://www.w3.org/1999/xlink" x="0px" y="0px"
	 width="100px" height="100px" viewBox="0 0 100 100" enable-background="new 0 0 100 100" xml:space="preserve">
<path d="M74.742,71.793l-7.634-28.776c-0.173-0.651-0.755-1.099-1.412-1.115l-0.001-0.014c-1.452-13.909-5.062-23.186-10.727-27.57
	c-3.457-2.674-6.65-2.739-7.719-2.662L34.496,1.881c-0.655-0.504-1.598-0.381-2.101,0.275l-0.319,0.415
	c-0.243,0.316-0.351,0.715-0.299,1.11c0.052,0.395,0.259,0.753,0.575,0.995l6.16,4.723c-0.919,0.793-1.426,1.884-1.426,3.072h-5.234
	c-0.828,0-1.5,0.672-1.5,1.5v0.523c0,0.828,0.672,1.5,1.5,1.5h4.631v6.811c-6.745,2.328-11.276,8.678-11.276,15.801v58.322
	c0,0.828,0.672,1.5,1.5,1.5h30.456c0.828,0,1.5-0.672,1.5-1.5V38.606c0-7.123-4.532-13.473-11.277-15.801v-6.811l1.203-0.783h0.001
	c0.985,0.135,2.519,0.571,4.224,1.89c4.887,3.785,8.047,12.284,9.393,25.263l0.001,0.008c-0.649,0.174-1.112,0.766-1.111,1.45
	l0.025,29.81c0,0.434,0.188,0.845,0.514,1.13c0.327,0.284,0.76,0.411,1.188,0.355l10.671-1.453c0.427-0.058,0.808-0.296,1.046-0.654
	C74.778,72.652,74.853,72.209,74.742,71.793z M39.852,75.482c-0.16,0.523-0.421,1.019-0.754,1.431
	c-0.277,0.343-0.596,0.629-0.949,0.852c-0.196,0.126-0.404,0.234-0.615,0.32c-0.073,0.03-0.15,0.044-0.228,0.044
	c-0.136,0-0.27-0.046-0.379-0.133c-0.171-0.138-0.254-0.357-0.218-0.574c0.039-0.224,0.065-0.425,0.082-0.615
	c0.024-0.322,0.024-0.603-0.001-0.853c-0.028-0.286-0.089-0.557-0.181-0.806c-0.082-0.219-0.19-0.438-0.343-0.686
	c-0.143-0.234-0.299-0.463-0.477-0.7c-0.206-0.274-0.446-0.565-0.633-0.788l-0.009-0.011c-0.021-0.021-0.042-0.047-0.067-0.077
	c-0.03-0.035-0.06-0.071-0.103-0.12l-0.054-0.061l0.001-0.001c-0.049-0.057-0.158-0.184-0.209-0.246
	c-0.172-0.203-0.35-0.451-0.537-0.748c-0.354-0.572-0.609-1.197-0.742-1.809c-0.139-0.629-0.151-1.31-0.035-1.914
	c0.129-0.69,0.406-1.209,0.616-1.521c0.244-0.365,0.54-0.682,0.877-0.938c0.21-0.159,0.431-0.294,0.654-0.4
	c0.194-0.092,0.423-0.074,0.601,0.047s0.277,0.328,0.263,0.543c-0.012,0.162-0.026,0.408-0.02,0.669
	c0.009,0.313,0.04,0.598,0.093,0.845c0.058,0.275,0.146,0.527,0.267,0.755c0.13,0.252,0.278,0.458,0.405,0.627
	c0.151,0.197,0.322,0.4,0.522,0.619c0.007,0.008,0.014,0.016,0.021,0.024c0.025,0.031,0.056,0.063,0.086,0.094l0.053,0.054
	c0.008,0.008,0.014,0.016,0.021,0.023c0.037,0.046,0.081,0.09,0.125,0.135l0.038,0.038c0.028,0.028,0.055,0.057,0.091,0.098
	l0.14,0.152c0.06,0.062,0.18,0.202,0.279,0.324c0.396,0.484,0.727,1.01,0.979,1.562c0.276,0.603,0.454,1.249,0.515,1.867
	C40.09,74.239,40.027,74.906,39.852,75.482z M47.479,59.8c0.128,0.133,0.377,0.421,0.622,0.722c0.872,1.064,1.594,2.216,2.145,3.42
	c0.606,1.321,0.996,2.736,1.127,4.092c0.14,1.41,0.007,2.832-0.385,4.111c-0.35,1.147-0.92,2.232-1.65,3.137
	c-0.604,0.746-1.301,1.372-2.074,1.861c-0.595,0.381-1.22,0.681-1.852,0.887c-0.271,0.092-0.544,0.164-0.828,0.219
	c-0.038,0.008-0.077,0.012-0.115,0.012c-0.162,0-0.319-0.064-0.435-0.184c-0.142-0.146-0.201-0.355-0.156-0.555
	c0.054-0.235,0.111-0.508,0.171-0.803c0.079-0.432,0.181-1.021,0.235-1.668c0.056-0.712,0.056-1.327-0.001-1.875
	c-0.062-0.623-0.194-1.214-0.396-1.759c-0.179-0.479-0.418-0.96-0.753-1.509c-0.314-0.514-0.656-1.015-1.045-1.532
	c-0.353-0.47-0.778-1.002-1.384-1.725l-0.009-0.01c-0.055-0.06-0.104-0.117-0.164-0.189c-0.065-0.077-0.129-0.152-0.218-0.253
	l-0.127-0.146c-0.003-0.004-0.321-0.376-0.437-0.52c-0.388-0.456-0.78-1.001-1.188-1.652c-0.773-1.25-1.334-2.617-1.623-3.954
	c-0.305-1.382-0.333-2.87-0.078-4.19c0.223-1.199,0.689-2.354,1.349-3.337c0.537-0.804,1.185-1.496,1.923-2.056
	c0.579-0.438,1.184-0.787,1.799-1.038c0.293-0.121,0.589-0.221,0.877-0.296c0.193-0.051,0.399-0.002,0.551,0.129
	c0.15,0.132,0.227,0.33,0.203,0.528c-0.031,0.255-0.063,0.544-0.091,0.87c-0.038,0.489-0.075,1.076-0.058,1.688
	c0.019,0.688,0.088,1.312,0.205,1.854c0.124,0.599,0.32,1.153,0.582,1.651c0.227,0.438,0.499,0.857,0.884,1.364
	c0.329,0.431,0.709,0.882,1.16,1.378c0.009,0.01,0.018,0.02,0.025,0.029C46.334,58.582,47.479,59.8,47.479,59.8z"/>
</svg>
