<?xml version="1.0" encoding="utf-8"?>
<!-- Generator: Adobe Illustrator 16.0.0, SVG Export Plug-In . SVG Version: 6.00 Build 0)  -->
<!DOCTYPE svg PUBLIC "-//W3C//DTD SVG 1.1//EN" "http://www.w3.org/Graphics/SVG/1.1/DTD/svg11.dtd">
<svg version="1.1" id="Layer_2" xmlns="http://www.w3.org/2000/svg" xmlns:xlink="http://www.w3.org/1999/xlink" x="0px" y="0px"
	 width="100px" height="100px" viewBox="0 0 100 100" enable-background="new 0 0 100 100" xml:space="preserve">
<g>
	<path d="M16.236,8.772H7.038c-1.104,0-2,0.896-2,2v84.244c0,1.104,0.896,2,2,2h9.198c1.104,0,2-0.896,2-2V10.772
		C18.236,9.668,17.341,8.772,16.236,8.772z"/>
	<path d="M94.123,8.72c-5.418-3.86-10.697-5.736-16.137-5.736c-6.858,0-13.005,2.996-18.954,5.896
		c-5.991,2.922-11.65,5.682-17.989,5.682c-4.648,0-9.184-1.522-13.865-4.653c-0.614-0.411-1.404-0.45-2.054-0.102
		c-0.651,0.348-1.058,1.025-1.058,1.764v45.027c0,0.646,0.313,1.254,0.839,1.629c5.418,3.86,10.697,5.736,16.136,5.736
		c6.871,0,13.021-3.002,18.968-5.904c5.985-2.918,11.638-5.675,17.976-5.675c4.646,0,9.181,1.522,13.865,4.654
		c0.615,0.411,1.404,0.45,2.054,0.102c0.651-0.348,1.058-1.025,1.058-1.764V10.349C94.962,9.702,94.649,9.095,94.123,8.72z"/>
</g>
</svg>
