<?xml version="1.0" encoding="utf-8"?>
<!-- Generator: Adobe Illustrator 16.0.0, SVG Export Plug-In . SVG Version: 6.00 Build 0)  -->
<!DOCTYPE svg PUBLIC "-//W3C//DTD SVG 1.1//EN" "http://www.w3.org/Graphics/SVG/1.1/DTD/svg11.dtd">
<svg version="1.1" id="Layer_2" xmlns="http://www.w3.org/2000/svg" xmlns:xlink="http://www.w3.org/1999/xlink" x="0px" y="0px"
	 width="100px" height="100px" viewBox="0 0 100 100" enable-background="new 0 0 100 100" xml:space="preserve">
<path d="M96.839,30.778H24.068c-1.104,0-2,0.896-2,2v42.84h-6.444V24.381h59.092c0.008,0,0.016,0,0.02,0c1.105,0,2-0.896,2-2
	c0-0.322-0.075-0.625-0.21-0.895l-3.434-10.207c-0.273-0.814-1.037-1.362-1.896-1.362H3.161c-1.104,0-2,0.896-2,2v76.166
	c0,1.104,0.896,2,2,2h78.668c0.079,0,0.175-0.009,0.272-0.024h14.737c1.104,0,2-0.896,2-2V32.778
	C98.839,31.674,97.943,30.778,96.839,30.778z"/>
</svg>
