<?xml version="1.0" encoding="utf-8"?>
<!-- Generator: Adobe Illustrator 16.0.0, SVG Export Plug-In . SVG Version: 6.00 Build 0)  -->
<!DOCTYPE svg PUBLIC "-//W3C//DTD SVG 1.1//EN" "http://www.w3.org/Graphics/SVG/1.1/DTD/svg11.dtd">
<svg version="1.1" id="Layer_2" xmlns="http://www.w3.org/2000/svg" xmlns:xlink="http://www.w3.org/1999/xlink" x="0px" y="0px"
	 width="100px" height="100px" viewBox="0 0 100 100" enable-background="new 0 0 100 100" xml:space="preserve">
<g>
	<path d="M41.351,2.25H4.25c-1.104,0-2,0.896-2,2v37.102c0,1.104,0.896,2,2,2h37.101c1.104,0,2-0.896,2-2V4.25
		C43.351,3.146,42.455,2.25,41.351,2.25z"/>
	<path d="M95.75,2.25H58.649c-1.104,0-2,0.896-2,2v37.102c0,1.104,0.896,2,2,2H95.75c1.104,0,2-0.896,2-2V4.25
		C97.75,3.146,96.855,2.25,95.75,2.25z"/>
	<path d="M41.351,56.649H4.25c-1.104,0-2,0.896-2,2V95.75c0,1.104,0.896,2,2,2h37.101c1.104,0,2-0.896,2-2V58.649
		C43.351,57.545,42.455,56.649,41.351,56.649z"/>
	<path d="M95.75,56.649H58.649c-1.104,0-2,0.896-2,2V95.75c0,1.104,0.896,2,2,2H95.75c1.104,0,2-0.896,2-2V58.649
		C97.75,57.545,96.855,56.649,95.75,56.649z"/>
</g>
</svg>
