<?xml version="1.0" encoding="utf-8"?>
<!-- Generator: Adobe Illustrator 16.0.0, SVG Export Plug-In . SVG Version: 6.00 Build 0)  -->
<!DOCTYPE svg PUBLIC "-//W3C//DTD SVG 1.1//EN" "http://www.w3.org/Graphics/SVG/1.1/DTD/svg11.dtd">
<svg version="1.1" id="Layer_3" xmlns="http://www.w3.org/2000/svg" xmlns:xlink="http://www.w3.org/1999/xlink" x="0px" y="0px"
	 width="100px" height="100px" viewBox="0 0 100 100" enable-background="new 0 0 100 100" xml:space="preserve">
<path d="M75.625,25.516V25.5h-51.25v0.016C11.134,25.849,0.5,36.679,0.5,50c0,13.531,10.969,24.5,24.5,24.5
	c10.667,0,19.736-6.818,23.1-16.333h3.8C55.264,67.682,64.333,74.5,75,74.5c13.531,0,24.5-10.969,24.5-24.5
	C99.5,36.679,88.866,25.849,75.625,25.516z M35.083,53.712c0,0.193-0.157,0.351-0.351,0.351h-7.336v7.336
	c0,0.194-0.157,0.352-0.351,0.352h-7.424c-0.193,0-0.351-0.157-0.351-0.352v-7.336h-7.336c-0.193,0-0.351-0.157-0.351-0.351v-7.424
	c0-0.193,0.157-0.351,0.351-0.351h7.336v-7.336c0-0.194,0.157-0.352,0.351-0.352h7.424c0.193,0,0.351,0.157,0.351,0.352v7.336h7.336
	c0.193,0,0.351,0.157,0.351,0.351V53.712z M74.458,46.104c-2.278,2.278-5.971,2.278-8.25,0c-2.278-2.278-2.278-5.971,0-8.249
	c2.278-2.278,5.971-2.278,8.249,0C76.736,40.134,76.736,43.826,74.458,46.104z M86.479,58.125c-2.278,2.278-5.971,2.278-8.249,0
	c-2.278-2.278-2.278-5.971,0-8.249c2.278-2.278,5.971-2.278,8.25,0C88.757,52.154,88.757,55.847,86.479,58.125z"/>
</svg>
