<?xml version="1.0" encoding="utf-8"?>
<!-- Generator: Adobe Illustrator 16.0.0, SVG Export Plug-In . SVG Version: 6.00 Build 0)  -->
<!DOCTYPE svg PUBLIC "-//W3C//DTD SVG 1.1//EN" "http://www.w3.org/Graphics/SVG/1.1/DTD/svg11.dtd">
<svg version="1.1" id="Layer_3" xmlns="http://www.w3.org/2000/svg" xmlns:xlink="http://www.w3.org/1999/xlink" x="0px" y="0px"
	 width="100px" height="100px" viewBox="0 0 100 100" enable-background="new 0 0 100 100" xml:space="preserve">
<path d="M94.754,17.785H82.021l0.17-0.226c0.088-0.11,0.135-0.175,0.206-0.282c1.768-2.799,1.816-6.154,0.134-9.206
	C80.212,3.864,75.273,1.25,69.641,1.25c-9.046,0-16.188,5.641-19.641,9.003C46.548,6.891,39.406,1.25,30.359,1.25
	c-5.632,0-10.572,2.614-12.891,6.822c-1.682,3.052-1.637,6.4,0.111,9.168c0.081,0.13,0.155,0.229,0.206,0.287l0.194,0.258H5.246
	c-1.104,0-2,0.896-2,2v25.649c0,1.104,0.896,2,2,2h3.36V96.75c0,1.104,0.896,2,2,2h78.789c1.104,0,2-0.896,2-2V47.435h3.36
	c1.104,0,2-0.896,2-2V19.785C96.754,18.681,95.859,17.785,94.754,17.785z M28.85,16.003c-3.316,0-5.56-0.659-6.315-1.856
	c-0.77-1.219-0.397-2.443,0.05-3.256c0.966-1.753,3.582-3.801,7.775-3.801c5.918,0,10.995,3.328,14.213,6.119
	C40.216,14.483,33.953,16.003,28.85,16.003z M54.989,89.834h-9.979V46.483h9.979V89.834z M77.465,14.146
	c-0.756,1.197-2.998,1.856-6.313,1.856c-5.096-0.001-11.363-1.521-15.723-2.795h0c3.215-2.791,8.29-6.118,14.21-6.118
	c4.193,0,6.809,2.048,7.775,3.801C77.863,11.703,78.236,12.928,77.465,14.146z"/>
</svg>
