<?xml version="1.0" encoding="utf-8"?>
<!-- Generator: Adobe Illustrator 16.0.0, SVG Export Plug-In . SVG Version: 6.00 Build 0)  -->
<!DOCTYPE svg PUBLIC "-//W3C//DTD SVG 1.1//EN" "http://www.w3.org/Graphics/SVG/1.1/DTD/svg11.dtd">
<svg version="1.1" id="Layer_1" xmlns="http://www.w3.org/2000/svg" xmlns:xlink="http://www.w3.org/1999/xlink" x="0px" y="0px"
	 width="100px" height="100px" viewBox="0 0 100 100" enable-background="new 0 0 100 100" xml:space="preserve">
<g>
	<path d="M87.494,44.948L51.401,58.711L15.31,45.148L13.254,63.98c-0.096,0.774,0.175,1.549,0.732,2.094
		c0.558,0.545,1.337,0.799,2.109,0.688c1.976-0.288,3.997-0.434,6.005-0.434c11.994,0,22.726,5.081,26.705,12.643
		c0.432,0.822,1.284,1.336,2.212,1.336h0.766c0.928,0,1.78-0.514,2.212-1.335c3.98-7.563,14.711-12.643,26.703-12.643
		c2.013,0,4.034,0.146,6.007,0.434c0.121,0.018,0.374,0.025,0.381,0.026c1.381,0,2.601-1.039,2.5-2.5
		C89.572,64.074,87.494,44.948,87.494,44.948z"/>
	<path d="M96.908,30.774L52.281,13.978c-0.568-0.214-1.193-0.214-1.762,0L5.778,30.818c-0.974,0.367-1.619,1.299-1.619,2.34v30.405
		h5.609V36.914L50.52,52.251c0.568,0.214,1.193,0.214,1.762,0l44.627-16.797c0.974-0.367,1.619-1.299,1.619-2.34
		S97.882,31.141,96.908,30.774z"/>
	<path d="M1.486,83.421c-0.074,0.705,0.154,1.408,0.628,1.935c0.474,0.526,1.149,0.827,1.858,0.827h5.982
		c0.708,0,1.384-0.301,1.858-0.827c0.474-0.527,0.703-1.23,0.628-1.935l-1.633-15.504h-7.69L1.486,83.421z"/>
</g>
</svg>
