<?xml version="1.0" encoding="utf-8"?>
<!-- Generator: Adobe Illustrator 16.0.0, SVG Export Plug-In . SVG Version: 6.00 Build 0)  -->
<!DOCTYPE svg PUBLIC "-//W3C//DTD SVG 1.1//EN" "http://www.w3.org/Graphics/SVG/1.1/DTD/svg11.dtd">
<svg version="1.1" id="Layer_3" xmlns="http://www.w3.org/2000/svg" xmlns:xlink="http://www.w3.org/1999/xlink" x="0px" y="0px"
	 width="100px" height="100px" viewBox="0 0 100 100" enable-background="new 0 0 100 100" xml:space="preserve">
<path d="M98.237,85.913L70.223,57.9c-0.812-0.812-2.127-0.81-2.938,0l-0.756,0.755l-13.18-13.18l8.899-8.898l1.613,1.61
	c0.812,0.813,2.127,0.813,2.938,0l8.357-8.356c0.812-0.812,0.812-2.126,0-2.938l-25.13-25.13c-0.812-0.812-2.126-0.812-2.938,0
	l-8.358,8.357c-0.39,0.389-0.609,0.917-0.609,1.469c0,0.55,0.219,1.079,0.609,1.469l1.612,1.611L14.67,40.345l-1.611-1.613
	c-0.39-0.39-0.918-0.608-1.469-0.608h0c-0.551,0-1.08,0.219-1.469,0.608l-8.358,8.359c-0.389,0.39-0.608,0.917-0.608,1.469
	c0,0.55,0.219,1.079,0.608,1.469l25.13,25.13c0.812,0.812,2.127,0.812,2.938,0l8.358-8.359c0.39-0.39,0.609-0.917,0.609-1.469
	c0-0.55-0.219-1.079-0.609-1.469l-1.612-1.611l8.9-8.9l13.179,13.18L57.9,67.284c-0.39,0.39-0.609,0.919-0.609,1.469
	c0,0.552,0.219,1.079,0.609,1.469l28.014,28.015c0.39,0.39,0.918,0.608,1.469,0.608s1.079-0.219,1.469-0.608l9.385-9.386
	C99.049,88.039,99.049,86.725,98.237,85.913z"/>
</svg>
