<?xml version="1.0" encoding="utf-8"?>
<!-- Generator: Adobe Illustrator 16.0.0, SVG Export Plug-In . SVG Version: 6.00 Build 0)  -->
<!DOCTYPE svg PUBLIC "-//W3C//DTD SVG 1.1//EN" "http://www.w3.org/Graphics/SVG/1.1/DTD/svg11.dtd">
<svg version="1.1" id="Layer_2" xmlns="http://www.w3.org/2000/svg" xmlns:xlink="http://www.w3.org/1999/xlink" x="0px" y="0px"
	 width="100px" height="100px" viewBox="0 0 100 100" enable-background="new 0 0 100 100" xml:space="preserve">
<path d="M97.807,38.09l-7.006-7.007c-0.781-0.781-2.047-0.781-2.828,0l-1.79,1.79l-20.83-20.831
	c-0.488-0.489-1.196-0.693-1.87-0.533c-0.573,0.134-1.759,0.359-3.255,0.359c-2.494,0-6.162-0.624-9.475-3.594
	c-0.79-0.708-1.997-0.676-2.749,0.075l-4.1,4.099c-0.375,0.375-0.586,0.883-0.586,1.414c0,0.53,0.211,1.039,0.586,1.414
	l11.892,11.892L2.193,80.772c-0.781,0.781-0.781,2.047,0,2.828l8.051,8.051c0.391,0.391,0.902,0.586,1.414,0.586
	s1.023-0.195,1.414-0.586l53.604-53.602l7.166,7.166l-1.789,1.79c-0.781,0.781-0.781,2.047,0,2.828l7.006,7.006
	c0.75,0.75,2.078,0.75,2.828,0l15.92-15.92C98.588,40.137,98.588,38.871,97.807,38.09z"/>
</svg>
