<?xml version="1.0" encoding="utf-8"?>
<!-- Generator: Adobe Illustrator 16.0.0, SVG Export Plug-In . SVG Version: 6.00 Build 0)  -->
<!DOCTYPE svg PUBLIC "-//W3C//DTD SVG 1.1//EN" "http://www.w3.org/Graphics/SVG/1.1/DTD/svg11.dtd">
<svg version="1.1" id="Layer_4" xmlns="http://www.w3.org/2000/svg" xmlns:xlink="http://www.w3.org/1999/xlink" x="0px" y="0px"
	 width="100px" height="100px" viewBox="0 0 100 100" enable-background="new 0 0 100 100" xml:space="preserve">
<path d="M50,2.333C23.674,2.333,2.334,23.674,2.334,50S23.674,97.667,50,97.667S97.666,76.326,97.666,50S76.326,2.333,50,2.333z
	 M55.348,85.584c0,0.855-0.693,1.548-1.549,1.548h-7.611c-0.855,0-1.549-0.693-1.549-1.548v-6.838c0-0.855,0.693-1.548,1.549-1.548
	h7.611c0.855,0,1.549,0.693,1.549,1.548V85.584z M63.675,52.709c-4.519,3.867-8.085,6.919-8.256,16.878
	c-0.015,0.845-0.704,1.522-1.548,1.522h-7.742c-0.415,0-0.813-0.167-1.104-0.462c-0.291-0.296-0.451-0.696-0.445-1.11
	c0.229-14.946,7.059-20.792,12.046-25.06c3.817-3.269,5.366-4.755,5.366-8.772c0-6.617-5.383-12-11.999-12
	c-6.358,0-11.62,4.969-11.979,11.313c-0.047,0.819-0.726,1.46-1.546,1.46h-7.75c-0.421,0-0.822-0.17-1.114-0.473
	s-0.448-0.71-0.434-1.13c0.444-12.341,10.47-22.008,22.823-22.008c12.593,0,22.837,10.245,22.837,22.837
	C72.83,44.873,67.754,49.218,63.675,52.709z"/>
</svg>
