<?xml version="1.0" encoding="utf-8"?>
<!-- Generator: Adobe Illustrator 16.0.0, SVG Export Plug-In . SVG Version: 6.00 Build 0)  -->
<!DOCTYPE svg PUBLIC "-//W3C//DTD SVG 1.1//EN" "http://www.w3.org/Graphics/SVG/1.1/DTD/svg11.dtd">
<svg version="1.1" id="Layer_4" xmlns="http://www.w3.org/2000/svg" xmlns:xlink="http://www.w3.org/1999/xlink" x="0px" y="0px"
	 width="100px" height="100px" viewBox="0 0 100 100" enable-background="new 0 0 100 100" xml:space="preserve">
<path d="M96.75,64.094h-6.164V60.09c0-7.135-5.804-12.938-12.938-12.938H53.696V35.906h6.087c1.104,0,2-0.896,2-2V14.34
	c0-1.104-0.896-2-2-2H40.217c-1.104,0-2,0.896-2,2v19.566c0,1.104,0.896,2,2,2h6.087v11.245H22.353
	c-7.135,0-12.938,5.804-12.938,12.938v4.004H3.25c-1.104,0-2,0.896-2,2V85.66c0,1.104,0.896,2,2,2h19.566c1.104,0,2-0.896,2-2
	V66.094c0-1.104-0.896-2-2-2h-6.009V60.09c0-3.058,2.487-5.545,5.545-5.545h23.951v9.549h-6.087c-1.104,0-2,0.896-2,2V85.66
	c0,1.104,0.896,2,2,2h19.566c1.104,0,2-0.896,2-2V66.094c0-1.104-0.896-2-2-2h-6.087v-9.549h23.951c3.058,0,5.545,2.487,5.545,5.545
	v4.004h-6.009c-1.104,0-2,0.896-2,2V85.66c0,1.104,0.896,2,2,2H96.75c1.104,0,2-0.896,2-2V66.094
	C98.75,64.989,97.854,64.094,96.75,64.094z"/>
</svg>
