<?xml version="1.0" encoding="utf-8"?>
<!-- Generator: Adobe Illustrator 16.0.0, SVG Export Plug-In . SVG Version: 6.00 Build 0)  -->
<!DOCTYPE svg PUBLIC "-//W3C//DTD SVG 1.1//EN" "http://www.w3.org/Graphics/SVG/1.1/DTD/svg11.dtd">
<svg version="1.1" id="Layer_1" xmlns="http://www.w3.org/2000/svg" xmlns:xlink="http://www.w3.org/1999/xlink" x="0px" y="0px"
	 width="100px" height="100px" viewBox="0 0 100 100" enable-background="new 0 0 100 100" xml:space="preserve">
<g>
	<path d="M74.065,46.424c-4.566,2.174-8.287,8.774-12.641,4.419c-2.646-2.872-5.785-7.441-9.392-12.609
		c-3.9-5.556-8.872-10.333-14.722-4.875c-6.531,6.143-11.017,22.813-11.406,31.392l61.711,0.02
		C86.203,59.731,80.718,43.256,74.065,46.424z"/>
	<circle cx="73.777" cy="29.155" r="7.588"/>
	<path d="M96.908,11.838H16.613c-1.245,0-2.256,1.01-2.256,2.255v11.406H3.092c-1.245,0-2.256,1.01-2.256,2.255v58.152
		c0,1.246,1.011,2.255,2.256,2.255h80.295c1.245,0,2.256-1.01,2.256-2.255V74.501h11.265c1.245,0,2.256-1.01,2.256-2.255V14.093
		C99.164,12.848,98.153,11.838,96.908,11.838z M79.588,82.107H6.891V31.554h7.466v35.148c-1.133,4.377-1.831,8.583-1.973,11.712
		l61.711,0.02c-0.27-0.964-0.692-2.35-1.241-3.933h6.734V82.107z M93.109,68.446H20.412V17.893h72.697V68.446z"/>
</g>
</svg>
