<?xml version="1.0" encoding="utf-8"?>
<!-- Generator: Adobe Illustrator 16.0.0, SVG Export Plug-In . SVG Version: 6.00 Build 0)  -->
<!DOCTYPE svg PUBLIC "-//W3C//DTD SVG 1.1//EN" "http://www.w3.org/Graphics/SVG/1.1/DTD/svg11.dtd">
<svg version="1.1" id="Layer_3" xmlns="http://www.w3.org/2000/svg" xmlns:xlink="http://www.w3.org/1999/xlink" x="0px" y="0px"
	 width="100px" height="100px" viewBox="0 0 100 100" enable-background="new 0 0 100 100" xml:space="preserve">
<path d="M83.801,18.506L67.532,2.236c-0.469-0.469-1.104-0.732-1.768-0.732H17.967c-1.381,0-2.5,1.119-2.5,2.5v91.992
	c0,1.381,1.119,2.5,2.5,2.5h64.066c1.381,0,2.5-1.119,2.5-2.5V20.273C84.533,19.609,84.27,18.975,83.801,18.506z M64.063,39.205
	c3.464,0,6.271,2.809,6.271,6.271c0,3.462-2.808,6.271-6.271,6.271c-3.462,0-6.271-2.809-6.271-6.271
	C57.792,42.014,60.601,39.205,64.063,39.205z M76.711,91.164l-52.843,0.027V60.803c3.644-5.738,8.62-10.775,14.904-10.826
	c14.657-0.12,22.613,26.925,22.613,26.925s5.72-12.958,15.325-8.061V91.164z M63.555,23.846c-0.337,0-0.659-0.133-0.897-0.371
	c-0.237-0.238-0.372-0.561-0.372-0.897l0.002-15.126l16.395,16.395H63.555z"/>
</svg>
