<?xml version="1.0" encoding="utf-8"?>
<!-- Generator: Adobe Illustrator 16.0.0, SVG Export Plug-In . SVG Version: 6.00 Build 0)  -->
<!DOCTYPE svg PUBLIC "-//W3C//DTD SVG 1.1//EN" "http://www.w3.org/Graphics/SVG/1.1/DTD/svg11.dtd">
<svg version="1.1" id="Layer_1" xmlns="http://www.w3.org/2000/svg" xmlns:xlink="http://www.w3.org/1999/xlink" x="0px" y="0px"
	 width="100px" height="100px" viewBox="0 0 100 100" enable-background="new 0 0 100 100" xml:space="preserve">
<path d="M96.902,11.935H16.415c-1.249,0-2.261,1.012-2.261,2.261v11.057H3.098c-1.249,0-2.261,1.012-2.261,2.261v58.292
	c0,1.249,1.013,2.261,2.261,2.261h80.488c1.248,0,2.261-1.012,2.261-2.261V74.748h11.056c1.249,0,2.261-1.012,2.261-2.261V14.195
	C99.164,12.946,98.151,11.935,96.902,11.935z M76.03,18.418c4.771,0,8.639,3.867,8.639,8.638c0,4.771-3.868,8.637-8.639,8.637
	c-4.77,0-8.637-3.867-8.637-8.637C67.393,22.285,71.26,18.418,76.03,18.418z M78.466,80.918l-70.25-0.022
	c0.284-6.229,2.467-16.201,5.938-24.424v16.015c0,1.249,1.013,2.261,2.261,2.261h59.289C76.709,77.001,78.211,80.01,78.466,80.918z
	 M21.534,67.579c0.444-9.766,5.549-28.743,12.985-35.735c6.659-6.215,12.318-0.777,16.758,5.549
	c4.106,5.882,7.681,11.084,10.691,14.354c4.957,4.957,9.191-2.556,14.39-5.031c7.574-3.607,13.817,15.148,15.426,20.886
	L21.534,67.579z"/>
</svg>
