<?xml version="1.0" encoding="utf-8"?>
<!-- Generator: Adobe Illustrator 16.0.0, SVG Export Plug-In . SVG Version: 6.00 Build 0)  -->
<!DOCTYPE svg PUBLIC "-//W3C//DTD SVG 1.1//EN" "http://www.w3.org/Graphics/SVG/1.1/DTD/svg11.dtd">
<svg version="1.1" id="Layer_1" xmlns="http://www.w3.org/2000/svg" xmlns:xlink="http://www.w3.org/1999/xlink" x="0px" y="0px"
	 width="100px" height="100px" viewBox="0 0 100 100" enable-background="new 0 0 100 100" xml:space="preserve">
<path d="M95.328,2.125H4.672c-1.406,0-2.547,1.14-2.547,2.546v90.657c0,1.406,1.141,2.546,2.547,2.546h90.656
	c1.406,0,2.547-1.14,2.547-2.546V4.671C97.875,3.265,96.734,2.125,95.328,2.125z M71.818,20.935c5.374,0,9.73,4.355,9.73,9.729
	c0,5.373-4.356,9.729-9.73,9.729c-5.372,0-9.729-4.355-9.729-9.729C62.09,25.29,66.446,20.935,71.818,20.935z M10.438,89.8
	c0.5-11,6.25-32.375,14.625-40.25c7.5-7,13.875-0.875,18.875,6.25c4.625,6.625,8.651,12.484,12.042,16.167
	c5.583,5.583,10.353-2.878,16.208-5.667c8.531-4.063,15.563,17.063,17.375,23.525L10.438,89.8z"/>
</svg>
