<?xml version="1.0" encoding="utf-8"?>
<!-- Generator: Adobe Illustrator 16.0.0, SVG Export Plug-In . SVG Version: 6.00 Build 0)  -->
<!DOCTYPE svg PUBLIC "-//W3C//DTD SVG 1.1//EN" "http://www.w3.org/Graphics/SVG/1.1/DTD/svg11.dtd">
<svg version="1.1" id="Layer_3" xmlns="http://www.w3.org/2000/svg" xmlns:xlink="http://www.w3.org/1999/xlink" x="0px" y="0px"
	 width="100px" height="100px" viewBox="0 0 100 100" enable-background="new 0 0 100 100" xml:space="preserve">
<path d="M98.516,64.738L82.759,7.272c-0.238-0.868-1.027-1.471-1.929-1.471H19.17c-0.901,0-1.69,0.603-1.929,1.471L1.484,64.738
	c-0.047,0.173-0.071,0.351-0.071,0.529v26.931c0,1.104,0.896,2,2,2h93.174c1.104,0,2-0.896,2-2V65.268
	C98.587,65.089,98.563,64.911,98.516,64.738z M74.873,14.146l11.931,43.01h-19.77c-1.104,0-2,0.896-2,2v19.169H34.966V59.156
	c0-1.104-0.896-2-2-2h-19.77l11.931-43.01H74.873z"/>
</svg>
