<?xml version="1.0" encoding="utf-8"?>
<!-- Generator: Adobe Illustrator 16.0.0, SVG Export Plug-In . SVG Version: 6.00 Build 0)  -->
<!DOCTYPE svg PUBLIC "-//W3C//DTD SVG 1.1//EN" "http://www.w3.org/Graphics/SVG/1.1/DTD/svg11.dtd">
<svg version="1.1" id="Layer_2" xmlns="http://www.w3.org/2000/svg" xmlns:xlink="http://www.w3.org/1999/xlink" x="0px" y="0px"
	 width="100px" height="100px" viewBox="0 0 100 100" enable-background="new 0 0 100 100" xml:space="preserve">
<path d="M50,1.875C23.422,1.875,1.875,23.421,1.875,50S23.422,98.125,50,98.125c26.579,0,48.125-21.546,48.125-48.125
	S76.579,1.875,50,1.875z M57.067,82.136c0,0.829-0.671,1.5-1.5,1.5H44.433c-0.829,0-1.5-0.671-1.5-1.5V39.704
	c0-0.829,0.671-1.5,1.5-1.5h11.135c0.829,0,1.5,0.671,1.5,1.5V82.136z M50,33.863c-4.825,0-8.75-3.925-8.75-8.75
	s3.925-8.75,8.75-8.75s8.75,3.925,8.75,8.75S54.825,33.863,50,33.863z"/>
</svg>
