<?xml version="1.0" encoding="utf-8"?>
<!-- Generator: Adobe Illustrator 16.0.0, SVG Export Plug-In . SVG Version: 6.00 Build 0)  -->
<!DOCTYPE svg PUBLIC "-//W3C//DTD SVG 1.1//EN" "http://www.w3.org/Graphics/SVG/1.1/DTD/svg11.dtd">
<svg version="1.1" id="Layer_4" xmlns="http://www.w3.org/2000/svg" xmlns:xlink="http://www.w3.org/1999/xlink" x="0px" y="0px"
	 width="100px" height="100px" viewBox="0 0 100 100" enable-background="new 0 0 100 100" xml:space="preserve">
<g>
	<path d="M63.537,85.053H58.4V31.748c0-1.104-0.896-2-2-2H36.463c-1.104,0-2,0.896-2,2v6.685c0,1.104,0.896,2,2,2h5.646v44.62
		h-5.137c-1.104,0-2,0.896-2,2v9.488c0,1.104,0.896,2,2,2h26.564c1.104,0,2-0.896,2-2v-9.488
		C65.537,85.949,64.642,85.053,63.537,85.053z"/>
	<path d="M50,24.886c6.459,0,11.714-5.255,11.714-11.714S56.459,1.458,50,1.458S38.286,6.713,38.286,13.172S43.541,24.886,50,24.886
		z"/>
</g>
</svg>
