<?xml version="1.0" encoding="utf-8"?>
<!-- Generator: Adobe Illustrator 16.0.0, SVG Export Plug-In . SVG Version: 6.00 Build 0)  -->
<!DOCTYPE svg PUBLIC "-//W3C//DTD SVG 1.1//EN" "http://www.w3.org/Graphics/SVG/1.1/DTD/svg11.dtd">
<svg version="1.1" id="Layer_4" xmlns="http://www.w3.org/2000/svg" xmlns:xlink="http://www.w3.org/1999/xlink" x="0px" y="0px"
	 width="100px" height="100px" viewBox="0 0 100 100" enable-background="new 0 0 100 100" xml:space="preserve">
<path d="M52.51,3.889C51.949,3.078,51.011,2.594,50,2.594s-1.949,0.484-2.506,1.291c-3.095,4.446-30.231,43.93-30.231,60.784
	c0,18.052,14.686,32.737,32.737,32.737s32.737-14.686,32.737-32.737C82.737,47.814,55.601,8.331,52.51,3.889z M49.924,85.312
	c-0.402,2.166-2.293,3.68-4.42,3.68c-0.272,0-0.549-0.025-0.826-0.076c-15.646-2.903-20.04-18.395-20.178-26.18
	c-0.044-2.484,1.935-4.534,4.42-4.578c0.026-0.001,0.054-0.001,0.081-0.001c2.443,0,4.445,1.954,4.497,4.405
	c0.017,0.646,0.539,15.225,12.822,17.504C48.764,80.52,50.377,82.868,49.924,85.312z"/>
</svg>
