<?xml version="1.0" encoding="utf-8"?>
<!-- Generator: Adobe Illustrator 16.0.0, SVG Export Plug-In . SVG Version: 6.00 Build 0)  -->
<!DOCTYPE svg PUBLIC "-//W3C//DTD SVG 1.1//EN" "http://www.w3.org/Graphics/SVG/1.1/DTD/svg11.dtd">
<svg version="1.1" id="Layer_2" xmlns="http://www.w3.org/2000/svg" xmlns:xlink="http://www.w3.org/1999/xlink" x="0px" y="0px"
	 width="100px" height="100px" viewBox="0 0 100 100" enable-background="new 0 0 100 100" xml:space="preserve">
<g>
	<path d="M35.146,50c0,8.19,6.663,14.853,14.854,14.853S64.854,58.19,64.854,50S58.19,35.147,50,35.147S35.146,41.81,35.146,50z"/>
	<path d="M26.622,42.297c0-11.347,10.389-20.579,23.157-20.579c12.321,0,22.276,8.847,23.156,20.578
		c0.271,3.649,2.92,6.298,6.297,6.298c3.473,0,6.298-2.825,6.298-6.297c0-18.292-16.038-33.174-35.751-33.174
		C32.675,9.123,17.91,20.426,14.674,36H3.438c-1.104,0-2,0.896-2,2v8.595c0,1.104,0.896,2,2,2h16.888
		C24.092,48.594,26.622,46.064,26.622,42.297z"/>
	<path d="M96.563,51.406H79.675c-3.766,0-6.296,2.53-6.296,6.297c0,11.347-10.389,20.579-23.158,20.579
		c-12.321,0-22.276-8.847-23.156-20.578c-0.267-3.59-2.974-6.298-6.297-6.298c-3.473,0-6.298,2.825-6.298,6.297
		c0,18.292,16.038,33.174,35.751,33.174c17.104,0,31.869-11.303,35.105-26.876h11.236c1.104,0,2-0.896,2-2v-8.595
		C98.563,52.301,97.667,51.406,96.563,51.406z"/>
</g>
</svg>
