<?xml version="1.0" encoding="utf-8"?>
<!-- Generator: Adobe Illustrator 16.0.0, SVG Export Plug-In . SVG Version: 6.00 Build 0)  -->
<!DOCTYPE svg PUBLIC "-//W3C//DTD SVG 1.1//EN" "http://www.w3.org/Graphics/SVG/1.1/DTD/svg11.dtd">
<svg version="1.1" id="Layer_2" xmlns="http://www.w3.org/2000/svg" xmlns:xlink="http://www.w3.org/1999/xlink" x="0px" y="0px"
	 width="100px" height="100px" viewBox="0 0 100 100" enable-background="new 0 0 100 100" xml:space="preserve">
<g>
	<path d="M44.04,1.25H3.25c-1.104,0-2,0.896-2,2v40.79c0,1.104,0.896,2,2,2h40.79c1.104,0,2-0.896,2-2V3.25
		C46.04,2.146,45.144,1.25,44.04,1.25z M15.411,9.162c0.232-0.561,0.779-0.926,1.386-0.926h13.697c0.607,0,1.154,0.365,1.386,0.926
		c0.232,0.561,0.104,1.206-0.325,1.635l-6.849,6.848c-0.293,0.293-0.677,0.439-1.061,0.439s-0.768-0.146-1.061-0.439l-6.848-6.848
		C15.307,10.368,15.179,9.723,15.411,9.162z M9.735,31.993c-0.193,0-0.388-0.037-0.574-0.114c-0.561-0.232-0.926-0.779-0.926-1.386
		V16.797c0-0.606,0.365-1.153,0.926-1.386c0.561-0.233,1.206-0.104,1.635,0.325l6.848,6.848c0.281,0.281,0.439,0.663,0.439,1.061
		s-0.158,0.779-0.439,1.061l-6.848,6.849C10.51,31.841,10.126,31.993,9.735,31.993z M31.878,38.128
		c-0.232,0.561-0.779,0.926-1.386,0.926H16.796c-0.606,0-1.154-0.365-1.386-0.926c-0.232-0.561-0.104-1.206,0.325-1.635l6.849-6.849
		c0.281-0.281,0.663-0.439,1.061-0.439s0.779,0.158,1.061,0.439l6.848,6.849C31.982,36.922,32.111,37.567,31.878,38.128z
		 M39.053,30.493c0,0.606-0.366,1.153-0.926,1.386c-0.186,0.077-0.381,0.114-0.574,0.114c-0.391,0-0.774-0.152-1.061-0.439
		l-6.848-6.849c-0.586-0.586-0.586-1.535,0-2.121l6.848-6.848c0.428-0.429,1.074-0.559,1.635-0.325
		c0.561,0.232,0.926,0.779,0.926,1.386V30.493z"/>
	<path d="M96.75,53.96H55.96c-1.104,0-2,0.896-2,2v40.79c0,1.104,0.896,2,2,2h40.79c1.104,0,2-0.896,2-2V55.96
		C98.75,54.855,97.854,53.96,96.75,53.96z M68.121,61.872c0.232-0.561,0.779-0.926,1.386-0.926h13.697
		c0.606,0,1.154,0.365,1.386,0.926c0.232,0.561,0.104,1.206-0.325,1.635l-6.849,6.849c-0.281,0.281-0.663,0.439-1.061,0.439
		s-0.779-0.158-1.061-0.439l-6.848-6.849C68.017,63.078,67.889,62.433,68.121,61.872z M62.446,84.703
		c-0.193,0-0.388-0.037-0.574-0.114c-0.561-0.232-0.926-0.779-0.926-1.386V69.507c0-0.606,0.365-1.153,0.926-1.386
		c0.562-0.233,1.207-0.104,1.635,0.325l6.848,6.849c0.281,0.281,0.439,0.663,0.439,1.061s-0.158,0.779-0.439,1.061l-6.848,6.848
		C63.22,84.551,62.836,84.703,62.446,84.703z M84.588,90.838c-0.232,0.561-0.779,0.926-1.386,0.926H69.506
		c-0.607,0-1.154-0.365-1.386-0.926c-0.232-0.561-0.104-1.206,0.325-1.635l6.849-6.848c0.586-0.586,1.535-0.586,2.121,0l6.848,6.848
		C84.692,89.632,84.821,90.277,84.588,90.838z M91.764,83.203c0,0.606-0.365,1.153-0.926,1.386
		c-0.186,0.077-0.381,0.114-0.574,0.114c-0.391,0-0.774-0.152-1.061-0.439l-6.848-6.848c-0.281-0.281-0.439-0.663-0.439-1.061
		s0.158-0.779,0.439-1.061l6.848-6.849c0.428-0.43,1.071-0.559,1.635-0.325c0.561,0.232,0.926,0.779,0.926,1.386V83.203z"/>
	<path d="M44.04,53.96H3.25c-1.104,0-2,0.896-2,2v40.79c0,1.104,0.896,2,2,2h40.79c1.104,0,2-0.896,2-2V55.96
		C46.04,54.855,45.144,53.96,44.04,53.96z M39.054,90.264c0,0.828-0.671,1.5-1.5,1.5H9.736c-0.829,0-1.5-0.672-1.5-1.5V62.446
		c0-0.828,0.671-1.5,1.5-1.5h27.817c0.829,0,1.5,0.672,1.5,1.5V90.264z"/>
	<path d="M96.75,1.25H55.96c-1.104,0-2,0.896-2,2v40.79c0,1.104,0.896,2,2,2h40.79c1.104,0,2-0.896,2-2V3.25
		C98.75,2.146,97.854,1.25,96.75,1.25z M91.764,37.554c0,0.828-0.671,1.5-1.5,1.5H62.447c-0.829,0-1.5-0.672-1.5-1.5V9.736
		c0-0.828,0.671-1.5,1.5-1.5h27.817c0.829,0,1.5,0.672,1.5,1.5V37.554z"/>
</g>
</svg>
