<?xml version="1.0" encoding="utf-8"?>
<!-- Generator: Adobe Illustrator 16.0.0, SVG Export Plug-In . SVG Version: 6.00 Build 0)  -->
<!DOCTYPE svg PUBLIC "-//W3C//DTD SVG 1.1//EN" "http://www.w3.org/Graphics/SVG/1.1/DTD/svg11.dtd">
<svg version="1.1" id="Layer_3" xmlns="http://www.w3.org/2000/svg" xmlns:xlink="http://www.w3.org/1999/xlink" x="0px" y="0px"
	 width="100px" height="100px" viewBox="0 0 100 100" enable-background="new 0 0 100 100" xml:space="preserve">
<g>
	<path d="M70.082,45.475L50.474,65.082C61.198,64.831,69.831,56.197,70.082,45.475z"/>
	<path d="M97.964,46.548c-0.45-0.529-6.245-7.23-15.403-13.554l-6.2,6.2C82.351,43.148,86.92,47.469,89.372,50
		C83.995,55.555,68.46,69.729,50,69.729c-1.334,0-2.651-0.082-3.952-0.222l-7.439,7.439c3.639,0.909,7.449,1.45,11.391,1.45
		c26.427,0,47.098-23.926,47.965-24.946C99.666,51.451,99.666,48.549,97.964,46.548z"/>
	<path d="M91.411,16.66c0-0.266-0.105-0.52-0.293-0.707l-7.071-7.07c-0.391-0.391-1.023-0.391-1.414,0L66.804,24.711
		C61.602,22.818,55.949,21.603,50,21.603c-26.427,0-47.098,23.926-47.965,24.946c-1.701,2-1.701,4.902,0.001,6.903
		c0.517,0.607,8.083,9.354,19.707,16.32l-12.86,12.86c-0.188,0.188-0.293,0.441-0.293,0.707s0.105,0.52,0.293,0.707l7.071,7.07
		c0.195,0.195,0.451,0.293,0.707,0.293s0.512-0.098,0.707-0.293l73.75-73.75C91.305,17.18,91.411,16.926,91.411,16.66z M10.628,50
		c3.631-3.751,11.898-11.429,22.567-16.021c-2.081,3.166-3.301,6.949-3.301,11.021c0,4.665,1.601,8.945,4.27,12.351l-6.124,6.124
		C19.888,58.955,13.649,53.12,10.628,50z"/>
</g>
</svg>
