<?xml version="1.0" encoding="utf-8"?>
<!-- Generator: Adobe Illustrator 16.0.0, SVG Export Plug-In . SVG Version: 6.00 Build 0)  -->
<!DOCTYPE svg PUBLIC "-//W3C//DTD SVG 1.1//EN" "http://www.w3.org/Graphics/SVG/1.1/DTD/svg11.dtd">
<svg version="1.1" id="Layer_1" xmlns="http://www.w3.org/2000/svg" xmlns:xlink="http://www.w3.org/1999/xlink" x="0px" y="0px"
	 width="100px" height="100px" viewBox="0 0 100 100" enable-background="new 0 0 100 100" xml:space="preserve">
<path d="M88.563,1.832c-0.379-0.481-0.958-0.763-1.571-0.763H33.48c-0.924,0-1.727,0.632-1.944,1.53l-2.204,9.115
	c-0.144,0.596-0.007,1.225,0.373,1.707c0.379,0.481,0.958,0.763,1.571,0.763h18.803l-17.2,71.631H15.214
	c-0.924,0-1.727,0.632-1.944,1.529l-2.205,9.115c-0.144,0.597-0.007,1.226,0.373,1.708c0.379,0.481,0.958,0.763,1.571,0.763H66.52
	c0.924,0,1.727-0.632,1.944-1.53l2.204-9.115c0.144-0.596,0.007-1.225-0.373-1.707c-0.379-0.481-0.958-0.763-1.571-0.763H50.202
	l17.199-71.631h17.385c0.924,0,1.727-0.632,1.944-1.529l2.205-9.115C89.079,2.943,88.942,2.314,88.563,1.832z"/>
</svg>
