<?xml version="1.0" encoding="utf-8"?>
<!-- Generator: Adobe Illustrator 16.0.0, SVG Export Plug-In . SVG Version: 6.00 Build 0)  -->
<!DOCTYPE svg PUBLIC "-//W3C//DTD SVG 1.1//EN" "http://www.w3.org/Graphics/SVG/1.1/DTD/svg11.dtd">
<svg version="1.1" id="Layer_3" xmlns="http://www.w3.org/2000/svg" xmlns:xlink="http://www.w3.org/1999/xlink" x="0px" y="0px"
	 width="100px" height="100px" viewBox="0 0 100 100" enable-background="new 0 0 100 100" xml:space="preserve">
<path d="M96.046,17.947V7.492c0-3.031-2.458-5.489-5.489-5.489H29.718c-3.031,0-5.489,2.458-5.489,5.489v8.438H13.051
	c-5.016,0-9.097,4.081-9.097,9.097l0.016,0.389c0.404,4.979,4.273,45.492,22.819,52.01c-1.535,0.975-2.56,2.676-2.56,4.627v10.455
	c0,3.031,2.458,5.489,5.489,5.489h60.838c3.031,0,5.489-2.458,5.489-5.489V82.053c0-2.933-2.308-5.308-5.203-5.459V23.406
	C93.738,23.255,96.046,20.88,96.046,17.947z M13.623,25.536h15.809v42.646C20.066,64.182,14.863,39.03,13.623,25.536z"/>
</svg>
