<?xml version="1.0" encoding="utf-8"?>
<!-- Generator: Adobe Illustrator 16.0.0, SVG Export Plug-In . SVG Version: 6.00 Build 0)  -->
<!DOCTYPE svg PUBLIC "-//W3C//DTD SVG 1.1//EN" "http://www.w3.org/Graphics/SVG/1.1/DTD/svg11.dtd">
<svg version="1.1" id="Layer_4" xmlns="http://www.w3.org/2000/svg" xmlns:xlink="http://www.w3.org/1999/xlink" x="0px" y="0px"
	 width="100px" height="100px" viewBox="0 0 100 100" enable-background="new 0 0 100 100" xml:space="preserve">
<g>
	<path d="M98.572,72.569c-0.093-0.109-0.23-0.172-0.374-0.172H1.802c-0.144,0-0.28,0.063-0.374,0.172
		c-0.094,0.108-0.136,0.253-0.115,0.395c0.014,0.09,1.468,9.016,12.753,9.016h71.868c11.285,0,12.739-8.926,12.753-9.016
		C98.708,72.822,98.666,72.678,98.572,72.569z M57.25,78.855h-14.5v-3.334h14.5V78.855z"/>
	<path d="M11.815,68.927h76.369c1.104,0,2-0.896,2-2V20.021c0-1.104-0.896-2-2-2H11.815c-1.104,0-2,0.896-2,2v46.906
		C9.815,68.031,10.711,68.927,11.815,68.927z M16.815,25.021h66.369v36.906H16.815V25.021z"/>
</g>
</svg>
