<?xml version="1.0" encoding="utf-8"?>
<!-- Generator: Adobe Illustrator 16.0.0, SVG Export Plug-In . SVG Version: 6.00 Build 0)  -->
<!DOCTYPE svg PUBLIC "-//W3C//DTD SVG 1.1//EN" "http://www.w3.org/Graphics/SVG/1.1/DTD/svg11.dtd">
<svg version="1.1" id="Layer_2" xmlns="http://www.w3.org/2000/svg" xmlns:xlink="http://www.w3.org/1999/xlink" x="0px" y="0px"
	 width="100px" height="100px" viewBox="0 0 100 100" enable-background="new 0 0 100 100" xml:space="preserve">
<g>
	<path d="M93.764,3H6.236c-1.104,0-2,0.896-2,2v21.935c0,1.104,0.896,2,2,2h87.527c1.104,0,2-0.896,2-2V5
		C95.764,3.896,94.868,3,93.764,3z"/>
	<path d="M59.281,34.09H40.719c-1.104,0-2,0.896-2,2v14.186c0,1.104,0.896,2,2,2h18.563c1.104,0,2-0.896,2-2V36.09
		C61.281,34.985,60.386,34.09,59.281,34.09z"/>
	<path d="M59.281,60.322H40.719c-1.104,0-2,0.896-2,2V95c0,1.104,0.896,2,2,2h18.563c1.104,0,2-0.896,2-2V62.322
		C61.281,61.218,60.386,60.322,59.281,60.322z"/>
	<path d="M93.764,34.09H75.201c-1.104,0-2,0.896-2,2v29.259c0,1.104,0.896,2,2,2h18.563c1.104,0,2-0.896,2-2V36.09
		C95.764,34.985,94.868,34.09,93.764,34.09z"/>
	<path d="M24.799,34.09H6.236c-1.104,0-2,0.896-2,2v29.259c0,1.104,0.896,2,2,2h18.563c1.104,0,2-0.896,2-2V36.09
		C26.799,34.985,25.903,34.09,24.799,34.09z"/>
	<path d="M24.799,75.411H6.236c-1.104,0-2,0.896-2,2V95c0,1.104,0.896,2,2,2h18.563c1.104,0,2-0.896,2-2V77.411
		C26.799,76.306,25.903,75.411,24.799,75.411z"/>
	<path d="M93.764,75.411H75.201c-1.104,0-2,0.896-2,2V95c0,1.104,0.896,2,2,2h18.563c1.104,0,2-0.896,2-2V77.411
		C95.764,76.306,94.868,75.411,93.764,75.411z"/>
</g>
</svg>
