<?xml version="1.0" encoding="utf-8"?>
<!-- Generator: Adobe Illustrator 16.0.0, SVG Export Plug-In . SVG Version: 6.00 Build 0)  -->
<!DOCTYPE svg PUBLIC "-//W3C//DTD SVG 1.1//EN" "http://www.w3.org/Graphics/SVG/1.1/DTD/svg11.dtd">
<svg version="1.1" id="Layer_1" xmlns="http://www.w3.org/2000/svg" xmlns:xlink="http://www.w3.org/1999/xlink" x="0px" y="0px"
	 width="100px" height="100px" viewBox="0 0 100 100" enable-background="new 0 0 100 100" xml:space="preserve">
<g>
	<path d="M19.563,30.077h15.75c0.829,0,1.5-0.671,1.5-1.5v-5.644c0-0.829-0.671-1.5-1.5-1.5h-15.75c-0.829,0-1.5,0.671-1.5,1.5
		v5.644C18.063,29.406,18.734,30.077,19.563,30.077z"/>
	<path d="M45.688,30.077h34.75c0.829,0,1.5-0.671,1.5-1.5v-5.644c0-0.829-0.671-1.5-1.5-1.5h-34.75c-0.829,0-1.5,0.671-1.5,1.5
		v5.644C44.188,29.406,44.859,30.077,45.688,30.077z"/>
	<path d="M95.329,2.125H4.671c-1.406,0-2.546,1.14-2.546,2.546v90.657c0,1.406,1.14,2.546,2.546,2.546h90.657
		c1.406,0,2.546-1.14,2.546-2.546V4.671C97.875,3.265,96.735,2.125,95.329,2.125z M11.648,14.403c0-1.228,0.996-2.223,2.224-2.223
		h72.256c1.228,0,2.224,0.995,2.224,2.223v22.751c0,1.228-0.996,2.223-2.224,2.223H13.872c-1.228,0-2.224-0.995-2.224-2.223V14.403z
		 M23.188,79.5c0,0.829-0.671,1.5-1.5,1.5h-8.75c-0.829,0-1.5-0.671-1.5-1.5v-5.644c0-0.829,0.671-1.5,1.5-1.5h8.75
		c0.829,0,1.5,0.671,1.5,1.5V79.5z M23.188,59.5c0,0.829-0.671,1.5-1.5,1.5h-8.75c-0.829,0-1.5-0.671-1.5-1.5v-5.644
		c0-0.829,0.671-1.5,1.5-1.5h8.75c0.829,0,1.5,0.671,1.5,1.5V59.5z M57.313,79.5c0,0.829-0.671,1.5-1.5,1.5h-23.75
		c-0.829,0-1.5-0.671-1.5-1.5v-5.644c0-0.829,0.671-1.5,1.5-1.5h23.75c0.829,0,1.5,0.671,1.5,1.5V79.5z M57.313,59.5
		c0,0.829-0.671,1.5-1.5,1.5h-23.75c-0.829,0-1.5-0.671-1.5-1.5v-5.644c0-0.829,0.671-1.5,1.5-1.5h23.75c0.829,0,1.5,0.671,1.5,1.5
		V59.5z M88.563,79.5c0,0.829-0.671,1.5-1.5,1.5h-20.75c-0.829,0-1.5-0.671-1.5-1.5V53.856c0-0.829,0.671-1.5,1.5-1.5h20.75
		c0.829,0,1.5,0.671,1.5,1.5V79.5z"/>
</g>
</svg>
