<?xml version="1.0" encoding="utf-8"?>
<!-- Generator: Adobe Illustrator 16.0.0, SVG Export Plug-In . SVG Version: 6.00 Build 0)  -->
<!DOCTYPE svg PUBLIC "-//W3C//DTD SVG 1.1//EN" "http://www.w3.org/Graphics/SVG/1.1/DTD/svg11.dtd">
<svg version="1.1" id="Layer_4" xmlns="http://www.w3.org/2000/svg" xmlns:xlink="http://www.w3.org/1999/xlink" x="0px" y="0px"
	 width="100px" height="100px" viewBox="0 0 100 100" enable-background="new 0 0 100 100" xml:space="preserve">
<path d="M90.087,3.176c-4.941,3.046-22.901,5.141-22.901,5.141c-50.983,6.316-39.358,55.185-38.665,58.558
	C49.426,52.388,64.39,34.317,64.587,34.076l0.014,0.012c1.721-2.081,4.108-2.505,6.091-0.666c2.017,1.87,0.7,4.811-1.018,6.906
	c-0.729,0.888-12.114,14.626-29.142,28.058c-8.874,6.632-22.788,15.317-32.82,19.428c-2.509,1.028-3.708,3.894-2.68,6.402
	c0.777,1.899,2.609,3.048,4.542,3.048c0.62,0,1.25-0.119,1.859-0.368c8.903-3.649,22.883-13.007,33.182-20.468
	C96.835,80.246,101.81-4.048,90.087,3.176z"/>
</svg>
