<?xml version="1.0" encoding="utf-8"?>
<!-- Generator: Adobe Illustrator 16.0.0, SVG Export Plug-In . SVG Version: 6.00 Build 0)  -->
<!DOCTYPE svg PUBLIC "-//W3C//DTD SVG 1.1//EN" "http://www.w3.org/Graphics/SVG/1.1/DTD/svg11.dtd">
<svg version="1.1" id="Layer_1" xmlns="http://www.w3.org/2000/svg" xmlns:xlink="http://www.w3.org/1999/xlink" x="0px" y="0px"
	 width="100px" height="100px" viewBox="0 0 100 100" enable-background="new 0 0 100 100" xml:space="preserve">
<path d="M79.932,43.735C69.22,30.218,54.766,19.678,38.134,13.255l-0.4-0.154l1.271-7.174c0.13-0.73-0.14-1.476-0.709-1.953
	c-0.567-0.479-1.348-0.616-2.046-0.362L2.294,15.944c-0.698,0.254-1.208,0.859-1.337,1.591c-0.129,0.73,0.141,1.476,0.709,1.953
	L29.32,42.733c0.568,0.477,1.348,0.617,2.046,0.362c0.698-0.254,1.208-0.86,1.337-1.591l1.181-6.674l0.609,0.273
	C59.521,46.328,75.997,69.106,77.492,94.55c0.064,1.099,0.973,1.956,2.073,1.957l17.43,0.008c0.001,0,0.001,0,0.001,0
	c0.57,0,1.115-0.234,1.508-0.647c0.393-0.414,0.598-0.97,0.567-1.54C98.112,76.066,91.315,58.099,79.932,43.735z"/>
</svg>
