<?xml version="1.0" encoding="utf-8"?>
<!-- Generator: Adobe Illustrator 16.0.0, SVG Export Plug-In . SVG Version: 6.00 Build 0)  -->
<!DOCTYPE svg PUBLIC "-//W3C//DTD SVG 1.1//EN" "http://www.w3.org/Graphics/SVG/1.1/DTD/svg11.dtd">
<svg version="1.1" id="Layer_2" xmlns="http://www.w3.org/2000/svg" xmlns:xlink="http://www.w3.org/1999/xlink" x="0px" y="0px"
	 width="100px" height="100px" viewBox="0 0 100 100" enable-background="new 0 0 100 100" xml:space="preserve">
<g>
	<path d="M81.509,28.368C80.191,9.28,65.104,0.72,50.02,0.707c-0.006,0-0.013,0-0.02,0s-0.014,0-0.02,0
		C34.896,0.72,19.809,9.28,18.491,28.368c-0.137,1.357-0.183,2.714-0.112,4.089c0.083,1.585,0.265,3.17,0.601,4.725
		c0.829,3.876,2.413,7.432,4.734,10.66c0.837,1.162,14.702,20.437,14.702,31.957h23.168c0-11.521,13.865-30.795,14.702-31.957
		c2.321-3.229,3.905-6.784,4.734-10.66c0.336-1.555,0.518-3.14,0.601-4.725C81.692,31.082,81.646,29.726,81.509,28.368z"/>
	<path d="M38.225,92.833c0,3.568,2.893,6.46,6.46,6.46h10.63c3.568,0,6.46-2.892,6.46-6.46V83.87H38.225V92.833z"/>
</g>
</svg>
