<?xml version="1.0" encoding="utf-8"?>
<!-- Generator: Adobe Illustrator 16.0.0, SVG Export Plug-In . SVG Version: 6.00 Build 0)  -->
<!DOCTYPE svg PUBLIC "-//W3C//DTD SVG 1.1//EN" "http://www.w3.org/Graphics/SVG/1.1/DTD/svg11.dtd">
<svg version="1.1" id="Layer_4" xmlns="http://www.w3.org/2000/svg" xmlns:xlink="http://www.w3.org/1999/xlink" x="0px" y="0px"
	 width="100px" height="100px" viewBox="0 0 100 100" enable-background="new 0 0 100 100" xml:space="preserve">
<path d="M80.764,28.225C79.477,9.589,64.746,1.231,50.02,1.219c-0.006,0-0.013,0-0.02,0s-0.014,0-0.02,0
	c-14.727,0.012-29.457,8.37-30.744,27.005c-0.133,1.325-0.177,2.65-0.108,3.992c0.08,1.547,0.259,3.095,0.587,4.613
	c0.809,3.784,2.355,7.255,4.622,10.407c0.778,1.081,13.078,18.189,14.251,29.533c-0.764,0.051-1.369,0.679-1.369,1.455v12.883
	c0,4.231,3.442,7.673,7.674,7.673h10.215c4.231,0,7.674-3.441,7.674-7.673V78.225c0-0.776-0.605-1.404-1.369-1.455
	c1.173-11.344,13.474-28.453,14.251-29.533c2.267-3.152,3.813-6.623,4.622-10.407c0.329-1.518,0.507-3.065,0.587-4.613
	C80.94,30.875,80.896,29.55,80.764,28.225z M72.163,32.33c-0.063,1.21-0.196,2.275-0.411,3.269c-0.563,2.624-1.65,5.071-3.231,7.271
	c-2.724,3.782-10.676,15.43-13.028,25.479H44.508C42.155,58.3,34.204,46.653,31.481,42.873c-1.583-2.203-2.671-4.651-3.235-7.285
	c-0.213-0.986-0.347-2.052-0.408-3.255c-0.047-0.887-0.021-1.787,0.076-2.751l0.009-0.081l0.004-0.081
	C28.899,15.358,39.959,10.338,50,10.33h0.013c10.028,0.008,21.088,5.028,22.062,19.089l0.003,0.081l0.009,0.081
	C72.184,30.546,72.209,31.446,72.163,32.33z"/>
</svg>
