<?xml version="1.0" encoding="utf-8"?>
<!-- Generator: Adobe Illustrator 16.0.0, SVG Export Plug-In . SVG Version: 6.00 Build 0)  -->
<!DOCTYPE svg PUBLIC "-//W3C//DTD SVG 1.1//EN" "http://www.w3.org/Graphics/SVG/1.1/DTD/svg11.dtd">
<svg version="1.1" id="Layer_3" xmlns="http://www.w3.org/2000/svg" xmlns:xlink="http://www.w3.org/1999/xlink" x="0px" y="0px"
	 width="100px" height="100px" viewBox="0 0 100 100" enable-background="new 0 0 100 100" xml:space="preserve">
<path d="M66.609,16.616c11.324,0,20.537,9.214,20.537,20.538c0,11.024-18.056,30.068-37.148,44.51
	C30.92,67.242,12.854,48.19,12.854,37.154c0-11.324,9.213-20.538,20.537-20.538c3.836,0,7.572,1.062,10.806,3.07L50,23.291
	l5.804-3.604C59.037,17.678,62.773,16.616,66.609,16.616 M66.609,5.616c-5.91,0-11.625,1.63-16.609,4.726
	c-4.984-3.096-10.699-4.726-16.609-4.726c-17.39,0-31.537,14.147-31.537,31.538c0,22.538,38.227,51.024,45.892,56.507
	c0.663,0.473,1.442,0.723,2.255,0.723c0.816,0,1.599-0.252,2.258-0.727c7.663-5.483,45.889-33.981,45.889-56.503
	C98.146,19.764,83.999,5.616,66.609,5.616L66.609,5.616z"/>
</svg>
