<?xml version="1.0" encoding="utf-8"?>
<!-- Generator: Adobe Illustrator 16.0.0, SVG Export Plug-In . SVG Version: 6.00 Build 0)  -->
<!DOCTYPE svg PUBLIC "-//W3C//DTD SVG 1.1//EN" "http://www.w3.org/Graphics/SVG/1.1/DTD/svg11.dtd">
<svg version="1.1" id="Layer_4" xmlns="http://www.w3.org/2000/svg" xmlns:xlink="http://www.w3.org/1999/xlink" x="0px" y="0px"
	 width="100px" height="100px" viewBox="0 0 100 100" enable-background="new 0 0 100 100" xml:space="preserve">
<g>
	<path d="M87.624,88.447c-4.13,4.629-10.198,6.979-18.037,6.979c-15.455,0-32.887-8.986-36.225-10.789
		c-0.654-0.354-1.063-1.037-1.063-1.781V36.045c0-0.982,0.706-1.822,1.672-1.994c3.476-0.613,21.037-4.4,25.554-18.645
		c2.021-6.379,6.369-10.832,10.572-10.832c1.885,0,3.544,0.938,4.673,2.639c3.201,4.838,1.954,15.256-3.422,28.588
		c1.412-0.328,2.847-0.496,4.265-0.496c5.739,0,15.7,2.922,17.929,22.479C95.154,71.924,93.164,82.242,87.624,88.447z"/>
	<path d="M25.928,85.109V33.322c0-1.117-0.905-2.023-2.024-2.023H7.94c-1.117,0-2.024,0.906-2.024,2.023v51.787
		c0,1.119,0.907,2.025,2.024,2.025h15.963C25.022,87.135,25.928,86.229,25.928,85.109z M19.845,79.16
		c0,2.162-1.76,3.922-3.922,3.922s-3.922-1.76-3.922-3.922s1.76-3.922,3.922-3.922S19.845,76.998,19.845,79.16z"/>
</g>
</svg>
