<?xml version="1.0" encoding="utf-8"?>
<!-- Generator: Adobe Illustrator 16.0.0, SVG Export Plug-In . SVG Version: 6.00 Build 0)  -->
<!DOCTYPE svg PUBLIC "-//W3C//DTD SVG 1.1//EN" "http://www.w3.org/Graphics/SVG/1.1/DTD/svg11.dtd">
<svg version="1.1" id="Layer_1" xmlns="http://www.w3.org/2000/svg" xmlns:xlink="http://www.w3.org/1999/xlink" x="0px" y="0px"
	 width="100px" height="100px" viewBox="0 0 100 100" enable-background="new 0 0 100 100" xml:space="preserve">
<g>
	<path d="M54.744,62.504c-0.545-0.196-1.156-0.059-1.565,0.352L33.904,82.131c-2.138,2.138-4.985,3.314-8.017,3.314
		s-5.878-1.177-8.015-3.314c-4.42-4.422-4.42-11.615,0-16.035l19.273-19.271c0.41-0.41,0.547-1.02,0.352-1.565
		c-0.195-0.546-0.688-0.931-1.264-0.987l-13.457-1.337c-0.451-0.052-0.891,0.113-1.209,0.432L8.354,56.58
		c-4.676,4.676-7.251,10.902-7.251,17.533s2.575,12.857,7.251,17.533c4.675,4.676,10.902,7.251,17.533,7.251
		s12.858-2.575,17.534-7.251l13.213-13.212c0.318-0.317,0.477-0.762,0.432-1.209l-1.335-13.458
		C55.674,63.191,55.29,62.698,54.744,62.504z"/>
	<path d="M91.647,8.354c-4.676-4.676-10.903-7.251-17.534-7.251S61.256,3.678,56.58,8.354L43.366,21.567
		c-0.318,0.317-0.477,0.762-0.432,1.209l1.337,13.458c0.057,0.577,0.442,1.069,0.988,1.264c0.546,0.196,1.155,0.059,1.565-0.352
		l19.272-19.275c2.138-2.138,4.985-3.315,8.017-3.315c3.032,0,5.879,1.178,8.018,3.315c4.419,4.42,4.419,11.612,0,16.033
		L62.857,53.178c-0.41,0.41-0.547,1.02-0.352,1.565c0.195,0.546,0.688,0.931,1.264,0.987l13.456,1.337
		c0.05,0.006,0.099,0.008,0.148,0.008c0.396,0,0.778-0.156,1.061-0.439l13.213-13.214C101.314,33.754,101.314,18.022,91.647,8.354z"
		/>
	<path d="M9.944,38.799c0.009,0,0.018,0,0.026,0l16.194-0.282c0.741-0.013,1.362-0.565,1.46-1.301
		c0.098-0.735-0.355-1.432-1.067-1.64l-15.549-4.534c-0.42-0.123-0.873-0.056-1.238,0.184c-0.366,0.238-0.61,0.624-0.668,1.058
		L8.457,37.1c-0.058,0.434,0.076,0.87,0.367,1.196C9.108,38.616,9.516,38.799,9.944,38.799z"/>
	<path d="M35.579,26.557c0.188,0.646,0.781,1.08,1.439,1.08c0.066,0,0.133-0.004,0.2-0.014c0.735-0.098,1.288-0.719,1.301-1.46
		l0.281-16.194c0.007-0.438-0.176-0.856-0.503-1.147c-0.327-0.29-0.763-0.425-1.197-0.365l-4.816,0.648
		c-0.433,0.058-0.819,0.303-1.057,0.669c-0.238,0.366-0.305,0.818-0.183,1.237L35.579,26.557z"/>
	<path d="M90.031,61.201l-16.194,0.281c-0.742,0.013-1.362,0.565-1.461,1.301c-0.098,0.735,0.355,1.432,1.067,1.64l15.549,4.535
		c0.138,0.04,0.279,0.06,0.42,0.06c0.288,0,0.572-0.083,0.818-0.243c0.366-0.238,0.61-0.624,0.668-1.058l0.646-4.816
		c0.058-0.434-0.076-0.87-0.367-1.196C90.886,61.377,90.448,61.182,90.031,61.201z"/>
	<path d="M64.422,73.445c-0.208-0.712-0.899-1.174-1.639-1.066c-0.735,0.099-1.288,0.719-1.301,1.46l-0.281,16.192
		c-0.007,0.438,0.176,0.856,0.502,1.146c0.276,0.246,0.632,0.38,0.998,0.38c0.066,0,0.133-0.005,0.2-0.014l4.816-0.646
		c0.433-0.058,0.819-0.302,1.058-0.668c0.238-0.367,0.305-0.819,0.183-1.238L64.422,73.445z"/>
</g>
</svg>
