<?xml version="1.0" encoding="utf-8"?>
<!-- Generator: Adobe Illustrator 16.0.0, SVG Export Plug-In . SVG Version: 6.00 Build 0)  -->
<!DOCTYPE svg PUBLIC "-//W3C//DTD SVG 1.1//EN" "http://www.w3.org/Graphics/SVG/1.1/DTD/svg11.dtd">
<svg version="1.1" id="Layer_2" xmlns="http://www.w3.org/2000/svg" xmlns:xlink="http://www.w3.org/1999/xlink" x="0px" y="0px"
	 width="100px" height="100px" viewBox="0 0 100 100" enable-background="new 0 0 100 100" xml:space="preserve">
<path d="M97.04,1.907H2.96c-0.581,0-1.053,0.473-1.053,1.053V97.04c0,0.581,0.473,1.053,1.053,1.053H97.04
	c0.581,0,1.053-0.473,1.053-1.053V2.96C98.093,2.38,97.62,1.907,97.04,1.907z M18.171,86.893c-4.395,0-7.958-3.563-7.958-7.958
	s3.563-7.957,7.958-7.957s7.957,3.563,7.957,7.957S22.565,86.893,18.171,86.893z M18.171,57.958c-4.395,0-7.958-3.563-7.958-7.958
	s3.563-7.958,7.958-7.958s7.957,3.563,7.957,7.958S22.565,57.958,18.171,57.958z M18.171,29.021c-4.395,0-7.958-3.563-7.958-7.957
	s3.563-7.958,7.958-7.958s7.957,3.563,7.957,7.958S22.565,29.021,18.171,29.021z M89.195,85.393c0,0.829-0.671,1.5-1.5,1.5h-54.39
	c-0.829,0-1.5-0.671-1.5-1.5V72.479c0-0.829,0.671-1.5,1.5-1.5h54.39c0.829,0,1.5,0.671,1.5,1.5V85.393z M89.195,56.458
	c0,0.829-0.671,1.5-1.5,1.5h-54.39c-0.829,0-1.5-0.671-1.5-1.5V43.542c0-0.829,0.671-1.5,1.5-1.5h54.39c0.829,0,1.5,0.671,1.5,1.5
	V56.458z M89.195,27.521c0,0.829-0.671,1.5-1.5,1.5h-54.39c-0.829,0-1.5-0.671-1.5-1.5V14.607c0-0.829,0.671-1.5,1.5-1.5h54.39
	c0.829,0,1.5,0.671,1.5,1.5V27.521z"/>
</svg>
