<?xml version="1.0" encoding="utf-8"?>
<!-- Generator: Adobe Illustrator 16.0.0, SVG Export Plug-In . SVG Version: 6.00 Build 0)  -->
<!DOCTYPE svg PUBLIC "-//W3C//DTD SVG 1.1//EN" "http://www.w3.org/Graphics/SVG/1.1/DTD/svg11.dtd">
<svg version="1.1" id="Layer_1" xmlns="http://www.w3.org/2000/svg" xmlns:xlink="http://www.w3.org/1999/xlink" x="0px" y="0px"
	 width="100px" height="100px" viewBox="0 0 100 100" enable-background="new 0 0 100 100" xml:space="preserve">
<g>
	<circle cx="13.159" cy="19.547" r="10.906"/>
	<circle cx="13.159" cy="49.547" r="10.906"/>
	<circle cx="13.159" cy="80.453" r="10.906"/>
	<g>
		<path d="M36.511,26.683h59.236c0.53,0,1.039-0.211,1.414-0.586s0.586-0.884,0.586-1.414l-0.002-10.271c0-1.104-0.896-2-2-2H36.511
			c-1.104,0-2,0.896-2,2v10.271C34.511,25.787,35.406,26.683,36.511,26.683z"/>
		<path d="M95.745,42.411H36.511c-1.104,0-2,0.896-2,2v10.271c0,1.104,0.896,2,2,2h59.236c0.53,0,1.039-0.211,1.414-0.586
			s0.586-0.884,0.586-1.414l-0.002-10.271C97.745,43.307,96.85,42.411,95.745,42.411z"/>
		<path d="M95.745,73.317H36.511c-1.104,0-2,0.896-2,2v10.271c0,1.104,0.896,2,2,2h59.236c0.53,0,1.039-0.211,1.414-0.586
			s0.586-0.884,0.586-1.414l-0.002-10.271C97.745,74.213,96.85,73.317,95.745,73.317z"/>
	</g>
</g>
</svg>
