<?xml version="1.0" encoding="utf-8"?>
<!-- Generator: Adobe Illustrator 16.0.0, SVG Export Plug-In . SVG Version: 6.00 Build 0)  -->
<!DOCTYPE svg PUBLIC "-//W3C//DTD SVG 1.1//EN" "http://www.w3.org/Graphics/SVG/1.1/DTD/svg11.dtd">
<svg version="1.1" id="Layer_2" xmlns="http://www.w3.org/2000/svg" xmlns:xlink="http://www.w3.org/1999/xlink" x="0px" y="0px"
	 width="100px" height="100px" viewBox="0 0 100 100" enable-background="new 0 0 100 100" xml:space="preserve">
<path d="M96.939,2.031H3.061c-0.567,0-1.03,0.462-1.03,1.03v93.878c0,0.567,0.462,1.03,1.03,1.03h93.878
	c0.567,0,1.03-0.462,1.03-1.03V3.061C97.969,2.494,97.506,2.031,96.939,2.031z M20.366,74.433c-4.091,0-7.409-3.317-7.409-7.409
	c0-4.091,3.318-7.408,7.409-7.408c4.091,0,7.409,3.317,7.409,7.408C27.775,71.116,24.457,74.433,20.366,74.433z M20.366,25.408
	c-4.091,0-7.409-3.317-7.409-7.408c0-4.092,3.318-7.409,7.409-7.409c4.091,0,7.409,3.317,7.409,7.409
	C27.775,22.09,24.457,25.408,20.366,25.408z M86.841,87.91c0,0.829-0.671,1.5-1.5,1.5H34.909c-0.829,0-1.5-0.671-1.5-1.5V61.116
	c0-0.829,0.671-1.5,1.5-1.5h50.432c0.829,0,1.5,0.671,1.5,1.5V87.91z M86.841,38.884c0,0.829-0.671,1.5-1.5,1.5H34.909
	c-0.829,0-1.5-0.671-1.5-1.5V12.09c0-0.829,0.671-1.5,1.5-1.5h50.432c0.829,0,1.5,0.671,1.5,1.5V38.884z"/>
</svg>
