<?xml version="1.0" encoding="utf-8"?>
<!-- Generator: Adobe Illustrator 16.0.0, SVG Export Plug-In . SVG Version: 6.00 Build 0)  -->
<!DOCTYPE svg PUBLIC "-//W3C//DTD SVG 1.1//EN" "http://www.w3.org/Graphics/SVG/1.1/DTD/svg11.dtd">
<svg version="1.1" id="Layer_4" xmlns="http://www.w3.org/2000/svg" xmlns:xlink="http://www.w3.org/1999/xlink" x="0px" y="0px"
	 width="100px" height="100px" viewBox="0 0 100 100" enable-background="new 0 0 100 100" xml:space="preserve">
<g>
	<path d="M41.34,74.51l39.447-22.777c0.619-0.357,1-1.018,1-1.732s-0.381-1.375-1-1.732L41.34,25.49c-0.619-0.357-1.381-0.357-2,0
		c-0.619,0.357-1,1.018-1,1.732v10.605H4.287c-1.104,0-2,0.896-2,2v20.344c0,1.104,0.896,2,2,2H38.34v10.605
		c0,0.715,0.381,1.375,1,1.732c0.31,0.179,0.655,0.268,1,0.268S41.031,74.688,41.34,74.51z"/>
	<path d="M82.942,2.166H42.193c-1.104,0-2,0.896-2,2v6c0,1.104,0.896,2,2,2h40.749c2.631,0,4.771,2.141,4.771,4.771v66.125
		c0,2.631-2.141,4.771-4.771,4.771H42.193c-1.104,0-2,0.896-2,2v6c0,1.104,0.896,2,2,2h40.749c8.145,0,14.771-6.627,14.771-14.771
		V16.938C97.713,8.793,91.087,2.166,82.942,2.166z"/>
</g>
</svg>
