<?xml version="1.0" encoding="utf-8"?>
<!-- Generator: Adobe Illustrator 16.0.0, SVG Export Plug-In . SVG Version: 6.00 Build 0)  -->
<!DOCTYPE svg PUBLIC "-//W3C//DTD SVG 1.1//EN" "http://www.w3.org/Graphics/SVG/1.1/DTD/svg11.dtd">
<svg version="1.1" id="Layer_4" xmlns="http://www.w3.org/2000/svg" xmlns:xlink="http://www.w3.org/1999/xlink" x="0px" y="0px"
	 width="100px" height="100px" viewBox="0 0 100 100" enable-background="new 0 0 100 100" xml:space="preserve">
<g>
	<path d="M96.928,32.222c-0.619-0.357-1.381-0.357-2,0l-5.377,3.104c-0.619,0.357-1,1.018-1,1.732v51.492H11.449V11.449h30.63
		c0.365,0,0.722-0.1,1.034-0.288c3.404-2.057,7.006-3.813,10.707-5.22c0.902-0.343,1.431-1.281,1.257-2.23s-1.002-1.639-1.967-1.639
		H4.072c-1.104,0-2,0.896-2,2v91.855c0,1.104,0.896,2,2,2h91.855c1.104,0,2-0.896,2-2V33.954
		C97.928,33.239,97.546,32.579,96.928,32.222z"/>
	<path d="M30.516,32.504c-0.578,0.764-0.534,1.829,0.104,2.542s1.692,0.876,2.515,0.383c7.664-4.575,15.22-6.895,22.458-6.895
		c5.39,0,8.667,1.361,9.053,1.529l0.036,6.543c0,0.715,0.381,1.375,1,1.732c0.31,0.179,0.655,0.268,1,0.268s0.691-0.09,1-0.268
		l27.442-15.847c0.619-0.357,1-1.018,1-1.732s-0.381-1.375-1-1.732L67.683,3.181c-0.618-0.357-1.381-0.357-2,0
		c-0.619,0.357-1,1.018-1,1.732v6.096l-0.011,0.001C64.474,11.036,44.621,13.884,30.516,32.504z"/>
</g>
</svg>
