<?xml version="1.0" encoding="utf-8"?>
<!-- Generator: Adobe Illustrator 16.0.0, SVG Export Plug-In . SVG Version: 6.00 Build 0)  -->
<!DOCTYPE svg PUBLIC "-//W3C//DTD SVG 1.1//EN" "http://www.w3.org/Graphics/SVG/1.1/DTD/svg11.dtd">
<svg version="1.1" id="Layer_3" xmlns="http://www.w3.org/2000/svg" xmlns:xlink="http://www.w3.org/1999/xlink" x="0px" y="0px"
	 width="100px" height="100px" viewBox="0 0 100 100" enable-background="new 0 0 100 100" xml:space="preserve">
<path d="M88.669,34.956V5.048c0-1.709-1.153-3.204-2.808-3.639c-1.652-0.43-3.321,0.345-4.23,1.792
	C68.11,24.735,14.144,24.003,14.144,24.003c-3.733,0-6.758,3.025-6.758,6.758v27.595c0,3.295,2.36,6.032,5.482,6.629l0.293,0.001
	c-2.195,8.78-4.447,22.398-1.507,33.721h19.002c2.278-0.135,5.041-2.163-0.506-8.938c-5.548-6.775,2.226-5.805-1.345-11.193
	c-2.078-3.138-0.534-8.75,1.046-12.157c18.688,1.355,43.507,5.993,51.779,20.679c0.678,1.204,1.943,1.916,3.276,1.916
	c0.316,0,0.638-0.04,0.954-0.124c1.654-0.434,2.808-1.928,2.808-3.638V55.411c2.341-1.907,3.945-5.766,3.945-10.228
	S91.01,36.863,88.669,34.956z"/>
</svg>
