<?xml version="1.0" encoding="utf-8"?>
<!-- Generator: Adobe Illustrator 16.0.0, SVG Export Plug-In . SVG Version: 6.00 Build 0)  -->
<!DOCTYPE svg PUBLIC "-//W3C//DTD SVG 1.1//EN" "http://www.w3.org/Graphics/SVG/1.1/DTD/svg11.dtd">
<svg version="1.1" id="Layer_2" xmlns="http://www.w3.org/2000/svg" xmlns:xlink="http://www.w3.org/1999/xlink" x="0px" y="0px"
	 width="100px" height="100px" viewBox="0 0 100 100" enable-background="new 0 0 100 100" xml:space="preserve">
<path d="M95.789,11.682H4.211c-1.104,0-2,0.896-2,2v50.127c0,1.105,0.896,2,2,2h60.042v20.51c0,0.809,0.487,1.537,1.235,1.848
	c0.247,0.102,0.507,0.152,0.765,0.152c0.521,0,1.032-0.203,1.415-0.586l21.923-21.924h6.198c1.104,0,2-0.895,2-2V13.682
	C97.789,12.578,96.893,11.682,95.789,11.682z M89.59,54.098c0,0.828-0.671,1.5-1.5,1.5H11.91c-0.829,0-1.5-0.672-1.5-1.5v-6.613
	c0-0.828,0.671-1.5,1.5-1.5h76.18c0.829,0,1.5,0.672,1.5,1.5V54.098z M89.59,28.461c0,0.828-0.671,1.5-1.5,1.5H11.91
	c-0.829,0-1.5-0.672-1.5-1.5v-6.613c0-0.828,0.671-1.5,1.5-1.5h76.18c0.829,0,1.5,0.672,1.5,1.5V28.461z"/>
</svg>
