<?xml version="1.0" encoding="utf-8"?>
<!-- Generator: Adobe Illustrator 16.0.0, SVG Export Plug-In . SVG Version: 6.00 Build 0)  -->
<!DOCTYPE svg PUBLIC "-//W3C//DTD SVG 1.1//EN" "http://www.w3.org/Graphics/SVG/1.1/DTD/svg11.dtd">
<svg version="1.1" id="Layer_4" xmlns="http://www.w3.org/2000/svg" xmlns:xlink="http://www.w3.org/1999/xlink" x="0px" y="0px"
	 width="100px" height="100px" viewBox="0 0 100 100" enable-background="new 0 0 100 100" xml:space="preserve">
<path d="M95.412,2.451H4.588c-1.178,0-2.137,0.958-2.137,2.137v90.824c0,1.178,0.958,2.137,2.137,2.137h90.824
	c1.178,0,2.137-0.958,2.137-2.137V4.588C97.549,3.41,96.59,2.451,95.412,2.451z M86.833,57.953c0,0.925-0.75,1.674-1.674,1.674
	H14.841c-0.925,0-1.674-0.75-1.674-1.674V42.047c0-0.925,0.75-1.674,1.674-1.674h70.318c0.925,0,1.674,0.75,1.674,1.674V57.953z"/>
</svg>
