<?xml version="1.0" encoding="utf-8"?>
<!-- Generator: Adobe Illustrator 16.0.0, SVG Export Plug-In . SVG Version: 6.00 Build 0)  -->
<!DOCTYPE svg PUBLIC "-//W3C//DTD SVG 1.1//EN" "http://www.w3.org/Graphics/SVG/1.1/DTD/svg11.dtd">
<svg version="1.1" id="Layer_2" xmlns="http://www.w3.org/2000/svg" xmlns:xlink="http://www.w3.org/1999/xlink" x="0px" y="0px"
	 width="100px" height="100px" viewBox="0 0 100 100" enable-background="new 0 0 100 100" xml:space="preserve">
<g>
	<path d="M69.322,2.453H30.678c-2.16,0-3.918,1.758-3.918,3.919v87.256c0,2.161,1.758,3.919,3.918,3.919h38.645
		c2.16,0,3.918-1.758,3.918-3.919V6.372C73.24,4.211,71.482,2.453,69.322,2.453z M34.597,10.29h30.807v40.512H34.597V10.29z
		 M43.708,88h-9v-5.25h9V88z M43.708,76h-9v-5.25h9V76z M43.708,64h-9v-5.25h9V64z M54.708,88h-9v-5.25h9V88z M54.708,76h-9v-5.25h9
		V76z M54.708,64h-9v-5.25h9V64z M65.708,88h-9v-5.25h9V88z M65.708,76h-9v-5.25h9V76z M65.708,64h-9v-5.25h9V64z"/>
	<path d="M38.25,14.458v10.794l12.088-12.089H39.545C38.83,13.163,38.25,13.743,38.25,14.458z"/>
</g>
</svg>
