<?xml version="1.0" encoding="utf-8"?>
<!-- Generator: Adobe Illustrator 16.0.0, SVG Export Plug-In . SVG Version: 6.00 Build 0)  -->
<!DOCTYPE svg PUBLIC "-//W3C//DTD SVG 1.1//EN" "http://www.w3.org/Graphics/SVG/1.1/DTD/svg11.dtd">
<svg version="1.1" id="Layer_1" xmlns="http://www.w3.org/2000/svg" xmlns:xlink="http://www.w3.org/1999/xlink" x="0px" y="0px"
	 width="100px" height="100px" viewBox="0 0 100 100" enable-background="new 0 0 100 100" xml:space="preserve">
<g>
	<path d="M3.995,26.738c-1.428,0-2.589,1.162-2.589,2.589v6.909c0,1.428,1.161,2.589,2.589,2.589h13.407V26.738H3.995z"/>
	<path d="M97.136,30.735c-0.886-0.407-1.934-0.261-2.673,0.378L79.705,43.819V29.327c0-1.428-1.162-2.589-2.59-2.589H24.89
		c-1.428,0-2.589,1.162-2.589,2.589v41.346c0,1.428,1.161,2.589,2.589,2.589h52.226c1.428,0,2.59-1.162,2.59-2.589V56.181
		l14.758,12.707c0.74,0.638,1.788,0.785,2.673,0.378c0.889-0.407,1.458-1.295,1.458-2.272V33.007
		C98.594,32.03,98.024,31.142,97.136,30.735z"/>
</g>
</svg>
