<?xml version="1.0" encoding="utf-8"?>
<!-- Generator: Adobe Illustrator 16.0.0, SVG Export Plug-In . SVG Version: 6.00 Build 0)  -->
<!DOCTYPE svg PUBLIC "-//W3C//DTD SVG 1.1//EN" "http://www.w3.org/Graphics/SVG/1.1/DTD/svg11.dtd">
<svg version="1.1" id="Layer_3" xmlns="http://www.w3.org/2000/svg" xmlns:xlink="http://www.w3.org/1999/xlink" x="0px" y="0px"
	 width="100px" height="100px" viewBox="0 0 100 100" enable-background="new 0 0 100 100" xml:space="preserve">
<g>
	<path d="M78.044,35.243c-0.299-0.181-0.671-0.193-0.981-0.031L50.625,49.05c-0.371,0.193-0.87,0.193-1.237,0.001l-26.452-13.84
		c-0.31-0.162-0.683-0.15-0.981,0.031c-0.299,0.181-0.482,0.505-0.482,0.855v5.032c0,0.365,0.199,0.702,0.52,0.877l27.532,15.071
		c0.15,0.081,0.315,0.123,0.48,0.123c0.165,0,0.331-0.042,0.48-0.124l27.521-15.07c0.32-0.175,0.52-0.512,0.52-0.877v-5.031
		C78.527,35.748,78.344,35.424,78.044,35.243z"/>
	<path d="M95.412,2.451H4.588c-1.18,0-2.137,0.957-2.137,2.137v90.824c0,1.18,0.957,2.137,2.137,2.137h90.824
		c1.18,0,2.137-0.957,2.137-2.137V4.588C97.549,3.408,96.592,2.451,95.412,2.451z M82.083,69.33c0,0.736-0.597,1.333-1.333,1.333
		h-61.5c-0.736,0-1.333-0.597-1.333-1.333V30.67c0-0.736,0.597-1.333,1.333-1.333h61.5c0.736,0,1.333,0.597,1.333,1.333V69.33z"/>
</g>
</svg>
