<?xml version="1.0" encoding="utf-8"?>
<!-- Generator: Adobe Illustrator 16.0.0, SVG Export Plug-In . SVG Version: 6.00 Build 0)  -->
<!DOCTYPE svg PUBLIC "-//W3C//DTD SVG 1.1//EN" "http://www.w3.org/Graphics/SVG/1.1/DTD/svg11.dtd">
<svg version="1.1" id="Layer_2" xmlns="http://www.w3.org/2000/svg" xmlns:xlink="http://www.w3.org/1999/xlink" x="0px" y="0px"
	 width="100px" height="100px" viewBox="0 0 100 100" enable-background="new 0 0 100 100" xml:space="preserve">
<path d="M96.132,19H3.868c-1.104,0-2,0.896-2,2v58c0,1.104,0.896,2,2,2h92.264c1.104,0,2-0.896,2-2V21
	C98.132,19.896,97.236,19,96.132,19z M92.797,34.057c0,0.531-0.281,1.023-0.739,1.293L61.184,53.519l28.374,16.69
	c0.458,0.27,0.739,0.761,0.739,1.293v2.022c0,0.525-0.274,1.011-0.723,1.283c-0.238,0.144-0.507,0.217-0.777,0.217
	c-0.238,0-0.477-0.057-0.695-0.171L54.661,57.357l-3.891,2.29c-0.469,0.276-1.051,0.277-1.521,0l-3.908-2.299L11.899,74.852
	c-0.465,0.244-1.024,0.225-1.473-0.046c-0.449-0.271-0.723-0.758-0.723-1.283v-2.021c0-0.531,0.281-1.023,0.739-1.293l28.374-16.698
	L7.942,35.35c-0.458-0.27-0.739-0.761-0.739-1.293v-7.581c0-0.525,0.274-1.011,0.723-1.283c0.449-0.271,1.007-0.289,1.472-0.046
	l40.61,21.247l40.592-21.247c0.465-0.244,1.024-0.225,1.473,0.046c0.449,0.271,0.723,0.758,0.723,1.283V34.057z"/>
</svg>
