<?xml version="1.0" encoding="utf-8"?>
<!-- Generator: Adobe Illustrator 16.0.0, SVG Export Plug-In . SVG Version: 6.00 Build 0)  -->
<!DOCTYPE svg PUBLIC "-//W3C//DTD SVG 1.1//EN" "http://www.w3.org/Graphics/SVG/1.1/DTD/svg11.dtd">
<svg version="1.1" id="Layer_4" xmlns="http://www.w3.org/2000/svg" xmlns:xlink="http://www.w3.org/1999/xlink" x="0px" y="0px"
	 width="100px" height="100px" viewBox="0 0 100 100" enable-background="new 0 0 100 100" xml:space="preserve">
<g>
	<path d="M67.493,16.994c0.547,0.049,1.077-0.121,1.489-0.475l5.482-4.705l-0.033,28.367c0,0.531,0.21,1.041,0.585,1.416
		s0.884,0.586,1.415,0.586h5.229c1.104,0,2-0.895,2-2V3.375c0-1.104-0.896-2-2-2h-4.892c-0.453,0-0.892,0.154-1.246,0.436
		l-11.237,8.947c-0.416,0.332-0.683,0.814-0.742,1.342c-0.059,0.529,0.095,1.059,0.427,1.475l2.147,2.68
		C66.457,16.676,66.953,16.943,67.493,16.994z"/>
	<path d="M91.889,65.348c-1.217-2.703-2.99-4.797-5.269-6.223c-2.276-1.424-4.962-2.145-7.983-2.145
		c-4.295,0-7.746,1.301-10.256,3.867c-2.506,2.563-3.776,6.084-3.776,10.465c0,4.064,1.051,7.297,3.123,9.605
		c2.086,2.322,4.968,3.5,8.567,3.5c2.14,0,3.956-0.365,5.399-1.086c1.161-0.584,2.225-1.514,3.161-2.766
		c-0.219,2.402-0.728,4.354-1.51,5.795c-0.905,1.664-2.229,2.9-3.933,3.678c-1.746,0.793-4.013,1.195-6.738,1.195
		c-1.018,0-2.024-0.076-2.99-0.223c-0.578-0.084-1.162,0.08-1.605,0.459c-0.442,0.381-0.697,0.936-0.697,1.518v3.637
		c0,1.021,0.768,1.877,1.782,1.988c1.1,0.121,2.474,0.182,4.082,0.182c6.82,0,11.996-2.01,15.384-5.973
		c3.367-3.945,5.074-9.963,5.074-17.889C93.703,71.246,93.092,68.021,91.889,65.348z M82.678,75.424
		c-1.128,1.039-2.45,1.543-4.042,1.543c-1.67,0-2.869-0.49-3.667-1.502c-0.813-1.025-1.225-2.459-1.225-4.262
		c0-2.121,0.457-3.756,1.358-4.857c0.887-1.084,2.096-1.611,3.696-1.611c1.609,0,2.9,0.664,3.943,2.031
		c1.063,1.395,1.601,3.137,1.601,5.174C84.344,73.258,83.8,74.398,82.678,75.424z"/>
	<path d="M44.449,66.801h-8.011V3.205c0-1.105-0.896-2-2-2h-16.13c-1.104,0-2,0.895-2,2v63.596H8.297
		c-0.77,0-1.472,0.443-1.804,1.137c-0.333,0.695-0.237,1.518,0.246,2.117L24.815,97.01c0.38,0.473,0.953,0.746,1.558,0.746
		s1.178-0.273,1.558-0.746l18.076-26.955c0.482-0.6,0.578-1.422,0.246-2.117C45.921,67.244,45.219,66.801,44.449,66.801z"/>
</g>
</svg>
