<?xml version="1.0" encoding="utf-8"?>
<!-- Generator: Adobe Illustrator 16.0.0, SVG Export Plug-In . SVG Version: 6.00 Build 0)  -->
<!DOCTYPE svg PUBLIC "-//W3C//DTD SVG 1.1//EN" "http://www.w3.org/Graphics/SVG/1.1/DTD/svg11.dtd">
<svg version="1.1" id="Layer_1" xmlns="http://www.w3.org/2000/svg" xmlns:xlink="http://www.w3.org/1999/xlink" x="0px" y="0px"
	 width="100px" height="100px" viewBox="0 0 100 100" enable-background="new 0 0 100 100" xml:space="preserve">
<g>
	<path d="M50,7.476c-38.705,0-49.498,13.868-49.498,30.975S11.295,69.425,50,69.425s49.498-13.868,49.498-30.975
		S88.705,7.476,50,7.476z M23.094,47.652c-5.08,0-9.201-4.119-9.201-9.201s4.121-9.201,9.201-9.201c5.082,0,9.202,4.119,9.202,9.201
		S28.176,47.652,23.094,47.652z M50,47.652c-5.082,0-9.201-4.119-9.201-9.201S44.918,29.25,50,29.25s9.201,4.119,9.201,9.201
		S55.082,47.652,50,47.652z M76.906,47.652c-5.082,0-9.202-4.119-9.202-9.201s4.12-9.201,9.202-9.201
		c5.08,0,9.201,4.119,9.201,9.201S81.986,47.652,76.906,47.652z"/>
	<circle cx="73.975" cy="88.858" r="3.666"/>
	<circle cx="80.849" cy="75.445" r="6.872"/>
</g>
</svg>
