<?xml version="1.0" encoding="utf-8"?>
<!-- Generator: Adobe Illustrator 16.0.0, SVG Export Plug-In . SVG Version: 6.00 Build 0)  -->
<!DOCTYPE svg PUBLIC "-//W3C//DTD SVG 1.1//EN" "http://www.w3.org/Graphics/SVG/1.1/DTD/svg11.dtd">
<svg version="1.1" id="Layer_1" xmlns="http://www.w3.org/2000/svg" xmlns:xlink="http://www.w3.org/1999/xlink" x="0px" y="0px"
	 width="100px" height="100px" viewBox="0 0 100 100" enable-background="new 0 0 100 100" xml:space="preserve">
<g>
	<path d="M37.762,27.188c-1.171-1.172-3.244-1.17-4.413,0L22.831,37.709c-1.219,1.219-1.219,3.194,0,4.414l11.862,11.861
		l-1.805,1.802c-2.659,2.659-6.446,5.002-10.116,7.275c-3.746,2.319-7.62,4.717-10.39,7.486C3.883,79.046-0.604,89.048,2.379,92.844
		c0.105,0.134,0.222,0.26,0.348,0.375l0.077,0.071c0.116,0.106,0.239,0.203,0.37,0.29c0.76,0.51,1.753,0.768,2.949,0.768
		c5.003,0,12.519-4.284,19.147-10.912c2.77-2.769,5.167-6.643,7.49-10.396c2.267-3.663,4.611-7.45,7.269-10.107l1.807-1.805
		l11.862,11.859c1.219,1.218,3.195,1.218,4.413,0l10.52-10.519c0.585-0.586,0.914-1.379,0.914-2.207
		c0-0.827-0.329-1.622-0.914-2.207L37.762,27.188z"/>
	<path d="M98.47,30.584c-0.231-1.042-0.979-1.893-1.983-2.256c-5.926-2.148-10.997-6.558-14.208-9.88
		c-2.43-2.514-5.453-5.643-10.411-9.537c-2.753-2.163-5.743-3.259-8.89-3.259c-8.563,0-16.5,7.974-20.47,12.727
		c-1.035,1.24-0.953,3.064,0.189,4.206l30.7,30.702c0.585,0.585,1.378,0.914,2.206,0.914c0.828,0,1.622-0.329,2.207-0.914
		L97.63,33.468C98.384,32.713,98.701,31.625,98.47,30.584z"/>
</g>
</svg>
