<?xml version="1.0" encoding="utf-8"?>
<!-- Generator: Adobe Illustrator 16.0.0, SVG Export Plug-In . SVG Version: 6.00 Build 0)  -->
<!DOCTYPE svg PUBLIC "-//W3C//DTD SVG 1.1//EN" "http://www.w3.org/Graphics/SVG/1.1/DTD/svg11.dtd">
<svg version="1.1" id="Layer_1" xmlns="http://www.w3.org/2000/svg" xmlns:xlink="http://www.w3.org/1999/xlink" x="0px" y="0px"
	 width="100px" height="100px" viewBox="0 0 100 100" enable-background="new 0 0 100 100" xml:space="preserve">
<g>
	<path d="M83.881,18.35V9.553c0-1.104-0.896-2-2-2H32.629c-10,0-17.458,2.146-22.799,6.562C4.238,18.74,1.402,25.292,1.402,33.588
		c0,9.107,2.743,15.859,8.387,20.643c5.622,4.765,13.788,7.181,24.271,7.181h9.119v29.036c0,1.104,0.896,2,2,2h6.234
		c1.104,0,2-0.896,2-2V20.35h8.035v70.098c0,1.104,0.896,2,2,2h6.038c1.104,0,2-0.896,2-2V20.35h10.394
		C82.985,20.35,83.881,19.454,83.881,18.35z"/>
	<path d="M97.918,48.524L83.51,35.859c-0.59-0.518-1.43-0.643-2.145-0.32c-0.716,0.324-1.176,1.037-1.176,1.822v25.285
		c0,0.785,0.459,1.497,1.174,1.821c0.265,0.12,0.546,0.179,0.825,0.179c0.477,0,0.946-0.17,1.318-0.495l14.409-12.62
		c0.433-0.38,0.682-0.928,0.682-1.503C98.599,49.452,98.351,48.904,97.918,48.524z"/>
</g>
</svg>
