<?xml version="1.0" encoding="utf-8"?>
<!-- Generator: Adobe Illustrator 16.0.0, SVG Export Plug-In . SVG Version: 6.00 Build 0)  -->
<!DOCTYPE svg PUBLIC "-//W3C//DTD SVG 1.1//EN" "http://www.w3.org/Graphics/SVG/1.1/DTD/svg11.dtd">
<svg version="1.1" id="Layer_2" xmlns="http://www.w3.org/2000/svg" xmlns:xlink="http://www.w3.org/1999/xlink" x="0px" y="0px"
	 width="100px" height="100px" viewBox="0 0 100 100" enable-background="new 0 0 100 100" xml:space="preserve">
<g>
	<path d="M75.197,2.453H24.803c-2.16,0-3.918,1.758-3.918,3.919v87.256c0,2.161,1.758,3.919,3.918,3.919h50.395
		c2.16,0,3.918-1.758,3.918-3.919V6.372C79.115,4.211,77.357,2.453,75.197,2.453z M50,91.889c-2.7,0-4.889-2.188-4.889-4.889
		S47.3,82.111,50,82.111S54.889,84.3,54.889,87S52.7,91.889,50,91.889z M71.278,77.302H28.722V10.29h42.557V77.302z"/>
	<path d="M36.815,15.748c-1.414,0-2.561,1.146-2.561,2.561v21.345l23.904-23.905H36.815z"/>
</g>
</svg>
