<?xml version="1.0" encoding="utf-8"?>
<!-- Generator: Adobe Illustrator 16.0.0, SVG Export Plug-In . SVG Version: 6.00 Build 0)  -->
<!DOCTYPE svg PUBLIC "-//W3C//DTD SVG 1.1//EN" "http://www.w3.org/Graphics/SVG/1.1/DTD/svg11.dtd">
<svg version="1.1" id="Layer_1" xmlns="http://www.w3.org/2000/svg" xmlns:xlink="http://www.w3.org/1999/xlink" x="0px" y="0px"
	 width="100px" height="100px" viewBox="0 0 100 100" enable-background="new 0 0 100 100" xml:space="preserve">
<g>
	<path d="M93.482,22.888H69.96L66.469,8.867c-0.333-1.339-1.531-2.275-2.911-2.275H36.418c-1.381,0-2.579,0.937-2.912,2.277
		l-3.481,14.019H6.518c-1.654,0-3,1.346-3,3v64.52c0,1.654,1.346,3,3,3h86.965c1.654,0,3-1.346,3-3v-64.52
		C96.482,24.234,95.137,22.888,93.482,22.888z M50,78.386c-11.16,0-20.238-9.079-20.238-20.238S38.84,37.91,50,37.91
		s20.238,9.079,20.238,20.238S61.16,78.386,50,78.386z"/>
</g>
</svg>
