<?xml version="1.0" encoding="utf-8"?>
<!-- Generator: Adobe Illustrator 16.0.0, SVG Export Plug-In . SVG Version: 6.00 Build 0)  -->
<!DOCTYPE svg PUBLIC "-//W3C//DTD SVG 1.1//EN" "http://www.w3.org/Graphics/SVG/1.1/DTD/svg11.dtd">
<svg version="1.1" id="Layer_4" xmlns="http://www.w3.org/2000/svg" xmlns:xlink="http://www.w3.org/1999/xlink" x="0px" y="0px"
	 width="100px" height="100px" viewBox="0 0 100 100" enable-background="new 0 0 100 100" xml:space="preserve">
<path d="M95.412,2.451H4.588c-1.18,0-2.137,0.957-2.137,2.137v90.824c0,1.18,0.957,2.137,2.137,2.137h90.824
	c1.18,0,2.137-0.957,2.137-2.137V4.588C97.549,3.408,96.592,2.451,95.412,2.451z M39.098,50c0,0.351-0.023,0.697-0.052,1.042
	l26.026,13.121c2.16-1.902,4.988-3.066,8.094-3.066c6.773,0,12.264,5.49,12.264,12.264c0,6.772-5.491,12.264-12.264,12.264
	c-6.773,0-12.264-5.491-12.264-12.264c0-0.274,0.023-0.544,0.041-0.813L34.764,59.348c-2.139,1.815-4.904,2.916-7.93,2.916
	c-6.773,0-12.264-5.49-12.264-12.264s5.491-12.264,12.264-12.264c3.065,0,5.861,1.132,8.012,2.991l26.102-13.161
	c-0.023-0.306-0.046-0.614-0.046-0.927c0-6.772,5.491-12.264,12.264-12.264c6.773,0,12.264,5.491,12.264,12.264
	c0,6.773-5.491,12.264-12.264,12.264c-3.065,0-5.861-1.132-8.012-2.991L39.052,49.073C39.075,49.38,39.098,49.688,39.098,50z"/>
</svg>
