<?xml version="1.0" encoding="utf-8"?>
<!-- Generator: Adobe Illustrator 16.0.0, SVG Export Plug-In . SVG Version: 6.00 Build 0)  -->
<!DOCTYPE svg PUBLIC "-//W3C//DTD SVG 1.1//EN" "http://www.w3.org/Graphics/SVG/1.1/DTD/svg11.dtd">
<svg version="1.1" id="Layer_1" xmlns="http://www.w3.org/2000/svg" xmlns:xlink="http://www.w3.org/1999/xlink" x="0px" y="0px"
	 width="100px" height="100px" viewBox="0 0 100 100" enable-background="new 0 0 100 100" xml:space="preserve">
<g>
	<path d="M95.75,17.711H37.125c-0.793,0-1.539,0.376-2.01,1.013l-8.411,11.371H4.25c-1.381,0-2.5,1.119-2.5,2.5v47.193
		c0,1.381,1.119,2.5,2.5,2.5h91.5c1.381,0,2.5-1.119,2.5-2.5V20.211C98.25,18.831,97.131,17.711,95.75,17.711z M45.565,50.75
		c0-9.953,8.098-18.051,18.051-18.051s18.051,8.098,18.051,18.051s-8.098,18.051-18.051,18.051S45.565,60.703,45.565,50.75z"/>
	<path d="M20.5,17.711H5c-1.381,0-2.5,1.119-2.5,2.5v4.955H23v-4.955C23,18.831,21.881,17.711,20.5,17.711z"/>
</g>
</svg>
