<?xml version="1.0" encoding="utf-8"?>
<!-- Generator: Adobe Illustrator 16.0.0, SVG Export Plug-In . SVG Version: 6.00 Build 0)  -->
<!DOCTYPE svg PUBLIC "-//W3C//DTD SVG 1.1//EN" "http://www.w3.org/Graphics/SVG/1.1/DTD/svg11.dtd">
<svg version="1.1" id="Layer_4" xmlns="http://www.w3.org/2000/svg" xmlns:xlink="http://www.w3.org/1999/xlink" x="0px" y="0px"
	 width="100px" height="100px" viewBox="0 0 100 100" enable-background="new 0 0 100 100" xml:space="preserve">
<path d="M72.532,56.293c-0.984-4.154-4.955-7.763-10.894-9.9l4.028-29.382h1.865c1.104,0,2-0.896,2-2V4.167c0-1.104-0.896-2-2-2
	H32.467c-1.104,0-2,0.896-2,2v10.844c0,1.104,0.896,2,2,2h1.845l3.838,29.457l0,0.001c-5.814,2.145-9.707,5.726-10.682,9.822
	c-0.142,0.596-0.003,1.223,0.376,1.703c0.379,0.479,0.958,0.76,1.569,0.76h16.073l1.976,37.186c0.056,1.062,0.934,1.894,1.997,1.894
	h1.077c1.063,0,1.941-0.832,1.997-1.894l1.975-37.186h16.075c0.611,0,1.189-0.279,1.569-0.76
	C72.534,57.515,72.672,56.888,72.532,56.293z"/>
</svg>
