<?xml version="1.0" encoding="utf-8"?>
<!-- Generator: Adobe Illustrator 16.0.0, SVG Export Plug-In . SVG Version: 6.00 Build 0)  -->
<!DOCTYPE svg PUBLIC "-//W3C//DTD SVG 1.1//EN" "http://www.w3.org/Graphics/SVG/1.1/DTD/svg11.dtd">
<svg version="1.1" id="Layer_1" xmlns="http://www.w3.org/2000/svg" xmlns:xlink="http://www.w3.org/1999/xlink" x="0px" y="0px"
	 width="100px" height="100px" viewBox="0 0 100 100" enable-background="new 0 0 100 100" xml:space="preserve">
<path d="M50,2.119c-12.607,0-22.863,10.257-22.863,22.863c0,10.604,7.428,19.904,17.722,22.271v48.628
	c0,0.867,0.558,1.635,1.383,1.902c0.203,0.066,0.411,0.098,0.617,0.098c0.629,0,1.236-0.297,1.62-0.826l6.283-8.664
	c0.248-0.341,0.381-0.752,0.381-1.174V47.253c10.293-2.366,17.722-11.666,17.722-22.271C72.863,12.376,62.607,2.119,50,2.119z
	 M63.876,16.16c-0.356,0.431-0.966,0.668-1.716,0.668c-1.285,0-2.848-0.658-4.181-1.76c-1.113-0.921-1.943-2.036-2.337-3.141
	c-0.357-1-0.299-1.892,0.159-2.445c0.356-0.431,0.965-0.668,1.715-0.668c1.285,0,2.848,0.657,4.18,1.759
	c1.113,0.921,1.943,2.036,2.337,3.141C64.392,14.714,64.333,15.606,63.876,16.16z"/>
</svg>
