<?xml version="1.0" encoding="utf-8"?>
<!-- Generator: Adobe Illustrator 16.0.0, SVG Export Plug-In . SVG Version: 6.00 Build 0)  -->
<!DOCTYPE svg PUBLIC "-//W3C//DTD SVG 1.1//EN" "http://www.w3.org/Graphics/SVG/1.1/DTD/svg11.dtd">
<svg version="1.1" id="Layer_1" xmlns="http://www.w3.org/2000/svg" xmlns:xlink="http://www.w3.org/1999/xlink" x="0px" y="0px"
	 width="100px" height="100px" viewBox="0 0 100 100" enable-background="new 0 0 100 100" xml:space="preserve">
<path d="M96.747,30L69.977,3.23c-1.428-1.427-3.954-1.427-5.381,0l-7.402,7.401c-0.714,0.714-1.115,1.683-1.114,2.692
	c0,1.007,0.4,1.974,1.112,2.687l0.1,0.162c1.838,2.995-1.786,11.795-10.11,20.12c-2.304,2.304-4.702,4.316-7.127,5.983l-1.119,0.77
	l-2.805-2.807c-1.673-1.674-3.903-2.596-6.279-2.596s-4.606,0.923-6.281,2.597c-1.674,1.674-2.596,3.904-2.596,6.28
	c0,2.375,0.922,4.605,2.596,6.28l8.689,8.69L3.215,91.383c-0.718,0.739-1.075,1.695-1.076,2.65c0,0.993,0.386,1.984,1.154,2.73
	c0.739,0.719,1.695,1.077,2.651,1.077c0.992,0,1.983-0.386,2.729-1.154l28.969-29.813l9.535,9.533
	c1.674,1.675,3.904,2.598,6.28,2.598c2.376,0,4.607-0.922,6.281-2.597c3.462-3.463,3.462-9.098-0.001-12.562l-2.805-2.803
	l0.769-1.118c1.669-2.428,3.683-4.826,5.984-7.126c8.369-8.369,15.536-10.58,18.157-10.58c0.796,0,1.456,0.158,1.963,0.47
	l0.164,0.101c1.486,1.481,3.891,1.479,5.376-0.005l7.402-7.402C98.232,33.895,98.232,31.486,96.747,30z"/>
</svg>
