<?xml version="1.0" encoding="utf-8"?>
<!-- Generator: Adobe Illustrator 16.0.0, SVG Export Plug-In . SVG Version: 6.00 Build 0)  -->
<!DOCTYPE svg PUBLIC "-//W3C//DTD SVG 1.1//EN" "http://www.w3.org/Graphics/SVG/1.1/DTD/svg11.dtd">
<svg version="1.1" id="Layer_1" xmlns="http://www.w3.org/2000/svg" xmlns:xlink="http://www.w3.org/1999/xlink" x="0px" y="0px"
	 width="100px" height="100px" viewBox="0 0 100 100" enable-background="new 0 0 100 100" xml:space="preserve">
<g>
	<path d="M63.196,59.779l-20.269-15.96c-0.661-0.521-1.563-0.616-2.317-0.25c-0.757,0.367-1.238,1.134-1.238,1.976l-0.016,31.9
		c0,0.841,0.479,1.608,1.236,1.977c0.305,0.147,0.633,0.221,0.959,0.221c0.483,0,0.964-0.159,1.358-0.47l20.284-15.94
		c0.53-0.417,0.84-1.053,0.84-1.727S63.727,60.195,63.196,59.779z"/>
	<path d="M95.328,2.125H4.672c-1.406,0-2.547,1.14-2.547,2.546v90.657c0,1.406,1.141,2.546,2.547,2.546h90.656
		c1.406,0,2.547-1.14,2.547-2.546V4.671C97.875,3.265,96.734,2.125,95.328,2.125z M66.498,23.729l7.094-14.531
		c0.251-0.515,0.774-0.842,1.348-0.842h11.784c0.518,0,0.998,0.267,1.272,0.706c0.273,0.438,0.303,0.988,0.075,1.453l-7.095,14.531
		c-0.251,0.515-0.774,0.842-1.348,0.842H67.846c-0.518,0-0.998-0.267-1.272-0.706C66.3,24.743,66.271,24.193,66.498,23.729z
		 M39.214,23.729l7.094-14.531c0.251-0.515,0.774-0.842,1.348-0.842h11.783c0.518,0,0.998,0.267,1.272,0.706
		c0.273,0.438,0.303,0.988,0.075,1.453l-7.094,14.531c-0.251,0.515-0.774,0.842-1.348,0.842H40.562
		c-0.518,0-0.998-0.267-1.272-0.706C39.016,24.743,38.986,24.193,39.214,23.729z M11.929,23.729l7.094-14.531
		c0.251-0.515,0.774-0.842,1.348-0.842h11.783c0.518,0,0.998,0.267,1.272,0.706c0.273,0.438,0.303,0.988,0.075,1.453l-7.094,14.531
		c-0.251,0.515-0.774,0.842-1.348,0.842H13.276c-0.518,0-0.998-0.267-1.272-0.706C11.73,24.743,11.701,24.193,11.929,23.729z
		 M90.042,88.627c0,0.829-0.672,1.5-1.5,1.5H11.458c-0.828,0-1.5-0.671-1.5-1.5V33.655c0-0.829,0.672-1.5,1.5-1.5h77.084
		c0.828,0,1.5,0.671,1.5,1.5V88.627z"/>
</g>
</svg>
