<?xml version="1.0" encoding="utf-8"?>
<!-- Generator: Adobe Illustrator 16.0.0, SVG Export Plug-In . SVG Version: 6.00 Build 0)  -->
<!DOCTYPE svg PUBLIC "-//W3C//DTD SVG 1.1//EN" "http://www.w3.org/Graphics/SVG/1.1/DTD/svg11.dtd">
<svg version="1.1" id="Layer_1" xmlns="http://www.w3.org/2000/svg" xmlns:xlink="http://www.w3.org/1999/xlink" x="0px" y="0px"
	 width="100px" height="100px" viewBox="0 0 100 100" enable-background="new 0 0 100 100" xml:space="preserve">
<g>
	<path d="M25.574,16.143c-0.478-0.478-1.135-0.742-1.805-0.723c-0.675,0.017-1.314,0.309-1.768,0.808
		c-14.829,16.325-6.762,51.623-5.916,55.115L1.217,86.212c-0.463,0.463-0.723,1.091-0.723,1.746s0.26,1.283,0.723,1.746l8.958,8.957
		c0.482,0.481,1.114,0.723,1.746,0.723c0.631,0,1.264-0.241,1.745-0.723l14.865-14.864c7.237,1.859,16.289,2.967,24.28,2.967
		c9.598,0,22.739-1.542,30.835-8.885c0.5-0.454,0.793-1.093,0.809-1.768c0.017-0.676-0.245-1.329-0.722-1.806L25.574,16.143z"/>
	<path d="M47.051,30.84c0.482,0.482,1.114,0.723,1.746,0.723s1.264-0.241,1.746-0.724L68.97,12.411
		c1.305-1.305,2.024-3.04,2.024-4.885c0-1.846-0.719-3.582-2.024-4.886c-1.304-1.305-3.039-2.022-4.884-2.022
		s-3.581,0.718-4.887,2.022L40.771,21.069c-0.964,0.964-0.964,2.527,0,3.492L47.051,30.84z"/>
	<path d="M97.485,31.156c-1.305-1.305-3.04-2.024-4.886-2.024s-3.581,0.718-4.885,2.023l-18.43,18.429
		c-0.463,0.463-0.723,1.091-0.723,1.746s0.26,1.282,0.723,1.746l6.28,6.279c0.482,0.482,1.114,0.723,1.746,0.723
		s1.264-0.241,1.746-0.723l18.43-18.429C100.179,38.23,100.179,33.848,97.485,31.156z"/>
</g>
</svg>
