<?xml version="1.0" encoding="utf-8"?>
<!-- Generator: Adobe Illustrator 16.0.0, SVG Export Plug-In . SVG Version: 6.00 Build 0)  -->
<!DOCTYPE svg PUBLIC "-//W3C//DTD SVG 1.1//EN" "http://www.w3.org/Graphics/SVG/1.1/DTD/svg11.dtd">
<svg version="1.1" id="Layer_2" xmlns="http://www.w3.org/2000/svg" xmlns:xlink="http://www.w3.org/1999/xlink" x="0px" y="0px"
	 width="100px" height="100px" viewBox="0 0 100 100" enable-background="new 0 0 100 100" xml:space="preserve">
<g>
	<path d="M98.411,38.059c-0.306-0.442-0.809-0.706-1.346-0.706l-14.42-0.005l0.817-2.233c0.608-1.663,0.444-3.353-0.452-4.636
		c-0.859-1.229-2.29-1.935-3.927-1.935H67.836c-2.843,0-5.878,2.1-6.897,4.883l-1.554,3.911l-11.197-0.005h-0.001
		c-0.661,0-1.258,0.397-1.512,1.01L33.891,69.193c-0.209,0.505-0.152,1.08,0.151,1.535c0.304,0.454,0.813,0.728,1.36,0.728H85.44
		c0.681,0,1.29-0.422,1.53-1.06l11.625-30.83C98.785,39.063,98.717,38.5,98.411,38.059z M78.272,35.015l-0.853,2.33L64.855,37.34
		l0.815-2.226c0.337-0.921,1.46-1.662,2.165-1.662c0,0,7.09,0,8.965,0C78.862,33.452,78.272,35.015,78.272,35.015z"/>
	<path d="M43.993,37.336l-3.377,0.002l-1.555-3.911c-1.02-2.783-4.054-4.883-6.897-4.883H20.916c-1.637,0-3.066,0.706-3.926,1.935
		c-0.896,1.283-1.061,2.973-0.452,4.636l0.816,2.233l-14.42,0.005c-0.537,0-1.04,0.264-1.346,0.706
		c-0.306,0.441-0.374,1.005-0.185,1.508l11.625,30.83c0.24,0.638,0.85,1.06,1.53,1.06h16.658c-0.419-1.073-0.423-2.272,0.028-3.358
		L43.993,37.336z M22.581,37.345l-0.854-2.33c0,0-0.59-1.563,1.473-1.563c1.874,0,8.964,0,8.964,0c0.706,0,1.829,0.741,2.166,1.662
		l0.815,2.226L22.581,37.345z"/>
</g>
</svg>
