<?xml version="1.0" encoding="utf-8"?>
<!-- Generator: Adobe Illustrator 16.0.0, SVG Export Plug-In . SVG Version: 6.00 Build 0)  -->
<!DOCTYPE svg PUBLIC "-//W3C//DTD SVG 1.1//EN" "http://www.w3.org/Graphics/SVG/1.1/DTD/svg11.dtd">
<svg version="1.1" id="Layer_4" xmlns="http://www.w3.org/2000/svg" xmlns:xlink="http://www.w3.org/1999/xlink" x="0px" y="0px"
	 width="100px" height="100px" viewBox="0 0 100 100" enable-background="new 0 0 100 100" xml:space="preserve">
<g>
	<path d="M67.375,9.947c-0.721-0.292-1.478-0.44-2.25-0.44c-2.457,0-4.641,1.471-5.563,3.749c-1.242,3.066,0.242,6.572,3.309,7.813
		c13.028,5.276,21.446,17.764,21.446,31.812c0,18.923-15.395,34.317-34.317,34.317S15.683,71.804,15.683,52.881
		c0-14.044,8.418-26.529,21.446-31.805c1.485-0.602,2.647-1.746,3.272-3.221c0.625-1.476,0.638-3.106,0.036-4.592
		c-0.922-2.277-3.105-3.749-5.563-3.749c-0.772,0-1.529,0.148-2.25,0.44C15.043,17.074,3.683,33.924,3.683,52.881
		C3.683,78.42,24.46,99.198,50,99.198S96.317,78.42,96.317,52.881C96.317,33.92,84.957,17.067,67.375,9.947z"/>
	<path d="M50,43.5c2.761,0,5-2.239,5-5V5.802c0-2.761-2.239-5-5-5s-5,2.239-5,5V38.5C45,41.261,47.239,43.5,50,43.5z"/>
</g>
</svg>
