<?xml version="1.0" encoding="utf-8"?>
<!-- Generator: Adobe Illustrator 16.0.0, SVG Export Plug-In . SVG Version: 6.00 Build 0)  -->
<!DOCTYPE svg PUBLIC "-//W3C//DTD SVG 1.1//EN" "http://www.w3.org/Graphics/SVG/1.1/DTD/svg11.dtd">
<svg version="1.1" id="Layer_3" xmlns="http://www.w3.org/2000/svg" xmlns:xlink="http://www.w3.org/1999/xlink" x="0px" y="0px"
	 width="100px" height="100px" viewBox="0 0 100 100" enable-background="new 0 0 100 100" xml:space="preserve">
<path d="M50,1.709C23.372,1.709,1.709,23.372,1.709,50S23.372,98.291,50,98.291S98.291,76.628,98.291,50S76.628,1.709,50,1.709z
	 M86.291,50c0,6.931-1.962,13.408-5.349,18.921L31.078,19.058c5.514-3.386,11.991-5.349,18.922-5.349
	C70.011,13.709,86.291,29.989,86.291,50z M13.709,50c0-6.931,1.962-13.408,5.349-18.921l49.864,49.864
	C63.408,84.329,56.931,86.291,50,86.291C29.989,86.291,13.709,70.011,13.709,50z"/>
</svg>
