<?xml version="1.0" encoding="utf-8"?>
<!-- Generator: Adobe Illustrator 16.0.0, SVG Export Plug-In . SVG Version: 6.00 Build 0)  -->
<!DOCTYPE svg PUBLIC "-//W3C//DTD SVG 1.1//EN" "http://www.w3.org/Graphics/SVG/1.1/DTD/svg11.dtd">
<svg version="1.1" id="Layer_4" xmlns="http://www.w3.org/2000/svg" xmlns:xlink="http://www.w3.org/1999/xlink" x="0px" y="0px"
	 width="100px" height="100px" viewBox="0 0 100 100" enable-background="new 0 0 100 100" xml:space="preserve">
<path d="M78.558,47.707c-4.568,0-9.056,1.863-12.313,5.11V35.684c0-1.104-0.896-2-2-2H46.895c3.604-3.283,5.67-7.969,5.67-12.856
	c0-9.618-7.825-17.442-17.442-17.442S17.68,11.21,17.68,20.828c0,4.887,2.067,9.573,5.67,12.856H6c-1.104,0-2,0.896-2,2v58.931
	c0,1.104,0.896,2,2,2h15.612c0.007-0.001,0.013,0,0.02,0c1.104,0,2-0.896,2-2c0-0.564-0.233-1.074-0.609-1.438
	c-2.154-2.72-3.291-5.998-3.291-9.495c0-8.486,6.904-15.391,15.39-15.391s15.391,6.904,15.391,15.391
	c0,3.573-1.186,6.917-3.429,9.669c-0.488,0.599-0.587,1.424-0.256,2.122c0.332,0.698,1.035,1.142,1.807,1.142h15.611
	c1.104,0,2-0.896,2-2V77.481c3.257,3.248,7.745,5.11,12.313,5.11C88.175,82.592,96,74.767,96,65.149S88.175,47.707,78.558,47.707z"
	/>
</svg>
