<?xml version="1.0" encoding="utf-8"?>
<!-- Generator: Adobe Illustrator 16.0.0, SVG Export Plug-In . SVG Version: 6.00 Build 0)  -->
<!DOCTYPE svg PUBLIC "-//W3C//DTD SVG 1.1//EN" "http://www.w3.org/Graphics/SVG/1.1/DTD/svg11.dtd">
<svg version="1.1" id="Layer_4" xmlns="http://www.w3.org/2000/svg" xmlns:xlink="http://www.w3.org/1999/xlink" x="0px" y="0px"
	 width="100px" height="100px" viewBox="0 0 100 100" enable-background="new 0 0 100 100" xml:space="preserve">
<g>
	<path d="M95.412,2.451H4.588c-1.178,0-2.137,0.958-2.137,2.137v90.824c0,1.178,0.959,2.137,2.137,2.137h90.824
		c1.178,0,2.137-0.958,2.137-2.137V4.588C97.549,3.41,96.59,2.451,95.412,2.451z M88.551,88.551H11.449V11.449h77.102V88.551z"/>
	<path d="M53.457,74.756h-6.928c-0.777,0-1.409,0.631-1.409,1.409v6.224c0,0.779,0.632,1.41,1.409,1.41h6.928
		c0.779,0,1.41-0.631,1.41-1.41v-6.224C54.867,75.387,54.236,74.756,53.457,74.756z"/>
	<path d="M30.628,37.693h7.055c0.747,0,1.364-0.583,1.407-1.33c0.326-5.774,5.117-10.297,10.903-10.297
		c6.022,0,10.923,4.899,10.923,10.922c0,3.657-1.41,5.01-4.885,7.985c-4.539,3.885-10.757,9.206-10.965,22.81
		c-0.006,0.377,0.141,0.741,0.406,1.01c0.264,0.269,0.626,0.421,1.004,0.421h7.047c0.769,0,1.396-0.617,1.409-1.385
		c0.155-9.064,3.402-11.843,7.515-15.363c3.713-3.178,8.334-7.133,8.334-15.478c0-11.462-9.325-20.787-20.788-20.787
		c-11.244,0-20.369,8.799-20.773,20.032c-0.014,0.383,0.129,0.754,0.394,1.029C29.88,37.537,30.245,37.693,30.628,37.693z"/>
</g>
</svg>
