<?xml version="1.0" encoding="utf-8"?>
<!-- Generator: Adobe Illustrator 16.0.0, SVG Export Plug-In . SVG Version: 6.00 Build 0)  -->
<!DOCTYPE svg PUBLIC "-//W3C//DTD SVG 1.1//EN" "http://www.w3.org/Graphics/SVG/1.1/DTD/svg11.dtd">
<svg version="1.1" id="Layer_4" xmlns="http://www.w3.org/2000/svg" xmlns:xlink="http://www.w3.org/1999/xlink" x="0px" y="0px"
	 width="100px" height="100px" viewBox="0 0 100 100" enable-background="new 0 0 100 100" xml:space="preserve">
<path d="M95.412,2.451H4.588c-1.18,0-2.137,0.957-2.137,2.137v90.824c0,1.18,0.957,2.137,2.137,2.137h90.824
	c1.18,0,2.137-0.957,2.137-2.137V4.588C97.549,3.408,96.592,2.451,95.412,2.451z M55.107,83.986c0,0.817-0.662,1.479-1.479,1.479
	h-7.27c-0.816,0-1.479-0.662-1.479-1.479v-6.531c0-0.816,0.662-1.479,1.479-1.479h7.27c0.817,0,1.479,0.662,1.479,1.479V83.986z
	 M63.061,52.588c-4.314,3.693-7.722,6.609-7.885,16.12c-0.014,0.807-0.672,1.454-1.479,1.454h-7.395
	c-0.396,0-0.776-0.159-1.054-0.441c-0.278-0.282-0.432-0.664-0.426-1.06c0.218-14.275,6.742-19.858,11.506-23.935
	c3.646-3.122,5.125-4.542,5.125-8.378c0-6.319-5.142-11.46-11.461-11.46c-6.072,0-11.099,4.746-11.441,10.805
	c-0.045,0.783-0.692,1.395-1.477,1.395h-7.402c-0.401,0-0.785-0.164-1.064-0.452c-0.278-0.289-0.428-0.679-0.413-1.08
	c0.424-11.787,9.999-21.02,21.798-21.02c12.027,0,21.813,9.785,21.813,21.812C71.806,45.103,66.957,49.253,63.061,52.588z"/>
</svg>
