<?xml version="1.0" encoding="utf-8"?>
<!-- Generator: Adobe Illustrator 16.0.0, SVG Export Plug-In . SVG Version: 6.00 Build 0)  -->
<!DOCTYPE svg PUBLIC "-//W3C//DTD SVG 1.1//EN" "http://www.w3.org/Graphics/SVG/1.1/DTD/svg11.dtd">
<svg version="1.1" id="Layer_2" xmlns="http://www.w3.org/2000/svg" xmlns:xlink="http://www.w3.org/1999/xlink" x="0px" y="0px"
	 width="100px" height="100px" viewBox="0 0 100 100" enable-background="new 0 0 100 100" xml:space="preserve">
<g>
	<path d="M71.229,50.331H28.771c-0.829,0-1.5,0.672-1.5,1.5v8.695c0,0.828,0.671,1.5,1.5,1.5h42.457c0.829,0,1.5-0.672,1.5-1.5
		v-8.695C72.729,51.003,72.057,50.331,71.229,50.331z"/>
	<path d="M71.229,37.974H28.771c-0.829,0-1.5,0.672-1.5,1.5v4.502c0,0.828,0.671,1.5,1.5,1.5h42.457c0.829,0,1.5-0.672,1.5-1.5
		v-4.502C72.729,38.646,72.057,37.974,71.229,37.974z"/>
	<path d="M82.642,23.961H17.358c-1.104,0-2,0.896-2,2v48.078c0,1.104,0.896,2,2,2h65.283c1.104,0,2-0.896,2-2V25.961
		C84.642,24.856,83.746,23.961,82.642,23.961z M76.698,66.095c0,1.104-0.896,2-2,2H25.302c-1.104,0-2-0.896-2-2V33.905
		c0-1.104,0.896-2,2-2h49.396c1.104,0,2,0.896,2,2V66.095z"/>
	<path d="M97.333,34.943h-6.399c-1.104,0-2,0.896-2,2v26.113c0,1.104,0.896,2,2,2h6.399c1.104,0,2-0.896,2-2V36.943
		C99.333,35.839,98.438,34.943,97.333,34.943z"/>
	<path d="M9.066,34.943H2.667c-1.104,0-2,0.896-2,2v26.113c0,1.104,0.896,2,2,2h6.399c1.104,0,2-0.896,2-2V36.943
		C11.066,35.839,10.171,34.943,9.066,34.943z"/>
</g>
</svg>
