<?xml version="1.0" encoding="utf-8"?>
<!-- Generator: Adobe Illustrator 16.0.0, SVG Export Plug-In . SVG Version: 6.00 Build 0)  -->
<!DOCTYPE svg PUBLIC "-//W3C//DTD SVG 1.1//EN" "http://www.w3.org/Graphics/SVG/1.1/DTD/svg11.dtd">
<svg version="1.1" id="Layer_4" xmlns="http://www.w3.org/2000/svg" xmlns:xlink="http://www.w3.org/1999/xlink" x="0px" y="0px"
	 width="100px" height="100px" viewBox="0 0 100 100" enable-background="new 0 0 100 100" xml:space="preserve">
<g>
	<path d="M37.629,74.776H26.316L17.75,88.869h19.879c1.104,0,2-0.896,2-2V76.776C39.629,75.672,38.733,74.776,37.629,74.776z"/>
	<path d="M30.448,66.371c0.62,0.344,1.374,0.334,1.985-0.025c0.61-0.359,0.985-1.015,0.985-1.723l0.007-23.255
		c0-0.709-0.375-1.364-0.985-1.724c-0.611-0.361-1.367-0.37-1.985-0.026L10.185,50.864c-0.625,0.347-1.017,1.001-1.029,1.715
		c-0.012,0.715,0.357,1.382,0.97,1.749l3.128,1.878L2.048,75.038c-0.445,0.748-0.355,1.698,0.222,2.35l8.21,9.263
		c0.381,0.43,0.927,0.673,1.497,0.673c0.062,0,0.125-0.003,0.188-0.009c0.635-0.06,1.204-0.419,1.531-0.967l13.109-21.997
		L30.448,66.371z"/>
	<path d="M73.99,60.175l5.819,9.702l16.707-0.002l-10.443-16.95c-0.568-0.947-1.797-1.254-2.744-0.686l-8.653,5.192
		C73.729,57.999,73.422,59.228,73.99,60.175z"/>
	<path d="M97.844,75.559c-0.378-0.514-1.001-0.855-1.617-0.814l-25.609,0.077l-0.143-4.166c-0.024-0.708-0.421-1.35-1.043-1.688
		s-1.377-0.322-1.984,0.042L47.504,80.97c-0.607,0.365-0.977,1.023-0.971,1.732c0.006,0.708,0.386,1.36,1,1.715l20.073,11.595
		c0.31,0.179,0.655,0.269,1,0.269s0.69-0.09,1-0.268c0.619-0.357,1-1.018,1-1.732l0.001-3.649l21.912-0.079
		c0.87-0.004,1.639-0.569,1.9-1.399l3.722-11.808C98.333,76.736,98.223,76.073,97.844,75.559z"/>
	<path d="M48.584,23.917l-7.689-12.33L30.706,28.639c-0.552,0.956-0.225,2.18,0.732,2.731l8.74,5.047
		c0.307,0.178,0.652,0.269,1,0.269c0.173,0,0.347-0.022,0.518-0.068c0.513-0.138,0.949-0.473,1.214-0.932l5.657-9.8
		C48.917,25.278,48.924,24.53,48.584,23.917z"/>
	<path d="M57.353,31.524l-3.572,2.144c-0.607,0.365-0.977,1.023-0.971,1.731c0.006,0.709,0.386,1.361,1,1.716l20.137,11.633
		c0.31,0.179,0.655,0.269,1,0.269c0.34,0,0.679-0.087,0.985-0.26c0.617-0.349,1.003-0.998,1.015-1.706l0.394-23.178
		c0.012-0.715-0.357-1.382-0.97-1.749c-0.613-0.368-1.376-0.382-2-0.034l-3.189,1.771L60.474,4.742
		c-0.426-0.76-1.294-1.154-2.146-0.982L46.201,6.237c-0.625,0.128-1.152,0.546-1.418,1.126c-0.266,0.581-0.239,1.253,0.073,1.81
		L57.353,31.524z"/>
</g>
</svg>
