<?xml version="1.0" encoding="utf-8"?>
<!-- Generator: Adobe Illustrator 16.0.0, SVG Export Plug-In . SVG Version: 6.00 Build 0)  -->
<!DOCTYPE svg PUBLIC "-//W3C//DTD SVG 1.1//EN" "http://www.w3.org/Graphics/SVG/1.1/DTD/svg11.dtd">
<svg version="1.1" id="Layer_1" xmlns="http://www.w3.org/2000/svg" xmlns:xlink="http://www.w3.org/1999/xlink" x="0px" y="0px"
	 width="100px" height="100px" viewBox="0 0 100 100" enable-background="new 0 0 100 100" xml:space="preserve">
<g>
	<path d="M97.345,42.188C92.096,23.416,79.148,9.789,66.56,9.789c-1.01,0-2.021,0.088-3.005,0.262
		c-0.557,0.098-1.045,0.426-1.347,0.902c-0.301,0.479-0.386,1.061-0.234,1.605l2.591,9.268c0.25,0.895,1.113,1.5,2.01,1.459
		l0.206-0.004c4.668,0,13.199,6.996,17.548,22.545c0.172,0.617,0.335,1.248,0.492,1.906c-4.882-2.416-10.706-2.975-15.98-1.506
		C56.944,49.555,49.973,61.941,53.3,73.838c2.696,9.639,11.563,16.373,21.563,16.373c2.037,0,4.071-0.281,6.046-0.834
		c7.846-2.193,13.745-8.707,16.611-18.338C100.106,62.35,100.042,51.834,97.345,42.188z"/>
	<path d="M14.674,9.791c-1.009,0-2.02,0.086-3.003,0.26c-0.557,0.096-1.046,0.426-1.347,0.902c-0.301,0.479-0.386,1.061-0.234,1.605
		l2.592,9.268c0.25,0.895,1.097,1.5,2.01,1.459l0.204-0.004c4.668,0,13.2,6.996,17.549,22.545c0.173,0.621,0.336,1.252,0.492,1.906
		c-4.884-2.416-10.706-2.975-15.98-1.506C5.06,49.555-1.911,61.941,1.416,73.838c2.696,9.639,11.563,16.373,21.563,16.373
		c2.037,0,4.071-0.281,6.047-0.834c7.845-2.193,13.744-8.707,16.611-18.338c2.586-8.689,2.522-19.205-0.175-28.852
		C40.211,23.416,27.263,9.791,14.674,9.791z"/>
</g>
</svg>
