<?xml version="1.0" encoding="utf-8"?>
<!-- Generator: Adobe Illustrator 16.0.0, SVG Export Plug-In . SVG Version: 6.00 Build 0)  -->
<!DOCTYPE svg PUBLIC "-//W3C//DTD SVG 1.1//EN" "http://www.w3.org/Graphics/SVG/1.1/DTD/svg11.dtd">
<svg version="1.1" id="Layer_4" xmlns="http://www.w3.org/2000/svg" xmlns:xlink="http://www.w3.org/1999/xlink" x="0px" y="0px"
	 width="100px" height="100px" viewBox="0 0 100 100" enable-background="new 0 0 100 100" xml:space="preserve">
<path d="M95.412,2.451H4.588c-1.18,0-2.137,0.957-2.137,2.137v90.824c0,1.18,0.957,2.137,2.137,2.137h90.824
	c1.18,0,2.137-0.957,2.137-2.137V4.588C97.549,3.408,96.592,2.451,95.412,2.451z M85.368,51.351L54.441,69.209
	c-0.241,0.138-0.51,0.208-0.779,0.208c-0.269,0-0.538-0.07-0.779-0.208c-0.482-0.279-0.779-0.793-0.779-1.351l-0.001-7.939
	c-0.444-0.193-3.908-1.642-9.675-1.642c-7.706,0-15.754,2.472-23.923,7.348c-0.035,0.02-0.619,0.351-0.889,0.512l-1.413,0.834
	c-0.631,0.374-1.437,0.255-1.935-0.281c-0.499-0.538-0.555-1.35-0.136-1.951l0.943-1.352C30.227,42.66,51.886,39.647,52.103,39.62
	l0-0.001v-7.478c0-0.558,0.297-1.071,0.779-1.35c0.482-0.279,1.077-0.279,1.558,0l30.927,17.859c0.482,0.278,0.779,0.793,0.779,1.35
	S85.851,51.072,85.368,51.351z"/>
</svg>
