<?xml version="1.0" encoding="utf-8"?>
<!-- Generator: Adobe Illustrator 16.0.0, SVG Export Plug-In . SVG Version: 6.00 Build 0)  -->
<!DOCTYPE svg PUBLIC "-//W3C//DTD SVG 1.1//EN" "http://www.w3.org/Graphics/SVG/1.1/DTD/svg11.dtd">
<svg version="1.1" id="Layer_2" xmlns="http://www.w3.org/2000/svg" xmlns:xlink="http://www.w3.org/1999/xlink" x="0px" y="0px"
	 width="100px" height="100px" viewBox="0 0 100 100" enable-background="new 0 0 100 100" xml:space="preserve">
<path d="M64.162,85.309l33.894-33.895c0.781-0.781,0.781-2.047,0-2.828L64.162,14.691c-0.781-0.781-2.047-0.781-2.828,0l-9.031,9.03
	c-0.375,0.375-0.586,0.883-0.586,1.414c0,0.53,0.211,1.039,0.586,1.414l14.532,14.534H3.358c-1.104,0-2,0.896-2,2v13.835
	c0,1.104,0.896,2,2,2h63.478L52.303,73.45c-0.75,0.75-0.75,2.078,0,2.828l9.031,9.031c0.375,0.375,0.884,0.586,1.414,0.586
	S63.787,85.684,64.162,85.309z"/>
</svg>
