<?xml version="1.0" encoding="utf-8"?>
<!-- Generator: Adobe Illustrator 16.0.0, SVG Export Plug-In . SVG Version: 6.00 Build 0)  -->
<!DOCTYPE svg PUBLIC "-//W3C//DTD SVG 1.1//EN" "http://www.w3.org/Graphics/SVG/1.1/DTD/svg11.dtd">
<svg version="1.1" id="Layer_3" xmlns="http://www.w3.org/2000/svg" xmlns:xlink="http://www.w3.org/1999/xlink" x="0px" y="0px"
	 width="100px" height="100px" viewBox="0 0 100 100" enable-background="new 0 0 100 100" xml:space="preserve">
<g>
	<path d="M88.515,33.848H52.61c-1.461,0-2.56-0.18-3.329-0.383c4.404-8.327,5.537-14.42,3.365-18.129
		c-1.925-3.288-5.584-3.327-5.739-3.327c-6.046,0.001-8.76,7.112-9.105,8.093c-4.734,10.2-10.091,13.494-14.086,14.337
		c-0.039-2.746-2.277-4.969-5.032-4.969H8.325c-2.779,0-5.04,2.26-5.04,5.039v46.941c0,2.779,2.261,5.039,5.04,5.039h10.358
		c2.611,0,4.74-2.003,4.99-4.549c1.204,0.355,2.044,0.83,3.08,1.428c1.31,0.757,2.94,1.7,5.79,2.746
		c7.622,2.801,20.851,1.655,21.409,1.604l0.163-0.023c6.845-1.286,7.846-5.883,8.506-8.925c0.245-1.128,0.48-2.196,0.919-2.804
		c2.924-2.999,4.383-6.245,4.741-9.012c0.232-2.363,0.153-3.519,0.53-5.394c0.537-1.753,1.73-6.951-1.075-11.318
		c7.378-0.016,20.465-0.045,22.063-0.045c2.77,0,5.32-3.304,5.32-3.304c1-1.36,1.597-3.029,1.597-4.844
		C96.715,37.527,93.036,33.848,88.515,33.848z M18.124,80.889H8.884V35.068h9.239V80.889z"/>
	<circle cx="13.511" cy="40.762" r="3.266"/>
</g>
</svg>
