<?xml version="1.0" encoding="utf-8"?>
<!-- Generator: Adobe Illustrator 16.0.0, SVG Export Plug-In . SVG Version: 6.00 Build 0)  -->
<!DOCTYPE svg PUBLIC "-//W3C//DTD SVG 1.1//EN" "http://www.w3.org/Graphics/SVG/1.1/DTD/svg11.dtd">
<svg version="1.1" id="Layer_4" xmlns="http://www.w3.org/2000/svg" xmlns:xlink="http://www.w3.org/1999/xlink" x="0px" y="0px"
	 width="100px" height="100px" viewBox="0 0 100 100" enable-background="new 0 0 100 100" xml:space="preserve">
<path d="M96.49,95.384L80.354,3.896c-0.176-0.991-1.036-1.714-2.043-1.714H56.768c-0.56,0-1.094,0.226-1.485,0.626
	c-0.39,0.4-0.603,0.94-0.588,1.499l0.541,21.966H44.765l0.541-21.966c0.015-0.559-0.198-1.099-0.588-1.499
	c-0.392-0.4-0.926-0.626-1.485-0.626H21.689c-1.007,0-1.867,0.723-2.043,1.714L3.51,95.384c-0.106,0.604,0.061,1.223,0.454,1.693
	c0.394,0.469,0.976,0.741,1.589,0.741h35.424c1.125,0,2.046-0.897,2.073-2.022l0.544-22.069h12.813l0.544,22.069
	c0.027,1.125,0.948,2.022,2.073,2.022h35.424c0.613,0,1.195-0.271,1.589-0.741C96.43,96.607,96.596,95.987,96.49,95.384z
	 M43.774,66.445l0.811-32.891h10.83l0.812,32.891H43.774z"/>
</svg>
