<?xml version="1.0" encoding="utf-8"?>
<!-- Generator: Adobe Illustrator 16.0.0, SVG Export Plug-In . SVG Version: 6.00 Build 0)  -->
<!DOCTYPE svg PUBLIC "-//W3C//DTD SVG 1.1//EN" "http://www.w3.org/Graphics/SVG/1.1/DTD/svg11.dtd">
<svg version="1.1" id="Layer_4" xmlns="http://www.w3.org/2000/svg" xmlns:xlink="http://www.w3.org/1999/xlink" x="0px" y="0px"
	 width="100px" height="100px" viewBox="0 0 100 100" enable-background="new 0 0 100 100" xml:space="preserve">
<path d="M76.43,66.919l-9.044-7.321c1.32-5.557,1.989-11.532,1.989-17.761c0-19.963-14.052-38.367-18.719-39.988
	c-0.426-0.147-0.887-0.147-1.313,0c-4.667,1.621-18.719,20.025-18.719,39.988c0,6.229,0.669,12.204,1.99,17.761l-9.045,7.321
	c-0.541,0.438-0.815,1.127-0.724,1.818l3.69,27.787c0.104,0.787,0.663,1.437,1.425,1.658c0.765,0.22,1.582-0.029,2.092-0.638
	L44.465,80.32c3.543,2.163,7.527,2.163,11.07,0l14.411,17.224c0.387,0.461,0.951,0.717,1.534,0.717c0.186,0,0.373-0.026,0.558-0.079
	c0.762-0.221,1.32-0.871,1.425-1.658l3.69-27.787C77.245,68.047,76.971,67.358,76.43,66.919z M50,41.358c-4.418,0-8-3.582-8-8
	s3.582-8,8-8s8,3.582,8,8S54.418,41.358,50,41.358z"/>
</svg>
