<?xml version="1.0" encoding="utf-8"?>
<!-- Generator: Adobe Illustrator 16.0.0, SVG Export Plug-In . SVG Version: 6.00 Build 0)  -->
<!DOCTYPE svg PUBLIC "-//W3C//DTD SVG 1.1//EN" "http://www.w3.org/Graphics/SVG/1.1/DTD/svg11.dtd">
<svg version="1.1" id="Layer_4" xmlns="http://www.w3.org/2000/svg" xmlns:xlink="http://www.w3.org/1999/xlink" x="0px" y="0px"
	 width="100px" height="100px" viewBox="0 0 100 100" enable-background="new 0 0 100 100" xml:space="preserve">
<path d="M95.412,2.451H4.588c-1.18,0-2.137,0.957-2.137,2.137v90.824c0,1.18,0.957,2.137,2.137,2.137h90.824
	c1.18,0,2.137-0.957,2.137-2.137V4.588C97.549,3.408,96.592,2.451,95.412,2.451z M24.915,83.84c-4.836,0-8.757-3.92-8.757-8.756
	c0-4.836,3.921-8.757,8.757-8.757c4.837,0,8.758,3.921,8.758,8.757C33.673,79.919,29.752,83.84,24.915,83.84z M58.443,83.613
	c-0.132,0.132-0.309,0.207-0.494,0.207H45.332c-0.376,0-0.683-0.301-0.692-0.677c-0.356-15.221-12.56-27.423-27.78-27.78
	c-0.376-0.009-0.677-0.316-0.677-0.693V42.055c0-0.186,0.074-0.364,0.207-0.494c0.133-0.131,0.319-0.204,0.497-0.199
	c11.055,0.182,21.463,4.602,29.308,12.446c7.846,7.845,12.267,18.253,12.448,29.308C58.645,83.302,58.573,83.481,58.443,83.613z
	 M83.642,83.615c-0.13,0.131-0.308,0.206-0.493,0.206H70.535c-0.379,0-0.688-0.305-0.693-0.684
	c-0.361-28.85-24.126-52.614-52.976-52.975c-0.379-0.004-0.684-0.313-0.684-0.692V16.854c0-0.185,0.073-0.362,0.206-0.493
	c0.13-0.129,0.286-0.213,0.493-0.2c17.776,0.182,34.511,7.228,47.122,19.838C76.615,48.61,83.66,65.344,83.842,83.12
	C83.845,83.305,83.771,83.483,83.642,83.615z"/>
</svg>
