<?xml version="1.0" encoding="utf-8"?>
<!-- Generator: Adobe Illustrator 16.0.0, SVG Export Plug-In . SVG Version: 6.00 Build 0)  -->
<!DOCTYPE svg PUBLIC "-//W3C//DTD SVG 1.1//EN" "http://www.w3.org/Graphics/SVG/1.1/DTD/svg11.dtd">
<svg version="1.1" id="Layer_2" xmlns="http://www.w3.org/2000/svg" xmlns:xlink="http://www.w3.org/1999/xlink" x="0px" y="0px"
	 width="100px" height="100px" viewBox="0 0 100 100" enable-background="new 0 0 100 100" xml:space="preserve">
<path d="M81.972,65.314c-4.286,0-8.189,1.607-11.17,4.233L34.882,51.437c0.04-0.475,0.072-0.952,0.072-1.437
	c0-0.432-0.033-0.856-0.064-1.28l36.025-18.164c2.967,2.566,6.827,4.129,11.057,4.129c9.348,0,16.926-7.579,16.926-16.926
	c0-9.348-7.578-16.926-16.926-16.926c-9.348,0-16.926,7.578-16.926,16.926c0,0.432,0.033,0.856,0.064,1.28L29.085,37.203
	c-2.967-2.566-6.827-4.129-11.057-4.129C8.68,33.074,1.102,40.652,1.102,50S8.68,66.926,18.028,66.926
	c4.175,0,7.992-1.52,10.944-4.026l36.13,18.216c-0.024,0.373-0.057,0.745-0.057,1.124c0,9.348,7.578,16.926,16.926,16.926
	c9.348,0,16.926-7.579,16.926-16.926S91.32,65.314,81.972,65.314z"/>
</svg>
