<?xml version="1.0" encoding="utf-8"?>
<!-- Generator: Adobe Illustrator 16.0.0, SVG Export Plug-In . SVG Version: 6.00 Build 0)  -->
<!DOCTYPE svg PUBLIC "-//W3C//DTD SVG 1.1//EN" "http://www.w3.org/Graphics/SVG/1.1/DTD/svg11.dtd">
<svg version="1.1" id="Layer_2" xmlns="http://www.w3.org/2000/svg" xmlns:xlink="http://www.w3.org/1999/xlink" x="0px" y="0px"
	 width="100px" height="100px" viewBox="0 0 100 100" enable-background="new 0 0 100 100" xml:space="preserve">
<g>
	<path d="M2.5,25.25H58c0.829,0,1.5-0.672,1.5-1.5V7.25c0-0.828-0.671-1.5-1.5-1.5H2.5C1.671,5.75,1,6.422,1,7.25v16.5
		C1,24.578,1.671,25.25,2.5,25.25z"/>
	<path d="M97.5,5.75H69.167c-0.829,0-1.5,0.672-1.5,1.5v16.5c0,0.828,0.671,1.5,1.5,1.5H97.5c0.829,0,1.5-0.672,1.5-1.5V7.25
		C99,6.422,98.329,5.75,97.5,5.75z"/>
	<path d="M97.5,32.75H42c-0.829,0-1.5,0.672-1.5,1.5v13.5c0,0.828,0.671,1.5,1.5,1.5h55.5c0.829,0,1.5-0.672,1.5-1.5v-13.5
		C99,33.422,98.329,32.75,97.5,32.75z"/>
	<path d="M2.5,49.25h28.333c0.829,0,1.5-0.672,1.5-1.5v-13.5c0-0.828-0.671-1.5-1.5-1.5H2.5c-0.829,0-1.5,0.672-1.5,1.5v13.5
		C1,48.578,1.671,49.25,2.5,49.25z"/>
	<path d="M97.5,59.75H72c-0.829,0-1.5,0.672-1.5,1.5v10.5c0,0.828,0.671,1.5,1.5,1.5h25.5c0.829,0,1.5-0.672,1.5-1.5v-10.5
		C99,60.422,98.329,59.75,97.5,59.75z"/>
	<path d="M2.5,73.25h58.333c0.829,0,1.5-0.672,1.5-1.5v-10.5c0-0.828-0.671-1.5-1.5-1.5H2.5c-0.829,0-1.5,0.672-1.5,1.5v10.5
		C1,72.578,1.671,73.25,2.5,73.25z"/>
	<path d="M54.25,83.75H37.161c-0.829,0-1.5,0.672-1.5,1.5v7.5c0,0.828,0.671,1.5,1.5,1.5H54.25c0.829,0,1.5-0.672,1.5-1.5v-7.5
		C55.75,84.422,55.079,83.75,54.25,83.75z"/>
	<path d="M79.167,83.75H60.911c-0.829,0-1.5,0.672-1.5,1.5v7.5c0,0.828,0.671,1.5,1.5,1.5h18.256c0.829,0,1.5-0.672,1.5-1.5v-7.5
		C80.667,84.422,79.996,83.75,79.167,83.75z"/>
	<path d="M97.5,83.75H85.661c-0.829,0-1.5,0.672-1.5,1.5v7.5c0,0.828,0.671,1.5,1.5,1.5H97.5c0.829,0,1.5-0.672,1.5-1.5v-7.5
		C99,84.422,98.329,83.75,97.5,83.75z"/>
	<path d="M29.798,83.75H2.5c-0.829,0-1.5,0.672-1.5,1.5v7.5c0,0.828,0.671,1.5,1.5,1.5h27.298c0.829,0,1.5-0.672,1.5-1.5v-7.5
		C31.298,84.422,30.626,83.75,29.798,83.75z"/>
</g>
</svg>
