<?xml version="1.0" encoding="utf-8"?>
<!-- Generator: Adobe Illustrator 16.0.0, SVG Export Plug-In . SVG Version: 6.00 Build 0)  -->
<!DOCTYPE svg PUBLIC "-//W3C//DTD SVG 1.1//EN" "http://www.w3.org/Graphics/SVG/1.1/DTD/svg11.dtd">
<svg version="1.1" id="Layer_2" xmlns="http://www.w3.org/2000/svg" xmlns:xlink="http://www.w3.org/1999/xlink" x="0px" y="0px"
	 width="100px" height="100px" viewBox="0 0 100 100" enable-background="new 0 0 100 100" xml:space="preserve">
<g>
	<path d="M26.605,50.461c5.422,0,9.832-6.644,9.832-14.811c0-8.165-4.41-14.809-9.832-14.809s-9.833,6.644-9.833,14.809
		C16.772,43.817,21.184,50.461,26.605,50.461z"/>
	<path d="M73.391,50.461c5.422,0,9.833-6.644,9.833-14.811c0-8.165-4.411-14.809-9.833-14.809c-5.421,0-9.831,6.644-9.831,14.809
		C63.56,43.817,67.97,50.461,73.391,50.461z"/>
	<path d="M97.64,57.589c-0.599-0.606-1.515-0.769-2.285-0.4c-12.338,5.884-28.445,9.124-45.356,9.124
		c-16.907,0-33.015-3.24-45.354-9.123c-0.77-0.367-1.688-0.205-2.284,0.401c-0.599,0.606-0.747,1.526-0.369,2.29
		c5.606,11.351,25.349,19.277,48.008,19.277c22.669,0,42.412-7.928,48.012-19.279C98.387,59.115,98.238,58.195,97.64,57.589z"/>
</g>
</svg>
