<?xml version="1.0" encoding="utf-8"?>
<!-- Generator: Adobe Illustrator 16.0.0, SVG Export Plug-In . SVG Version: 6.00 Build 0)  -->
<!DOCTYPE svg PUBLIC "-//W3C//DTD SVG 1.1//EN" "http://www.w3.org/Graphics/SVG/1.1/DTD/svg11.dtd">
<svg version="1.1" id="Layer_2" xmlns="http://www.w3.org/2000/svg" xmlns:xlink="http://www.w3.org/1999/xlink" x="0px" y="0px"
	 width="100px" height="100px" viewBox="0 0 100 100" enable-background="new 0 0 100 100" xml:space="preserve">
<g>
	<path d="M96.125,24.33H62.97c-1.104,0-2,0.896-2,2v8.381c0,1.654-1.346,3-3,3H42.03c-1.654,0-3-1.346-3-3V26.33
		c0-1.104-0.896-2-2-2H3.875c-1.104,0-2,0.896-2,2v65.8c0,1.104,0.896,2,2,2h92.25c1.104,0,2-0.896,2-2v-65.8
		C98.125,25.226,97.229,24.33,96.125,24.33z M12.462,83.543v-39h75.075v39H12.462z"/>
	<path d="M43.617,34.669h12.766c1.104,0,2-0.896,2-2V15.945c0-0.659-0.323-1.239-0.815-1.604c0.026-0.128,0.04-0.261,0.04-0.396
		V7.87c0-1.104-0.896-2-2-2H44.393c-1.104,0-2,0.896-2,2v6.075c0,0.136,0.014,0.268,0.04,0.396
		c-0.492,0.364-0.815,0.944-0.815,1.604v16.724C41.617,33.773,42.513,34.669,43.617,34.669z M44.393,7.87h11.215v6.075H44.393V7.87z
		"/>
	<rect x="46.393" y="9.87" width="7.215" height="2.075"/>
	<path d="M37.469,64.578c2.904,0,5.267-3.559,5.267-7.933c0-4.375-2.363-7.934-5.267-7.934c-2.904,0-5.267,3.559-5.267,7.934
		C32.202,61.019,34.564,64.578,37.469,64.578z"/>
	<path d="M62.531,64.578c2.904,0,5.267-3.559,5.267-7.933c0-4.375-2.363-7.934-5.267-7.934c-2.904,0-5.267,3.559-5.267,7.934
		C57.265,61.019,59.627,64.578,62.531,64.578z"/>
	<path d="M69.807,70.289c-5.85,1.995-12.699,3.049-19.807,3.049s-13.957-1.054-19.807-3.049c-0.931-0.315-1.956,0.09-2.415,0.96
		c-0.459,0.871-0.217,1.945,0.571,2.535c5.013,3.75,12.904,5.9,21.65,5.9s16.637-2.15,21.65-5.9c0.788-0.589,1.03-1.664,0.571-2.535
		C71.762,70.377,70.737,69.973,69.807,70.289z"/>
</g>
</svg>
