<?xml version="1.0" encoding="utf-8"?>
<!-- Generator: Adobe Illustrator 16.0.0, SVG Export Plug-In . SVG Version: 6.00 Build 0)  -->
<!DOCTYPE svg PUBLIC "-//W3C//DTD SVG 1.1//EN" "http://www.w3.org/Graphics/SVG/1.1/DTD/svg11.dtd">
<svg version="1.1" id="Layer_2" xmlns="http://www.w3.org/2000/svg" xmlns:xlink="http://www.w3.org/1999/xlink" x="0px" y="0px"
	 width="100px" height="100px" viewBox="0 0 100 100" enable-background="new 0 0 100 100" xml:space="preserve">
<g>
	<path d="M92.494,24.304C88.59,9.69,77.487-0.311,65.934,0.542c-1.11,0.083-2.217,0.27-3.29,0.557
		c-1.796,0.48-3.559,1.282-5.235,2.38l-0.097,0.063c-0.034,0.022-0.068,0.046-0.102,0.07L8.412,39.877
		c-0.115,0.086-0.221,0.184-0.314,0.292c-3.074,3.53-2.443,11.376-0.057,16.922c1.021,2.374,3.945,7.896,9.041,7.896
		c0.219,0,0.439-0.01,0.637-0.03l6.811-0.567c3.416,8.298,7.426,19.926,7.137,28.196c-0.068,1.984,0.462,3.575,1.576,4.727
		c1.406,1.456,3.656,2.194,6.688,2.194c4.468,0,8.816-1.61,10.478-2.753c0.804-0.553,1.091-1.605,0.681-2.49
		c-0.354-0.759-0.955-1.952-1.546-3.118c-3.132-6.191-8.961-17.714-10.632-27.954c0.374-0.027,37.435-2.721,39.48-2.986
		c4.117-0.534,7.964-3.183,10.831-7.46C94.088,45.487,95.312,34.854,92.494,24.304z M74.045,50.939
		c-7.513,0.568-15.064-6.74-17.787-16.923c-1.437-5.375-1.311-10.827,0.352-15.354c1.663-4.527,4.661-7.576,8.443-8.586
		c0.635-0.17,1.292-0.282,1.949-0.331c0.267-0.02,0.534-0.029,0.8-0.029c7.211,0,14.321,7.021,16.906,16.694
		c1.485,5.554,1.324,11.173-0.452,15.824c-1.691,4.425-4.645,7.403-8.315,8.384C75.321,50.784,74.683,50.892,74.045,50.939z"/>
	<path d="M68.622,19.523c-2.041,0.414-3.709,2.109-4.577,4.65c-0.754,2.209-0.874,4.881-0.338,7.526
		c1.089,5.353,4.659,9.389,8.305,9.389c0.326,0,0.653-0.033,0.973-0.098c1.894-0.385,3.448-1.863,4.378-4.164
		c0.915-2.267,1.109-5.188,0.534-8.012C76.711,22.986,72.546,18.731,68.622,19.523z"/>
</g>
</svg>
