<?xml version="1.0" encoding="utf-8"?>
<!-- Generator: Adobe Illustrator 16.0.0, SVG Export Plug-In . SVG Version: 6.00 Build 0)  -->
<!DOCTYPE svg PUBLIC "-//W3C//DTD SVG 1.1//EN" "http://www.w3.org/Graphics/SVG/1.1/DTD/svg11.dtd">
<svg version="1.1" id="Layer_1" xmlns="http://www.w3.org/2000/svg" xmlns:xlink="http://www.w3.org/1999/xlink" x="0px" y="0px"
	 width="100px" height="100px" viewBox="0 0 100 100" enable-background="new 0 0 100 100" xml:space="preserve">
<path d="M93.396,2.639H6.604c-1.344,0-2.438,1.093-2.438,2.437v66.121c0,1.344,1.094,2.438,2.438,2.438h47.99v21.294
	c0,0.936,0.546,1.8,1.391,2.202c0.316,0.151,0.675,0.231,1.036,0.231c0.57,0,1.121-0.193,1.551-0.543l28.433-23.184h6.393
	c1.344,0,2.438-1.093,2.438-2.438V5.076C95.834,3.732,94.74,2.639,93.396,2.639z M70.069,47.831c0.35,0.35,0.542,0.814,0.542,1.308
	c0,0.495-0.192,0.959-0.542,1.309l-7.863,7.863c-0.35,0.35-0.814,0.542-1.308,0.542s-0.958-0.193-1.308-0.542L50,48.721l-9.59,9.589
	c-0.699,0.699-1.917,0.699-2.616,0l-7.863-7.863c-0.35-0.35-0.542-0.814-0.542-1.309c0-0.494,0.192-0.958,0.542-1.308l9.589-9.589
	l-9.589-9.59c-0.35-0.35-0.542-0.814-0.542-1.308s0.192-0.958,0.542-1.309l7.863-7.862c0.699-0.699,1.917-0.699,2.616,0L50,27.761
	l9.59-9.588c0.699-0.699,1.917-0.699,2.616,0l7.863,7.862c0.35,0.35,0.542,0.814,0.542,1.309s-0.192,0.958-0.542,1.308l-9.59,9.59
	L70.069,47.831z"/>
</svg>
