<?xml version="1.0" encoding="utf-8"?>
<!-- Generator: Adobe Illustrator 16.0.0, SVG Export Plug-In . SVG Version: 6.00 Build 0)  -->
<!DOCTYPE svg PUBLIC "-//W3C//DTD SVG 1.1//EN" "http://www.w3.org/Graphics/SVG/1.1/DTD/svg11.dtd">
<svg version="1.1" id="Layer_2" xmlns="http://www.w3.org/2000/svg" xmlns:xlink="http://www.w3.org/1999/xlink" x="0px" y="0px"
	 width="100px" height="100px" viewBox="0 0 100 100" enable-background="new 0 0 100 100" xml:space="preserve">
<path d="M98.448,39.04c-0.236-0.725-0.862-1.253-1.617-1.361l-31.14-4.494L51.794,4.958C51.458,4.274,50.762,3.842,50,3.842
	s-1.458,0.433-1.794,1.116L34.309,33.185l-31.14,4.494c-0.754,0.108-1.381,0.637-1.617,1.361c-0.235,0.725-0.039,1.521,0.508,2.052
	l22.551,21.94l-5.348,31.003c-0.13,0.751,0.179,1.51,0.795,1.958c0.618,0.448,1.434,0.507,2.108,0.151L50,81.477l27.834,14.668
	c0.293,0.154,0.613,0.23,0.933,0.23c0.415,0,0.827-0.129,1.176-0.382c0.616-0.448,0.925-1.207,0.795-1.958l-5.348-31.003
	l22.551-21.94C98.486,40.561,98.683,39.765,98.448,39.04z"/>
</svg>
