<?xml version="1.0" encoding="utf-8"?>
<!-- Generator: Adobe Illustrator 16.0.0, SVG Export Plug-In . SVG Version: 6.00 Build 0)  -->
<!DOCTYPE svg PUBLIC "-//W3C//DTD SVG 1.1//EN" "http://www.w3.org/Graphics/SVG/1.1/DTD/svg11.dtd">
<svg version="1.1" id="Layer_2" xmlns="http://www.w3.org/2000/svg" xmlns:xlink="http://www.w3.org/1999/xlink" x="0px" y="0px"
	 width="100px" height="100px" viewBox="0 0 100 100" enable-background="new 0 0 100 100" xml:space="preserve">
<g>
	<path d="M87.033,55.368h-41.13V12.654c0-1.029-0.439-2.013-1.208-2.701c-0.77-0.686-1.804-1.021-2.82-0.896
		C19.434,11.594,2.511,30.511,2.511,53.061c0,24.436,19.88,44.313,44.314,44.313c21.823,0,40.649-16.278,43.791-37.864
		c0.15-1.039-0.157-2.096-0.846-2.89C89.083,55.825,88.084,55.368,87.033,55.368z"/>
	<path d="M53.764,3.137c-0.557-0.038-1.096,0.158-1.499,0.536c-0.404,0.379-0.633,0.907-0.633,1.461l0,44.801h0l43.354-0.013
		c0.542,0,1.06-0.22,1.436-0.608c0.377-0.39,0.58-0.914,0.563-1.455C96.225,23.935,77.643,4.709,53.764,3.137z"/>
</g>
</svg>
