<?xml version="1.0" encoding="utf-8"?>
<!-- Generator: Adobe Illustrator 16.0.0, SVG Export Plug-In . SVG Version: 6.00 Build 0)  -->
<!DOCTYPE svg PUBLIC "-//W3C//DTD SVG 1.1//EN" "http://www.w3.org/Graphics/SVG/1.1/DTD/svg11.dtd">
<svg version="1.1" id="Layer_1" xmlns="http://www.w3.org/2000/svg" xmlns:xlink="http://www.w3.org/1999/xlink" x="0px" y="0px"
	 width="100px" height="100px" viewBox="0 0 100 100" enable-background="new 0 0 100 100" xml:space="preserve">
<path d="M97.17,62.858c-0.031-0.624-0.352-1.198-0.868-1.552c-0.517-0.354-1.168-0.446-1.76-0.248
	c-4.62,1.534-7.951,1.545-10.965,0.031c-3.008-1.557-4.863-3.931-5.672-7.255l15.379-0.001c1.104,0,2-0.896,2-2v-3.668
	c0-1.104-0.896-2-2-2H77.802c0.654-3.378,2.386-5.799,5.291-7.396c2.929-1.603,6.813-1.633,11.256-0.085
	c0.594,0.206,1.252,0.121,1.775-0.229c0.522-0.352,0.849-0.93,0.88-1.559l0.124-2.461c0.048-0.95-0.58-1.802-1.501-2.038
	c-2.742-0.702-5.501-1.059-8.202-1.059c-3.792,0-7.107,0.715-9.857,2.128c-6.164,3.19-8.193,8.667-8.81,12.698l-4.433,0.001
	c0.369-0.494,0.674-1.022,0.915-1.581c1.14-2.699,0.557-6.578-1.369-9.041c-2.646-3.304-7.327-3.749-11.557-3.749l-10.142,0.003
	c-1.104,0-2,0.896-2,2v12.368H30.171l-4.924-13.072c-0.293-0.779-1.039-1.295-1.872-1.295h-2.779c-0.132,0-0.263,0.013-0.39,0.038
	c-0.127-0.025-0.258-0.038-0.39-0.038h-2.618c-0.827,0-1.568,0.509-1.866,1.28l-5.05,13.087H5.874c-1.104,0-2,0.896-2,2v3.668
	c0,1.104,0.896,2,2,2h1.448L2.827,65.485c-0.237,0.615-0.156,1.308,0.216,1.852c0.373,0.543,0.99,0.868,1.649,0.868h3.994
	c0.835,0,1.583-0.52,1.875-1.303l2.695-7.247h13.425l2.482,7.154c0.279,0.805,1.038,1.345,1.89,1.345h4.51c0.003,0,0.007,0,0.01,0
	c1.074-0.002,2.01-0.893,2.01-2c0-0.347-0.088-0.673-0.243-0.956L33.06,53.834h7.113v12.32c0,1.104,0.896,2,2,2h9.511
	c3.419,0,9.142,0,12.895-4.315c1.995-2.315,2.238-7.039,1.505-9.348c-0.043-0.118-0.118-0.289-0.237-0.545l-0.051-0.112h3.146
	c0.981,5.26,3.502,9.254,7.51,11.884c3.779,2.433,8.335,2.943,11.491,2.943c2.659,0,5.388-0.36,7.89-1.041
	c0.906-0.246,1.519-1.09,1.473-2.028L97.17,62.858z M25.013,54.667H14.962l0.5-1.166h9.15L25.013,54.667z M57.042,43.914
	l-0.023,0.047c-0.641,1.153-1.49,1.813-2.838,2.205h-5.438v-8.439l2.348-0.001c1.867,0.046,4.19,0.103,5.515,1.854
	C57.598,40.952,57.483,43.007,57.042,43.914z M48.741,53.834h7.953c0.278,0.242,0.505,0.479,0.684,0.714
	c0.977,1.297,1.028,3.732,0.408,4.986c-0.624,1.306-1.975,2.641-7.259,2.641h-1.786V53.834z M20.158,39.119l2.194,7.047H17.82
	L20.158,39.119z"/>
</svg>
