<?xml version="1.0" encoding="utf-8"?>
<!-- Generator: Adobe Illustrator 16.0.0, SVG Export Plug-In . SVG Version: 6.00 Build 0)  -->
<!DOCTYPE svg PUBLIC "-//W3C//DTD SVG 1.1//EN" "http://www.w3.org/Graphics/SVG/1.1/DTD/svg11.dtd">
<svg version="1.1" id="Layer_3" xmlns="http://www.w3.org/2000/svg" xmlns:xlink="http://www.w3.org/1999/xlink" x="0px" y="0px"
	 width="100px" height="100px" viewBox="0 0 100 100" enable-background="new 0 0 100 100" xml:space="preserve">
<path d="M96.351,40.077h-8.99l-6.844-27.753c-0.348-1.41-1.604-2.395-3.057-2.395H61.083V6c0-1.104-0.896-2-2-2H40.917
	c-1.104,0-2,0.896-2,2v3.93H22.54c-1.452,0-2.709,0.985-3.057,2.394L12.64,40.077h-8.99c-1.736,0-3.148,1.413-3.148,3.148v27.286
	c0,1.736,1.412,3.148,3.148,3.148h3.585v13.262c0,1.736,1.412,3.148,3.148,3.148h11.072c1.736,0,3.148-1.412,3.148-3.148V73.66
	h50.793v13.262c0,1.736,1.412,3.148,3.148,3.148h11.072c1.736,0,3.148-1.412,3.148-3.148V73.66h3.585
	c1.736,0,3.148-1.412,3.148-3.148V43.226C99.499,41.49,98.087,40.077,96.351,40.077z M18.108,64.27c-4.224,0-7.66-3.436-7.66-7.66
	s3.437-7.66,7.66-7.66s7.659,3.436,7.659,7.66S22.332,64.27,18.108,64.27z M29.759,22.073h40.482l3.967,17.973H25.792L29.759,22.073
	z M81.718,64.27c-4.224,0-7.66-3.436-7.66-7.66s3.437-7.66,7.66-7.66s7.659,3.436,7.659,7.66S85.941,64.27,81.718,64.27z"/>
</svg>
