<?xml version="1.0" encoding="utf-8"?>
<!-- Generator: Adobe Illustrator 16.0.0, SVG Export Plug-In . SVG Version: 6.00 Build 0)  -->
<!DOCTYPE svg PUBLIC "-//W3C//DTD SVG 1.1//EN" "http://www.w3.org/Graphics/SVG/1.1/DTD/svg11.dtd">
<svg version="1.1" id="Layer_4" xmlns="http://www.w3.org/2000/svg" xmlns:xlink="http://www.w3.org/1999/xlink" x="0px" y="0px"
	 width="100px" height="100px" viewBox="0 0 100 100" enable-background="new 0 0 100 100" xml:space="preserve">
<path d="M96.049,78.173L76.57,58.695c-0.896-0.896-2.349-0.896-3.244,0L63.093,68.928c-2.783-0.769-10.176-3.475-18.683-11.98
	c-8.826-8.826-12.402-17.625-13.289-20.112l10.173-10.173c0.431-0.43,0.673-1.014,0.673-1.623s-0.242-1.192-0.673-1.622
	L21.815,3.939c-0.896-0.896-2.349-0.896-3.245,0L7.184,15.326c-0.148,0.147-0.273,0.313-0.376,0.495l-0.021,0.024
	c-9.065,11.141,0.009,36.045,20.66,56.696c14.696,14.696,32.502,24.191,45.364,24.191c4.592,0,8.373-1.163,11.242-3.458l0.268-0.184
	c0.117-0.08,0.225-0.169,0.324-0.269l11.404-11.404c0.43-0.43,0.672-1.014,0.672-1.622S96.479,78.604,96.049,78.173z"/>
</svg>
