<?xml version="1.0" encoding="utf-8"?>
<!-- Generator: Adobe Illustrator 16.0.0, SVG Export Plug-In . SVG Version: 6.00 Build 0)  -->
<!DOCTYPE svg PUBLIC "-//W3C//DTD SVG 1.1//EN" "http://www.w3.org/Graphics/SVG/1.1/DTD/svg11.dtd">
<svg version="1.1" id="Layer_1" xmlns="http://www.w3.org/2000/svg" xmlns:xlink="http://www.w3.org/1999/xlink" x="0px" y="0px"
	 width="100px" height="100px" viewBox="0 0 100 100" enable-background="new 0 0 100 100" xml:space="preserve">
<path d="M96.635,94.477L62.547,3.98c-0.293-0.779-1.039-1.295-1.872-1.295H40.208c-0.827,0-1.568,0.509-1.866,1.28L3.371,94.595
	c-0.237,0.615-0.156,1.308,0.216,1.852c0.373,0.543,0.99,0.868,1.649,0.868h17.268c0.835,0,1.583-0.52,1.875-1.303l7.782-20.921
	h34.894l7.2,20.746c0.279,0.806,1.038,1.345,1.89,1.345h18.619c0.656,0,1.271-0.322,1.645-0.862S96.866,95.091,96.635,94.477z
	 M61.963,59.811H37.461l12.638-38.098L61.963,59.811z"/>
</svg>
