<?xml version="1.0" encoding="utf-8"?>
<!-- Generator: Adobe Illustrator 16.0.0, SVG Export Plug-In . SVG Version: 6.00 Build 0)  -->
<!DOCTYPE svg PUBLIC "-//W3C//DTD SVG 1.1//EN" "http://www.w3.org/Graphics/SVG/1.1/DTD/svg11.dtd">
<svg version="1.1" id="Layer_1" xmlns="http://www.w3.org/2000/svg" xmlns:xlink="http://www.w3.org/1999/xlink" x="0px" y="0px"
	 width="100px" height="100px" viewBox="0 0 100 100" enable-background="new 0 0 100 100" xml:space="preserve">
<g>
	<path d="M91.607,2.5H8.393c-1.104,0-2,0.896-2,2v13.079c0,1.104,0.896,2,2,2h83.214c1.104,0,2-0.896,2-2V4.5
		C93.607,3.396,92.711,2.5,91.607,2.5z"/>
	<path d="M8.393,45.552h83.185c1.104,0,2-0.896,2-2V30.473c0-1.104-0.896-2-2-2H8.393c-1.104,0-2,0.896-2,2v13.079
		C6.393,44.656,7.289,45.552,8.393,45.552z"/>
	<path d="M91.607,54.448H8.393c-1.104,0-2,0.896-2,2v13.079c0,1.104,0.896,2,2,2h83.214c1.104,0,2-0.896,2-2V56.448
		C93.607,55.344,92.711,54.448,91.607,54.448z"/>
	<path d="M91.578,80.421H8.393c-1.104,0-2,0.896-2,2V95.5c0,1.104,0.896,2,2,2h83.185c1.104,0,2-0.896,2-2V82.421
		C93.578,81.316,92.682,80.421,91.578,80.421z"/>
</g>
</svg>
