<?xml version="1.0" encoding="utf-8"?>
<!-- Generator: Adobe Illustrator 16.0.0, SVG Export Plug-In . SVG Version: 6.00 Build 0)  -->
<!DOCTYPE svg PUBLIC "-//W3C//DTD SVG 1.1//EN" "http://www.w3.org/Graphics/SVG/1.1/DTD/svg11.dtd">
<svg version="1.1" id="Layer_1" xmlns="http://www.w3.org/2000/svg" xmlns:xlink="http://www.w3.org/1999/xlink" x="0px" y="0px"
	 width="100px" height="100px" viewBox="0 0 100 100" enable-background="new 0 0 100 100" xml:space="preserve">
<path d="M83.801,18.48L67.532,2.236c-0.469-0.469-1.104-0.732-1.768-0.732H17.967c-1.381,0-2.5,1.119-2.5,2.5v91.992
	c0,1.381,1.119,2.5,2.5,2.5h64.066c1.381,0,2.5-1.119,2.5-2.5V20.248C84.533,19.585,84.27,18.949,83.801,18.48z M46.262,85.859
	c0,0.829-0.672,1.5-1.5,1.5H22.75c-0.828,0-1.5-0.671-1.5-1.5v-4.389c0-0.829,0.672-1.5,1.5-1.5h22.012c0.828,0,1.5,0.671,1.5,1.5
	V85.859z M46.262,70.859c0,0.829-0.672,1.5-1.5,1.5H22.75c-0.828,0-1.5-0.671-1.5-1.5v-4.389c0-0.829,0.672-1.5,1.5-1.5h22.012
	c0.828,0,1.5,0.671,1.5,1.5V70.859z M46.262,55.859c0,0.829-0.672,1.5-1.5,1.5H22.75c-0.828,0-1.5-0.671-1.5-1.5v-4.389
	c0-0.829,0.672-1.5,1.5-1.5h22.012c0.828,0,1.5,0.671,1.5,1.5V55.859z M46.262,40.859c0,0.829-0.672,1.5-1.5,1.5H22.75
	c-0.828,0-1.5-0.671-1.5-1.5v-4.389c0-0.829,0.672-1.5,1.5-1.5h22.012c0.828,0,1.5,0.671,1.5,1.5V40.859z M22.75,23.759
	c-0.828,0-1.5-0.671-1.5-1.5V14.87c0-0.829,0.672-1.5,1.5-1.5h28.012c0.828,0,1.5,0.671,1.5,1.5v7.389c0,0.829-0.672,1.5-1.5,1.5
	H22.75z M76.262,85.859c0,0.829-0.672,1.5-1.5,1.5H52.75c-0.828,0-1.5-0.671-1.5-1.5v-4.389c0-0.829,0.672-1.5,1.5-1.5h22.012
	c0.828,0,1.5,0.671,1.5,1.5V85.859z M76.262,70.859c0,0.829-0.672,1.5-1.5,1.5H52.75c-0.828,0-1.5-0.671-1.5-1.5v-4.389
	c0-0.829,0.672-1.5,1.5-1.5h22.012c0.828,0,1.5,0.671,1.5,1.5V70.859z M76.262,55.859c0,0.829-0.672,1.5-1.5,1.5H52.75
	c-0.828,0-1.5-0.671-1.5-1.5v-4.389c0-0.829,0.672-1.5,1.5-1.5h22.012c0.828,0,1.5,0.671,1.5,1.5V55.859z M76.262,40.859
	c0,0.829-0.672,1.5-1.5,1.5H52.75c-0.828,0-1.5-0.671-1.5-1.5v-4.389c0-0.829,0.672-1.5,1.5-1.5h22.012c0.828,0,1.5,0.671,1.5,1.5
	V40.859z M63.555,23.847c-0.337,0-0.659-0.134-0.897-0.372c-0.237-0.238-0.372-0.561-0.372-0.897l0.002-15.126l16.395,16.396H63.555
	z"/>
</svg>
