<?xml version="1.0" encoding="utf-8"?>
<!-- Generator: Adobe Illustrator 16.0.0, SVG Export Plug-In . SVG Version: 6.00 Build 0)  -->
<!DOCTYPE svg PUBLIC "-//W3C//DTD SVG 1.1//EN" "http://www.w3.org/Graphics/SVG/1.1/DTD/svg11.dtd">
<svg version="1.1" id="Layer_1" xmlns="http://www.w3.org/2000/svg" xmlns:xlink="http://www.w3.org/1999/xlink" x="0px" y="0px"
	 width="100px" height="100px" viewBox="0 0 100 100" enable-background="new 0 0 100 100" xml:space="preserve">
<path d="M95.376,2.194L4.673,2.148H4.672c-1.38,0-2.499,1.118-2.5,2.498L2.125,95.351c0,0.663,0.263,1.3,0.731,1.769
	c0.47,0.469,1.105,0.732,1.769,0.732l66.583-0.004c0.665,0,1.302-0.265,1.771-0.736l24.167-24.303
	c0.467-0.469,0.729-1.104,0.729-1.765V4.694C97.875,3.314,96.757,2.195,95.376,2.194z M13.998,14.471c0-0.829,0.672-1.5,1.5-1.5
	H77.51c0.828,0,1.5,0.671,1.5,1.5v4.389c0,0.829-0.672,1.5-1.5,1.5H15.498c-0.828,0-1.5-0.671-1.5-1.5V14.471z M13.998,33.692
	c0-0.829,0.672-1.5,1.5-1.5H77.51c0.828,0,1.5,0.671,1.5,1.5v4.389c0,0.829-0.672,1.5-1.5,1.5H15.498c-0.828,0-1.5-0.671-1.5-1.5
	V33.692z M44.566,57.303c0,0.829-0.672,1.5-1.5,1.5H15.498c-0.828,0-1.5-0.671-1.5-1.5v-4.389c0-0.829,0.672-1.5,1.5-1.5h27.568
	c0.828,0,1.5,0.671,1.5,1.5V57.303z M89.937,67.987l-21.859,21.86c-0.287,0.287-0.671,0.439-1.061,0.439
	c-0.193,0-0.389-0.037-0.574-0.114c-0.561-0.232-0.926-0.779-0.926-1.386V66.928c0-0.829,0.672-1.5,1.5-1.5l21.859-0.001
	c0.606,0,1.153,0.365,1.386,0.926S90.365,67.559,89.937,67.987z"/>
</svg>
