<?xml version="1.0" encoding="utf-8"?>
<!-- Generator: Adobe Illustrator 16.0.0, SVG Export Plug-In . SVG Version: 6.00 Build 0)  -->
<!DOCTYPE svg PUBLIC "-//W3C//DTD SVG 1.1//EN" "http://www.w3.org/Graphics/SVG/1.1/DTD/svg11.dtd">
<svg version="1.1" id="Layer_4" xmlns="http://www.w3.org/2000/svg" xmlns:xlink="http://www.w3.org/1999/xlink" x="0px" y="0px"
	 width="100px" height="100px" viewBox="0 0 100 100" enable-background="new 0 0 100 100" xml:space="preserve">
<path d="M94.169,4.372C94.012,3.6,93.329,3.02,92.51,3.02H68.8c-0.819,0-1.501,0.58-1.659,1.352
	c-0.022,0.11-0.034,0.225-0.034,0.341v23.271v24.793c0,9.433-7.674,17.106-17.106,17.106S32.894,62.21,32.894,52.777V4.713
	c0-0.936-0.758-1.693-1.693-1.693H7.49c-0.936,0-1.693,0.758-1.693,1.693v48.064C5.797,77.151,25.626,96.98,50,96.98
	s44.203-19.829,44.203-44.203V27.984V4.713C94.203,4.596,94.191,4.482,94.169,4.372z M27.249,35.322l-15.807-0.094V8.665h15.807
	V35.322z"/>
</svg>
