<?xml version="1.0" encoding="utf-8"?>
<!-- Generator: Adobe Illustrator 16.0.0, SVG Export Plug-In . SVG Version: 6.00 Build 0)  -->
<!DOCTYPE svg PUBLIC "-//W3C//DTD SVG 1.1//EN" "http://www.w3.org/Graphics/SVG/1.1/DTD/svg11.dtd">
<svg version="1.1" id="Layer_2" xmlns="http://www.w3.org/2000/svg" xmlns:xlink="http://www.w3.org/1999/xlink" x="0px" y="0px"
	 width="100px" height="100px" viewBox="0 0 100 100" enable-background="new 0 0 100 100" xml:space="preserve">
<path d="M85.309,35.838L51.414,1.944c-0.781-0.781-2.047-0.781-2.828,0L14.691,35.838c-0.781,0.781-0.781,2.047,0,2.828l9.03,9.031
	c0.375,0.375,0.883,0.586,1.414,0.586c0.53,0,1.039-0.211,1.414-0.586l14.534-14.532v63.478c0,1.104,0.896,2,2,2h13.835
	c1.104,0,2-0.896,2-2V33.165L73.45,47.697c0.75,0.75,2.078,0.75,2.828,0l9.031-9.031c0.375-0.375,0.586-0.884,0.586-1.414
	S85.684,36.213,85.309,35.838z"/>
</svg>
