<?xml version="1.0" encoding="utf-8"?>
<!-- Generator: Adobe Illustrator 16.0.0, SVG Export Plug-In . SVG Version: 6.00 Build 0)  -->
<!DOCTYPE svg PUBLIC "-//W3C//DTD SVG 1.1//EN" "http://www.w3.org/Graphics/SVG/1.1/DTD/svg11.dtd">
<svg version="1.1" id="Layer_4" xmlns="http://www.w3.org/2000/svg" xmlns:xlink="http://www.w3.org/1999/xlink" x="0px" y="0px"
	 width="100px" height="100px" viewBox="0 0 100 100" enable-background="new 0 0 100 100" xml:space="preserve">
<g>
	<path d="M95.412,2.451H4.588c-1.178,0-2.137,0.959-2.137,2.137v90.824c0,1.178,0.959,2.137,2.137,2.137h90.824
		c1.178,0,2.137-0.959,2.137-2.137V4.588C97.549,3.41,96.59,2.451,95.412,2.451z M88.551,88.551H11.449V11.449h77.102V88.551z"/>
	<path d="M23.586,67.936h52.83c0.445,0,0.846-0.333,1.015-0.852c0.171-0.514,0.077-1.105-0.237-1.5L50.777,32.469
		c-0.215-0.269-0.496-0.404-0.776-0.404s-0.562,0.136-0.777,0.404L22.809,65.584c-0.314,0.395-0.41,0.986-0.238,1.5
		C22.74,67.603,23.141,67.936,23.586,67.936z"/>
</g>
</svg>
