<?xml version="1.0" encoding="utf-8"?>
<!-- Generator: Adobe Illustrator 16.0.0, SVG Export Plug-In . SVG Version: 6.00 Build 0)  -->
<!DOCTYPE svg PUBLIC "-//W3C//DTD SVG 1.1//EN" "http://www.w3.org/Graphics/SVG/1.1/DTD/svg11.dtd">
<svg version="1.1" id="Layer_3" xmlns="http://www.w3.org/2000/svg" xmlns:xlink="http://www.w3.org/1999/xlink" x="0px" y="0px"
	 width="100px" height="100px" viewBox="0 0 100 100" enable-background="new 0 0 100 100" xml:space="preserve">
<path d="M95.412,2.451H4.588c-1.18,0-2.137,0.957-2.137,2.137v90.824c0,1.18,0.957,2.137,2.137,2.137h90.824
	c1.18,0,2.137-0.957,2.137-2.137V4.588C97.549,3.408,96.592,2.451,95.412,2.451z M72.044,52.18
	c-0.063,0.556-0.438,1.026-0.965,1.211c-0.528,0.184-1.112,0.052-1.509-0.345l-6.992-6.99L34.143,74.491
	c-0.284,0.284-0.656,0.426-1.029,0.426c-0.372,0-0.744-0.142-1.028-0.426l-6.58-6.58c-0.273-0.272-0.426-0.644-0.426-1.029
	s0.153-0.756,0.426-1.028l28.435-28.436l-6.983-6.984c-0.395-0.395-0.53-0.981-0.345-1.51c0.185-0.527,0.655-0.902,1.21-0.965
	l25.48-2.867c0.438-0.051,0.878,0.104,1.191,0.417c0.314,0.313,0.467,0.752,0.417,1.191L72.044,52.18z"/>
</svg>
