<?xml version="1.0" encoding="utf-8"?>
<!-- Generator: Adobe Illustrator 16.0.0, SVG Export Plug-In . SVG Version: 6.00 Build 0)  -->
<!DOCTYPE svg PUBLIC "-//W3C//DTD SVG 1.1//EN" "http://www.w3.org/Graphics/SVG/1.1/DTD/svg11.dtd">
<svg version="1.1" id="Layer_4" xmlns="http://www.w3.org/2000/svg" xmlns:xlink="http://www.w3.org/1999/xlink" x="0px" y="0px"
	 width="100px" height="100px" viewBox="0 0 100 100" enable-background="new 0 0 100 100" xml:space="preserve">
<path d="M91.684,46.563c-0.357,0.619-1.018,1-1.732,1H79.832v46.57c0,1.104-0.896,2-2,2H25.5c-0.646,0-1.252-0.312-1.627-0.836
	L8.422,73.695c-0.436-0.609-0.494-1.411-0.152-2.078c0.344-0.666,1.029-1.085,1.779-1.085H54.23v-22.97H44.107
	c-0.715,0-1.375-0.381-1.732-1c-0.355-0.619-0.355-1.381,0-2L65.299,4.867c0.357-0.619,1.018-1,1.732-1s1.375,0.381,1.732,1
	l22.92,39.695C92.041,45.182,92.041,45.944,91.684,46.563z"/>
</svg>
