<?xml version="1.0" encoding="utf-8"?>
<!-- Generator: Adobe Illustrator 16.0.0, SVG Export Plug-In . SVG Version: 6.00 Build 0)  -->
<!DOCTYPE svg PUBLIC "-//W3C//DTD SVG 1.1//EN" "http://www.w3.org/Graphics/SVG/1.1/DTD/svg11.dtd">
<svg version="1.1" id="Layer_1" xmlns="http://www.w3.org/2000/svg" xmlns:xlink="http://www.w3.org/1999/xlink" x="0px" y="0px"
	 width="100px" height="100px" viewBox="0 0 100 100" enable-background="new 0 0 100 100" xml:space="preserve">
<g>
	<path d="M49.93,49.258c11.768,0,21.341-10.592,21.341-23.611c0-13.019-9.573-23.61-21.341-23.61
		c-11.768,0-21.342,10.592-21.342,23.61C28.588,38.667,38.162,49.258,49.93,49.258z"/>
	<path d="M74.514,46.16c-1.244-0.269-2.524,0.272-3.192,1.355C63.688,59.884,51.378,60.241,50,60.241s-13.687-0.357-21.32-12.722
		c-0.67-1.085-1.953-1.628-3.198-1.354C8.906,49.814,4.534,74.835,5.826,95.153c0.101,1.58,1.411,2.81,2.994,2.81H91.18
		c1.583,0,2.894-1.23,2.994-2.81C95.467,74.813,91.094,49.778,74.514,46.16z"/>
</g>
</svg>
