<?xml version="1.0" encoding="utf-8"?>
<!-- Generator: Adobe Illustrator 16.0.0, SVG Export Plug-In . SVG Version: 6.00 Build 0)  -->
<!DOCTYPE svg PUBLIC "-//W3C//DTD SVG 1.1//EN" "http://www.w3.org/Graphics/SVG/1.1/DTD/svg11.dtd">
<svg version="1.1" id="Layer_1" xmlns="http://www.w3.org/2000/svg" xmlns:xlink="http://www.w3.org/1999/xlink" x="0px" y="0px"
	 width="100px" height="100px" viewBox="0 0 100 100" enable-background="new 0 0 100 100" xml:space="preserve">
<g>
	<path d="M95.705,26c-1.104-0.507-2.409-0.324-3.33,0.471L73.99,42.301V24.246c0-1.778-1.447-3.226-3.226-3.226H5.703
		c-1.778,0-3.225,1.447-3.225,3.226v51.508c0,1.778,1.446,3.226,3.225,3.226h65.062c1.778,0,3.226-1.447,3.226-3.226V57.699
		l18.385,15.83c0.923,0.795,2.228,0.978,3.33,0.471c1.107-0.508,1.816-1.613,1.816-2.831V28.831
		C97.521,27.613,96.813,26.508,95.705,26z"/>
</g>
</svg>
