<?xml version="1.0" encoding="utf-8"?>
<!-- Generator: Adobe Illustrator 16.0.0, SVG Export Plug-In . SVG Version: 6.00 Build 0)  -->
<!DOCTYPE svg PUBLIC "-//W3C//DTD SVG 1.1//EN" "http://www.w3.org/Graphics/SVG/1.1/DTD/svg11.dtd">
<svg version="1.1" id="Layer_3" xmlns="http://www.w3.org/2000/svg" xmlns:xlink="http://www.w3.org/1999/xlink" x="0px" y="0px"
	 width="100px" height="100px" viewBox="0 0 100 100" enable-background="new 0 0 100 100" xml:space="preserve">
<path d="M83.801,18.506L67.532,2.236c-0.469-0.469-1.104-0.732-1.768-0.732H17.967c-1.381,0-2.5,1.119-2.5,2.5v91.992
	c0,1.381,1.119,2.5,2.5,2.5h64.066c1.381,0,2.5-1.119,2.5-2.5V20.273C84.533,19.609,84.27,18.975,83.801,18.506z M69.291,60.358
	c0,0.104-0.062,0.2-0.156,0.243c-0.036,0.018-0.074,0.024-0.112,0.024c-0.062,0-0.124-0.022-0.173-0.064l-9.237-7.953v7.985
	c0,0.591-0.479,1.07-1.071,1.07H31.779c-0.591,0-1.07-0.479-1.07-1.07V39.406c0-0.59,0.479-1.07,1.07-1.07h26.762
	c0.593,0,1.071,0.48,1.071,1.07v7.985l9.237-7.953c0.079-0.068,0.19-0.083,0.285-0.04s0.156,0.139,0.156,0.243V60.358z
	 M63.555,23.846c-0.337,0-0.659-0.133-0.897-0.371c-0.237-0.238-0.372-0.561-0.372-0.897l0.002-15.126l16.395,16.395H63.555z"/>
</svg>
