<?xml version="1.0" encoding="utf-8"?>
<!-- Generator: Adobe Illustrator 16.0.0, SVG Export Plug-In . SVG Version: 6.00 Build 0)  -->
<!DOCTYPE svg PUBLIC "-//W3C//DTD SVG 1.1//EN" "http://www.w3.org/Graphics/SVG/1.1/DTD/svg11.dtd">
<svg version="1.1" id="Layer_1" xmlns="http://www.w3.org/2000/svg" xmlns:xlink="http://www.w3.org/1999/xlink" x="0px" y="0px"
	 width="100px" height="100px" viewBox="0 0 100 100" enable-background="new 0 0 100 100" xml:space="preserve">
<g>
	<path d="M83.801,18.48L67.532,2.236c-0.469-0.469-1.104-0.732-1.768-0.732H17.967c-1.381,0-2.5,1.119-2.5,2.5v91.992
		c0,1.381,1.119,2.5,2.5,2.5h64.066c1.381,0,2.5-1.119,2.5-2.5V20.248C84.533,19.585,84.27,18.949,83.801,18.48z M68.388,64.862
		c0,0.829-0.671,1.5-1.5,1.5h-9.777l6.924,6.925c0.586,0.586,0.586,1.535,0,2.121l-2.702,2.703
		c-0.281,0.281-0.663,0.439-1.061,0.439s-0.779-0.158-1.061-0.439L50,68.899l-9.213,9.212c-0.281,0.281-0.663,0.439-1.061,0.439
		s-0.779-0.158-1.061-0.439l-2.702-2.703c-0.586-0.586-0.586-1.535,0-2.121l6.924-6.925h-9.777c-0.829,0-1.5-0.671-1.5-1.5V39.217
		c0-0.828,0.671-1.5,1.5-1.5h33.776c0.829,0,1.5,0.672,1.5,1.5V64.862z M63.555,23.847c-0.337,0-0.659-0.134-0.897-0.372
		c-0.237-0.238-0.372-0.561-0.372-0.897l0.002-15.126l16.395,16.396H63.555z"/>
	<rect x="36.268" y="55.255" width="26.401" height="3.852"/>
	<circle cx="41.939" cy="47.404" r="4.776"/>
	<rect x="49.474" y="43.254" width="13.195" height="6.179"/>
</g>
</svg>
