<?xml version="1.0" encoding="utf-8"?>
<!-- Generator: Adobe Illustrator 16.0.0, SVG Export Plug-In . SVG Version: 6.00 Build 0)  -->
<!DOCTYPE svg PUBLIC "-//W3C//DTD SVG 1.1//EN" "http://www.w3.org/Graphics/SVG/1.1/DTD/svg11.dtd">
<svg version="1.1" id="Layer_3" xmlns="http://www.w3.org/2000/svg" xmlns:xlink="http://www.w3.org/1999/xlink" x="0px" y="0px"
	 width="100px" height="100px" viewBox="0 0 100 100" enable-background="new 0 0 100 100" xml:space="preserve">
<g>
	<path d="M50,9.678c-9.983,0-18.541,6.61-22.158,16.012h44.315C68.541,16.288,59.983,9.678,50,9.678z"/>
	<path d="M94.346,49.926H80.485c0.774-3.128,1.237-6.423,1.348-9.83c4.94-2.967,10.617-8.168,12.028-16.795
		c0.416-2.544-1.309-4.942-3.852-5.357c-2.545-0.414-4.94,1.31-5.357,3.851c-0.759,4.64-3.723,7.724-6.633,9.696H21.998
		c-2.915-1.974-5.892-5.058-6.65-9.696c-0.416-2.542-2.808-4.265-5.357-3.851c-2.543,0.416-4.268,2.813-3.852,5.357
		c1.411,8.626,7.087,13.828,12.028,16.795c0.111,3.407,0.574,6.702,1.348,9.83H5.654c-2.576,0-4.665,2.089-4.665,4.666
		c0,2.577,2.089,4.666,4.665,4.666h17.322c1.311,2.577,2.855,4.955,4.602,7.083c-6.1,4.571-11.813,12.548-14.584,16.745
		c-1.42,2.149-0.829,5.042,1.32,6.463c0.792,0.523,1.686,0.773,2.568,0.773c1.514,0,2.999-0.735,3.897-2.092
		c4.624-6.99,10.586-13.595,13.746-15.471c3.796,2.601,8.073,4.26,12.622,4.759V42.285h5.708v35.233
		c4.543-0.499,8.814-2.154,12.608-4.749c3.195,1.89,9.146,8.484,13.76,15.461c0.898,1.357,2.383,2.092,3.897,2.092
		c0.882,0,1.776-0.25,2.568-0.773c2.149-1.42,2.74-4.313,1.32-6.463c-2.774-4.2-8.472-12.183-14.579-16.751
		c1.745-2.127,3.287-4.503,4.596-7.077h17.322c2.576,0,4.665-2.089,4.665-4.666C99.011,52.016,96.922,49.926,94.346,49.926z"/>
</g>
</svg>
