<?xml version="1.0" encoding="utf-8"?>
<!-- Generator: Adobe Illustrator 16.0.0, SVG Export Plug-In . SVG Version: 6.00 Build 0)  -->
<!DOCTYPE svg PUBLIC "-//W3C//DTD SVG 1.1//EN" "http://www.w3.org/Graphics/SVG/1.1/DTD/svg11.dtd">
<svg version="1.1" id="Layer_1" xmlns="http://www.w3.org/2000/svg" xmlns:xlink="http://www.w3.org/1999/xlink" x="0px" y="0px"
	 width="100px" height="100px" viewBox="0 0 100 100" enable-background="new 0 0 100 100" xml:space="preserve">
<path d="M97.964,46.548C97.098,45.528,76.427,21.603,50,21.603S2.902,45.528,2.035,46.549c-1.701,2-1.701,4.902,0.001,6.903
	C2.902,54.472,23.573,78.397,50,78.397s47.098-23.926,47.965-24.946C99.666,51.451,99.666,48.549,97.964,46.548z M58.073,35.975
	c1.777-0.97,4.255,0.143,5.534,2.485c1.279,2.343,0.875,5.029-0.902,5.999c-1.777,0.971-4.255-0.143-5.535-2.485
	C55.891,39.631,56.295,36.945,58.073,35.975z M50,69.729c-18.46,0-33.995-14.176-39.372-19.729
	c3.631-3.751,11.898-11.429,22.567-16.021c-2.081,3.166-3.301,6.949-3.301,11.021c0,11.104,9.001,20.105,20.105,20.105
	S70.105,56.104,70.105,45c0-4.072-1.219-7.855-3.3-11.021C77.474,38.572,85.741,46.25,89.372,50
	C83.995,55.555,68.46,69.729,50,69.729z"/>
</svg>
