<?xml version="1.0" encoding="utf-8"?>
<!-- Generator: Adobe Illustrator 16.0.0, SVG Export Plug-In . SVG Version: 6.00 Build 0)  -->
<!DOCTYPE svg PUBLIC "-//W3C//DTD SVG 1.1//EN" "http://www.w3.org/Graphics/SVG/1.1/DTD/svg11.dtd">
<svg version="1.1" id="Layer_4" xmlns="http://www.w3.org/2000/svg" xmlns:xlink="http://www.w3.org/1999/xlink" x="0px" y="0px"
	 width="100px" height="100px" viewBox="0 0 100 100" enable-background="new 0 0 100 100" xml:space="preserve">
<g>
	<path d="M50,74.963c9.519,0,17.262-7.744,17.262-17.262V18.929C67.262,9.41,59.519,1.667,50,1.667S32.738,9.41,32.738,18.929
		v38.773C32.738,67.22,40.481,74.963,50,74.963z"/>
	<path d="M77.744,47.382h-3.437c-1.104,0-2,0.896-2,2v7.029c0,12.3-10.007,22.308-22.308,22.308S27.692,68.711,27.692,56.411v-7.029
		c0-1.104-0.896-2-2-2h-3.437c-1.104,0-2,0.896-2,2v7.029c0,14.707,11.433,27.667,26.026,29.506v4.98H30.931c-1.104,0-2,0.896-2,2
		v3.436c0,1.104,0.896,2,2,2h38.139c1.104,0,2-0.896,2-2v-3.436c0-1.104-0.896-2-2-2H53.718v-4.98
		c14.594-1.838,26.026-14.799,26.026-29.506v-7.029C79.744,48.277,78.849,47.382,77.744,47.382z"/>
</g>
</svg>
