<?xml version="1.0" encoding="utf-8"?>
<!-- Generator: Adobe Illustrator 16.0.0, SVG Export Plug-In . SVG Version: 6.00 Build 0)  -->
<!DOCTYPE svg PUBLIC "-//W3C//DTD SVG 1.1//EN" "http://www.w3.org/Graphics/SVG/1.1/DTD/svg11.dtd">
<svg version="1.1" id="Layer_3" xmlns="http://www.w3.org/2000/svg" xmlns:xlink="http://www.w3.org/1999/xlink" x="0px" y="0px"
	 width="100px" height="100px" viewBox="0 0 100 100" enable-background="new 0 0 100 100" xml:space="preserve">
<path d="M96.307,7.571H3.693c-1.104,0-2,0.896-2,2v80.858c0,1.104,0.896,2,2,2h92.613c1.104,0,2-0.896,2-2V9.571
	C98.307,8.466,97.411,7.571,96.307,7.571z M31.142,73.155c0,0.829-0.672,1.5-1.5,1.5h-8.809c-0.828,0-1.5-0.671-1.5-1.5V44.857
	c0-0.829,0.672-1.5,1.5-1.5h8.809c0.828,0,1.5,0.671,1.5,1.5V73.155z M47.65,73.155c0,0.829-0.672,1.5-1.5,1.5h-8.809
	c-0.828,0-1.5-0.671-1.5-1.5V32.725c0-0.829,0.672-1.5,1.5-1.5h8.809c0.828,0,1.5,0.671,1.5,1.5V73.155z M64.158,73.155
	c0,0.829-0.672,1.5-1.5,1.5H53.85c-0.828,0-1.5-0.671-1.5-1.5V44.857c0-0.829,0.672-1.5,1.5-1.5h8.809c0.828,0,1.5,0.671,1.5,1.5
	V73.155z M80.667,73.155c0,0.829-0.672,1.5-1.5,1.5h-8.809c-0.828,0-1.5-0.671-1.5-1.5V28.292c0-0.829,0.672-1.5,1.5-1.5h8.809
	c0.828,0,1.5,0.671,1.5,1.5V73.155z"/>
</svg>
