<?xml version="1.0" encoding="utf-8"?>
<!-- Generator: Adobe Illustrator 16.0.0, SVG Export Plug-In . SVG Version: 6.00 Build 0)  -->
<!DOCTYPE svg PUBLIC "-//W3C//DTD SVG 1.1//EN" "http://www.w3.org/Graphics/SVG/1.1/DTD/svg11.dtd">
<svg version="1.1" id="Layer_3" xmlns="http://www.w3.org/2000/svg" xmlns:xlink="http://www.w3.org/1999/xlink" x="0px" y="0px"
	 width="100px" height="100px" viewBox="0 0 100 100" enable-background="new 0 0 100 100" xml:space="preserve">
<g>
	<path d="M49.999,23.683c6.264,0,11.36-5.097,11.36-11.361c0-6.264-5.096-11.359-11.36-11.359s-11.36,5.096-11.36,11.359
		C38.639,18.586,43.735,23.683,49.999,23.683z"/>
	<path d="M79.235,47.868L64.583,25.941c-0.371-0.556-0.995-0.889-1.663-0.889H37.08c-0.668,0-1.292,0.333-1.663,0.889L20.765,47.867
		c-0.294,0.441-0.402,0.981-0.298,1.501c0.104,0.521,0.409,0.979,0.85,1.273l4.436,2.964c0.919,0.612,2.16,0.366,2.774-0.552
		l7.741-11.584l-0.02,5.739l-5,23.419c-0.126,0.591,0.021,1.207,0.401,1.676c0.379,0.47,0.951,0.742,1.555,0.742h3.087v23.992
		c0,1.104,0.896,2,2,2h7.087c1.104,0,2-0.896,2-2V73.046h5.243v23.992c0,1.104,0.896,2,2,2h7.087c1.104,0,2-0.896,2-2V73.046h3.089
		c0.007-0.001,0.013-0.001,0.02,0c1.104,0,2-0.896,2-2c0-0.242-0.043-0.475-0.122-0.69L63.708,47v-5.567l7.766,11.622
		c0.614,0.918,1.855,1.164,2.774,0.552l4.436-2.964c0.441-0.295,0.747-0.753,0.85-1.273C79.637,48.85,79.529,48.31,79.235,47.868z"
		/>
</g>
</svg>
