<?xml version="1.0" encoding="utf-8"?>
<!-- Generator: Adobe Illustrator 16.0.0, SVG Export Plug-In . SVG Version: 6.00 Build 0)  -->
<!DOCTYPE svg PUBLIC "-//W3C//DTD SVG 1.1//EN" "http://www.w3.org/Graphics/SVG/1.1/DTD/svg11.dtd">
<svg version="1.1" id="Layer_2" xmlns="http://www.w3.org/2000/svg" xmlns:xlink="http://www.w3.org/1999/xlink" x="0px" y="0px"
	 width="100px" height="100px" viewBox="0 0 100 100" enable-background="new 0 0 100 100" xml:space="preserve">
<g>
	<path d="M45.428,27.448l-5.126,14.896c1.531,0.449,3.149,0.696,4.827,0.696c1.989,0,3.898-0.344,5.674-0.969
		c-0.046-0.073-0.088-0.151-0.122-0.235L45.428,27.448z"/>
	<path d="M37.672,41.331L29.522,19c-0.948,2.125-1.48,4.477-1.48,6.953C28.042,32.716,31.974,38.561,37.672,41.331z"/>
	<path d="M36.506,16.374c0.922-0.055,1.03,1.298,0.11,1.407c0,0-0.925,0.109-1.956,0.163l6.221,18.507l3.739-11.214l-2.661-7.293
		c-0.92-0.055-1.792-0.163-1.792-0.163c-0.921-0.054-0.814-1.461,0.107-1.407c0,0,2.823,0.217,4.501,0.217
		c1.786,0,4.554-0.217,4.554-0.217c0.921-0.054,1.029,1.298,0.109,1.407c0,0-0.928,0.108-1.956,0.163l6.175,18.366l1.704-5.694
		c0.738-2.363,1.299-4.061,1.299-5.523c0-2.112-0.757-3.573-1.408-4.712c-0.866-1.408-1.677-2.6-1.677-4.007
		c0-1.57,1.19-3.032,2.868-3.032c0.076,0,0.148,0.01,0.222,0.014c-3.039-2.785-7.089-4.485-11.537-4.485
		c-5.969,0-11.221,3.063-14.275,7.701c0.4,0.013,0.778,0.021,1.099,0.021C33.741,16.59,36.506,16.374,36.506,16.374z"/>
	<path d="M62.214,25.954c0.001-2.971-0.758-5.764-2.093-8.198c0.074,0.544,0.115,1.129,0.115,1.757c0,1.734-0.323,3.683-1.299,6.12
		l-5.219,15.089C58.797,37.76,62.214,32.257,62.214,25.954z"/>
	<path d="M5.359,50.441h79.701c0.827,0,1.5-0.673,1.5-1.5v-7.479c0-0.817-0.64-1.475-1.452-1.499
		c-7.561-0.242-13.482-6.36-13.482-13.928c0-7.567,5.922-13.685,13.483-13.927c0.813-0.026,1.451-0.685,1.451-1.5V3.131
		c0-0.827-0.673-1.5-1.5-1.5H5.359c-0.827,0-1.5,0.673-1.5,1.5v7.479c0,0.814,0.638,1.473,1.452,1.5
		c7.561,0.242,13.483,6.36,13.483,13.927c0,7.568-5.923,13.686-13.48,13.928c-0.815,0.023-1.455,0.682-1.455,1.499v7.479
		C3.859,49.769,4.532,50.441,5.359,50.441z M45.211,5.53c11.306,0,20.504,9.198,20.504,20.505c0,11.308-9.198,20.507-20.504,20.507
		c-11.308,0-20.506-9.199-20.506-20.507C24.705,14.729,33.903,5.53,45.211,5.53z"/>
	<path d="M38.637,71.908c1.196,1.056,2.557,1.966,4.076,2.678c1.801,0.844,3.676,1.342,5.549,1.529
		c-0.011-0.085-0.016-0.174-0.011-0.265l1.347-15.258L38.637,71.908z"/>
	<path d="M36.686,69.874l1.461-16.532h-4.26C31.819,59.084,33.018,65.341,36.686,69.874z"/>
	<polygon points="50.24,53.342 43.203,53.342 41.662,66.816 49.806,58.248 	"/>
	<path d="M62.123,53.342h-6.687l-2.144,18.766l3.959-4.434c1.67-1.827,2.899-3.126,3.52-4.451c0.896-1.912,0.83-3.557,0.724-4.864
		c-0.187-1.643-0.416-3.065,0.181-4.34C61.792,53.77,61.95,53.549,62.123,53.342z"/>
	<path d="M65.433,66.36c1.261-2.69,1.758-5.541,1.582-8.312c-0.164,0.524-0.375,1.071-0.641,1.64
		c-0.735,1.57-1.855,3.198-3.773,4.991L51.474,76.13C57.331,75.602,62.759,72.068,65.433,66.36z"/>
	<path d="M96.44,54.026l-1.461-0.685H69.611c1.4,4.664,1.181,9.832-1.042,14.578c-4.797,10.24-17.029,14.668-27.267,9.872
		c-9.315-4.364-13.794-14.877-10.92-24.45h-8.656c-3.849,2.843-9.037,3.6-13.761,1.568c-0.749-0.325-1.607,0-1.954,0.74
		l-3.172,6.772c-0.351,0.75-0.027,1.644,0.722,1.995l72.174,33.811c0.749,0.351,1.644,0.027,1.995-0.722l3.173-6.772
		c0.346-0.74,0.046-1.607-0.68-1.973c-6.744-3.427-9.511-11.479-6.3-18.333c3.21-6.853,11.168-9.88,18.118-6.892
		c0.748,0.321,1.604-0.004,1.95-0.742l3.172-6.772C97.513,55.272,97.189,54.377,96.44,54.026z"/>
</g>
</svg>
