<?xml version="1.0" encoding="utf-8"?>
<!-- Generator: Adobe Illustrator 16.0.0, SVG Export Plug-In . SVG Version: 6.00 Build 0)  -->
<!DOCTYPE svg PUBLIC "-//W3C//DTD SVG 1.1//EN" "http://www.w3.org/Graphics/SVG/1.1/DTD/svg11.dtd">
<svg version="1.1" id="Layer_2" xmlns="http://www.w3.org/2000/svg" xmlns:xlink="http://www.w3.org/1999/xlink" x="0px" y="0px"
	 width="100px" height="100px" viewBox="0 0 100 100" enable-background="new 0 0 100 100" xml:space="preserve">
<path d="M50.002,1.659c-26.657,0-48.341,21.683-48.341,48.339c0,26.657,21.684,48.343,48.341,48.343
	c26.653,0,48.337-21.686,48.337-48.343C98.339,23.345,76.655,1.659,50.002,1.659z M7.209,49.998c0-6.203,1.332-12.094,3.706-17.413
	L31.327,88.51C17.053,81.575,7.209,66.938,7.209,49.998z M50.002,92.794c-4.201,0-8.255-0.62-12.09-1.744L50.75,53.743
	l13.157,36.034c0.084,0.211,0.19,0.406,0.304,0.589C59.764,91.932,54.984,92.794,50.002,92.794z M55.898,29.936
	c2.576-0.136,4.896-0.409,4.896-0.409c2.307-0.272,2.037-3.659-0.271-3.523c0,0-6.932,0.543-11.406,0.543
	c-4.203,0-11.272-0.543-11.272-0.543c-2.305-0.136-2.573,3.39-0.27,3.523c0,0,2.183,0.272,4.486,0.409l6.667,18.266l-9.363,28.087
	L23.784,29.938c2.579-0.136,4.898-0.408,4.898-0.408c2.303-0.272,2.034-3.661-0.275-3.523c0,0-6.929,0.542-11.405,0.542
	c-0.806,0-1.749-0.021-2.753-0.052C21.897,14.878,35.051,7.208,50.002,7.208c11.142,0,21.283,4.26,28.896,11.232
	c-0.187-0.009-0.365-0.033-0.556-0.033c-4.203,0-7.186,3.661-7.186,7.595c0,3.525,2.031,6.51,4.203,10.034
	c1.628,2.853,3.527,6.514,3.527,11.803c0,3.663-1.406,7.914-3.256,13.833l-4.268,14.262L55.898,29.936z M71.513,86.986l13.07-37.79
	c2.445-6.104,3.254-10.986,3.254-15.328c0-1.573-0.104-3.038-0.288-4.4c3.344,6.095,5.245,13.091,5.243,20.532
	C92.792,65.785,84.233,79.567,71.513,86.986z"/>
</svg>
