<?xml version="1.0" encoding="utf-8"?>
<!-- Generator: Adobe Illustrator 16.0.0, SVG Export Plug-In . SVG Version: 6.00 Build 0)  -->
<!DOCTYPE svg PUBLIC "-//W3C//DTD SVG 1.1//EN" "http://www.w3.org/Graphics/SVG/1.1/DTD/svg11.dtd">
<svg version="1.1" id="Layer_1" xmlns="http://www.w3.org/2000/svg" xmlns:xlink="http://www.w3.org/1999/xlink" x="0px" y="0px"
	 width="100px" height="100px" viewBox="0 0 100 100" enable-background="new 0 0 100 100" xml:space="preserve">
<path d="M98.117,22.361c-0.176-0.698-0.714-1.247-1.408-1.438c-0.691-0.191-1.437,0.004-1.945,0.514L79.522,36.678l-16.208-16.21
	l15.238-15.24c0.509-0.509,0.706-1.252,0.514-1.946c-0.191-0.694-0.742-1.231-1.439-1.407c-2.264-0.57-4.599-0.858-6.94-0.858
	c-7.544,0-14.634,2.935-19.963,8.263c-7.48,7.479-10.154,18.826-6.813,28.908L4.71,77.383c-4.932,4.934-4.931,12.962,0.001,17.896
	c2.391,2.39,5.568,3.706,8.947,3.706c3.38,0,6.558-1.316,8.947-3.706l39.197-39.197l0,0c2.888,0.958,5.901,1.444,8.956,1.444
	c7.541,0,14.627-2.933,19.953-8.258C97.813,42.166,100.581,32.107,98.117,22.361z"/>
</svg>
