<?xml version="1.0" encoding="utf-8"?>
<!-- Generator: Adobe Illustrator 16.0.0, SVG Export Plug-In . SVG Version: 6.00 Build 0)  -->
<!DOCTYPE svg PUBLIC "-//W3C//DTD SVG 1.1//EN" "http://www.w3.org/Graphics/SVG/1.1/DTD/svg11.dtd">
<svg version="1.1" id="Layer_3" xmlns="http://www.w3.org/2000/svg" xmlns:xlink="http://www.w3.org/1999/xlink" x="0px" y="0px"
	 width="100px" height="100px" viewBox="0 0 100 100" enable-background="new 0 0 100 100" xml:space="preserve">
<path d="M83.801,18.506L67.532,2.236c-0.469-0.469-1.104-0.732-1.768-0.732H17.967c-1.381,0-2.5,1.119-2.5,2.5v91.992
	c0,1.381,1.119,2.5,2.5,2.5h64.066c1.381,0,2.5-1.119,2.5-2.5V20.273C84.533,19.609,84.27,18.975,83.801,18.506z M71.333,34.187
	c0,1.104-0.896,2-2,2h-5.746c-0.585,0.742-1.914,2.436-3.03,3.867l-6.851,8.759L64.88,65.374h4.453c1.104,0,2,0.896,2,2v0.765
	c0,1.104-0.896,2-2,2H54.205c-1.104,0-2-0.896-2-2v-0.765c0-1.104,0.896-2,2-2h1.99l-7.137-10.711l-8.564,10.65h5.301
	c1.104,0,2,0.896,2,2v0.765c0,1.104-0.896,2-2,2H30.667c-1.104,0-2-0.896-2-2v-0.765c0-1.104,0.896-2,2-2h4.614l11.415-14.309
	L36.439,36.126h-4.617c-1.104,0-2-0.896-2-2v-0.765c0-1.104,0.896-2,2-2h15.122c1.103,0,1.997,0.893,2,1.995l0.001,0.48
	c0.014,0.095,0.021,0.19,0.021,0.289c0,1.104-0.895,2-2,2c-0.005,0.001-0.013,0.001-0.02,0H44.86l6.3,9.01l6.997-8.949h-3.952
	c-1.104,0-2-0.896-2-2v-0.765c0-1.104,0.896-2,2-2h15.128c1.104,0,2,0.896,2,2V34.187z M63.555,23.846
	c-0.337,0-0.659-0.133-0.897-0.371c-0.237-0.238-0.372-0.561-0.372-0.897l0.002-15.126l16.395,16.395H63.555z"/>
</svg>
