<?xml version="1.0" encoding="utf-8"?>
<!-- Generator: Adobe Illustrator 16.0.0, SVG Export Plug-In . SVG Version: 6.00 Build 0)  -->
<!DOCTYPE svg PUBLIC "-//W3C//DTD SVG 1.1//EN" "http://www.w3.org/Graphics/SVG/1.1/DTD/svg11.dtd">
<svg version="1.1" id="Layer_4" xmlns="http://www.w3.org/2000/svg" xmlns:xlink="http://www.w3.org/1999/xlink" x="0px" y="0px"
	 width="100px" height="100px" viewBox="0 0 100 100" enable-background="new 0 0 100 100" xml:space="preserve">
<g>
	<path d="M96.766,85.37L64.284,52.888c-1.929-1.929-4.591-2.671-7.087-2.235c9.043-12.216,8.035-29.584-3.027-40.647
		c-12.177-12.176-31.988-12.176-44.164,0c-12.176,12.175-12.176,31.987,0,44.162c11.063,11.064,28.432,12.072,40.646,3.03
		c-0.434,2.497,0.308,5.157,2.235,7.086L85.37,96.765c3.147,3.147,8.249,3.149,11.396,0.001
		C99.914,93.619,99.913,88.516,96.766,85.37z M46.477,46.476c-7.935,7.935-20.844,7.934-28.777,0
		c-7.935-7.934-7.936-20.844,0-28.777c7.934-7.935,20.844-7.935,28.777,0C54.41,25.631,54.41,38.542,46.477,46.476z"/>
	<path d="M36.473,16.026c0-0.423-0.343-0.766-0.766-0.766h-7.266c-0.423,0-0.766,0.343-0.766,0.766V27.69H16.013
		c-0.423,0-0.766,0.342-0.766,0.765v7.266c0,0.423,0.343,0.765,0.766,0.765h11.663v11.664c0,0.423,0.343,0.766,0.766,0.766h7.266
		c0.423,0,0.766-0.343,0.766-0.766V36.486h11.663c0.423,0,0.766-0.342,0.766-0.765v-7.266c0-0.423-0.343-0.765-0.766-0.765H36.473
		V16.026z"/>
</g>
</svg>
