<svg xmlns="http://www.w3.org/2000/svg" xmlns:xlink="http://www.w3.org/1999/xlink" version="1.1" x="0px" y="0px" viewBox="0 0 64 64" enable-background="new 0 0 64 64" xml:space="preserve"><g><path d="M59.569,36.451c-0.207,0-0.405,0.033-0.597,0.082l-5.658-9.801c0.384-0.429,0.624-0.99,0.624-1.613   c0-1.342-1.087-2.429-2.431-2.429c-1.113,0-2.039,0.752-2.328,1.772H38.139c-0.289-1.021-1.217-1.773-2.331-1.773   c-0.077,0-0.149,0.016-0.225,0.022l-5.545-9.604c0.46-0.442,0.749-1.061,0.749-1.75c0-1.342-1.087-2.429-2.43-2.429   c-1.112,0-2.041,0.752-2.328,1.771H14.898c-0.33-0.951-1.224-1.637-2.288-1.637c-1.342,0-2.429,1.087-2.429,2.429   c0,0.557,0.193,1.063,0.508,1.472l-5.662,9.809c-0.193-0.049-0.391-0.082-0.598-0.082c-1.342,0-2.43,1.087-2.43,2.429   c0,1.343,1.088,2.431,2.43,2.431c0.207,0,0.404-0.033,0.596-0.082l5.521,9.565c-0.527,0.445-0.869,1.104-0.869,1.85   c0,1.342,1.087,2.43,2.429,2.43c1.113,0,2.04-0.75,2.329-1.771h11.023c0.287,1.021,1.215,1.773,2.327,1.773   c0.207,0,0.403-0.035,0.595-0.084l5.643,9.775c-0.396,0.432-0.645,1.004-0.645,1.639c0,1.342,1.087,2.43,2.429,2.43   c1.113,0,2.04-0.75,2.328-1.77h11.046c0.288,1.02,1.215,1.77,2.326,1.77c1.344,0,2.431-1.088,2.431-2.43   c0-0.621-0.24-1.182-0.624-1.611l5.66-9.803c0.191,0.049,0.388,0.084,0.595,0.084c1.343,0,2.431-1.088,2.431-2.432   C62,37.539,60.912,36.451,59.569,36.451z M51.508,50.213c-1.113,0-2.041,0.752-2.329,1.773h-11.04   c-0.289-1.021-1.217-1.773-2.331-1.773c-0.229,0-0.448,0.043-0.661,0.102l-5.623-9.738c0.429-0.438,0.693-1.035,0.693-1.695   c0-0.498-0.152-0.963-0.41-1.348l5.777-10.006c0.074,0.006,0.146,0.021,0.224,0.021c1.113,0,2.04-0.75,2.328-1.77H49.18   c0.29,1.021,1.217,1.771,2.328,1.771c0.243,0,0.472-0.046,0.693-0.111l5.631,9.75c-0.427,0.438-0.691,1.035-0.691,1.693   c0,0.66,0.265,1.258,0.691,1.695l-5.63,9.75C51.98,50.26,51.751,50.213,51.508,50.213z M6.168,26.813   c0.428-0.438,0.691-1.034,0.691-1.695c0-0.659-0.264-1.256-0.691-1.692l5.582-9.668c0.27,0.102,0.557,0.164,0.86,0.164   c1.163,0,2.131-0.816,2.37-1.906h11.049c0.287,1.021,1.216,1.772,2.328,1.772c0.178,0,0.352-0.021,0.52-0.06l5.465,9.465   c-0.582,0.443-0.963,1.137-0.963,1.925c0,0.635,0.249,1.208,0.647,1.642l-5.644,9.774c-0.191-0.049-0.39-0.082-0.597-0.082   c-1.112,0-2.04,0.752-2.327,1.771H14.436c-0.288-1.02-1.216-1.771-2.329-1.771c-0.12,0-0.236,0.018-0.353,0.035L6.168,26.813z"></path></g></svg>