<?xml version="1.0" encoding="utf-8"?>
<!-- Generator: Adobe Illustrator 16.0.0, SVG Export Plug-In . SVG Version: 6.00 Build 0)  -->
<!DOCTYPE svg PUBLIC "-//W3C//DTD SVG 1.1//EN" "http://www.w3.org/Graphics/SVG/1.1/DTD/svg11.dtd">
<svg version="1.1" id="Layer_4" xmlns="http://www.w3.org/2000/svg" xmlns:xlink="http://www.w3.org/1999/xlink" x="0px" y="0px"
	 width="100px" height="100px" viewBox="0 0 100 100" enable-background="new 0 0 100 100" xml:space="preserve">
<g>
	<g>
		<path d="M43.689,86.264c-11.92,0-21.617-9.697-21.617-21.617c0-7.324,3.771-14.186,9.909-18.158L29.786,35.06
			C18.309,40.453,10.99,51.875,10.99,64.646c0,18.03,14.669,32.699,32.699,32.699c8.829,0,17.336-3.624,23.486-9.974l-4.73-11.988
			C58.634,82.009,51.481,86.264,43.689,86.264z"/>
	</g>
	<path d="M88.586,89.045l-14.97-37.962c-0.666-2.715-3.084-4.614-5.879-4.618l-16.109-0.021l-1.126-5.862h17.36
		c3.348,0,6.071-2.723,6.071-6.069c0-3.348-2.724-6.071-6.071-6.071H48.169l-1.002-5.218l0.543-0.561
		c2.148-2.218,3.331-5.133,3.331-8.207c0-6.508-5.294-11.802-11.802-11.802S27.438,7.948,27.438,14.456
		c0,4.695,2.785,8.943,7.096,10.821l0.725,0.315l5.392,28.063c0.021,0.098,0.041,0.175,0.062,0.253l0.176,0.606
		c0.031,0.087,0.063,0.18,0.099,0.269l0.088,0.201c0.055,0.121,0.104,0.227,0.157,0.329l0.099,0.179
		c0.06,0.105,0.125,0.214,0.193,0.319l0.102,0.153c0.074,0.107,0.154,0.213,0.237,0.316l0.092,0.117
		c0.093,0.11,0.19,0.216,0.289,0.319l0.077,0.081c0.133,0.134,0.253,0.241,0.376,0.345l0.091,0.081
		c0.106,0.086,0.254,0.197,0.406,0.301l0.151,0.094c0.095,0.061,0.201,0.129,0.314,0.191l0.131,0.068
		c0.171,0.086,0.271,0.137,0.374,0.183l0.181,0.074c0.139,0.055,0.242,0.094,0.348,0.129l0.207,0.065
		c0.123,0.036,0.246,0.066,0.37,0.095l0.185,0.042c0.143,0.027,0.294,0.049,0.446,0.066l0.118,0.017
		c0.168,0.017,0.351,0.03,0.536,0.032l0.086-0.002l16.881,0.021l13.771,34.9c0.922,2.335,3.14,3.844,5.649,3.844
		c0.759,0,1.509-0.144,2.228-0.427C88.281,95.69,89.814,92.158,88.586,89.045z"/>
</g>
</svg>
