<?xml version="1.0" encoding="utf-8"?>
<!-- Generator: Adobe Illustrator 16.0.0, SVG Export Plug-In . SVG Version: 6.00 Build 0)  -->
<!DOCTYPE svg PUBLIC "-//W3C//DTD SVG 1.1//EN" "http://www.w3.org/Graphics/SVG/1.1/DTD/svg11.dtd">
<svg version="1.1" id="Layer_3" xmlns="http://www.w3.org/2000/svg" xmlns:xlink="http://www.w3.org/1999/xlink" x="0px" y="0px"
	 width="100px" height="100px" viewBox="0 0 100 100" enable-background="new 0 0 100 100" xml:space="preserve">
<g>
	<path d="M51.232,53.345c-3.969-3.191-7.327-6.182-9.643-8.323c-0.796,3.415-1.903,7.845-2.783,11.313
		c3.633-1.307,7.836-2.239,12.523-2.779l-0.272-0.203L51.232,53.345z"/>
	<path d="M83.801,18.506L67.532,2.236c-0.469-0.469-1.104-0.732-1.768-0.732H17.967c-1.381,0-2.5,1.119-2.5,2.5v91.992
		c0,1.381,1.119,2.5,2.5,2.5h64.066c1.381,0,2.5-1.119,2.5-2.5V20.273C84.533,19.609,84.27,18.975,83.801,18.506z M73.729,59.699
		l-0.038,0.209c-0.692,2.734-2.552,4.285-5.108,4.285c-1.618,0-3.013-0.656-3.276-0.788l-0.134-0.074
		c-2.82-1.764-5.716-3.741-8.628-5.89c-5.366,0.281-12.941,1.224-19.069,4.091l-0.335,1.295c-1.996,7.349-5.909,8.142-7.499,8.142
		c-0.362,0-0.621-0.043-0.707-0.065l-0.223-0.059c-1.054-0.383-1.795-1.08-2.186-2.029c-0.786-1.921,0.203-4.176,0.409-4.608
		l0.324-0.494c1.715-1.963,3.911-3.69,6.529-5.137c1.199-4.67,3.259-12.795,4.171-17.018c-1.057-1.039-1.679-1.686-1.811-1.823
		c-2.498-2.774-3.429-5.226-2.8-7.318c0.596-1.99,2.438-2.959,3.433-3.218c1.58-0.43,3.264,0.009,4.31,1.157
		c1.483,1.631,2.015,4.779,1.581,9.357c-0.01,0.107-0.025,0.23-0.046,0.371c2.865,2.731,8.486,7.877,15.265,12.987
		c1.028-0.035,2.062-0.053,3.074-0.053c3.396,0,5.669,0.188,6.09,0.226c0.047,0,3.573,0.102,5.529,2.398
		C73.525,56.751,73.921,58.153,73.729,59.699z M63.555,23.846c-0.337,0-0.659-0.133-0.897-0.371
		c-0.237-0.238-0.372-0.561-0.372-0.897l0.002-15.126l16.395,16.395H63.555z"/>
</g>
</svg>
