<?xml version="1.0" encoding="utf-8"?>
<!-- Generator: Adobe Illustrator 16.0.0, SVG Export Plug-In . SVG Version: 6.00 Build 0)  -->
<!DOCTYPE svg PUBLIC "-//W3C//DTD SVG 1.1//EN" "http://www.w3.org/Graphics/SVG/1.1/DTD/svg11.dtd">
<svg version="1.1" id="Layer_2" xmlns="http://www.w3.org/2000/svg" xmlns:xlink="http://www.w3.org/1999/xlink" x="0px" y="0px"
	 width="100px" height="100px" viewBox="0 0 100 100" enable-background="new 0 0 100 100" xml:space="preserve">
<path d="M50,1.875C23.422,1.875,1.875,23.422,1.875,50S23.422,98.125,50,98.125S98.125,76.578,98.125,50S76.578,1.875,50,1.875z
	 M84.551,59.134H59.134v25.417c0,0.844-0.684,1.527-1.527,1.527H42.394c-0.844,0-1.527-0.684-1.527-1.527V59.134H15.449
	c-0.844,0-1.527-0.684-1.527-1.527V42.394c0-0.844,0.684-1.527,1.527-1.527h25.417V15.449c0-0.844,0.684-1.527,1.527-1.527h15.213
	c0.844,0,1.527,0.684,1.527,1.527v25.417h25.417c0.844,0,1.527,0.684,1.527,1.527v15.213C86.078,58.45,85.395,59.134,84.551,59.134z
	"/>
</svg>
