<?xml version="1.0" encoding="utf-8"?>
<!-- Generator: Adobe Illustrator 16.0.0, SVG Export Plug-In . SVG Version: 6.00 Build 0)  -->
<!DOCTYPE svg PUBLIC "-//W3C//DTD SVG 1.1//EN" "http://www.w3.org/Graphics/SVG/1.1/DTD/svg11.dtd">
<svg version="1.1" id="Layer_2" xmlns="http://www.w3.org/2000/svg" xmlns:xlink="http://www.w3.org/1999/xlink" x="0px" y="0px"
	 width="100px" height="100px" viewBox="0 0 100 100" enable-background="new 0 0 100 100" xml:space="preserve">
<path d="M95.245,38.039H61.961V4.755c0-1.104-0.896-2-2-2H40.039c-1.104,0-2,0.896-2,2v33.284H4.755c-1.104,0-2,0.896-2,2v19.922
	c0,1.104,0.896,2,2,2h33.284v33.284c0,1.104,0.896,2,2,2h19.922c1.104,0,2-0.896,2-2V61.961h33.284c1.104,0,2-0.896,2-2V40.039
	C97.245,38.935,96.35,38.039,95.245,38.039z"/>
</svg>
