<?xml version="1.0" encoding="utf-8"?>
<!-- Generator: Adobe Illustrator 16.0.0, SVG Export Plug-In . SVG Version: 6.00 Build 0)  -->
<!DOCTYPE svg PUBLIC "-//W3C//DTD SVG 1.1//EN" "http://www.w3.org/Graphics/SVG/1.1/DTD/svg11.dtd">
<svg version="1.1" id="Layer_3" xmlns="http://www.w3.org/2000/svg" xmlns:xlink="http://www.w3.org/1999/xlink" x="0px" y="0px"
	 width="100px" height="100px" viewBox="0 0 100 100" enable-background="new 0 0 100 100" xml:space="preserve">
<path d="M97.69,48.218c-0.564-0.251-13.958-6.141-27.92-6.162v-1.811l-0.813-0.154c-2.708-0.516-6.206-0.766-10.692-0.766
	c-0.315,0-0.631,0.002-0.949,0.004L47.29,4.707c4.092-0.337,4.854-0.897,4.854-1.884c0-0.74,0-2.119-11.148-2.119
	S29.848,2.083,29.848,2.823c0,0.975,0.978,1.341,2.293,1.569v36.681c-0.862,0.062-2.121,0.126-3.35,0.189
	c-1.669,0.086-3.268,0.168-4.268,0.256l-4.967-9.955c-0.27-0.761-1.001-1.284-1.814-1.284H3.092c-0.6,0-1.154,0.271-1.522,0.747
	c-0.361,0.469-0.488,1.089-0.338,1.66l5.441,13.676c-1.928,1.108-2.869,2.296-2.869,3.612c0,1.318,0.94,2.506,2.868,3.614
	L1.27,67.145L1.23,67.264c-0.15,0.579-0.027,1.184,0.341,1.663c0.368,0.473,0.922,0.744,1.52,0.744h14.65
	c0.813,0,1.544-0.523,1.814-1.284l4.967-9.956c1.006,0.089,2.618,0.172,4.3,0.259c1.216,0.063,2.461,0.127,3.317,0.188v36.729
	c-1.315,0.229-2.293,0.596-2.293,1.569c0,0.74,0,2.119,11.148,2.119s11.148-1.379,11.148-2.119c0-0.86-0.373-1.512-4.869-1.883
	l10.04-34.673c0.318,0.003,0.634,0.004,0.949,0.004c4.483,0,7.981-0.251,10.692-0.767l0.813-0.154v-1.81
	c13.962-0.021,27.356-5.911,27.923-6.164c0.691-0.311,1.138-1,1.138-1.756S98.385,48.53,97.69,48.218z"/>
</svg>
