<?xml version="1.0" encoding="utf-8"?>
<!-- Generator: Adobe Illustrator 16.0.0, SVG Export Plug-In . SVG Version: 6.00 Build 0)  -->
<!DOCTYPE svg PUBLIC "-//W3C//DTD SVG 1.1//EN" "http://www.w3.org/Graphics/SVG/1.1/DTD/svg11.dtd">
<svg version="1.1" id="Layer_3" xmlns="http://www.w3.org/2000/svg" xmlns:xlink="http://www.w3.org/1999/xlink" x="0px" y="0px"
	 width="100px" height="100px" viewBox="0 0 100 100" enable-background="new 0 0 100 100" xml:space="preserve">
<path d="M89.457,82.876l-3.92-20.506c-0.132-0.691-0.623-1.259-1.287-1.49c-0.664-0.23-1.401-0.09-1.934,0.37L64.766,74.146
	c-0.533,0.459-0.779,1.168-0.647,1.86c0.131,0.69,0.622,1.259,1.287,1.49l3.19,1.251c-3.251,2.672-7.256,4.602-11.641,5.603V40.407
	h8.555c1.087,0,1.969-0.882,1.969-1.969v-9.623c0-1.087-0.881-1.969-1.969-1.969h-8.555V26.42c4.132-2.448,6.739-6.942,6.739-11.777
	C63.693,7.092,57.55,0.95,50,0.95S36.307,7.092,36.307,14.643c0,4.835,2.607,9.33,6.739,11.777v0.426h-8.555
	c-1.087,0-1.969,0.882-1.969,1.969v9.623c0,1.087,0.881,1.969,1.969,1.969h8.555v43.942c-4.385-1.001-8.39-2.931-11.641-5.603
	l3.19-1.251c0.665-0.231,1.155-0.799,1.287-1.49c0.132-0.691-0.114-1.4-0.647-1.86L17.684,61.25c-0.532-0.459-1.27-0.6-1.934-0.37
	c-0.664,0.231-1.154,0.799-1.287,1.49l-3.92,20.506c-0.132,0.691,0.114,1.4,0.646,1.86c0.533,0.46,1.269,0.599,1.934,0.37
	l3.816-1.328C24.553,93.367,36.796,99.05,50,99.05s25.447-5.684,33.06-15.272l3.816,1.328c0.666,0.229,1.401,0.09,1.934-0.37
	C89.342,84.276,89.589,83.567,89.457,82.876z M50,19.72c-2.8,0-5.077-2.278-5.077-5.077S47.2,9.565,50,9.565
	s5.077,2.278,5.077,5.077S52.8,19.72,50,19.72z"/>
</svg>
