<?xml version="1.0" encoding="utf-8"?>
<!-- Generator: Adobe Illustrator 16.0.0, SVG Export Plug-In . SVG Version: 6.00 Build 0)  -->
<!DOCTYPE svg PUBLIC "-//W3C//DTD SVG 1.1//EN" "http://www.w3.org/Graphics/SVG/1.1/DTD/svg11.dtd">
<svg version="1.1" id="Layer_3" xmlns="http://www.w3.org/2000/svg" xmlns:xlink="http://www.w3.org/1999/xlink" x="0px" y="0px"
	 width="100px" height="100px" viewBox="0 0 100 100" enable-background="new 0 0 100 100" xml:space="preserve">
<g>
	<path d="M9.209,36.522h58.922L57.264,47.39c-0.375,0.375-0.586,0.884-0.586,1.414s0.211,1.039,0.586,1.414l6.306,6.303
		c0.391,0.391,0.902,0.586,1.414,0.586s1.023-0.195,1.414-0.586l25.451-25.45c0.781-0.781,0.781-2.047,0-2.828L66.397,2.789
		c-0.75-0.75-2.078-0.75-2.828,0l-6.304,6.305c-0.781,0.781-0.781,2.047,0,2.828l10.865,10.867H9.209c-1.104,0-2,0.896-2,2v9.733
		C7.209,35.627,8.104,36.522,9.209,36.522z"/>
	<path d="M90.791,63.456H31.869l10.865-10.867c0.781-0.781,0.781-2.047,0-2.828l-6.304-6.305c-0.375-0.375-0.884-0.586-1.414-0.586
		s-1.039,0.211-1.414,0.586L8.151,68.909c-0.781,0.781-0.781,2.047,0,2.828l25.451,25.45c0.391,0.391,0.902,0.586,1.414,0.586
		s1.023-0.195,1.414-0.586l6.306-6.303c0.375-0.375,0.586-0.884,0.586-1.414s-0.211-1.039-0.586-1.414L31.869,77.189h58.922
		c1.104,0,2-0.896,2-2v-9.733C92.791,64.352,91.896,63.456,90.791,63.456z"/>
</g>
</svg>
