<?xml version="1.0" encoding="utf-8"?>
<!-- Generator: Adobe Illustrator 16.0.0, SVG Export Plug-In . SVG Version: 6.00 Build 0)  -->
<!DOCTYPE svg PUBLIC "-//W3C//DTD SVG 1.1//EN" "http://www.w3.org/Graphics/SVG/1.1/DTD/svg11.dtd">
<svg version="1.1" id="Layer_2" xmlns="http://www.w3.org/2000/svg" xmlns:xlink="http://www.w3.org/1999/xlink" x="0px" y="0px"
	 width="100px" height="100px" viewBox="0 0 100 100" enable-background="new 0 0 100 100" xml:space="preserve">
<g>
	<path d="M96.529,64.592L71.771,33.554c-0.76-0.952-2.367-0.952-3.127,0L43.886,64.592c-0.479,0.601-0.572,1.422-0.238,2.115
		c0.333,0.692,1.033,1.132,1.802,1.132h49.517c0.769,0,1.469-0.44,1.802-1.132C97.102,66.015,97.009,65.193,96.529,64.592z"/>
	<path d="M56.353,33.293c-0.333-0.692-1.033-1.132-1.802-1.132H5.034c-0.769,0-1.469,0.44-1.802,1.132
		c-0.334,0.692-0.241,1.514,0.238,2.115l24.758,31.038c0.38,0.476,0.955,0.753,1.563,0.753s1.184-0.277,1.563-0.753l24.759-31.038
		C56.594,34.807,56.687,33.985,56.353,33.293z"/>
</g>
</svg>
