<?xml version="1.0" encoding="utf-8"?>
<!-- Generator: Adobe Illustrator 16.0.0, SVG Export Plug-In . SVG Version: 6.00 Build 0)  -->
<!DOCTYPE svg PUBLIC "-//W3C//DTD SVG 1.1//EN" "http://www.w3.org/Graphics/SVG/1.1/DTD/svg11.dtd">
<svg version="1.1" id="Layer_2" xmlns="http://www.w3.org/2000/svg" xmlns:xlink="http://www.w3.org/1999/xlink" x="0px" y="0px"
	 width="100px" height="100px" viewBox="0 0 100 100" enable-background="new 0 0 100 100" xml:space="preserve">
<g>
	<path d="M43.018,17.021c-0.692-0.334-1.514-0.241-2.115,0.238l-39.1,31.177C1.328,48.816,1.05,49.391,1.05,50
		c0,0.608,0.277,1.184,0.753,1.563l39.1,31.19c0.361,0.288,0.802,0.437,1.248,0.437c0.295,0,0.591-0.065,0.867-0.198
		c0.692-0.333,1.132-1.034,1.132-1.802V18.823C44.15,18.055,43.71,17.354,43.018,17.021z"/>
	<path d="M98.197,48.437l-39.1-31.188c-0.601-0.479-1.423-0.573-2.115-0.238c-0.692,0.333-1.132,1.034-1.132,1.802v62.395
		c0,0.769,0.44,1.469,1.133,1.802c0.276,0.133,0.572,0.198,0.867,0.198c0.445,0,0.887-0.148,1.248-0.437l39.1-31.206
		c0.476-0.379,0.752-0.955,0.752-1.563C98.95,49.391,98.673,48.816,98.197,48.437z"/>
</g>
</svg>
