<?xml version="1.0" encoding="utf-8"?>
<!-- Generator: Adobe Illustrator 16.0.0, SVG Export Plug-In . SVG Version: 6.00 Build 0)  -->
<!DOCTYPE svg PUBLIC "-//W3C//DTD SVG 1.1//EN" "http://www.w3.org/Graphics/SVG/1.1/DTD/svg11.dtd">
<svg version="1.1" id="Layer_4" xmlns="http://www.w3.org/2000/svg" xmlns:xlink="http://www.w3.org/1999/xlink" x="0px" y="0px"
	 width="100px" height="100px" viewBox="0 0 100 100" enable-background="new 0 0 100 100" xml:space="preserve">
<g>
	<path d="M19.882,44.328h60.236c0.769,0,1.469-0.44,1.802-1.133c0.334-0.691,0.241-1.514-0.238-2.114L51.564,3.324
		c-0.38-0.476-0.955-0.753-1.563-0.753s-1.184,0.277-1.563,0.753L18.318,41.081c-0.479,0.601-0.572,1.423-0.238,2.114
		C18.413,43.888,19.113,44.328,19.882,44.328z"/>
	<path d="M80.118,55.672H19.882c-0.769,0-1.469,0.44-1.802,1.133c-0.334,0.691-0.241,1.514,0.238,2.114l30.119,37.757
		c0.38,0.476,0.955,0.753,1.563,0.753s1.184-0.277,1.563-0.753l30.117-37.757c0.479-0.601,0.572-1.423,0.238-2.114
		C81.587,56.112,80.887,55.672,80.118,55.672z"/>
</g>
</svg>
