<?xml version="1.0" encoding="utf-8"?>
<!-- Generator: Adobe Illustrator 16.0.0, SVG Export Plug-In . SVG Version: 6.00 Build 0)  -->
<!DOCTYPE svg PUBLIC "-//W3C//DTD SVG 1.1//EN" "http://www.w3.org/Graphics/SVG/1.1/DTD/svg11.dtd">
<svg version="1.1" id="Layer_4" xmlns="http://www.w3.org/2000/svg" xmlns:xlink="http://www.w3.org/1999/xlink" x="0px" y="0px"
	 width="100px" height="100px" viewBox="0 0 100 100" enable-background="new 0 0 100 100" xml:space="preserve">
<path d="M94.107,34.148c0-17.537-14.267-31.805-31.804-31.805S30.499,16.611,30.499,34.148l-0.023,34.397L17.273,55.244
	c-0.343-0.343-0.809-0.536-1.294-0.536c-0.486,0-0.951,0.193-1.294,0.536L6.42,63.511c-0.714,0.715-0.714,1.873,0,2.588
	l31.021,31.021c0.715,0.717,1.874,0.717,2.588,0l31.022-31.021c0.343-0.343,0.536-0.809,0.536-1.294
	c0-0.484-0.193-0.951-0.536-1.294l-8.266-8.267c-0.686-0.687-1.902-0.687-2.588,0l-13.25,13.302l0.025-34.397
	c0-8.453,6.878-15.33,15.33-15.33c8.454,0,15.33,6.877,15.33,15.33l-0.007,29.756c0,1.02,0.828,1.849,1.849,1.849h12.793
	c1.021,0,1.849-0.829,1.849-1.849L94.107,34.148z"/>
</svg>
