<?xml version="1.0" encoding="utf-8"?>
<!-- Generator: Adobe Illustrator 16.0.0, SVG Export Plug-In . SVG Version: 6.00 Build 0)  -->
<!DOCTYPE svg PUBLIC "-//W3C//DTD SVG 1.1//EN" "http://www.w3.org/Graphics/SVG/1.1/DTD/svg11.dtd">
<svg version="1.1" id="Layer_1" xmlns="http://www.w3.org/2000/svg" xmlns:xlink="http://www.w3.org/1999/xlink" x="0px" y="0px"
	 width="100px" height="100px" viewBox="0 0 100 100" enable-background="new 0 0 100 100" xml:space="preserve">
<path d="M96.046,13.604H84.213c-1.104,0-2,0.896-2,2v42.188H38.314v-10.77c0-0.715-0.381-1.375-1-1.732
	c-0.619-0.357-1.382-0.355-2,0L2.954,63.977c-0.619,0.357-1,1.018-1,1.732s0.381,1.375,1,1.732l32.36,18.687
	c0.309,0.179,0.655,0.268,1,0.268s0.69-0.089,1-0.268c0.619-0.357,1-1.018,1-1.732V73.625h57.732c1.104,0,2-0.896,2-2V15.604
	C98.046,14.5,97.151,13.604,96.046,13.604z"/>
</svg>
