<?xml version="1.0" encoding="utf-8"?>
<!-- Generator: Adobe Illustrator 16.0.0, SVG Export Plug-In . SVG Version: 6.00 Build 0)  -->
<!DOCTYPE svg PUBLIC "-//W3C//DTD SVG 1.1//EN" "http://www.w3.org/Graphics/SVG/1.1/DTD/svg11.dtd">
<svg version="1.1" id="Layer_2" xmlns="http://www.w3.org/2000/svg" xmlns:xlink="http://www.w3.org/1999/xlink" x="0px" y="0px"
	 width="100px" height="100px" viewBox="0 0 100 100" enable-background="new 0 0 100 100" xml:space="preserve">
<path d="M90.769,18.174c-4.233,0-7.785,2.941-8.742,6.887l-9.384,1.209c-1.595-2.538-4.411-4.233-7.622-4.233
	c-4.966,0-9.006,4.04-9.006,9.006c0,2.4,0.95,4.579,2.487,6.195l-8.384,18.858c-0.04,0-0.078-0.006-0.118-0.006
	c-1.516,0-2.943,0.38-4.197,1.044l-5.18-5.001c0.363-0.977,0.572-2.028,0.572-3.13c0-4.965-4.04-9.005-9.006-9.005
	c-4.965,0-9.005,4.04-9.005,9.005c0,1.301,0.283,2.534,0.781,3.651L12.693,64.509c-1.066-0.446-2.235-0.694-3.462-0.694
	c-4.966,0-9.006,4.04-9.006,9.006s4.04,9.006,9.006,9.006c4.965,0,9.005-4.04,9.005-9.006c0-1.386-0.324-2.694-0.886-3.868
	l11.162-11.737c1.124,0.506,2.366,0.794,3.677,0.794c1.508,0,2.929-0.377,4.179-1.035l5.19,5.013
	c-0.358,0.972-0.564,2.016-0.564,3.109c0,4.966,4.04,9.006,9.006,9.006s9.006-4.04,9.006-9.006c0-2.612-1.125-4.961-2.907-6.607
	l8.214-18.478c0.234,0.019,0.469,0.036,0.708,0.036c4.433,0,8.119-3.224,8.86-7.447l8.961-1.153
	c1.522,2.818,4.505,4.738,7.927,4.738c4.966,0,9.006-4.04,9.006-9.005C99.774,22.214,95.734,18.174,90.769,18.174z M9.231,77.826
	c-2.76,0-5.006-2.246-5.006-5.006s2.246-5.006,5.006-5.006s5.005,2.246,5.005,5.006S11.991,77.826,9.231,77.826z M27.185,49.003
	c0-2.76,2.245-5.005,5.005-5.005s5.006,2.245,5.006,5.005s-2.246,5.006-5.006,5.006S27.185,51.763,27.185,49.003z M50,70.102
	c-2.76,0-5.006-2.246-5.006-5.006S47.24,60.09,50,60.09s5.006,2.246,5.006,5.006S52.76,70.102,50,70.102z M65.021,36.047
	c-2.76,0-5.006-2.245-5.006-5.005s2.246-5.006,5.006-5.006s5.005,2.246,5.005,5.006S67.78,36.047,65.021,36.047z M90.769,32.185
	c-2.76,0-5.005-2.245-5.005-5.005s2.245-5.006,5.005-5.006s5.006,2.246,5.006,5.006S93.528,32.185,90.769,32.185z"/>
</svg>
