<?xml version="1.0" encoding="utf-8"?>
<!-- Generator: Adobe Illustrator 16.0.0, SVG Export Plug-In . SVG Version: 6.00 Build 0)  -->
<!DOCTYPE svg PUBLIC "-//W3C//DTD SVG 1.1//EN" "http://www.w3.org/Graphics/SVG/1.1/DTD/svg11.dtd">
<svg version="1.1" id="Layer_3" xmlns="http://www.w3.org/2000/svg" xmlns:xlink="http://www.w3.org/1999/xlink" x="0px" y="0px"
	 width="100px" height="100px" viewBox="0 0 100 100" enable-background="new 0 0 100 100" xml:space="preserve">
<path d="M94.288,66.073L68.012,50l26.276-16.073c0.452-0.277,0.776-0.722,0.9-1.238s0.038-1.06-0.238-1.512l-7.721-12.621
	c-0.575-0.942-1.807-1.239-2.75-0.663L59.396,33.237V3.832c0-1.104-0.896-2-2-2H42.604c-1.104,0-2,0.896-2,2v29.405L15.521,17.894
	c-0.944-0.576-2.174-0.28-2.75,0.663L5.05,31.178c-0.276,0.452-0.362,0.996-0.238,1.512s0.448,0.961,0.9,1.238L31.988,50
	L5.712,66.073c-0.452,0.277-0.776,0.722-0.9,1.238s-0.038,1.06,0.238,1.512l7.721,12.621c0.576,0.942,1.806,1.239,2.75,0.663
	l25.083-15.343v29.405c0,1.104,0.896,2,2,2h14.793c1.104,0,2-0.896,2-2V66.763l25.083,15.343c0.943,0.576,2.175,0.279,2.75-0.663
	l7.721-12.621c0.276-0.452,0.362-0.996,0.238-1.512S94.74,66.35,94.288,66.073z"/>
</svg>
