<?xml version="1.0" encoding="utf-8"?>
<!-- Generator: Adobe Illustrator 16.0.0, SVG Export Plug-In . SVG Version: 6.00 Build 0)  -->
<!DOCTYPE svg PUBLIC "-//W3C//DTD SVG 1.1//EN" "http://www.w3.org/Graphics/SVG/1.1/DTD/svg11.dtd">
<svg version="1.1" id="Layer_4" xmlns="http://www.w3.org/2000/svg" xmlns:xlink="http://www.w3.org/1999/xlink" x="0px" y="0px"
	 width="100px" height="100px" viewBox="0 0 100 100" enable-background="new 0 0 100 100" xml:space="preserve">
<path d="M60.252,78.529c0,1.638-0.947,3.128-2.429,3.823c-0.573,0.27-1.187,0.402-1.797,0.402c-0.966,0-1.923-0.332-2.696-0.972
	l-23.097-19.14H17.931c-2.334,0-4.226-1.893-4.226-4.226V41.583c0-2.334,1.892-4.226,4.226-4.226h12.303l23.097-19.14
	c1.263-1.046,3.012-1.269,4.493-0.569c1.481,0.695,2.429,2.185,2.429,3.823V78.529z M76.488,71.927
	c-0.101,0.007-0.202,0.011-0.303,0.011c-1.116,0-2.193-0.441-2.988-1.237l-0.566-0.568c-1.481-1.479-1.655-3.822-0.407-5.504
	c3.163-4.265,4.834-9.323,4.834-14.628c0-5.706-1.897-11.058-5.485-15.478c-1.366-1.68-1.24-4.12,0.291-5.65l0.564-0.565
	c0.845-0.844,1.975-1.304,3.2-1.231c1.192,0.06,2.305,0.621,3.06,1.545c4.977,6.09,7.607,13.484,7.607,21.38
	c0,7.354-2.325,14.354-6.725,20.241C78.836,71.224,77.712,71.839,76.488,71.927z"/>
</svg>
