<?xml version="1.0" encoding="utf-8"?>
<!-- Generator: Adobe Illustrator 16.0.0, SVG Export Plug-In . SVG Version: 6.00 Build 0)  -->
<!DOCTYPE svg PUBLIC "-//W3C//DTD SVG 1.1//EN" "http://www.w3.org/Graphics/SVG/1.1/DTD/svg11.dtd">
<svg version="1.1" id="Layer_1" xmlns="http://www.w3.org/2000/svg" xmlns:xlink="http://www.w3.org/1999/xlink" x="0px" y="0px"
	 width="100px" height="100px" viewBox="0 0 100 100" enable-background="new 0 0 100 100" xml:space="preserve">
<g>
	<path d="M15.062,43.024c0.158,0.604,0.626,1.08,1.229,1.246c0.153,0.041,0.309,0.062,0.464,0.062c0.454,0,0.897-0.177,1.229-0.504
		L29.133,32.83c0.445-0.439,0.622-1.083,0.464-1.688c-0.158-0.605-0.626-1.08-1.229-1.246l-1.561-0.429
		c4.002-4.794,10.006-7.688,16.308-7.806c0.954-0.018,1.717-0.797,1.717-1.75v-6.956c0-0.468-0.188-0.916-0.521-1.245
		s-0.798-0.48-1.252-0.504C31.923,11.359,21.893,17.07,16.091,26.52l-2.826-0.777c-0.603-0.165-1.248,0.004-1.693,0.441
		c-0.445,0.439-0.622,1.083-0.464,1.688L15.062,43.024z"/>
	<path d="M97.228,0.667h-46.56c-1.104,0-2,0.896-2,2v46.106H2.772c-1.104,0-2,0.896-2,2v46.56c0,1.104,0.896,2,2,2h73.703
		c0.007,0,0.014,0,0.02,0c1.104,0,2-0.896,2-2c0-0.097-0.007-0.191-0.02-0.284l-0.001-18.681h18.754c1.104,0,2-0.896,2-2V2.667
		C99.228,1.563,98.332,0.667,97.228,0.667z M9.709,90.396V57.71h59.827v32.686H9.709z M76.474,48.773H57.604V9.604h32.686v59.826
		H78.474V50.773C78.474,49.669,77.578,48.773,76.474,48.773z"/>
</g>
</svg>
