<?xml version="1.0" encoding="utf-8"?>
<!-- Generator: Adobe Illustrator 16.0.0, SVG Export Plug-In . SVG Version: 6.00 Build 0)  -->
<!DOCTYPE svg PUBLIC "-//W3C//DTD SVG 1.1//EN" "http://www.w3.org/Graphics/SVG/1.1/DTD/svg11.dtd">
<svg version="1.1" id="Layer_3" xmlns="http://www.w3.org/2000/svg" xmlns:xlink="http://www.w3.org/1999/xlink" x="0px" y="0px"
	 width="100px" height="100px" viewBox="0 0 100 100" enable-background="new 0 0 100 100" xml:space="preserve">
<path d="M94,4H6C4.896,4,4,4.896,4,6v88c0,1.104,0.896,2,2,2h88c1.104,0,2-0.896,2-2V6C96,4.896,95.104,4,94,4z M66.349,80.338
	c0,0.511-0.384,0.971-0.979,1.166c-0.59,0.197-1.271,0.088-1.723-0.273L25.613,50.893c-0.309-0.247-0.465-0.57-0.465-0.893
	s0.156-0.646,0.465-0.892L63.647,18.77c0.452-0.362,1.133-0.47,1.723-0.273c0.595,0.194,0.979,0.654,0.979,1.166V80.338z"/>
</svg>
