<?xml version="1.0" encoding="utf-8"?>
<!-- Generator: Adobe Illustrator 16.0.0, SVG Export Plug-In . SVG Version: 6.00 Build 0)  -->
<!DOCTYPE svg PUBLIC "-//W3C//DTD SVG 1.1//EN" "http://www.w3.org/Graphics/SVG/1.1/DTD/svg11.dtd">
<svg version="1.1" id="Layer_2" xmlns="http://www.w3.org/2000/svg" xmlns:xlink="http://www.w3.org/1999/xlink" x="0px" y="0px"
	 width="100px" height="100px" viewBox="0 0 100 100" enable-background="new 0 0 100 100" xml:space="preserve">
<path d="M35.838,14.691L1.944,48.586c-0.781,0.781-0.781,2.047,0,2.828l33.894,33.895c0.781,0.781,2.047,0.781,2.828,0l9.031-9.029
	c0.375-0.375,0.586-0.884,0.586-1.414s-0.211-1.039-0.586-1.414L33.165,58.917h63.478c1.104,0,2-0.896,2-2V43.083
	c0-1.104-0.896-2-2-2H33.165L47.697,26.55c0.75-0.75,0.75-2.078,0-2.828l-9.031-9.031c-0.375-0.375-0.884-0.586-1.414-0.586
	S36.213,14.316,35.838,14.691z"/>
</svg>
