<?xml version="1.0" encoding="utf-8"?>
<!-- Generator: Adobe Illustrator 16.0.0, SVG Export Plug-In . SVG Version: 6.00 Build 0)  -->
<!DOCTYPE svg PUBLIC "-//W3C//DTD SVG 1.1//EN" "http://www.w3.org/Graphics/SVG/1.1/DTD/svg11.dtd">
<svg version="1.1" id="Layer_3" xmlns="http://www.w3.org/2000/svg" xmlns:xlink="http://www.w3.org/1999/xlink" x="0px" y="0px"
	 width="100px" height="100px" viewBox="0 0 100 100" enable-background="new 0 0 100 100" xml:space="preserve">
<path d="M83.03,46.333c0-19.767-12.559-36.072-28.802-38.515V5.509c0-2.335-1.893-4.228-4.228-4.228s-4.228,1.893-4.228,4.228v2.309
	C29.529,10.261,16.97,26.566,16.97,46.333c0,19.87-19.711,36.253,21.892,38.563c-0.174,0.788-0.265,1.599-0.265,2.42
	c0,6.288,5.115,11.403,11.403,11.403s11.403-5.115,11.403-11.403c0-0.821-0.091-1.632-0.265-2.42
	C102.741,82.586,83.03,66.203,83.03,46.333z"/>
</svg>
