<?xml version="1.0" encoding="utf-8"?>
<!-- Generator: Adobe Illustrator 16.0.0, SVG Export Plug-In . SVG Version: 6.00 Build 0)  -->
<!DOCTYPE svg PUBLIC "-//W3C//DTD SVG 1.1//EN" "http://www.w3.org/Graphics/SVG/1.1/DTD/svg11.dtd">
<svg version="1.1" id="Layer_3" xmlns="http://www.w3.org/2000/svg" xmlns:xlink="http://www.w3.org/1999/xlink" x="0px" y="0px"
	 width="100px" height="100px" viewBox="0 0 100 100" enable-background="new 0 0 100 100" xml:space="preserve">
<g>
	<path d="M77.508,22.787c-7.803-1.021-7.188,6.1-8.719,11.448c-0.799,2.797-4.264,1.256-6.268,1.079
		c-1.664-0.148-3.311-0.009-4.754,0.725c-5.977-5.064-13.703-8.125-22.148-8.125c-18.932,0-34.281,15.348-34.281,34.281
		c0,18.934,15.35,34.281,34.281,34.281S69.9,81.128,69.9,62.195c0-8.524-3.119-16.315-8.268-22.312
		c0.779-0.081,1.689-0.041,2.783,0.168c2.682,0.511,5.266,0.126,7.141-1.957c1.469-1.632,1.818-3.988,2.088-6.077
		c0.375-2.903,0.309-5.336,3.863-4.872C80.289,27.51,80.254,23.146,77.508,22.787z M24.318,49.074
		c-4.586,3.271-7.322,8.581-7.322,14.204c0,2.209-1.791,4-4,4s-4-1.791-4-4c0-8.202,3.99-15.947,10.676-20.717
		c1.795-1.282,4.295-0.868,5.578,0.933C26.533,45.293,26.117,47.791,24.318,49.074z"/>
	<path d="M62.469,16.707c0.504,1.093,1.801,1.57,2.893,1.066c1.09-0.502,1.568-1.799,1.066-2.892L61.773,4.791
		c-0.504-1.093-1.799-1.57-2.893-1.066c-0.357,0.165-0.65,0.417-0.865,0.719c-0.434,0.615-0.537,1.438-0.199,2.171L62.469,16.707z"
		/>
	<path d="M76.504,17.821c1.088,0.513,2.385,0.046,2.9-1.042l4.738-10.051c0.514-1.089,0.049-2.388-1.041-2.9
		c-0.971-0.458-2.109-0.137-2.709,0.71c-0.07,0.103-0.135,0.213-0.191,0.331l-4.74,10.051
		C74.949,16.009,75.414,17.307,76.504,17.821z"/>
	<path d="M98.59,22.448c-0.307-1.165-1.498-1.859-2.66-1.553l-10.748,2.829c-0.516,0.136-0.938,0.446-1.223,0.85
		c-0.361,0.507-0.5,1.166-0.33,1.813c0.307,1.164,1.498,1.858,2.664,1.552l10.744-2.831C98.201,24.804,98.896,23.612,98.59,22.448z"
		/>
	<path d="M93.76,43.244l-9.074-6.413c-0.984-0.694-2.344-0.461-3.037,0.521c-0.695,0.983-0.461,2.343,0.523,3.037l9.074,6.413
		c0.982,0.695,2.342,0.461,3.037-0.521C94.977,45.298,94.744,43.938,93.76,43.244z"/>
</g>
</svg>
