<?xml version="1.0" encoding="utf-8"?>
<!-- Generator: Adobe Illustrator 16.0.0, SVG Export Plug-In . SVG Version: 6.00 Build 0)  -->
<!DOCTYPE svg PUBLIC "-//W3C//DTD SVG 1.1//EN" "http://www.w3.org/Graphics/SVG/1.1/DTD/svg11.dtd">
<svg version="1.1" id="Layer_2" xmlns="http://www.w3.org/2000/svg" xmlns:xlink="http://www.w3.org/1999/xlink" x="0px" y="0px"
	 width="100px" height="100px" viewBox="0 0 100 100" enable-background="new 0 0 100 100" xml:space="preserve">
<path d="M92.5,1.15h-4.684c-1.104,0-2,0.896-2,2v87.021l-54.68-0.009c-3.983,0-7.225-3.24-7.225-7.223
	c0-3.983,3.241-7.225,7.225-7.225h42.701c1.104,0,2-0.896,2-2V3.146c0-1.104-0.896-2-2-2H28.484C15.811,1.146,5.5,11.457,5.5,24.131
	V75.87c0,12.673,10.311,22.983,22.984,22.983H92.5c1.104,0,2-0.896,2-2V3.15C94.5,2.046,93.604,1.15,92.5,1.15z M30.334,11.166
	c0-1.93,1.57-3.5,3.5-3.5s3.5,1.57,3.5,3.5v54.5c0,1.93-1.57,3.5-3.5,3.5s-3.5-1.57-3.5-3.5V11.166z"/>
</svg>
