<?xml version="1.0" encoding="utf-8"?>
<!-- Generator: Adobe Illustrator 16.0.0, SVG Export Plug-In . SVG Version: 6.00 Build 0)  -->
<!DOCTYPE svg PUBLIC "-//W3C//DTD SVG 1.1//EN" "http://www.w3.org/Graphics/SVG/1.1/DTD/svg11.dtd">
<svg version="1.1" id="Layer_2" xmlns="http://www.w3.org/2000/svg" xmlns:xlink="http://www.w3.org/1999/xlink" x="0px" y="0px"
	 width="100px" height="100px" viewBox="0 0 100 100" enable-background="new 0 0 100 100" xml:space="preserve">
<g>
	<path d="M82.258,60.241H43.73c-1.075,0-1.946,0.872-1.946,1.946v13.015c0,1.075,0.872,1.946,1.946,1.946h38.528
		c1.075,0,1.946-0.872,1.946-1.946V62.188C84.204,61.113,83.333,60.241,82.258,60.241z"/>
	<path d="M30.665,36.524H17.742c-1.075,0-1.946,0.871-1.946,1.946v2.811c0,1.075,0.871,1.946,1.946,1.946h12.923
		c1.075,0,1.946-0.871,1.946-1.946V38.47C32.611,37.395,31.74,36.524,30.665,36.524z"/>
	<path d="M96.328,8.25H3.672c-1.075,0-1.946,0.872-1.946,1.946v79.609c0,1.074,0.872,1.946,1.946,1.946h92.656
		c1.074,0,1.946-0.872,1.946-1.946V10.195C98.274,9.121,97.402,8.25,96.328,8.25z M89.924,81.841c0,1.074-0.872,1.946-1.946,1.946
		H12.022c-1.075,0-1.946-0.872-1.946-1.946V31.457c0-1.075,0.872-1.946,1.946-1.946h75.955c1.075,0,1.946,0.871,1.946,1.946V81.841z
		"/>
	<path d="M30.665,60.241H17.742c-1.075,0-1.946,0.872-1.946,1.946v2.811c0,1.075,0.871,1.946,1.946,1.946h12.923
		c1.075,0,1.946-0.871,1.946-1.946v-2.811C32.611,61.113,31.74,60.241,30.665,60.241z"/>
	<path d="M82.258,36.524H43.73c-1.075,0-1.946,0.871-1.946,1.946v13.016c0,1.075,0.872,1.946,1.946,1.946h38.528
		c1.075,0,1.946-0.872,1.946-1.946V38.47C84.204,37.395,83.333,36.524,82.258,36.524z"/>
</g>
</svg>
