<?xml version="1.0" encoding="utf-8"?>
<!-- Generator: Adobe Illustrator 16.0.0, SVG Export Plug-In . SVG Version: 6.00 Build 0)  -->
<!DOCTYPE svg PUBLIC "-//W3C//DTD SVG 1.1//EN" "http://www.w3.org/Graphics/SVG/1.1/DTD/svg11.dtd">
<svg version="1.1" id="Layer_3" xmlns="http://www.w3.org/2000/svg" xmlns:xlink="http://www.w3.org/1999/xlink" x="0px" y="0px"
	 width="100px" height="100px" viewBox="0 0 100 100" enable-background="new 0 0 100 100" xml:space="preserve">
<g>
	<path d="M64.417,64.583h8.917c0.829,0,1.5-0.671,1.5-1.5v-8.917c0-0.829-0.671-1.5-1.5-1.5h-8.917c-0.829,0-1.5,0.671-1.5,1.5
		v8.917C62.917,63.911,63.588,64.583,64.417,64.583z"/>
	<path d="M64.417,45.708h8.917c0.829,0,1.5-0.671,1.5-1.5v-8.917c0-0.829-0.671-1.5-1.5-1.5h-8.917c-0.829,0-1.5,0.671-1.5,1.5
		v8.917C62.917,45.036,63.588,45.708,64.417,45.708z"/>
	<path d="M64.417,26.833h8.917c0.829,0,1.5-0.671,1.5-1.5v-8.917c0-0.829-0.671-1.5-1.5-1.5h-8.917c-0.829,0-1.5,0.671-1.5,1.5
		v8.917C62.917,26.162,63.588,26.833,64.417,26.833z"/>
	<path d="M45.542,45.708h8.917c0.829,0,1.5-0.671,1.5-1.5v-8.917c0-0.829-0.671-1.5-1.5-1.5h-8.917c-0.829,0-1.5,0.671-1.5,1.5
		v8.917C44.042,45.036,44.713,45.708,45.542,45.708z"/>
	<path d="M45.542,26.833h8.917c0.829,0,1.5-0.671,1.5-1.5v-8.917c0-0.829-0.671-1.5-1.5-1.5h-8.917c-0.829,0-1.5,0.671-1.5,1.5
		v8.917C44.042,26.162,44.713,26.833,45.542,26.833z"/>
	<path d="M26.667,64.583h8.917c0.829,0,1.5-0.671,1.5-1.5v-8.917c0-0.829-0.671-1.5-1.5-1.5h-8.917c-0.829,0-1.5,0.671-1.5,1.5
		v8.917C25.167,63.911,25.838,64.583,26.667,64.583z"/>
	<path d="M45.542,64.583h8.917c0.829,0,1.5-0.671,1.5-1.5v-8.917c0-0.829-0.671-1.5-1.5-1.5h-8.917c-0.829,0-1.5,0.671-1.5,1.5
		v8.917C44.042,63.911,44.713,64.583,45.542,64.583z"/>
	<path d="M26.667,45.708h8.917c0.829,0,1.5-0.671,1.5-1.5v-8.917c0-0.829-0.671-1.5-1.5-1.5h-8.917c-0.829,0-1.5,0.671-1.5,1.5
		v8.917C25.167,45.036,25.838,45.708,26.667,45.708z"/>
	<path d="M26.667,26.833h8.917c0.829,0,1.5-0.671,1.5-1.5v-8.917c0-0.829-0.671-1.5-1.5-1.5h-8.917c-0.829,0-1.5,0.671-1.5,1.5
		v8.917C25.167,26.162,25.838,26.833,26.667,26.833z"/>
	<path d="M83.042,4.086H16.958c-1.104,0-2,0.896-2,2v87.828c0,1.104,0.896,2,2,2h19.375c1.104,0,2-0.896,2-2V78h23.333v15.914
		c0,1.104,0.896,2,2,2h19.375c1.104,0,2-0.896,2-2V6.086C85.042,4.981,84.146,4.086,83.042,4.086z M79.042,89.914H67.667V78v-6h-6
		H38.333h-6v6v11.914H20.958V10.086h58.084V89.914z"/>
</g>
</svg>
