<?xml version="1.0" encoding="utf-8"?>
<!-- Generator: Adobe Illustrator 16.0.0, SVG Export Plug-In . SVG Version: 6.00 Build 0)  -->
<!DOCTYPE svg PUBLIC "-//W3C//DTD SVG 1.1//EN" "http://www.w3.org/Graphics/SVG/1.1/DTD/svg11.dtd">
<svg version="1.1" id="Layer_3" xmlns="http://www.w3.org/2000/svg" xmlns:xlink="http://www.w3.org/1999/xlink" x="0px" y="0px"
	 width="100px" height="100px" viewBox="0 0 100 100" enable-background="new 0 0 100 100" xml:space="preserve">
<g>
	<path d="M79.746,64.573c-0.433-4.479-1.722-9.157-3.727-13.527c-1.82-3.981-4.206-7.787-7.089-11.307
		c-0.81-0.994-1.633-1.946-2.058-2.385l-0.979-1.07c-0.239-0.274-0.441-0.494-0.639-0.689l-0.293-0.297
		c-0.32-0.322-0.65-0.656-0.924-0.99c-0.021-0.027-0.044-0.053-0.068-0.079c-0.133-0.146-0.276-0.292-0.436-0.455
		c-0.208-0.211-0.444-0.446-0.654-0.71c-0.027-0.033-0.055-0.065-0.083-0.098c-1.492-1.64-2.747-3.131-3.835-4.555
		c-1.274-1.677-2.174-3.064-2.922-4.51c-0.866-1.647-1.513-3.48-1.924-5.462c-0.388-1.795-0.616-3.855-0.676-6.13
		c-0.06-2.02,0.063-3.961,0.19-5.58c0.092-1.078,0.196-2.032,0.298-2.875c0.079-0.657-0.172-1.311-0.671-1.746
		c-0.5-0.436-1.182-0.597-1.821-0.428c-0.954,0.249-1.932,0.579-2.9,0.979c-2.033,0.829-4.033,1.982-5.947,3.431
		c-2.441,1.853-4.58,4.142-6.356,6.799c-2.18,3.247-3.723,7.066-4.46,11.031c-0.841,4.363-0.748,9.286,0.26,13.854
		c0.957,4.422,2.81,8.938,5.366,13.073c1.351,2.154,2.646,3.954,3.928,5.464c0.382,0.475,1.434,1.703,1.445,1.717l0.42,0.482
		c0.294,0.333,0.504,0.584,0.718,0.839c0.198,0.236,0.361,0.43,0.543,0.624l0.031,0.033c2,2.391,3.41,4.148,4.574,5.702
		c1.286,1.71,2.417,3.368,3.456,5.066c1.107,1.815,1.898,3.401,2.488,4.986c0.666,1.802,1.105,3.756,1.307,5.816
		c0.186,1.811,0.187,3.844,0.005,6.2c-0.184,2.137-0.517,4.085-0.78,5.512c-0.196,0.975-0.387,1.877-0.563,2.655
		c-0.148,0.659,0.045,1.349,0.516,1.833c0.38,0.393,0.899,0.607,1.435,0.607c0.127,0,0.255-0.012,0.382-0.037
		c0.939-0.183,1.843-0.423,2.738-0.727c2.09-0.68,4.153-1.669,6.122-2.932c2.556-1.616,4.863-3.687,6.856-6.153
		c2.416-2.988,4.303-6.575,5.456-10.37C79.768,73.939,80.208,69.237,79.746,64.573z"/>
	<path d="M40.537,76.82c-0.833-1.822-1.923-3.561-3.234-5.161c-0.33-0.405-0.729-0.87-0.924-1.072l-0.461-0.504
		c-0.12-0.135-0.207-0.229-0.299-0.322l-0.126-0.127c-0.146-0.147-0.292-0.295-0.416-0.444c-0.022-0.026-0.045-0.053-0.069-0.078
		l-0.173-0.18c-0.101-0.103-0.2-0.205-0.285-0.31c-0.022-0.027-0.045-0.054-0.069-0.08c-0.659-0.723-1.226-1.396-1.725-2.047
		c-0.422-0.559-0.911-1.24-1.343-2.072c-0.395-0.752-0.689-1.586-0.878-2.495c-0.176-0.818-0.279-1.757-0.307-2.794
		c-0.025-0.862,0.023-1.675,0.062-2.212c0.051-0.709-0.279-1.393-0.867-1.794c-0.588-0.402-1.344-0.459-1.987-0.155
		c-0.74,0.353-1.467,0.797-2.163,1.324c-1.114,0.846-2.09,1.89-2.898,3.1c-0.694,1.033-1.611,2.747-2.036,5.031
		c-0.385,1.996-0.344,4.246,0.116,6.328c0.437,2.021,1.283,4.084,2.454,5.979c0.617,0.982,1.207,1.802,1.775,2.472
		c0.167,0.207,0.529,0.626,0.69,0.813l-0.003,0.003l0.178,0.202c0.141,0.16,0.24,0.278,0.337,0.395
		c0.084,0.102,0.156,0.187,0.223,0.258l0.031,0.033c0.617,0.737,1.412,1.7,2.091,2.607c0.59,0.784,1.105,1.539,1.576,2.313
		c0.503,0.822,0.864,1.545,1.133,2.268c0.304,0.825,0.505,1.719,0.598,2.665c0.085,0.826,0.085,1.753,0.003,2.816
		c-0.054,0.631-0.143,1.297-0.269,2.036c-0.123,0.715,0.152,1.441,0.717,1.896c0.361,0.29,0.805,0.441,1.254,0.441
		c0.253,0,0.509-0.048,0.751-0.146c0.696-0.283,1.385-0.642,2.035-1.059c1.167-0.736,2.222-1.683,3.137-2.814
		c1.102-1.362,1.963-3,2.49-4.732c0.583-1.903,0.789-4.108,0.583-6.206C42.039,80.95,41.451,78.814,40.537,76.82z"/>
</g>
</svg>
