<?xml version="1.0" encoding="utf-8"?>
<!-- Generator: Adobe Illustrator 16.0.0, SVG Export Plug-In . SVG Version: 6.00 Build 0)  -->
<!DOCTYPE svg PUBLIC "-//W3C//DTD SVG 1.1//EN" "http://www.w3.org/Graphics/SVG/1.1/DTD/svg11.dtd">
<svg version="1.1" id="Layer_2" xmlns="http://www.w3.org/2000/svg" xmlns:xlink="http://www.w3.org/1999/xlink" x="0px" y="0px"
	 width="100px" height="100px" viewBox="0 0 100 100" enable-background="new 0 0 100 100" xml:space="preserve">
<path d="M90.329,1.667H9.671c-1.104,0-2,0.896-2,2v92.666c0,1.104,0.896,2,2,2h80.657c1.104,0,2-0.896,2-2V3.667
	C92.329,2.563,91.433,1.667,90.329,1.667z M52.68,48.664c0.421,0,0.821,0.183,1.097,0.501c0.276,0.318,0.399,0.741,0.338,1.157
	c-1.258,8.645-8.797,15.164-17.537,15.164c-9.785,0-17.747-7.961-17.747-17.747c0-9.03,6.777-16.606,15.765-17.622
	c0.407-0.05,0.821,0.084,1.129,0.358c0.308,0.276,0.484,0.67,0.484,1.082v17.106H52.68z M38.503,46.487V28.546
	c0-0.222,0.092-0.434,0.253-0.585c0.161-0.151,0.377-0.229,0.6-0.215c9.563,0.63,17.004,8.329,17.31,17.91
	c0.007,0.217-0.074,0.427-0.226,0.583c-0.15,0.155-0.358,0.243-0.575,0.243L38.503,46.487z M81.722,86.167
	c0,0.828-0.671,1.5-1.5,1.5H21.418c-0.829,0-1.5-0.672-1.5-1.5v-5.751c0-0.828,0.671-1.5,1.5-1.5h58.804c0.829,0,1.5,0.672,1.5,1.5
	V86.167z M81.722,69.283c0,0.828-0.671,1.5-1.5,1.5H63.533c-0.829,0-1.5-0.672-1.5-1.5v-5.751c0-0.828,0.671-1.5,1.5-1.5h16.689
	c0.829,0,1.5,0.672,1.5,1.5V69.283z M81.722,56.294c0,0.828-0.671,1.5-1.5,1.5H63.533c-0.829,0-1.5-0.672-1.5-1.5V43.706
	c0-0.828,0.671-1.5,1.5-1.5h16.689c0.829,0,1.5,0.672,1.5,1.5V56.294z M81.722,36.468c0,0.828-0.671,1.5-1.5,1.5H63.533
	c-0.829,0-1.5-0.672-1.5-1.5v-5.751c0-0.828,0.671-1.5,1.5-1.5h16.689c0.829,0,1.5,0.672,1.5,1.5V36.468z M81.722,19.584
	c0,0.828-0.671,1.5-1.5,1.5H21.418c-0.829,0-1.5-0.672-1.5-1.5v-5.751c0-0.828,0.671-1.5,1.5-1.5h58.804c0.829,0,1.5,0.672,1.5,1.5
	V19.584z"/>
</svg>
