<?xml version="1.0" encoding="utf-8"?>
<!-- Generator: Adobe Illustrator 16.0.0, SVG Export Plug-In . SVG Version: 6.00 Build 0)  -->
<!DOCTYPE svg PUBLIC "-//W3C//DTD SVG 1.1//EN" "http://www.w3.org/Graphics/SVG/1.1/DTD/svg11.dtd">
<svg version="1.1" id="Layer_3" xmlns="http://www.w3.org/2000/svg" xmlns:xlink="http://www.w3.org/1999/xlink" x="0px" y="0px"
	 width="100px" height="100px" viewBox="0 0 100 100" enable-background="new 0 0 100 100" xml:space="preserve">
<g>
	<path d="M62.5,25.5v-21c0-1.105-0.896-2-2-2h-21c-1.104,0-2,0.895-2,2v21c0,1.105,0.896,2,2,2h21
		C61.604,27.5,62.5,26.605,62.5,25.5z"/>
	<path d="M62.5,60.5v-21c0-1.105-0.896-2-2-2h-21c-1.104,0-2,0.895-2,2v21c0,1.105,0.896,2,2,2h21
		C61.604,62.5,62.5,61.605,62.5,60.5z"/>
	<path d="M62.5,95.5v-21c0-1.105-0.896-2-2-2h-21c-1.104,0-2,0.895-2,2v21c0,1.105,0.896,2,2,2h21
		C61.604,97.5,62.5,96.605,62.5,95.5z"/>
</g>
</svg>
