<?xml version="1.0" encoding="utf-8"?>
<!-- Generator: Adobe Illustrator 16.0.0, SVG Export Plug-In . SVG Version: 6.00 Build 0)  -->
<!DOCTYPE svg PUBLIC "-//W3C//DTD SVG 1.1//EN" "http://www.w3.org/Graphics/SVG/1.1/DTD/svg11.dtd">
<svg version="1.1" id="Layer_2" xmlns="http://www.w3.org/2000/svg" xmlns:xlink="http://www.w3.org/1999/xlink" x="0px" y="0px"
	 width="100px" height="100px" viewBox="0 0 100 100" enable-background="new 0 0 100 100" xml:space="preserve">
<g>
	<path d="M78.923,2.453H21.077c-2.16,0-3.918,1.758-3.918,3.919v87.256c0,2.161,1.758,3.919,3.918,3.919h57.846
		c2.16,0,3.918-1.758,3.918-3.919V6.372C82.841,4.211,81.083,2.453,78.923,2.453z M24.996,10.29h50.008v40.512H24.996V10.29z
		 M35.643,91.498H24.875v-6.282h10.768V91.498z M35.643,77.141H24.875v-6.281h10.768V77.141z M35.643,62.783H24.875v-6.281h10.768
		V62.783z M48.804,91.498H38.035v-6.282h10.769V91.498z M48.804,77.141H38.035v-6.281h10.769V77.141z M48.804,62.783H38.035v-6.281
		h10.769V62.783z M61.965,91.498H51.196v-6.282h10.769V91.498z M61.965,77.141H51.196v-6.281h10.769V77.141z M61.965,62.783H51.196
		v-6.281h10.769V62.783z M75.125,91.498H64.357v-6.282h10.768V91.498z M75.125,77.141H64.357v-6.281h10.768V77.141z M75.125,62.783
		H64.357v-6.281h10.768V62.783z"/>
	<path d="M28.649,14.432v10.566l11.834-11.835H29.918C29.216,13.163,28.649,13.73,28.649,14.432z"/>
</g>
</svg>
