<?xml version="1.0" encoding="utf-8"?>
<!-- Generator: Adobe Illustrator 16.0.0, SVG Export Plug-In . SVG Version: 6.00 Build 0)  -->
<!DOCTYPE svg PUBLIC "-//W3C//DTD SVG 1.1//EN" "http://www.w3.org/Graphics/SVG/1.1/DTD/svg11.dtd">
<svg version="1.1" id="Layer_3" xmlns="http://www.w3.org/2000/svg" xmlns:xlink="http://www.w3.org/1999/xlink" x="0px" y="0px"
	 width="100px" height="100px" viewBox="0 0 100 100" enable-background="new 0 0 100 100" xml:space="preserve">
<path d="M50,7.188c-27.065,0-49.084,15.565-49.084,34.698c0,10.685,6.713,20.541,18.449,27.143
	c-1.918,6.856-4.955,15.679-8.855,20.388c-0.536,0.646-0.629,1.544-0.237,2.289c0.36,0.682,1.063,1.105,1.833,1.105l0.188-0.009
	c0.901-0.083,22.076-2.161,35.874-16.245c0.607,0.017,1.219,0.027,1.832,0.027c27.065,0,49.084-15.565,49.084-34.698
	S77.065,7.188,50,7.188z M28.256,70.647l1.674-6.119l-5.576-3.025C15.179,56.527,9.916,49.377,9.916,41.887
	c0-13.93,18.356-25.698,40.084-25.698s40.084,11.769,40.084,25.698S71.728,67.585,50,67.585c-0.602,0-1.249-0.012-1.98-0.036
	l-3.566-0.117l-2.47,2.575c-4.227,4.406-9.883,7.928-16.836,10.485C26.234,77.526,27.276,74.225,28.256,70.647z"/>
</svg>
