<?xml version="1.0" encoding="utf-8"?>
<!-- Generator: Adobe Illustrator 16.0.0, SVG Export Plug-In . SVG Version: 6.00 Build 0)  -->
<!DOCTYPE svg PUBLIC "-//W3C//DTD SVG 1.1//EN" "http://www.w3.org/Graphics/SVG/1.1/DTD/svg11.dtd">
<svg version="1.1" id="Layer_3" xmlns="http://www.w3.org/2000/svg" xmlns:xlink="http://www.w3.org/1999/xlink" x="0px" y="0px"
	 width="100px" height="100px" viewBox="0 0 100 100" enable-background="new 0 0 100 100" xml:space="preserve">
<path d="M50,8.188c-26.514,0-48.084,15.117-48.084,33.698c0,10.548,6.774,20.222,18.623,26.649c-1.98,7.237-5.137,16.542-9.26,21.52
	c-0.276,0.333-0.324,0.8-0.122,1.184c0.187,0.354,0.553,0.572,0.948,0.572c0.033,0,0.065-0.002,0.098-0.005
	c0.9-0.082,22.03-2.163,35.554-16.262c0.743,0.024,1.491,0.04,2.243,0.04c26.514,0,48.084-15.117,48.084-33.698
	S76.514,8.188,50,8.188z"/>
</svg>
