<?xml version="1.0" encoding="utf-8"?>
<!-- Generator: Adobe Illustrator 16.0.0, SVG Export Plug-In . SVG Version: 6.00 Build 0)  -->
<!DOCTYPE svg PUBLIC "-//W3C//DTD SVG 1.1//EN" "http://www.w3.org/Graphics/SVG/1.1/DTD/svg11.dtd">
<svg version="1.1" id="Layer_1" xmlns="http://www.w3.org/2000/svg" xmlns:xlink="http://www.w3.org/1999/xlink" x="0px" y="0px"
	 width="100px" height="100px" viewBox="0 0 100 100" enable-background="new 0 0 100 100" xml:space="preserve">
<g>
	<path d="M62.607,54.161c0.92,0,1.67-0.749,1.67-1.67V7.178c0-0.92-0.75-1.67-1.67-1.67H3.128c-0.921,0-1.67,0.75-1.67,1.67v45.313
		c0,0.921,0.75,1.67,1.67,1.67h22.114v14.592c0,0.642,0.374,1.234,0.953,1.509c0.217,0.103,0.462,0.158,0.71,0.158
		c0.391,0,0.768-0.132,1.063-0.372l19.484-15.888H62.607z"/>
	<path d="M96.872,29.579H67.704v26.338c0,0.921-0.75,1.67-1.67,1.67H50.879L35.723,69.946v6.616c0,0.921,0.75,1.67,1.67,1.67h4.381
		L61.258,94.12c0.295,0.239,0.672,0.372,1.063,0.372c0.248,0,0.493-0.055,0.71-0.158c0.579-0.275,0.953-0.868,0.953-1.509V78.232
		h32.888c0.921,0,1.67-0.75,1.67-1.67V31.25C98.542,30.328,97.793,29.579,96.872,29.579z"/>
</g>
</svg>
