<?xml version="1.0" encoding="utf-8"?>
<!-- Generator: Adobe Illustrator 16.0.0, SVG Export Plug-In . SVG Version: 6.00 Build 0)  -->
<!DOCTYPE svg PUBLIC "-//W3C//DTD SVG 1.1//EN" "http://www.w3.org/Graphics/SVG/1.1/DTD/svg11.dtd">
<svg version="1.1" id="Layer_3" xmlns="http://www.w3.org/2000/svg" xmlns:xlink="http://www.w3.org/1999/xlink" x="0px" y="0px"
	 width="100px" height="100px" viewBox="0 0 100 100" enable-background="new 0 0 100 100" xml:space="preserve">
<g>
	<path d="M80.974,39.41c0-15.485-17.976-28.083-40.071-28.083C18.806,11.327,0.83,23.925,0.83,39.41
		c0,8.789,5.646,16.851,15.52,22.209c-1.65,6.029-4.281,13.786-7.717,17.933c-0.23,0.278-0.271,0.667-0.102,0.987
		c0.155,0.294,0.46,0.477,0.79,0.477c0.027,0,0.055-0.002,0.082-0.003c0.75-0.068,18.359-1.805,29.629-13.552
		c0.62,0.019,1.243,0.031,1.87,0.031C62.998,67.492,80.974,54.895,80.974,39.41z"/>
	<path d="M99.17,47.067c0-10.3-7.955-19.314-19.781-24.202c4.423,5.02,7.002,10.981,7.002,17.378
		c0,17.782-19.846,32.25-44.239,32.25c-0.014,0-0.03,0-0.044,0c5.162,1.7,10.919,2.657,16.99,2.657c0.627,0,1.25-0.012,1.87-0.033
		c11.27,11.75,28.879,13.483,29.629,13.552c0.027,0.003,0.054,0.004,0.082,0.004c0.33,0,0.635-0.182,0.79-0.476
		c0.169-0.321,0.129-0.71-0.102-0.986c-3.436-4.148-6.066-11.903-7.717-17.935C93.524,63.92,99.17,55.857,99.17,47.067z"/>
</g>
</svg>
