<?xml version="1.0" encoding="utf-8"?>
<!-- Generator: Adobe Illustrator 16.0.0, SVG Export Plug-In . SVG Version: 6.00 Build 0)  -->
<!DOCTYPE svg PUBLIC "-//W3C//DTD SVG 1.1//EN" "http://www.w3.org/Graphics/SVG/1.1/DTD/svg11.dtd">
<svg version="1.1" id="Layer_3" xmlns="http://www.w3.org/2000/svg" xmlns:xlink="http://www.w3.org/1999/xlink" x="0px" y="0px"
	 width="100px" height="100px" viewBox="0 0 100 100" enable-background="new 0 0 100 100" xml:space="preserve">
<g>
	<path d="M81.724,39.66c0-15.761-18.2-28.583-40.571-28.583C18.781,11.077,0.58,23.899,0.58,39.66
		c0,8.847,5.619,17.014,15.433,22.457c-1.603,5.78-4.179,13.34-7.515,17.365c-0.36,0.436-0.422,1.04-0.159,1.54
		c0.242,0.458,0.714,0.743,1.232,0.743l0.127-0.005c0.748-0.068,18.379-1.8,29.79-13.544c0.551,0.016,1.106,0.025,1.664,0.025
		C63.523,68.242,81.724,55.42,81.724,39.66z M41.152,60.242c-0.481,0-0.961-0.009-1.437-0.022l-3.514-0.1l-2.45,2.521
		c-3.511,3.613-7.855,6.084-11.921,7.761c0.655-1.91,1.286-3.959,1.893-6.147l1.685-6.075l-5.514-3.059
		C12.704,51.134,8.58,45.498,8.58,39.66c0-11.157,14.917-20.583,32.572-20.583c17.655,0,32.571,9.426,32.571,20.583
		C73.724,50.816,58.808,60.242,41.152,60.242z"/>
	<path d="M99.42,47.317c0-10.3-7.955-19.314-19.781-24.202c4.423,5.02,7.002,10.981,7.002,17.378
		c0,17.782-19.846,32.25-44.239,32.25c-0.014,0-0.03,0-0.044,0c5.162,1.7,10.919,2.657,16.99,2.657c0.627,0,1.25-0.012,1.87-0.033
		c11.27,11.75,28.879,13.483,29.629,13.552c0.027,0.003,0.054,0.004,0.082,0.004c0.33,0,0.635-0.182,0.79-0.476
		c0.169-0.321,0.129-0.71-0.102-0.986c-3.436-4.148-6.066-11.903-7.717-17.935C93.774,64.17,99.42,56.107,99.42,47.317z"/>
</g>
</svg>
