<?xml version="1.0" encoding="utf-8"?>
<!-- Generator: Adobe Illustrator 16.0.0, SVG Export Plug-In . SVG Version: 6.00 Build 0)  -->
<!DOCTYPE svg PUBLIC "-//W3C//DTD SVG 1.1//EN" "http://www.w3.org/Graphics/SVG/1.1/DTD/svg11.dtd">
<svg version="1.1" id="Layer_3" xmlns="http://www.w3.org/2000/svg" xmlns:xlink="http://www.w3.org/1999/xlink" x="0px" y="0px"
	 width="100px" height="100px" viewBox="0 0 100 100" enable-background="new 0 0 100 100" xml:space="preserve">
<g>
	<path d="M98.602,23.931l-7.24-7.24c-0.781-0.781-2.047-0.781-2.828,0L51.277,53.946L37.986,40.656
		c-0.781-0.781-2.047-0.781-2.828,0l-7.24,7.24c-0.375,0.375-0.586,0.884-0.586,1.414s0.211,1.039,0.586,1.414l21.945,21.943
		c0.391,0.391,0.902,0.586,1.414,0.586s1.023-0.195,1.414-0.586l45.91-45.908c0.375-0.375,0.586-0.884,0.586-1.414
		S98.977,24.306,98.602,23.931z"/>
	<path d="M74.396,81.792H10.813V18.208H75.91l8.486-8c0-1.104-0.895-2-2-2H2.813c-1.104,0-2,0.896-2,2v79.584c0,1.104,0.896,2,2,2
		h79.584c1.105,0,2-0.896,2-2v-37.88l-10,10.5V81.792z"/>
</g>
</svg>
