<?xml version="1.0" encoding="utf-8"?>
<!-- Generator: Adobe Illustrator 16.0.0, SVG Export Plug-In . SVG Version: 6.00 Build 0)  -->
<!DOCTYPE svg PUBLIC "-//W3C//DTD SVG 1.1//EN" "http://www.w3.org/Graphics/SVG/1.1/DTD/svg11.dtd">
<svg version="1.1" id="Layer_3" xmlns="http://www.w3.org/2000/svg" xmlns:xlink="http://www.w3.org/1999/xlink" x="0px" y="0px"
	 width="100px" height="100px" viewBox="0 0 100 100" enable-background="new 0 0 100 100" xml:space="preserve">
<path d="M73.5,13.75v62.34L57.577,57.604L50,48.806l-7.577,8.797L26.5,76.09V13.75H73.5 M79.5,3.75h-59c-2.209,0-4,1.791-4,4v84.5
	c0,1.672,1.04,3.168,2.607,3.75c0.455,0.168,0.927,0.25,1.393,0.25c1.143,0,2.256-0.49,3.031-1.39L50,64.129L76.469,94.86
	c0.775,0.9,1.89,1.39,3.032,1.39c0.466,0,0.938-0.082,1.392-0.25c1.567-0.582,2.607-2.078,2.607-3.75V7.75
	C83.5,5.541,81.709,3.75,79.5,3.75L79.5,3.75z"/>
</svg>
