<?xml version="1.0" encoding="utf-8"?>
<!-- Generator: Adobe Illustrator 16.0.0, SVG Export Plug-In . SVG Version: 6.00 Build 0)  -->
<!DOCTYPE svg PUBLIC "-//W3C//DTD SVG 1.1//EN" "http://www.w3.org/Graphics/SVG/1.1/DTD/svg11.dtd">
<svg version="1.1" id="Layer_2" xmlns="http://www.w3.org/2000/svg" xmlns:xlink="http://www.w3.org/1999/xlink" x="0px" y="0px"
	 width="100px" height="100px" viewBox="0 0 100 100" enable-background="new 0 0 100 100" xml:space="preserve">
<path d="M98.129,18.549L85.158,7.15c-0.398-0.352-0.926-0.531-1.449-0.494c-0.529,0.035-1.023,0.277-1.373,0.676L35.29,60.879
	L18.562,38.738c-0.319-0.422-0.794-0.701-1.319-0.773c-0.524-0.078-1.059,0.064-1.481,0.385L1.985,48.758
	c-0.881,0.666-1.056,1.92-0.39,2.801l30.974,40.996c0.362,0.479,0.922,0.77,1.522,0.793c0.024,0,0.049,0,0.073,0
	c0.574,0,1.122-0.246,1.503-0.68l62.644-71.297C99.04,20.541,98.959,19.277,98.129,18.549z"/>
</svg>
