<?xml version="1.0" encoding="utf-8"?>
<!-- Generator: Adobe Illustrator 16.0.0, SVG Export Plug-In . SVG Version: 6.00 Build 0)  -->
<!DOCTYPE svg PUBLIC "-//W3C//DTD SVG 1.1//EN" "http://www.w3.org/Graphics/SVG/1.1/DTD/svg11.dtd">
<svg version="1.1" id="Layer_4" xmlns="http://www.w3.org/2000/svg" xmlns:xlink="http://www.w3.org/1999/xlink" x="0px" y="0px"
	 width="100px" height="100px" viewBox="0 0 100 100" enable-background="new 0 0 100 100" xml:space="preserve">
<path d="M79.727,60.386L61.744,42.403h11.991c0.809,0,1.538-0.487,1.848-1.234c0.31-0.748,0.139-1.607-0.434-2.18L57.298,21.138
	h8.442c0.008,0.001,0.016,0.001,0.02,0c1.105,0,2-0.896,2-2c0-0.638-0.299-1.206-0.764-1.572L51.404,1.975
	c-0.781-0.781-2.047-0.781-2.828,0l-15.75,15.749c-0.572,0.572-0.743,1.432-0.434,2.18c0.31,0.747,1.039,1.234,1.848,1.234h8.442
	L24.831,38.989c-0.572,0.572-0.743,1.432-0.434,2.18c0.31,0.747,1.039,1.234,1.848,1.234h11.991L20.096,60.544
	c-0.572,0.572-0.743,1.432-0.434,2.18c0.31,0.747,1.039,1.234,1.848,1.234h23.528l-2.157,32.521
	c-0.036,0.553,0.157,1.096,0.536,1.499c0.378,0.404,0.906,0.634,1.46,0.634h10.228c0.008,0,0.015,0,0.02,0c1.105,0,2-0.896,2-2
	c0-0.143-0.015-0.281-0.043-0.415l-2.139-32.238h23.528c0.007,0.001,0.015,0.001,0.02,0c1.105,0,2-0.896,2-2
	C80.49,61.32,80.192,60.752,79.727,60.386z"/>
</svg>
