<?xml version="1.0" encoding="utf-8"?>
<!-- Generator: Adobe Illustrator 16.0.0, SVG Export Plug-In . SVG Version: 6.00 Build 0)  -->
<!DOCTYPE svg PUBLIC "-//W3C//DTD SVG 1.1//EN" "http://www.w3.org/Graphics/SVG/1.1/DTD/svg11.dtd">
<svg version="1.1" id="Layer_4" xmlns="http://www.w3.org/2000/svg" xmlns:xlink="http://www.w3.org/1999/xlink" x="0px" y="0px"
	 width="100px" height="100px" viewBox="0 0 100 100" enable-background="new 0 0 100 100" xml:space="preserve">
<g>
	<path d="M94.428,8.455c-0.747-0.311-1.608-0.139-2.179,0.434l-8.316,8.316C75.01,8.021,63.089,2.964,50.363,2.964
		c-2.693,0-5.408,0.235-8.069,0.697C24.181,6.809,9.505,20.369,4.907,38.208c-0.155,0.599-0.023,1.235,0.355,1.724
		c0.379,0.489,0.962,0.775,1.581,0.775h12.738c0.839,0,1.59-0.524,1.878-1.313c3.729-10.193,12.992-17.971,23.598-19.814
		c1.747-0.303,3.525-0.456,5.287-0.456c8.428,0,16.3,3.374,22.168,9.5l-8.444,8.444c-0.572,0.572-0.743,1.432-0.434,2.179
		c0.31,0.748,1.039,1.235,1.848,1.235h28.18c1.104,0,2-0.896,2-2v-28.18C95.663,9.494,95.175,8.765,94.428,8.455z"/>
	<path d="M93.156,59.292H80.418c-0.839,0-1.59,0.524-1.878,1.313c-3.729,10.193-12.992,17.971-23.598,19.814
		c-1.747,0.303-3.525,0.456-5.287,0.456c-8.428,0-16.3-3.374-22.168-9.5l8.444-8.444c0.572-0.572,0.743-1.432,0.434-2.179
		c-0.31-0.748-1.039-1.235-1.848-1.235H6.337c-1.104,0-2,0.896-2,2v28.18c0,0.809,0.487,1.538,1.235,1.848
		c0.746,0.309,1.607,0.138,2.179-0.434l8.316-8.316c8.922,9.183,20.843,14.241,33.569,14.241c2.693,0,5.408-0.235,8.069-0.697
		c18.113-3.147,32.789-16.708,37.387-34.547c0.155-0.599,0.023-1.235-0.355-1.724C94.358,59.579,93.775,59.292,93.156,59.292z"/>
</g>
</svg>
