<?xml version="1.0" encoding="utf-8"?>
<!-- Generator: Adobe Illustrator 16.0.0, SVG Export Plug-In . SVG Version: 6.00 Build 0)  -->
<!DOCTYPE svg PUBLIC "-//W3C//DTD SVG 1.1//EN" "http://www.w3.org/Graphics/SVG/1.1/DTD/svg11.dtd">
<svg version="1.1" id="Layer_2" xmlns="http://www.w3.org/2000/svg" xmlns:xlink="http://www.w3.org/1999/xlink" x="0px" y="0px"
	 width="100px" height="100px" viewBox="0 0 100 100" enable-background="new 0 0 100 100" xml:space="preserve">
<path d="M50,3C36.907,3,24.767,8.244,15.814,17.766l-9.879-3.991c-0.66-0.266-1.417-0.161-1.98,0.278
	c-0.563,0.44-0.849,1.147-0.749,1.854l4.313,30.662c0.1,0.708,0.569,1.309,1.231,1.576c0.662,0.268,1.417,0.16,1.98-0.278
	l24.4-19.063c0.563-0.44,0.849-1.146,0.749-1.854s-0.569-1.309-1.231-1.576l-8.676-3.505C32.639,16.15,41.172,13,50,13
	c20.402,0,37,16.598,37,37S70.402,87,50,87c-13.487,0-25.903-7.325-32.403-19.117c-0.514-0.933-1.671-1.299-2.628-0.832L9.57,69.684
	c-0.49,0.239-0.862,0.668-1.028,1.188s-0.113,1.084,0.147,1.563C16.907,87.587,32.737,97,50,97c25.916,0,47-21.084,47-47
	S75.916,3,50,3z"/>
<g>
	<path d="M75.75,56.5H49.919c-2.209,0-4-1.791-4-4V22.25c0-2.209,1.791-4,4-4s4,1.791,4,4V48.5H75.75c2.209,0,4,1.791,4,4
		S77.959,56.5,75.75,56.5z"/>
</g>
</svg>
