<?xml version="1.0" encoding="utf-8"?>
<!-- Generator: Adobe Illustrator 16.0.0, SVG Export Plug-In . SVG Version: 6.00 Build 0)  -->
<!DOCTYPE svg PUBLIC "-//W3C//DTD SVG 1.1//EN" "http://www.w3.org/Graphics/SVG/1.1/DTD/svg11.dtd">
<svg version="1.1" id="Layer_3" xmlns="http://www.w3.org/2000/svg" xmlns:xlink="http://www.w3.org/1999/xlink" x="0px" y="0px"
	 width="100px" height="100px" viewBox="0 0 100 100" enable-background="new 0 0 100 100" xml:space="preserve">
<path d="M56.951,44.533L85.49,5.734c0.479-0.652,0.55-1.516,0.186-2.236c-0.365-0.723-1.104-1.176-1.912-1.176H16.236
	c-0.809,0-1.547,0.453-1.912,1.176c-0.365,0.721-0.293,1.584,0.187,2.236l28.54,38.799c0.039,0.054,0.081,0.105,0.125,0.155v45.97
	h-9.804c-1.184,0-2.143,0.959-2.143,2.144v2.734c0,1.184,0.959,2.142,2.143,2.142h33.256c1.184,0,2.143-0.958,2.143-2.142v-2.734
	c0-1.185-0.959-2.144-2.143-2.144h-9.804v-45.97C56.869,44.639,56.911,44.587,56.951,44.533z"/>
</svg>
