<?xml version="1.0" encoding="utf-8"?>
<!-- Generator: Adobe Illustrator 16.0.0, SVG Export Plug-In . SVG Version: 6.00 Build 0)  -->
<!DOCTYPE svg PUBLIC "-//W3C//DTD SVG 1.1//EN" "http://www.w3.org/Graphics/SVG/1.1/DTD/svg11.dtd">
<svg version="1.1" id="Layer_4" xmlns="http://www.w3.org/2000/svg" xmlns:xlink="http://www.w3.org/1999/xlink" x="0px" y="0px"
	 width="100px" height="100px" viewBox="0 0 100 100" enable-background="new 0 0 100 100" xml:space="preserve">
<g>
	<path d="M47.377,49.571c0-0.53-0.211-1.039-0.586-1.414L14.027,15.395c-0.781-0.781-2.047-0.781-2.828,0l-8.03,8.029
		c-0.375,0.375-0.586,0.884-0.586,1.414s0.211,1.039,0.586,1.414l23.319,23.319L3.169,72.891c-0.375,0.375-0.586,0.884-0.586,1.414
		s0.211,1.039,0.586,1.414l8.03,8.029c0.391,0.391,0.902,0.586,1.414,0.586s1.023-0.195,1.414-0.586l32.764-32.763
		C47.166,50.61,47.377,50.102,47.377,49.571z"/>
	<path d="M95.417,72.395H44.563c-1.104,0-2,0.896-2,2v8.797c0,1.104,0.896,2,2,2h50.854c1.104,0,2-0.896,2-2v-8.797
		C97.417,73.29,96.521,72.395,95.417,72.395z"/>
</g>
</svg>
