<?xml version="1.0" encoding="utf-8"?>
<!-- Generator: Adobe Illustrator 16.0.0, SVG Export Plug-In . SVG Version: 6.00 Build 0)  -->
<!DOCTYPE svg PUBLIC "-//W3C//DTD SVG 1.1//EN" "http://www.w3.org/Graphics/SVG/1.1/DTD/svg11.dtd">
<svg version="1.1" id="Layer_3" xmlns="http://www.w3.org/2000/svg" xmlns:xlink="http://www.w3.org/1999/xlink" x="0px" y="0px"
	 width="100px" height="100px" viewBox="0 0 100 100" enable-background="new 0 0 100 100" xml:space="preserve">
<g>
	<path d="M50,2.451C23.739,2.451,2.451,23.739,2.451,50S23.739,97.549,50,97.549S97.549,76.261,97.549,50S76.261,2.451,50,2.451z
		 M50,87.549c-20.705,0-37.549-16.845-37.549-37.549S29.295,12.451,50,12.451S87.549,29.296,87.549,50S70.705,87.549,50,87.549z"/>
	<path d="M80.116,32.362c-0.25-0.428-0.755-0.633-1.231-0.503l-33.783,9.213c-0.186,0.052-0.355,0.151-0.492,0.288L20.047,66.317
		c-0.346,0.353-0.414,0.894-0.164,1.32c0.25,0.427,0.755,0.634,1.232,0.503l33.783-9.213c0.093-0.025,0.182-0.063,0.265-0.111
		c0.083-0.049,0.159-0.108,0.228-0.177l24.562-24.957C80.299,33.33,80.366,32.788,80.116,32.362z M29.156,62.207l16.46-16.725
		l6.179,10.551L29.156,62.207z"/>
</g>
</svg>
