<?xml version="1.0" encoding="utf-8"?>
<!-- Generator: Adobe Illustrator 16.0.0, SVG Export Plug-In . SVG Version: 6.00 Build 0)  -->
<!DOCTYPE svg PUBLIC "-//W3C//DTD SVG 1.1//EN" "http://www.w3.org/Graphics/SVG/1.1/DTD/svg11.dtd">
<svg version="1.1" id="Layer_1" xmlns="http://www.w3.org/2000/svg" xmlns:xlink="http://www.w3.org/1999/xlink" x="0px" y="0px"
	 width="100px" height="100px" viewBox="0 0 100 100" enable-background="new 0 0 100 100" xml:space="preserve">
<g>
	<path d="M50.45,64.665h-2.903c-1.866,0-3.377,1.513-3.377,3.38c0,1.866,1.511,3.38,3.377,3.38h2.903c1.869,0,3.38-1.514,3.38-3.38
		C53.83,66.178,52.319,64.665,50.45,64.665z"/>
	<path d="M83.801,18.505L67.532,2.236c-0.469-0.469-1.104-0.732-1.768-0.732H44.676v1.853H49v5.427h-4.324v2.247h-3.052V1.504
		H17.967c-1.381,0-2.5,1.119-2.5,2.5v91.992c0,1.381,1.119,2.5,2.5,2.5h64.066c1.381,0,2.5-1.119,2.5-2.5V20.273
		C84.533,19.61,84.27,18.974,83.801,18.505z M49,11.326h4.324V9.079h3.052v9.919h-3.052v-2.247H49V11.326z M49,48.708v-5.425h4.324
		v-2.247h3.052v9.918h-3.052v-2.247H49z M53.324,35.029v-2.246H49v-5.427h4.324v-2.246h3.052v9.918H53.324z M41.624,17.143h3.052
		v2.246H49v5.426h-4.324v2.247h-3.052V17.143z M41.624,33.067h3.052v2.247H49v5.425h-4.324v2.247h-3.052V33.067z M49,73.666
		c-4.287,0-7.762-3.322-7.762-8.334c0-12.912,3.475-12.779,7.762-12.779s7.762-0.132,7.762,12.779
		C56.762,70.344,53.287,73.666,49,73.666z M63.555,23.846c-0.337,0-0.659-0.134-0.897-0.372c-0.237-0.238-0.372-0.561-0.372-0.897
		l0.002-15.126l16.395,16.395H63.555z"/>
</g>
</svg>
