<?xml version="1.0" encoding="utf-8"?>
<!-- Generator: Adobe Illustrator 16.0.0, SVG Export Plug-In . SVG Version: 6.00 Build 0)  -->
<!DOCTYPE svg PUBLIC "-//W3C//DTD SVG 1.1//EN" "http://www.w3.org/Graphics/SVG/1.1/DTD/svg11.dtd">
<svg version="1.1" id="Layer_3" xmlns="http://www.w3.org/2000/svg" xmlns:xlink="http://www.w3.org/1999/xlink" x="0px" y="0px"
	 width="100px" height="100px" viewBox="0 0 100 100" enable-background="new 0 0 100 100" xml:space="preserve">
<g>
	<path d="M97,18.672H3c-1.104,0-2,0.896-2,2v10.184h98V20.672C99,19.567,98.104,18.672,97,18.672z"/>
	<path d="M1,79.328c0,1.104,0.896,2,2,2h94c1.104,0,2-0.896,2-2V46.285H1V79.328z M38.914,66.424c0-0.553,0.448-1,1-1h7.816
		c0.552,0,1,0.447,1,1v9.282c0,0.553-0.448,1-1,1h-7.816c-0.552,0-1-0.447-1-1V66.424z M22.849,66.424c0-0.553,0.448-1,1-1h7.816
		c0.552,0,1,0.447,1,1v9.282c0,0.553-0.448,1-1,1h-7.816c-0.552,0-1-0.447-1-1V66.424z M6.783,66.424c0-0.553,0.448-1,1-1h7.816
		c0.552,0,1,0.447,1,1v9.282c0,0.553-0.448,1-1,1H7.783c-0.552,0-1-0.447-1-1V66.424z"/>
</g>
</svg>
