<?xml version="1.0" encoding="utf-8"?>
<!-- Generator: Adobe Illustrator 16.0.0, SVG Export Plug-In . SVG Version: 6.00 Build 0)  -->
<!DOCTYPE svg PUBLIC "-//W3C//DTD SVG 1.1//EN" "http://www.w3.org/Graphics/SVG/1.1/DTD/svg11.dtd">
<svg version="1.1" id="Layer_1" xmlns="http://www.w3.org/2000/svg" xmlns:xlink="http://www.w3.org/1999/xlink" x="0px" y="0px"
	 width="100px" height="100px" viewBox="0 0 100 100" enable-background="new 0 0 100 100" xml:space="preserve">
<path d="M95.558,66.683H82.355V26.377l14.037-14.039c0.748-0.747,0.748-1.959,0-2.707l-6.09-6.092
	c-0.359-0.359-0.847-0.561-1.354-0.561c-0.508,0-0.995,0.202-1.354,0.561L73.511,17.626l-40.17-0.001V4.461
	c0-1.057-0.857-1.915-1.915-1.915H18.892c-1.058,0-1.914,0.857-1.914,1.915v13.164H4.442c-1.057,0-1.914,0.857-1.914,1.914v12.535
	c0,1.057,0.857,1.915,1.914,1.915h12.535v40.875c0,4.511,3.67,8.181,8.182,8.181h40.833v12.494c0,1.057,0.857,1.915,1.914,1.915
	h12.536c0.007,0,0.014,0,0.019,0c1.058,0,1.914-0.857,1.914-1.915c0-0.092-0.007-0.183-0.019-0.272l-0.001-12.221h13.202
	c1.057,0,1.914-0.857,1.914-1.914V68.597C97.472,67.54,96.614,66.683,95.558,66.683z M65.992,42.74v23.942H42.05L65.992,42.74z
	 M57.147,33.989L33.341,57.795V33.988L57.147,33.989z"/>
</svg>
