<?xml version="1.0" encoding="utf-8"?>
<!-- Generator: Adobe Illustrator 16.0.0, SVG Export Plug-In . SVG Version: 6.00 Build 0)  -->
<!DOCTYPE svg PUBLIC "-//W3C//DTD SVG 1.1//EN" "http://www.w3.org/Graphics/SVG/1.1/DTD/svg11.dtd">
<svg version="1.1" id="Layer_3" xmlns="http://www.w3.org/2000/svg" xmlns:xlink="http://www.w3.org/1999/xlink" x="0px" y="0px"
	 width="100px" height="100px" viewBox="0 0 100 100" enable-background="new 0 0 100 100" xml:space="preserve">
<path d="M96.5,45.812h-7.517C87.04,27.594,72.406,12.96,54.188,11.017V3.5c0-1.104-0.896-2-2-2h-4.377c-1.104,0-2,0.896-2,2v7.517h0
	C27.594,12.96,12.96,27.594,11.017,45.812H3.5c-1.104,0-2,0.896-2,2v4.377c0,1.104,0.896,2,2,2h7.517
	C12.96,72.406,27.594,87.04,45.812,88.983V96.5c0,1.104,0.896,2,2,2h4.377c1.104,0,2-0.896,2-2v-7.517h0
	C72.406,87.04,87.04,72.406,88.983,54.188H96.5c1.104,0,2-0.896,2-2v-4.377C98.5,46.707,97.604,45.812,96.5,45.812z M26.396,54.188
	c1.104,0,2-0.896,2-2v-4.377c0-1.104-0.896-2-2-2h-6.492c1.856-13.397,12.51-24.052,25.907-25.908l0,6.492c0,1.104,0.896,2,2,2
	h4.377c1.104,0,2-0.896,2-2v-6.492C67.586,21.76,78.24,32.414,80.096,45.812h-6.492c-1.104,0-2,0.896-2,2v4.377c0,1.104,0.896,2,2,2
	h6.492C78.24,67.586,67.586,78.24,54.189,80.097l0-6.492c0-1.104-0.896-2-2-2h-4.377c-1.104,0-2,0.896-2,2v6.492
	C32.414,78.24,21.76,67.586,19.904,54.188H26.396z"/>
</svg>
