<?xml version="1.0" encoding="utf-8"?>
<!-- Generator: Adobe Illustrator 16.0.0, SVG Export Plug-In . SVG Version: 6.00 Build 0)  -->
<!DOCTYPE svg PUBLIC "-//W3C//DTD SVG 1.1//EN" "http://www.w3.org/Graphics/SVG/1.1/DTD/svg11.dtd">
<svg version="1.1" id="Layer_2" xmlns="http://www.w3.org/2000/svg" xmlns:xlink="http://www.w3.org/1999/xlink" x="0px" y="0px"
	 width="100px" height="100px" viewBox="0 0 100 100" enable-background="new 0 0 100 100" xml:space="preserve">
<path d="M84.029,15.971c-18.793-18.794-49.266-18.794-68.059,0c-18.794,18.793-18.794,49.266,0,68.059
	c18.793,18.794,49.266,18.794,68.059,0C102.823,65.236,102.823,34.764,84.029,15.971z M80.89,67.973c0.597,0.597,0.597,1.563,0,2.16
	L70.133,80.89c-0.597,0.597-1.563,0.597-2.16,0L50,62.917L32.027,80.89c-0.597,0.597-1.563,0.597-2.16,0L19.11,70.133
	c-0.597-0.597-0.597-1.563,0-2.16L37.083,50L19.11,32.027c-0.597-0.597-0.597-1.563,0-2.16L29.867,19.11
	c0.597-0.597,1.563-0.597,2.16,0L50,37.083L67.973,19.11c0.597-0.597,1.563-0.597,2.16,0L80.89,29.867
	c0.597,0.597,0.597,1.563,0,2.16L62.917,50L80.89,67.973z"/>
</svg>
