<?xml version="1.0" encoding="utf-8"?>
<!-- Generator: Adobe Illustrator 16.0.0, SVG Export Plug-In . SVG Version: 6.00 Build 0)  -->
<!DOCTYPE svg PUBLIC "-//W3C//DTD SVG 1.1//EN" "http://www.w3.org/Graphics/SVG/1.1/DTD/svg11.dtd">
<svg version="1.1" id="Layer_3" xmlns="http://www.w3.org/2000/svg" xmlns:xlink="http://www.w3.org/1999/xlink" x="0px" y="0px"
	 width="100px" height="100px" viewBox="0 0 100 100" enable-background="new 0 0 100 100" xml:space="preserve">
<g>
	<path d="M96.422,23.285L50.726,6.549c-0.475-0.167-1.005-0.164-1.479,0L3.635,22.821c-0.462,0.164-0.859,0.464-1.054,0.772
		c-0.332,0.402-0.517,0.913-0.517,1.435v50.567c0,0.958,0.607,1.813,1.512,2.128l45.638,15.729c0.474,0.164,1.005,0.164,1.479,0
		l45.649-15.752c0.952-0.292,1.593-1.157,1.593-2.154V25.411C97.936,24.452,97.328,23.598,96.422,23.285z M50.022,38.969
		L15.592,27.087l34.395-12.375l32.622,12.19L50.022,38.969z M89.98,71.742L54.903,83.611V45.99L89.98,33.131V71.742z"/>
</g>
</svg>
