<?xml version="1.0" encoding="utf-8"?>
<!-- Generator: Adobe Illustrator 16.0.0, SVG Export Plug-In . SVG Version: 6.00 Build 0)  -->
<!DOCTYPE svg PUBLIC "-//W3C//DTD SVG 1.1//EN" "http://www.w3.org/Graphics/SVG/1.1/DTD/svg11.dtd">
<svg version="1.1" id="Layer_4" xmlns="http://www.w3.org/2000/svg" xmlns:xlink="http://www.w3.org/1999/xlink" x="0px" y="0px"
	 width="100px" height="100px" viewBox="0 0 100 100" enable-background="new 0 0 100 100" xml:space="preserve">
<path d="M7.733,34.247h12.793c1.021,0,1.849,0.829,1.849,1.849v28.423h-0.007v1.333c0,8.453,6.876,15.33,15.33,15.33
	c8.452,0,15.33-6.877,15.33-15.33l0.025-34.397l-13.25,13.302c-0.687,0.687-1.902,0.687-2.588,0l-8.266-8.267
	c-0.343-0.343-0.536-0.81-0.536-1.294c0-0.485,0.193-0.951,0.536-1.294L59.97,2.881c0.715-0.717,1.873-0.717,2.588,0L93.58,33.901
	c0.714,0.715,0.714,1.873,0,2.588l-8.264,8.267c-0.343,0.343-0.809,0.536-1.294,0.536c-0.485,0-0.951-0.193-1.294-0.536
	L69.525,31.454l-0.023,34.397c0,17.537-14.267,31.805-31.804,31.805S5.893,83.389,5.893,65.852L5.884,36.096
	C5.884,35.076,6.711,34.247,7.733,34.247z"/>
</svg>
