<?xml version="1.0" encoding="utf-8"?>
<!-- Generator: Adobe Illustrator 16.0.0, SVG Export Plug-In . SVG Version: 6.00 Build 0)  -->
<!DOCTYPE svg PUBLIC "-//W3C//DTD SVG 1.1//EN" "http://www.w3.org/Graphics/SVG/1.1/DTD/svg11.dtd">
<svg version="1.1" id="Layer_2" xmlns="http://www.w3.org/2000/svg" xmlns:xlink="http://www.w3.org/1999/xlink" x="0px" y="0px"
	 width="100px" height="100px" viewBox="0 0 100 100" enable-background="new 0 0 100 100" xml:space="preserve">
<g>
	<path d="M96,7.25H4c-0.829,0-1.5,0.672-1.5,1.5v13.5c0,0.828,0.671,1.5,1.5,1.5h92c0.829,0,1.5-0.672,1.5-1.5V8.75
		C97.5,7.922,96.829,7.25,96,7.25z"/>
	<path d="M96,34.25H43.5c-0.829,0-1.5,0.672-1.5,1.5v10.5c0,0.828,0.671,1.5,1.5,1.5H96c0.829,0,1.5-0.672,1.5-1.5v-10.5
		C97.5,34.922,96.829,34.25,96,34.25z"/>
	<path d="M4,47.75h25.333c0.829,0,1.5-0.672,1.5-1.5v-10.5c0-0.828-0.671-1.5-1.5-1.5H4c-0.829,0-1.5,0.672-1.5,1.5v10.5
		C2.5,47.078,3.171,47.75,4,47.75z"/>
	<path d="M96,61.25H67.5c-0.829,0-1.5,0.672-1.5,1.5v7.5c0,0.828,0.671,1.5,1.5,1.5H96c0.829,0,1.5-0.672,1.5-1.5v-7.5
		C97.5,61.922,96.829,61.25,96,61.25z"/>
	<path d="M4,71.75h49.333c0.829,0,1.5-0.672,1.5-1.5v-7.5c0-0.828-0.671-1.5-1.5-1.5H4c-0.829,0-1.5,0.672-1.5,1.5v7.5
		C2.5,71.078,3.171,71.75,4,71.75z"/>
	<path d="M77.667,85.25H4c-0.829,0-1.5,0.672-1.5,1.5v4.5c0,0.828,0.671,1.5,1.5,1.5h73.667c0.829,0,1.5-0.672,1.5-1.5v-4.5
		C79.167,85.922,78.496,85.25,77.667,85.25z"/>
	<path d="M96,85.25h-8.839c-0.829,0-1.5,0.672-1.5,1.5v4.5c0,0.828,0.671,1.5,1.5,1.5H96c0.829,0,1.5-0.672,1.5-1.5v-4.5
		C97.5,85.922,96.829,85.25,96,85.25z"/>
</g>
</svg>
