<?xml version="1.0" encoding="utf-8"?>
<!-- Generator: Adobe Illustrator 16.0.0, SVG Export Plug-In . SVG Version: 6.00 Build 0)  -->
<!DOCTYPE svg PUBLIC "-//W3C//DTD SVG 1.1//EN" "http://www.w3.org/Graphics/SVG/1.1/DTD/svg11.dtd">
<svg version="1.1" id="Layer_4" xmlns="http://www.w3.org/2000/svg" xmlns:xlink="http://www.w3.org/1999/xlink" x="0px" y="0px"
	 width="100px" height="100px" viewBox="0 0 100 100" enable-background="new 0 0 100 100" xml:space="preserve">
<g>
	<g>
		<path d="M69.247,95.85c-7.014,0-13.338-5.652-16.111-14.401c-2.547-8.033-14.325-10.331-15.66-10.566
			c-4.433-0.787-7.646-4.621-7.646-9.118V22.299c0-3.405,1.862-6.527,4.858-8.146C37.783,12.481,53.966,4.15,68.817,4.15
			c8.853,0,15.864,2.828,20.841,8.407c6.165,6.907,8.471,17.584,6.856,31.734c-1.871,16.432-9.76,22.395-15.952,24.516
			c2.487,9.393,2.129,16.586-1.079,21.434C77.117,93.807,73.387,95.85,69.247,95.85z M40.053,60.968
			c4.478,0.916,18.835,4.799,22.828,17.392c1.496,4.72,4.396,7.268,6.366,7.268c0.851,0,1.401-0.563,1.715-1.033
			c1.854-2.801,1.182-9.561-1.801-18.076l-2.367-6.759l7.161-0.042c6.784-0.04,11.189-5.93,12.403-16.583
			c1.27-11.133-0.186-19.13-4.327-23.771c-2.996-3.357-7.318-4.99-13.214-4.99c-11.811,0-25.622,6.859-28.765,8.505V60.968z"/>
	</g>
	<g>
		<path d="M20.973,12.865H5.01c-1.118,0-2.024,0.905-2.024,2.024v51.787c0,1.118,0.906,2.024,2.024,2.024h15.963
			c1.119,0,2.024-0.906,2.024-2.024V14.89C22.997,13.771,22.092,12.865,20.973,12.865z M12.992,24.762
			c-2.162,0-3.923-1.76-3.923-3.922s1.761-3.922,3.923-3.922s3.921,1.76,3.921,3.922S15.154,24.762,12.992,24.762z"/>
	</g>
</g>
</svg>
