<?xml version="1.0" encoding="utf-8"?>
<!-- Generator: Adobe Illustrator 16.0.0, SVG Export Plug-In . SVG Version: 6.00 Build 0)  -->
<!DOCTYPE svg PUBLIC "-//W3C//DTD SVG 1.1//EN" "http://www.w3.org/Graphics/SVG/1.1/DTD/svg11.dtd">
<svg version="1.1" id="Layer_3" xmlns="http://www.w3.org/2000/svg" xmlns:xlink="http://www.w3.org/1999/xlink" x="0px" y="0px"
	 width="100px" height="100px" viewBox="0 0 100 100" enable-background="new 0 0 100 100" xml:space="preserve">
<path d="M4,6v88c0,1.104,0.896,2,2,2h88c1.104,0,2-0.896,2-2V6c0-1.104-0.896-2-2-2H6C4.896,4,4,4.896,4,6z M80.338,33.651
	c0.512,0,0.971,0.384,1.166,0.979c0.197,0.59,0.088,1.271-0.273,1.723L50.893,74.387c-0.247,0.309-0.57,0.465-0.893,0.465
	s-0.646-0.156-0.892-0.465L18.77,36.353c-0.361-0.452-0.469-1.133-0.273-1.723c0.194-0.595,0.654-0.979,1.166-0.979H80.338z"/>
</svg>
