<?xml version="1.0" encoding="utf-8"?>
<!-- Generator: Adobe Illustrator 16.0.0, SVG Export Plug-In . SVG Version: 6.00 Build 0)  -->
<!DOCTYPE svg PUBLIC "-//W3C//DTD SVG 1.1//EN" "http://www.w3.org/Graphics/SVG/1.1/DTD/svg11.dtd">
<svg version="1.1" id="Layer_1" xmlns="http://www.w3.org/2000/svg" xmlns:xlink="http://www.w3.org/1999/xlink" x="0px" y="0px"
	 width="100px" height="100px" viewBox="0 0 100 100" enable-background="new 0 0 100 100" xml:space="preserve">
<path d="M57.604,98.591l30.122-13.306c1.751-0.772,2.897-2.206,3.233-3.814l0.019,0.006l4.618-15.44l-0.028-0.009
	c0.18-0.933,0.094-1.921-0.314-2.873c-0.167-0.39-0.385-0.764-0.648-1.116L50.655,3.399c-1.778-2.374-5.402-3.249-8.254-1.989
	L12.276,14.716c-1.403,0.62-2.417,1.663-2.939,2.881l-0.007-0.001l-4.62,15.44l0.002,0.002c-0.483,1.186-0.512,2.529,0.036,3.808
	c0.168,0.391,0.385,0.765,0.648,1.117l43.95,58.639C51.125,98.976,54.751,99.849,57.604,98.591z M57.99,78.21
	c0,0-42.392-56.487-43.213-57.655c-0.822-1.169,0.428-1.607,0.428-1.607L44.442,6.031c0.779-0.344,1.824-0.065,2.169,0.396
	l42.887,57.145c0,0,1.111,1.578-0.348,2.229c-1.261,0.563-28.988,12.806-28.988,12.806C59.382,78.95,58.336,78.672,57.99,78.21z"/>
</svg>
