<?xml version="1.0" encoding="utf-8"?>
<!-- Generator: Adobe Illustrator 16.0.0, SVG Export Plug-In . SVG Version: 6.00 Build 0)  -->
<!DOCTYPE svg PUBLIC "-//W3C//DTD SVG 1.1//EN" "http://www.w3.org/Graphics/SVG/1.1/DTD/svg11.dtd">
<svg version="1.1" id="Layer_1" xmlns="http://www.w3.org/2000/svg" xmlns:xlink="http://www.w3.org/1999/xlink" x="0px" y="0px"
	 width="100px" height="100px" viewBox="0 0 100 100" enable-background="new 0 0 100 100" xml:space="preserve">
<g>
	<path d="M50,32.956c-4.711,0-8.542,3.832-8.542,8.542s3.832,8.542,8.542,8.542s8.542-3.832,8.542-8.542S54.711,32.956,50,32.956z"
		/>
	<path d="M95.065,13.204H4.935c-1.466,0-2.659,1.193-2.659,2.659v51.271c0,1.466,1.193,2.659,2.659,2.659h90.13
		c1.466,0,2.659-1.193,2.659-2.659V15.863C97.724,14.397,96.531,13.204,95.065,13.204z M78.877,42.844
		C78.352,43.424,65.835,57.064,50,57.064s-28.352-13.64-28.877-14.221c-0.69-0.764-0.69-1.926,0-2.69
		C21.648,39.573,34.165,25.933,50,25.933s28.352,13.64,28.877,14.221C79.568,40.917,79.568,42.08,78.877,42.844z"/>
	<path d="M66.672,76.407h-5.35v-2.888H38.678v2.888h-5.35c-1.381,0-2.5,1.119-2.5,2.5v5.389c0,1.381,1.119,2.5,2.5,2.5h33.344
		c1.381,0,2.5-1.119,2.5-2.5v-5.389C69.172,77.526,68.053,76.407,66.672,76.407z"/>
</g>
</svg>
