<?xml version="1.0" encoding="utf-8"?>
<!-- Generator: Adobe Illustrator 16.0.0, SVG Export Plug-In . SVG Version: 6.00 Build 0)  -->
<!DOCTYPE svg PUBLIC "-//W3C//DTD SVG 1.1//EN" "http://www.w3.org/Graphics/SVG/1.1/DTD/svg11.dtd">
<svg version="1.1" id="Layer_2" xmlns="http://www.w3.org/2000/svg" xmlns:xlink="http://www.w3.org/1999/xlink" x="0px" y="0px"
	 width="100px" height="100px" viewBox="0 0 100 100" enable-background="new 0 0 100 100" xml:space="preserve">
<path d="M95.666,2.334H4.334c-1.104,0-2,0.896-2,2v91.332c0,1.104,0.896,2,2,2h48.525V65.811H42.617
	c-0.885,0-1.602-0.717-1.602-1.602V51.295c0-0.885,0.717-1.603,1.602-1.603h10.242v-8.913c0-11.744,7.395-19.332,18.839-19.332
	l10.188,0.016c0.884,0.001,1.6,0.718,1.6,1.602v11.991c0,0.885-0.717,1.602-1.601,1.602l-6.863,0.003
	c-4.73,0-5.595,1.844-5.595,5.475v7.556h11.979c0.425,0,0.833,0.169,1.133,0.47c0.3,0.301,0.469,0.708,0.469,1.133l-0.004,12.915
	c0,0.885-0.717,1.602-1.602,1.602H69.426v31.855h26.24c1.104,0,2-0.896,2-2V4.334C97.666,3.229,96.771,2.334,95.666,2.334z"/>
</svg>
