<?xml version="1.0" encoding="utf-8"?>
<!-- Generator: Adobe Illustrator 16.0.0, SVG Export Plug-In . SVG Version: 6.00 Build 0)  -->
<!DOCTYPE svg PUBLIC "-//W3C//DTD SVG 1.1//EN" "http://www.w3.org/Graphics/SVG/1.1/DTD/svg11.dtd">
<svg version="1.1" id="Layer_2" xmlns="http://www.w3.org/2000/svg" xmlns:xlink="http://www.w3.org/1999/xlink" x="0px" y="0px"
	 width="100px" height="100px" viewBox="0 0 100 100" enable-background="new 0 0 100 100" xml:space="preserve">
<path d="M98.448,38.932c-0.236-0.725-0.862-1.253-1.617-1.361l-31.14-4.494L51.794,4.85C51.458,4.166,50.762,3.733,50,3.733
	s-1.458,0.433-1.794,1.116L34.309,33.076L3.169,37.57c-0.754,0.108-1.381,0.637-1.617,1.361c-0.235,0.725-0.039,1.521,0.508,2.052
	l22.551,21.94l-5.348,31.003c-0.13,0.751,0.179,1.51,0.795,1.958c0.618,0.448,1.434,0.507,2.108,0.151L50,81.368l27.834,14.668
	c0.293,0.154,0.613,0.23,0.933,0.23c0.415,0,0.827-0.129,1.176-0.382c0.616-0.448,0.925-1.207,0.795-1.958l-5.348-31.003
	l22.551-21.94C98.486,40.452,98.683,39.656,98.448,38.932z M84.419,44.889L68.217,60.651l3.842,22.274
	c0.093,0.54-0.129,1.086-0.571,1.407c-0.25,0.182-0.547,0.274-0.845,0.274c-0.229,0-0.459-0.055-0.67-0.165L49.975,73.903
	L29.978,84.442c-0.485,0.255-1.072,0.213-1.515-0.109c-0.442-0.321-0.664-0.867-0.571-1.407l3.842-22.274L15.531,44.889
	c-0.392-0.383-0.534-0.953-0.364-1.475c0.169-0.521,0.619-0.9,1.161-0.978l22.373-3.229l9.984-20.28
	c0.242-0.491,0.742-0.802,1.29-0.802s1.047,0.311,1.289,0.802l9.985,20.28l22.373,3.229c0.542,0.077,0.992,0.457,1.161,0.978
	C84.953,43.936,84.811,44.506,84.419,44.889z"/>
</svg>
