<?xml version="1.0" encoding="utf-8"?>
<!-- Generator: Adobe Illustrator 16.0.0, SVG Export Plug-In . SVG Version: 6.00 Build 0)  -->
<!DOCTYPE svg PUBLIC "-//W3C//DTD SVG 1.1//EN" "http://www.w3.org/Graphics/SVG/1.1/DTD/svg11.dtd">
<svg version="1.1" id="Layer_4" xmlns="http://www.w3.org/2000/svg" xmlns:xlink="http://www.w3.org/1999/xlink" x="0px" y="0px"
	 width="100px" height="100px" viewBox="0 0 100 100" enable-background="new 0 0 100 100" xml:space="preserve">
<path d="M82.766,19.471L66.994,3.699c-0.453-0.454-1.07-0.709-1.713-0.709H18.949c-1.34,0-2.424,1.085-2.424,2.424v89.173
	c0,1.339,1.084,2.424,2.424,2.424h62.104c1.338,0,2.422-1.084,2.422-2.424V21.185C83.475,20.54,83.219,19.925,82.766,19.471z
	 M75.721,89.255H24.279V10.745h37.693l0.018,12.46c0,0.326,0.131,0.639,0.361,0.871c0.23,0.23,0.543,0.359,0.869,0.359h12.5V89.255z
	"/>
</svg>
