<?xml version="1.0" encoding="utf-8"?>
<!-- Generator: Adobe Illustrator 16.0.0, SVG Export Plug-In . SVG Version: 6.00 Build 0)  -->
<!DOCTYPE svg PUBLIC "-//W3C//DTD SVG 1.1//EN" "http://www.w3.org/Graphics/SVG/1.1/DTD/svg11.dtd">
<svg version="1.1" id="Layer_1" xmlns="http://www.w3.org/2000/svg" xmlns:xlink="http://www.w3.org/1999/xlink" x="0px" y="0px"
	 width="100px" height="100px" viewBox="0 0 100 100" enable-background="new 0 0 100 100" xml:space="preserve">
<path d="M94.936,1.291H74.521c-0.828,0-1.5,0.672-1.5,1.5v3.563H26.979V2.791c0-0.828-0.672-1.5-1.5-1.5H5.064
	c-0.828,0-1.5,0.672-1.5,1.5v94.418c0,0.828,0.672,1.5,1.5,1.5h20.414c0.828,0,1.5-0.672,1.5-1.5v-3.563h46.043v3.563
	c0,0.828,0.672,1.5,1.5,1.5h20.414c0.828,0,1.5-0.672,1.5-1.5V2.791C96.436,1.963,95.764,1.291,94.936,1.291z M20.668,91.584
	c0,0.828-0.672,1.5-1.5,1.5H11c-0.828,0-1.5-0.672-1.5-1.5v-8.168c0-0.828,0.672-1.5,1.5-1.5h8.168c0.828,0,1.5,0.672,1.5,1.5
	V91.584z M20.668,66.584c0,0.828-0.672,1.5-1.5,1.5H11c-0.828,0-1.5-0.672-1.5-1.5v-8.168c0-0.828,0.672-1.5,1.5-1.5h8.168
	c0.828,0,1.5,0.672,1.5,1.5V66.584z M20.668,41.584c0,0.828-0.672,1.5-1.5,1.5H11c-0.828,0-1.5-0.672-1.5-1.5v-8.168
	c0-0.828,0.672-1.5,1.5-1.5h8.168c0.828,0,1.5,0.672,1.5,1.5V41.584z M20.668,16.584c0,0.828-0.672,1.5-1.5,1.5H11
	c-0.828,0-1.5-0.672-1.5-1.5V8.416c0-0.828,0.672-1.5,1.5-1.5h8.168c0.828,0,1.5,0.672,1.5,1.5V16.584z M72.021,78.354
	c0,0.828-0.672,1.5-1.5,1.5H29.479c-0.828,0-1.5-0.672-1.5-1.5V56.646c0-0.828,0.672-1.5,1.5-1.5h41.043c0.828,0,1.5,0.672,1.5,1.5
	V78.354z M72.021,43.354c0,0.828-0.672,1.5-1.5,1.5H29.479c-0.828,0-1.5-0.672-1.5-1.5V21.646c0-0.828,0.672-1.5,1.5-1.5h41.043
	c0.828,0,1.5,0.672,1.5,1.5V43.354z M90.5,91.584c0,0.828-0.672,1.5-1.5,1.5h-8.168c-0.828,0-1.5-0.672-1.5-1.5v-8.168
	c0-0.828,0.672-1.5,1.5-1.5H89c0.828,0,1.5,0.672,1.5,1.5V91.584z M90.5,66.584c0,0.828-0.672,1.5-1.5,1.5h-8.168
	c-0.828,0-1.5-0.672-1.5-1.5v-8.168c0-0.828,0.672-1.5,1.5-1.5H89c0.828,0,1.5,0.672,1.5,1.5V66.584z M90.5,41.584
	c0,0.828-0.672,1.5-1.5,1.5h-8.168c-0.828,0-1.5-0.672-1.5-1.5v-8.168c0-0.828,0.672-1.5,1.5-1.5H89c0.828,0,1.5,0.672,1.5,1.5
	V41.584z M90.5,16.584c0,0.828-0.672,1.5-1.5,1.5h-8.168c-0.828,0-1.5-0.672-1.5-1.5V8.416c0-0.828,0.672-1.5,1.5-1.5H89
	c0.828,0,1.5,0.672,1.5,1.5V16.584z"/>
</svg>
