<?xml version="1.0" encoding="utf-8"?>
<!-- Generator: Adobe Illustrator 16.0.0, SVG Export Plug-In . SVG Version: 6.00 Build 0)  -->
<!DOCTYPE svg PUBLIC "-//W3C//DTD SVG 1.1//EN" "http://www.w3.org/Graphics/SVG/1.1/DTD/svg11.dtd">
<svg version="1.1" id="Layer_3" xmlns="http://www.w3.org/2000/svg" xmlns:xlink="http://www.w3.org/1999/xlink" x="0px" y="0px"
	 width="100px" height="100px" viewBox="0 0 100 100" enable-background="new 0 0 100 100" xml:space="preserve">
<path d="M93.04,2.521c-0.386-0.662-1.096-1.071-1.864-1.071H8.825c-0.768,0-1.478,0.409-1.864,1.071
	C6.574,3.185,6.569,4.004,6.949,4.672L34.248,52.77v32.138c0,0.867,0.52,1.649,1.318,1.987l27.19,11.486
	c0.27,0.113,0.555,0.17,0.839,0.17c0.418,0,0.833-0.121,1.192-0.359c0.603-0.4,0.965-1.074,0.965-1.799V52.77L93.051,4.672
	C93.431,4.004,93.426,3.185,93.04,2.521z"/>
</svg>
