<?xml version="1.0" encoding="utf-8"?>
<!-- Generator: Adobe Illustrator 16.0.0, SVG Export Plug-In . SVG Version: 6.00 Build 0)  -->
<!DOCTYPE svg PUBLIC "-//W3C//DTD SVG 1.1//EN" "http://www.w3.org/Graphics/SVG/1.1/DTD/svg11.dtd">
<svg version="1.1" id="Layer_3" xmlns="http://www.w3.org/2000/svg" xmlns:xlink="http://www.w3.org/1999/xlink" x="0px" y="0px"
	 width="100px" height="100px" viewBox="0 0 100 100" enable-background="new 0 0 100 100" xml:space="preserve">
<g>
	<path d="M33.848,11.485V47.39c0,1.461-0.18,2.56-0.383,3.329c-8.328-4.404-14.421-5.537-18.13-3.365
		c-3.288,1.925-3.327,5.584-3.327,5.739c0.002,6.046,7.112,8.76,8.094,9.105c10.199,4.734,13.493,10.091,14.336,14.086
		c-2.745,0.039-4.969,2.277-4.969,5.032v10.358c0,2.779,2.261,5.04,5.039,5.04h46.941c2.779,0,5.039-2.261,5.039-5.04V81.317
		c0-2.611-2.004-4.74-4.549-4.99c0.354-1.204,0.829-2.044,1.428-3.08c0.756-1.31,1.699-2.94,2.746-5.79
		c2.801-7.622,1.654-20.851,1.604-21.409l-0.022-0.163c-1.286-6.845-5.883-7.846-8.925-8.506c-1.129-0.245-2.196-0.48-2.805-0.919
		c-2.998-2.924-6.244-4.383-9.012-4.741c-2.362-0.232-3.519-0.153-5.393-0.53c-1.754-0.537-6.951-1.73-11.318,1.075
		c-0.016-7.378-0.045-20.465-0.045-22.063c0-2.77-3.305-5.32-3.305-5.32c-1.359-1-3.029-1.597-4.844-1.597
		C37.527,3.285,33.848,6.964,33.848,11.485z M80.889,81.876v9.239h-45.82v-9.239H80.889z"/>
	<circle cx="40.762" cy="86.489" r="3.266"/>
</g>
</svg>
