<?xml version="1.0" encoding="utf-8"?>
<!-- Generator: Adobe Illustrator 16.0.0, SVG Export Plug-In . SVG Version: 6.00 Build 0)  -->
<!DOCTYPE svg PUBLIC "-//W3C//DTD SVG 1.1//EN" "http://www.w3.org/Graphics/SVG/1.1/DTD/svg11.dtd">
<svg version="1.1" id="Layer_3" xmlns="http://www.w3.org/2000/svg" xmlns:xlink="http://www.w3.org/1999/xlink" x="0px" y="0px"
	 width="100px" height="100px" viewBox="0 0 100 100" enable-background="new 0 0 100 100" xml:space="preserve">
<g>
	<g>
		<path d="M18.736,2.236h-5.925c-2.395,0-4.343,1.948-4.343,4.343c0,2.158,1.617,4.006,3.763,4.298v84.887c0,1.104,0.896,2,2,2
			h3.085c1.104,0,2-0.896,2-2V10.877h0.002c2.144-0.292,3.761-2.14,3.761-4.298C23.079,4.185,21.131,2.236,18.736,2.236z"/>
		<path d="M76.01,14.978c3.332,0,6.47,0.433,9.521,1.317v34.137c-3.076-0.656-6.227-0.979-9.521-0.979
			c-7.217,0-13.944,1.558-20.453,3.064c-5.898,1.366-11.997,2.778-17.955,2.778c-2.862,0-5.584-0.32-8.232-0.973V20.096
			c2.667,0.485,5.396,0.725,8.232,0.725c7.225,0,13.945-1.558,20.444-3.063C63.945,16.391,70.046,14.978,76.01,14.978 M76.01,8.978
			c-6.647,0-13.089,1.491-19.317,2.934c-6.173,1.431-12.555,2.909-19.091,2.909c-4.531,0-8.739-0.699-12.863-2.139
			c-0.612-0.212-1.369-0.441-1.369-0.441v46.482c4.562,1.73,9.217,2.572,14.232,2.572c6.639,0,13.075-1.489,19.309-2.933
			c6.179-1.431,12.567-2.91,19.1-2.91c4.532,0,8.739,0.699,12.862,2.138c0.214,0.074,0.437,0.11,0.658,0.11
			c0.41,0,0.816-0.125,1.159-0.368c0.528-0.375,0.842-0.983,0.842-1.631V13.419c0-0.831-0.514-1.575-1.29-1.87
			C85.682,9.818,81.026,8.978,76.01,8.978L76.01,8.978z"/>
	</g>
</g>
</svg>
