<?xml version="1.0" encoding="utf-8"?>
<!-- Generator: Adobe Illustrator 16.0.0, SVG Export Plug-In . SVG Version: 6.00 Build 0)  -->
<!DOCTYPE svg PUBLIC "-//W3C//DTD SVG 1.1//EN" "http://www.w3.org/Graphics/SVG/1.1/DTD/svg11.dtd">
<svg version="1.1" id="Layer_1" xmlns="http://www.w3.org/2000/svg" xmlns:xlink="http://www.w3.org/1999/xlink" x="0px" y="0px"
	 width="100px" height="100px" viewBox="0 0 100 100" enable-background="new 0 0 100 100" xml:space="preserve">
<g>
	<path d="M2.732,20.779H44.49c0.398,0,0.779-0.158,1.061-0.439s0.439-0.663,0.439-1.061V9.391c0-0.829-0.672-1.5-1.5-1.5H2.732
		c-0.828,0-1.5,0.671-1.5,1.5v9.889C1.232,20.108,1.904,20.779,2.732,20.779z"/>
	<path d="M2.732,44.556H44.49c0.398,0,0.779-0.158,1.061-0.439s0.439-0.663,0.439-1.061v-9.888c0-0.829-0.672-1.5-1.5-1.5H2.732
		c-0.828,0-1.5,0.671-1.5,1.5v9.888C1.232,43.884,1.904,44.556,2.732,44.556z"/>
	<path d="M97.209,79.221H2.732c-0.828,0-1.5,0.671-1.5,1.5v9.889c0,0.829,0.672,1.5,1.5,1.5h94.477c0.398,0,0.779-0.158,1.061-0.439
		s0.439-0.663,0.439-1.061v-9.889C98.709,79.892,98.037,79.221,97.209,79.221z"/>
	<path d="M2.754,55.444c-0.828,0-1.5,0.671-1.5,1.5v9.888c0,0.829,0.672,1.5,1.5,1.5h94.514c0.398,0,0.779-0.158,1.061-0.439
		s0.439-0.663,0.439-1.061v-9.888c0-0.829-0.672-1.5-1.5-1.5H2.754z"/>
	<path d="M97.731,7.891H56.937c-0.54,0-0.978,0.438-0.978,0.978v34.795c0,0.54,0.438,0.978,0.978,0.978h40.795
		c0.54,0,0.978-0.438,0.978-0.978V8.868C98.709,8.328,98.271,7.891,97.731,7.891z M85.641,27.19l-10.855,8.539
		c-0.211,0.166-0.469,0.251-0.727,0.251c-0.176,0-0.352-0.039-0.515-0.118c-0.405-0.197-0.662-0.607-0.662-1.058V17.727
		c0-0.451,0.257-0.861,0.662-1.058c0.404-0.196,0.887-0.146,1.241,0.134l10.855,8.539c0.283,0.223,0.448,0.564,0.448,0.924
		S85.924,26.967,85.641,27.19z"/>
</g>
</svg>
