<?xml version="1.0" encoding="utf-8"?>
<!-- Generator: Adobe Illustrator 16.0.0, SVG Export Plug-In . SVG Version: 6.00 Build 0)  -->
<!DOCTYPE svg PUBLIC "-//W3C//DTD SVG 1.1//EN" "http://www.w3.org/Graphics/SVG/1.1/DTD/svg11.dtd">
<svg version="1.1" id="Layer_3" xmlns="http://www.w3.org/2000/svg" xmlns:xlink="http://www.w3.org/1999/xlink" x="0px" y="0px"
	 width="100px" height="100px" viewBox="0 0 100 100" enable-background="new 0 0 100 100" xml:space="preserve">
<g>
	<path d="M18.736,2.236h-5.925c-2.395,0-4.343,1.948-4.343,4.343c0,2.158,1.617,4.006,3.763,4.298v84.887c0,1.104,0.896,2,2,2h3.085
		c1.104,0,2-0.896,2-2V10.877h0.002c2.144-0.292,3.761-2.14,3.761-4.298C23.079,4.185,21.131,2.236,18.736,2.236z"/>
	<path d="M90.241,11.549c-4.56-1.73-9.215-2.571-14.231-2.571c-6.647,0-13.089,1.491-19.317,2.934
		c-6.173,1.431-12.555,2.909-19.091,2.909c-4.531,0-8.739-0.699-12.863-2.139c-0.612-0.212-1.369-0.491-1.369-0.491v46.532
		c4.562,1.73,9.217,2.572,14.232,2.572c6.639,0,13.075-1.489,19.309-2.933c6.179-1.431,12.567-2.91,19.1-2.91
		c4.532,0,8.739,0.699,12.862,2.138c0.61,0.211,1.289,0.117,1.817-0.258s0.842-0.983,0.842-1.631V13.419
		C91.531,12.588,91.018,11.844,90.241,11.549z M45.721,45.076c-3.643,0.979-6.473,1.663-9.251,1.663
		c-3.243,0-6.364-0.963-10.392-3.214v-12.49c3.956,2.148,7.102,3.073,10.393,3.073c2.831,0,5.658-0.666,9.25-1.628V45.076z
		 M66.886,53.089C62.225,54,58.662,54.901,54.555,55.94c-2.41,0.61-4.897,1.239-7.834,1.927V46.181
		c4.079-1.123,7.222-2.352,10.265-3.541c2.952-1.154,6-2.345,9.902-3.435L66.886,53.089z M56.626,27.555
		c-2.953,1.119-6.002,2.275-9.905,3.362V17.051c4.075-0.871,7.106-1.6,10.309-2.37c2.91-0.699,5.913-1.422,9.856-2.284l0.002,11.694
		C62.811,25.211,59.668,26.402,56.626,27.555z M87.531,39.005c-3.957-2.149-7.104-3.074-10.397-3.074
		c-2.832,0-5.656,0.665-9.246,1.626V24.963c3.64-0.979,6.469-1.661,9.248-1.661c3.244,0,6.366,0.963,10.396,3.215V39.005z"/>
</g>
</svg>
