<?xml version="1.0" encoding="utf-8"?>
<!-- Generator: Adobe Illustrator 16.0.0, SVG Export Plug-In . SVG Version: 6.00 Build 0)  -->
<!DOCTYPE svg PUBLIC "-//W3C//DTD SVG 1.1//EN" "http://www.w3.org/Graphics/SVG/1.1/DTD/svg11.dtd">
<svg version="1.1" id="Layer_1" xmlns="http://www.w3.org/2000/svg" xmlns:xlink="http://www.w3.org/1999/xlink" x="0px" y="0px"
	 width="100px" height="100px" viewBox="0 0 100 100" enable-background="new 0 0 100 100" xml:space="preserve">
<path d="M96.923,51.075l-8.622-1.912c-0.125-4.992-1.196-9.823-3.188-14.371l6.697-5.424c1.073-0.869,1.238-2.443,0.37-3.516
	L83.038,14.56c-0.418-0.515-1.022-0.844-1.682-0.913c-0.663-0.069-1.319,0.126-1.835,0.543l-6.535,5.292
	c-3.99-2.997-8.438-5.151-13.234-6.409V4.762c0-1.381-1.119-2.5-2.5-2.5h-14.53c-1.381,0-2.5,1.119-2.5,2.5v8.317
	c-4.9,1.288-9.435,3.513-13.491,6.618l-6.595-5.247c-0.519-0.413-1.178-0.601-1.84-0.527c-0.658,0.075-1.261,0.409-1.674,0.928
	L7.577,26.222c-0.412,0.519-0.602,1.181-0.527,1.839c0.075,0.659,0.409,1.261,0.928,1.673l6.763,5.378
	c-1.947,4.561-2.976,9.394-3.058,14.379l-8.628,1.992c-0.646,0.149-1.206,0.549-1.558,1.111s-0.465,1.241-0.315,1.887l3.27,14.159
	c0.311,1.345,1.649,2.183,2.998,1.874l8.885-2.051c2.313,4.246,5.362,7.966,9.068,11.069l-3.995,8.373
	c-0.285,0.599-0.321,1.286-0.1,1.911c0.221,0.625,0.682,1.137,1.28,1.422l13.115,6.255c0.339,0.162,0.707,0.244,1.076,0.244
	c0.281,0,0.564-0.048,0.835-0.144c0.625-0.221,1.136-0.682,1.422-1.28l4.043-8.478c4.663,0.851,9.508,0.834,14.144-0.052
	l4.113,8.432c0.605,1.24,2.103,1.757,3.343,1.151l13.06-6.37c0.597-0.291,1.053-0.806,1.269-1.433
	c0.216-0.627,0.174-1.314-0.117-1.91l-4.062-8.324c3.685-3.136,6.705-6.886,8.985-11.158l8.883,1.969
	c1.354,0.297,2.684-0.553,2.981-1.9l3.145-14.185C99.121,52.709,98.271,51.374,96.923,51.075z M66.43,50.142
	c0,9.061-7.371,16.433-16.433,16.433c-9.061,0-16.433-7.372-16.433-16.433s7.372-16.433,16.433-16.433
	C59.059,33.709,66.43,41.081,66.43,50.142z"/>
</svg>
