<?xml version="1.0" encoding="utf-8"?>
<!-- Generator: Adobe Illustrator 16.0.0, SVG Export Plug-In . SVG Version: 6.00 Build 0)  -->
<!DOCTYPE svg PUBLIC "-//W3C//DTD SVG 1.1//EN" "http://www.w3.org/Graphics/SVG/1.1/DTD/svg11.dtd">
<svg version="1.1" id="Layer_2" xmlns="http://www.w3.org/2000/svg" xmlns:xlink="http://www.w3.org/1999/xlink" x="0px" y="0px"
	 width="100px" height="100px" viewBox="0 0 100 100" enable-background="new 0 0 100 100" xml:space="preserve">
<g>
	<path d="M64.204,1.587H41.112c-10.29,0-17.413,2.256-23.824,7.552c-5.042,4.35-8.051,10.672-8.051,16.912
		c0,9.614,7.33,19.831,20.913,19.831c1.306,0,2.752-0.134,4.028-0.253l-0.188,0.457c-0.546,1.308-1.063,2.542-1.063,4.468
		c0,3.75,1.809,6.063,3.558,8.299l0.22,0.283l-0.391,0.027c-5.609,0.384-16.049,1.099-23.675,5.787
		c-9.007,5.356-9.707,13.145-9.707,15.404c0,8.989,8.376,18.06,27.09,18.06c21.76,0,33.146-12.005,33.146-23.863
		c0.003-8.771-5.14-13.101-10.599-17.698l-4.605-3.582c-1.423-1.179-3.195-2.646-3.195-5.365c0-2.672,1.772-4.436,3.336-5.992
		l0.163-0.165c4.973-3.917,10.61-8.358,10.61-17.964c0-9.658-6.036-14.649-8.937-17.048h7.663c0.094,0,0.187-0.026,0.266-0.077
		L64.47,2.51c0.188-0.119,0.276-0.348,0.214-0.562C64.623,1.734,64.427,1.587,64.204,1.587z M36.201,93.122
		c-13.264,0-22.176-6.195-22.176-15.416c0-6.021,3.645-10.396,10.824-12.997c5.749-1.935,13.17-2.031,13.244-2.031
		c1.257,0,1.889,0,2.893,0.126c9.281,6.605,13.743,10.073,13.743,16.678C54.728,87.896,47.628,93.122,36.201,93.122z M36.076,42.343
		c-11.132,0-15.752-14.633-15.752-22.468c0-3.984,0.906-7.042,2.77-9.351c2.023-2.531,5.487-4.166,8.825-4.166
		c10.221,0,15.873,13.738,15.873,23.233c0,1.498,0,6.055-3.148,9.22C42.527,40.924,39.084,42.343,36.076,42.343z"/>
	<path d="M96.569,46.81H84.401V34.685c0-0.276-0.224-0.5-0.5-0.5h-5.235c-0.276,0-0.5,0.224-0.5,0.5V46.81H66.06
		c-0.276,0-0.5,0.224-0.5,0.5v5.304c0,0.276,0.224,0.5,0.5,0.5h12.106v12.203c0,0.276,0.224,0.5,0.5,0.5h5.235
		c0.276,0,0.5-0.224,0.5-0.5V53.113h12.168c0.276,0,0.5-0.224,0.5-0.5V47.31C97.069,47.033,96.846,46.81,96.569,46.81z"/>
</g>
</svg>
