<?xml version="1.0" encoding="utf-8"?>
<!-- Generator: Adobe Illustrator 16.0.0, SVG Export Plug-In . SVG Version: 6.00 Build 0)  -->
<!DOCTYPE svg PUBLIC "-//W3C//DTD SVG 1.1//EN" "http://www.w3.org/Graphics/SVG/1.1/DTD/svg11.dtd">
<svg version="1.1" id="Layer_4" xmlns="http://www.w3.org/2000/svg" xmlns:xlink="http://www.w3.org/1999/xlink" x="0px" y="0px"
	 width="100px" height="100px" viewBox="0 0 100 100" enable-background="new 0 0 100 100" xml:space="preserve">
<g>
	<path d="M60.58,47.531L60.58,47.531c4.576-3.373,7.309-8.754,7.309-14.393c0-9.863-8.025-17.889-17.889-17.889
		s-17.889,8.025-17.889,17.889c0,5.717,2.66,10.959,7.297,14.385c-18.244,6.451-21.092,28.711-21.531,35.379
		c-0.031,0.479,0.137,0.949,0.465,1.299s0.785,0.549,1.264,0.549h60.787c0.48,0,0.938-0.199,1.266-0.549s0.496-0.82,0.465-1.299
		C81.684,76.246,78.83,54.021,60.58,47.531z"/>
	<path d="M84.27,48.371c3.02-2.227,4.822-5.779,4.822-9.502c0-6.508-5.297-11.805-11.807-11.805c-1.867,0-3.627,0.447-5.199,1.223
		c0.344,1.564,0.529,3.184,0.529,4.852c0,4.68-1.484,9.219-4.137,12.988c10.449,6.572,14.982,18.07,16.945,26.809h11.922
		c0.316,0,0.619-0.131,0.836-0.361c0.215-0.23,0.326-0.541,0.305-0.857C98.197,67.322,96.314,52.654,84.27,48.371z"/>
	<path d="M31.486,46.127c-2.654-3.748-4.104-8.238-4.104-12.988c0-1.668,0.188-3.287,0.531-4.852
		c-1.572-0.775-3.332-1.223-5.199-1.223c-6.51,0-11.807,5.297-11.807,11.805c0,3.775,1.754,7.236,4.816,9.496
		C3.682,52.623,1.801,67.316,1.512,71.717c-0.021,0.316,0.09,0.627,0.307,0.857s0.52,0.361,0.836,0.361H14.57
		C16.529,64.195,21.053,52.689,31.486,46.127z"/>
</g>
</svg>
