<?xml version="1.0" encoding="utf-8"?>
<!-- Generator: Adobe Illustrator 16.0.0, SVG Export Plug-In . SVG Version: 6.00 Build 0)  -->
<!DOCTYPE svg PUBLIC "-//W3C//DTD SVG 1.1//EN" "http://www.w3.org/Graphics/SVG/1.1/DTD/svg11.dtd">
<svg version="1.1" id="Layer_2" xmlns="http://www.w3.org/2000/svg" xmlns:xlink="http://www.w3.org/1999/xlink" x="0px" y="0px"
	 width="100px" height="100px" viewBox="0 0 100 100" enable-background="new 0 0 100 100" xml:space="preserve">
<g>
	<path d="M27.049,57.371c0-5.115,1.688-9.838,4.528-13.656c-2.974-2.673-6.893-4.313-11.205-4.313
		c-9.272,0-16.789,7.518-16.789,16.789c0,0,3.95,35.276,16.789,35.276c4.962,0,8.592-5.274,11.184-11.74
		c-3.025-9.953-4.248-19.887-4.488-22.026L27.049,57.371z"/>
	<path d="M20.372,38.186c5.617,0,10.503-3.125,13.02-7.729c-2.513-3.413-4.006-7.619-4.006-12.173c0-2.066,0.313-4.06,0.882-5.943
		c-2.625-2.358-6.088-3.808-9.896-3.808c-8.188,0-14.826,6.639-14.826,14.827C5.546,31.547,12.184,38.186,20.372,38.186z"/>
	<path d="M79.628,39.402c-4.313,0-8.231,1.64-11.205,4.313c2.841,3.818,4.528,8.541,4.528,13.656l-0.019,0.33
		c-0.24,2.14-1.463,12.073-4.488,22.026c2.592,6.466,6.222,11.74,11.184,11.74c12.839,0,16.789-35.276,16.789-35.276
		C96.417,46.92,88.9,39.402,79.628,39.402z"/>
	<path d="M66.608,30.456c2.517,4.604,7.402,7.729,13.02,7.729c8.188,0,14.826-6.639,14.826-14.826
		c0-8.188-6.638-14.827-14.826-14.827c-3.808,0-7.271,1.449-9.896,3.808c0.568,1.884,0.882,3.877,0.882,5.943
		C70.614,22.837,69.121,27.043,66.608,30.456z"/>
	<path d="M50,37.383c-11.039,0-19.988,8.949-19.988,19.988c0,0,4.704,41.997,19.988,41.997s19.988-41.997,19.988-41.997
		C69.988,46.332,61.039,37.383,50,37.383z"/>
	<circle cx="50" cy="18.283" r="17.651"/>
</g>
</svg>
