<?xml version="1.0" encoding="utf-8"?>
<!-- Generator: Adobe Illustrator 16.0.0, SVG Export Plug-In . SVG Version: 6.00 Build 0)  -->
<!DOCTYPE svg PUBLIC "-//W3C//DTD SVG 1.1//EN" "http://www.w3.org/Graphics/SVG/1.1/DTD/svg11.dtd">
<svg version="1.1" id="Layer_3" xmlns="http://www.w3.org/2000/svg" xmlns:xlink="http://www.w3.org/1999/xlink" x="0px" y="0px"
	 width="100px" height="100px" viewBox="0 0 100 100" enable-background="new 0 0 100 100" xml:space="preserve">
<g>
	<path d="M91.183,68.87c0-0.035-0.004-0.146-0.006-0.181c0-0.081-0.005-0.162-0.015-0.243L83.527,6.107
		c-0.18-1.475-1.436-2.586-2.922-2.586H19.395c-1.486,0-2.742,1.111-2.922,2.585L8.839,68.445c-0.01,0.081-0.01,0.115-0.01,0.197
		l-0.017,0.182c-0.006,0.061-0.009,0.121-0.009,0.182v24.529c0,1.623,1.32,2.943,2.942,2.943h76.508c1.622,0,2.942-1.32,2.942-2.944
		L91.183,68.87z M85.311,90.592H14.689V71.854h70.621V90.592z"/>
	<rect x="53.664" y="76.519" width="9.345" height="9.345"/>
	<rect x="71.324" y="76.519" width="9.345" height="9.345"/>
</g>
</svg>
