<?xml version="1.0" encoding="utf-8"?>
<!-- Generator: Adobe Illustrator 16.0.0, SVG Export Plug-In . SVG Version: 6.00 Build 0)  -->
<!DOCTYPE svg PUBLIC "-//W3C//DTD SVG 1.1//EN" "http://www.w3.org/Graphics/SVG/1.1/DTD/svg11.dtd">
<svg version="1.1" id="Layer_3" xmlns="http://www.w3.org/2000/svg" xmlns:xlink="http://www.w3.org/1999/xlink" x="0px" y="0px"
	 width="100px" height="100px" viewBox="0 0 100 100" enable-background="new 0 0 100 100" xml:space="preserve">
<path d="M50,7.054c-25.99,0-47.574,22.721-48.115,50.647c-0.01,0.537,0.196,1.056,0.572,1.439c0.269,0.274,0.608,0.463,0.977,0.548
	v26.706c0,1.104,0.896,2,2,2H6.16v2.552c0,1.104,0.896,2,2,2h13.652c1.104,0,2-0.896,2-2V54.105c0-1.104-0.896-2-2-2h-8.966
	C15.794,32.39,31.766,17.521,50,17.521S84.206,32.39,87.152,52.104l0.001,0.001h-8.966c-1.104,0-2,0.896-2,2v36.841
	c0,1.104,0.896,2,2,2H91.84c1.104,0,2-0.896,2-2v-2.552h0.727c1.104,0,2-0.896,2-2V59.688c0.368-0.085,0.708-0.273,0.977-0.548
	c0.376-0.384,0.582-0.902,0.572-1.439C97.574,29.774,75.99,7.054,50,7.054z"/>
</svg>
