<?xml version="1.0" encoding="utf-8"?>
<!-- Generator: Adobe Illustrator 16.0.0, SVG Export Plug-In . SVG Version: 6.00 Build 0)  -->
<!DOCTYPE svg PUBLIC "-//W3C//DTD SVG 1.1//EN" "http://www.w3.org/Graphics/SVG/1.1/DTD/svg11.dtd">
<svg version="1.1" id="Layer_2" xmlns="http://www.w3.org/2000/svg" xmlns:xlink="http://www.w3.org/1999/xlink" x="0px" y="0px"
	 width="100px" height="100px" viewBox="0 0 100 100" enable-background="new 0 0 100 100" xml:space="preserve">
<g>
	<path d="M25.769,68.225H4.088c-1.104,0-2,0.896-2,2v21.681c0,1.104,0.896,2,2,2h21.681c1.104,0,2-0.896,2-2V70.225
		C27.769,69.12,26.873,68.225,25.769,68.225z"/>
	<path d="M60.498,68.225H38.816c-1.104,0-2,0.896-2,2v21.681c0,1.104,0.896,2,2,2h21.681c1.104,0,2-0.896,2-2V70.225
		C62.498,69.12,61.602,68.225,60.498,68.225z"/>
	<path d="M95.912,68.225H74.231c-1.104,0-2,0.896-2,2v21.681c0,1.104,0.896,2,2,2h21.681c1.104,0,2-0.896,2-2V70.225
		C97.912,69.12,97.017,68.225,95.912,68.225z"/>
	<path d="M39.16,31.775h21.68c1.104,0,2-0.896,2-2V8.094c0-1.104-0.896-2-2-2H39.16c-1.104,0-2,0.896-2,2v21.681
		C37.16,30.88,38.056,31.775,39.16,31.775z"/>
	<path d="M11.601,61.297h4.103c1.104,0,2-0.896,2-2v-8.442h28.245v8.465c0,1.104,0.896,2,2,2h4.103c1.104,0,2-0.896,2-2v-8.465
		h28.245v8.45c0,1.104,0.896,2,2,2h4.103c1.104,0,2-0.896,2-2V44.751c0-1.104-0.896-2-2-2H54.051v-2.775c0-1.104-0.896-2-2-2h-4.103
		c-1.104,0-2,0.896-2,2v2.775H11.601c-1.104,0-2,0.896-2,2v14.545C9.601,60.401,10.497,61.297,11.601,61.297z"/>
</g>
</svg>
