<?xml version="1.0" encoding="utf-8"?>
<!-- Generator: Adobe Illustrator 16.0.0, SVG Export Plug-In . SVG Version: 6.00 Build 0)  -->
<!DOCTYPE svg PUBLIC "-//W3C//DTD SVG 1.1//EN" "http://www.w3.org/Graphics/SVG/1.1/DTD/svg11.dtd">
<svg version="1.1" id="Layer_1" xmlns="http://www.w3.org/2000/svg" xmlns:xlink="http://www.w3.org/1999/xlink" x="0px" y="0px"
	 width="100px" height="100px" viewBox="0 0 100 100" enable-background="new 0 0 100 100" xml:space="preserve">
<path d="M96.834,36.834L51.502,2.753c-0.889-0.669-2.115-0.669-3.004,0L3.166,36.834c-0.86,0.646-1.21,1.77-0.869,2.79
	s1.296,1.708,2.371,1.708H11.5v53.917c0,1.381,1.119,2.5,2.5,2.5h21.75c1.381,0,2.5-1.119,2.5-2.5V68.333h23.5v26.916
	c0,1.381,1.119,2.5,2.5,2.5H86c1.381,0,2.5-1.119,2.5-2.5V41.332h6.832c1.075,0,2.03-0.688,2.371-1.708S97.694,37.48,96.834,36.834z
	"/>
</svg>
