<?xml version="1.0" encoding="utf-8"?>
<!-- Generator: Adobe Illustrator 16.0.0, SVG Export Plug-In . SVG Version: 6.00 Build 0)  -->
<!DOCTYPE svg PUBLIC "-//W3C//DTD SVG 1.1//EN" "http://www.w3.org/Graphics/SVG/1.1/DTD/svg11.dtd">
<svg version="1.1" id="Layer_1" xmlns="http://www.w3.org/2000/svg" xmlns:xlink="http://www.w3.org/1999/xlink" x="0px" y="0px"
	 width="100px" height="100px" viewBox="0 0 100 100" enable-background="new 0 0 100 100" xml:space="preserve">
<path d="M96.499,20.168H3.501c-1.104,0-2,0.896-2,2v55.664c0,1.104,0.896,2,2,2h92.998c1.104,0,2-0.896,2-2V22.168
	C98.499,21.063,97.604,20.168,96.499,20.168z M10.66,44.551c0-0.828,0.672-1.5,1.5-1.5H41.4c0.828,0,1.5,0.672,1.5,1.5v10.898
	c0,0.828-0.672,1.5-1.5,1.5H12.16c-0.828,0-1.5-0.672-1.5-1.5V44.551z M89.34,70.32c0,0.828-0.672,1.5-1.5,1.5H12.16
	c-0.828,0-1.5-0.672-1.5-1.5v-3.841c0-0.828,0.672-1.5,1.5-1.5h75.68c0.828,0,1.5,0.672,1.5,1.5V70.32z M89.34,51.921
	c0,0.828-0.672,1.5-1.5,1.5H53.92c-0.828,0-1.5-0.672-1.5-1.5v-3.842c0-0.828,0.672-1.5,1.5-1.5h33.92c0.828,0,1.5,0.672,1.5,1.5
	V51.921z M89.34,33.521c0,0.828-0.672,1.5-1.5,1.5H12.16c-0.828,0-1.5-0.672-1.5-1.5V29.68c0-0.828,0.672-1.5,1.5-1.5h75.68
	c0.828,0,1.5,0.672,1.5,1.5V33.521z"/>
</svg>
