<?xml version="1.0" encoding="utf-8"?>
<!-- Generator: Adobe Illustrator 16.0.0, SVG Export Plug-In . SVG Version: 6.00 Build 0)  -->
<!DOCTYPE svg PUBLIC "-//W3C//DTD SVG 1.1//EN" "http://www.w3.org/Graphics/SVG/1.1/DTD/svg11.dtd">
<svg version="1.1" id="Layer_1" xmlns="http://www.w3.org/2000/svg" xmlns:xlink="http://www.w3.org/1999/xlink" x="0px" y="0px"
	 width="100px" height="100px" viewBox="0 0 100 100" enable-background="new 0 0 100 100" xml:space="preserve">
<g>
	<path d="M95.084,13.333h-5.916v73.67c0,1.195-0.971,2.165-2.166,2.165h-73.67v5.917c0,1.195,0.971,2.165,2.166,2.165h79.586
		c1.195,0,2.166-0.97,2.166-2.165V15.498C97.25,14.302,96.279,13.333,95.084,13.333z"/>
	<path d="M84.168,82.002V4.916c0-1.195-0.971-2.165-2.166-2.165H4.916c-1.195,0-2.166,0.97-2.166,2.165v77.087
		c0,1.195,0.971,2.165,2.166,2.165h77.086C83.197,84.167,84.168,83.198,84.168,82.002z M62.012,18.745
		c4.568,0,8.273,3.703,8.273,8.273c0,4.569-3.705,8.272-8.273,8.272s-8.273-3.703-8.273-8.272
		C53.738,22.448,57.443,18.745,62.012,18.745z M9.818,77.301c0.426-9.354,5.314-27.529,12.436-34.225
		c6.377-5.952,11.799-0.744,16.051,5.314c3.932,5.633,7.355,10.616,10.238,13.747c4.748,4.747,8.803-2.448,13.781-4.819
		C69.58,53.864,75.559,71.827,77.1,77.322L9.818,77.301z"/>
</g>
</svg>
