<?xml version="1.0" encoding="utf-8"?>
<!-- Generator: Adobe Illustrator 16.0.0, SVG Export Plug-In . SVG Version: 6.00 Build 0)  -->
<!DOCTYPE svg PUBLIC "-//W3C//DTD SVG 1.1//EN" "http://www.w3.org/Graphics/SVG/1.1/DTD/svg11.dtd">
<svg version="1.1" id="Layer_3" xmlns="http://www.w3.org/2000/svg" xmlns:xlink="http://www.w3.org/1999/xlink" x="0px" y="0px"
	 width="100px" height="100px" viewBox="0 0 100 100" enable-background="new 0 0 100 100" xml:space="preserve">
<g>
	<path d="M93.125,63H76.257c-0.53,0-1.039,0.211-1.414,0.586L55.428,83c-1.45,1.449-3.378,2.248-5.428,2.248
		c-2.046,0-3.972-0.796-5.42-2.24L25.157,63.586C24.782,63.211,24.273,63,23.743,63H6.875c-1.104,0-2,0.896-2,2v31.75
		c0,1.104,0.896,2,2,2h86.25c1.104,0,2-0.896,2-2V65C95.125,63.896,94.229,63,93.125,63z"/>
	<path d="M48.586,77.821c0.375,0.375,0.884,0.586,1.414,0.586s1.039-0.211,1.414-0.586l26.36-26.361
		c0.781-0.781,0.781-2.047,0-2.828l-6.597-6.598c-0.375-0.375-0.884-0.586-1.414-0.586s-1.039,0.211-1.414,0.586L57.088,53.295V3.25
		c0-1.104-0.896-2-2-2H44.912c-1.104,0-2,0.896-2,2v50.045L31.65,42.034c-0.781-0.781-2.048-0.781-2.828,0l-6.598,6.598
		c-0.375,0.375-0.586,0.884-0.586,1.414s0.211,1.039,0.586,1.414L48.586,77.821z"/>
</g>
</svg>
