<?xml version="1.0" encoding="utf-8"?>
<!-- Generator: Adobe Illustrator 16.0.0, SVG Export Plug-In . SVG Version: 6.00 Build 0)  -->
<!DOCTYPE svg PUBLIC "-//W3C//DTD SVG 1.1//EN" "http://www.w3.org/Graphics/SVG/1.1/DTD/svg11.dtd">
<svg version="1.1" id="Layer_4" xmlns="http://www.w3.org/2000/svg" xmlns:xlink="http://www.w3.org/1999/xlink" x="0px" y="0px"
	 width="100px" height="100px" viewBox="0 0 100 100" enable-background="new 0 0 100 100" xml:space="preserve">
<path d="M50,2C23.49,2,2,23.49,2,50s21.49,48,48,48s48-21.49,48-48S76.51,2,50,2z M50,13.297c4.884,0,8.857,3.973,8.857,8.857
	S54.884,31.011,50,31.011s-8.857-3.973-8.857-8.857S45.116,13.297,50,13.297z M61.748,85.19c0,0.835-0.677,1.512-1.512,1.512H40.15
	c-0.835,0-1.512-0.677-1.512-1.512v-7.174c0-0.835,0.677-1.512,1.512-1.512h3.884V42.767h-4.269c-0.835,0-1.512-0.677-1.512-1.512
	V36.2c0-0.835,0.677-1.512,1.512-1.512h15.075c0.835,0,1.512,0.677,1.512,1.512v40.304h3.884c0.835,0,1.512,0.677,1.512,1.512V85.19
	z"/>
</svg>
