<?xml version="1.0" encoding="utf-8"?>
<!-- Generator: Adobe Illustrator 16.0.0, SVG Export Plug-In . SVG Version: 6.00 Build 0)  -->
<!DOCTYPE svg PUBLIC "-//W3C//DTD SVG 1.1//EN" "http://www.w3.org/Graphics/SVG/1.1/DTD/svg11.dtd">
<svg version="1.1" id="Layer_2" xmlns="http://www.w3.org/2000/svg" xmlns:xlink="http://www.w3.org/1999/xlink" x="0px" y="0px"
	 width="100px" height="100px" viewBox="0 0 100 100" enable-background="new 0 0 100 100" xml:space="preserve">
<g>
	<path d="M86.202,16.31c-0.179-2.11-1.381-3.698-2.714-3.572c-0.677,0.058-1.263,0.527-1.651,1.325
		c-0.357,0.734-0.508,1.677-0.426,2.651c0.171,2.039,1.279,3.577,2.579,3.577c0.045,0,0.09-0.002,0.135-0.006
		C85.468,20.172,86.381,18.425,86.202,16.31z"/>
	<path d="M87.063,5.819C83.866,2.557,79.59,0.76,75.021,0.76c-4.436,0-8.623,1.709-11.791,4.813
		c-2.292,2.245-3.887,5.094-4.611,8.241H10.133c-1.104,0-2,0.896-2,2V97.24c0,1.104,0.896,2,2,2h59.928c1.104,0,2-0.896,2-2V34.201
		c0.979,0.174,1.979,0.262,2.971,0.262c4.433,0,8.617-1.708,11.783-4.81C93.453,23.151,93.564,12.459,87.063,5.819z M84.134,26.427
		c-2.375,2.327-5.515,3.608-8.84,3.608c-2.592,0-5.081-0.776-7.198-2.245l-0.253-0.175L50.578,44.526
		c-0.227,0.221-0.517,0.365-0.829,0.412l-2.003,0.298c-0.074,0.011-0.148,0.016-0.222,0.016c-0.563,0-1.086-0.317-1.342-0.833
		c-0.29-0.582-0.171-1.284,0.293-1.739l18.437-18.058l-0.17-0.254c-3.341-5.042-2.628-11.773,1.694-16.008
		c2.378-2.329,5.521-3.612,8.849-3.612c3.427,0,6.636,1.348,9.034,3.796C89.197,13.526,89.113,21.548,84.134,26.427z"/>
</g>
</svg>
