<?xml version="1.0" encoding="utf-8"?>
<!-- Generator: Adobe Illustrator 16.0.0, SVG Export Plug-In . SVG Version: 6.00 Build 0)  -->
<!DOCTYPE svg PUBLIC "-//W3C//DTD SVG 1.1//EN" "http://www.w3.org/Graphics/SVG/1.1/DTD/svg11.dtd">
<svg version="1.1" id="Layer_4" xmlns="http://www.w3.org/2000/svg" xmlns:xlink="http://www.w3.org/1999/xlink" x="0px" y="0px"
	 width="100px" height="100px" viewBox="0 0 100 100" enable-background="new 0 0 100 100" xml:space="preserve">
<path d="M96.577,38.491H51.204c-0.691-1.78-0.075-2.836,0.132-3.121c0.428-0.589,2.219-1.399,4.087-2.246
	c4.54-1.974,7.431-5.197,7.93-8.843c0.384-2.81-0.655-5.61-3.004-8.098c-0.396-0.419-0.961-0.656-1.529-0.625
	c-0.576,0.021-1.114,0.29-1.478,0.737l-1.464,1.803c-0.62,0.763-0.593,1.864,0.063,2.596c0.888,0.989,1.28,1.909,1.167,2.734
	c-0.187,1.371-1.801,2.875-4.24,3.935c-5.69,2.575-8.626,4.24-7.911,11.126l-41.535,0c-1.104,0-2,0.896-2,2v41.953
	c0,1.104,0.896,2,2,2h93.154c1.104,0,2-0.896,2-2V40.491C98.577,39.387,97.682,38.491,96.577,38.491z M36.346,47.033
	c0-0.829,0.671-1.5,1.5-1.5h4.353c0.829,0,1.5,0.671,1.5,1.5v4.352c0,0.829-0.671,1.5-1.5,1.5h-4.353c-0.829,0-1.5-0.671-1.5-1.5
	V47.033z M23.742,47.033c0-0.829,0.671-1.5,1.5-1.5h4.352c0.829,0,1.5,0.671,1.5,1.5v4.352c0,0.829-0.671,1.5-1.5,1.5h-4.352
	c-0.829,0-1.5-0.671-1.5-1.5V47.033z M23.742,59.637c0-0.829,0.671-1.5,1.5-1.5h4.352c0.829,0,1.5,0.671,1.5,1.5v4.353
	c0,0.829-0.671,1.5-1.5,1.5h-4.352c-0.829,0-1.5-0.671-1.5-1.5V59.637z M18.491,76.593c0,0.829-0.671,1.5-1.5,1.5h-4.352
	c-0.829,0-1.5-0.671-1.5-1.5v-4.352c0-0.829,0.671-1.5,1.5-1.5h4.352c0.829,0,1.5,0.671,1.5,1.5V76.593z M18.491,63.989
	c0,0.829-0.671,1.5-1.5,1.5h-4.352c-0.829,0-1.5-0.671-1.5-1.5v-4.353c0-0.829,0.671-1.5,1.5-1.5h4.352c0.829,0,1.5,0.671,1.5,1.5
	V63.989z M18.491,51.385c0,0.829-0.671,1.5-1.5,1.5h-4.352c-0.829,0-1.5-0.671-1.5-1.5v-4.352c0-0.829,0.671-1.5,1.5-1.5h4.352
	c0.829,0,1.5,0.671,1.5,1.5V51.385z M43.698,76.593c0,0.829-0.671,1.5-1.5,1.5H25.242c-0.829,0-1.5-0.671-1.5-1.5v-4.352
	c0-0.829,0.671-1.5,1.5-1.5h16.956c0.829,0,1.5,0.671,1.5,1.5V76.593z M56.302,76.593c0,0.829-0.671,1.5-1.5,1.5H50.45
	c-0.829,0-1.5-0.671-1.5-1.5v-4.352c0-0.829,0.671-1.5,1.5-1.5h4.352c0.829,0,1.5,0.671,1.5,1.5V76.593z M56.302,63.989
	c0,0.829-0.671,1.5-1.5,1.5h-17c-0.829,0-1.5-0.671-1.5-1.5v-4.353c0-0.829,0.671-1.5,1.5-1.5h10.622
	c0.29,0,0.525-0.235,0.525-0.525V47.033c0-0.829,0.671-1.5,1.5-1.5h4.352c0.829,0,1.5,0.671,1.5,1.5V63.989z M71.531,74.492
	c0,0.829-0.671,1.5-1.5,1.5h-4.352c-0.829,0-1.5-0.671-1.5-1.5V70.14c0-0.829,0.671-1.5,1.5-1.5h4.352c0.829,0,1.5,0.671,1.5,1.5
	V74.492z M71.531,63.989c0,0.829-0.671,1.5-1.5,1.5h-4.352c-0.829,0-1.5-0.671-1.5-1.5v-4.353c0-0.829,0.671-1.5,1.5-1.5h4.352
	c0.829,0,1.5,0.671,1.5,1.5V63.989z M71.531,53.486c0,0.829-0.671,1.5-1.5,1.5h-4.352c-0.829,0-1.5-0.671-1.5-1.5v-4.352
	c0-0.829,0.671-1.5,1.5-1.5h4.352c0.829,0,1.5,0.671,1.5,1.5V53.486z M82.035,74.492c0,0.829-0.671,1.5-1.5,1.5h-4.353
	c-0.829,0-1.5-0.671-1.5-1.5V70.14c0-0.829,0.671-1.5,1.5-1.5h4.353c0.829,0,1.5,0.671,1.5,1.5V74.492z M82.035,63.989
	c0,0.829-0.671,1.5-1.5,1.5h-4.353c-0.829,0-1.5-0.671-1.5-1.5v-4.353c0-0.829,0.671-1.5,1.5-1.5h4.353c0.829,0,1.5,0.671,1.5,1.5
	V63.989z M82.035,53.486c0,0.829-0.671,1.5-1.5,1.5h-4.353c-0.829,0-1.5-0.671-1.5-1.5v-4.352c0-0.829,0.671-1.5,1.5-1.5h4.353
	c0.829,0,1.5,0.671,1.5,1.5V53.486z M92.538,74.492c0,0.829-0.671,1.5-1.5,1.5h-4.352c-0.829,0-1.5-0.671-1.5-1.5V59.637
	c0-0.829,0.671-1.5,1.5-1.5h4.352c0.829,0,1.5,0.671,1.5,1.5V74.492z M92.538,53.486c0,0.829-0.671,1.5-1.5,1.5h-4.352
	c-0.829,0-1.5-0.671-1.5-1.5v-4.352c0-0.829,0.671-1.5,1.5-1.5h4.352c0.829,0,1.5,0.671,1.5,1.5V53.486z"/>
</svg>
