<?xml version="1.0" encoding="utf-8"?>
<!-- Generator: Adobe Illustrator 16.0.0, SVG Export Plug-In . SVG Version: 6.00 Build 0)  -->
<!DOCTYPE svg PUBLIC "-//W3C//DTD SVG 1.1//EN" "http://www.w3.org/Graphics/SVG/1.1/DTD/svg11.dtd">
<svg version="1.1" id="Layer_3" xmlns="http://www.w3.org/2000/svg" xmlns:xlink="http://www.w3.org/1999/xlink" x="0px" y="0px"
	 width="100px" height="100px" viewBox="0 0 100 100" enable-background="new 0 0 100 100" xml:space="preserve">
<path d="M92.846,50l4.889-6.98c0.304-0.435,0.423-0.972,0.332-1.495c-0.092-0.522-0.388-0.987-0.823-1.292l-6.981-4.887l2.206-8.233
	c0.138-0.512,0.065-1.058-0.2-1.518s-0.702-0.794-1.214-0.932l-8.231-2.204l-0.743-8.494c-0.046-0.528-0.3-1.017-0.707-1.358
	c-0.407-0.341-0.936-0.512-1.46-0.46l-8.489,0.746L67.821,5.17c-0.466-1-1.654-1.433-2.658-0.967L57.44,7.805l-6.026-6.026
	c-0.781-0.78-2.047-0.78-2.828,0L42.56,7.805l-7.723-3.602c-0.48-0.224-1.032-0.249-1.529-0.067
	c-0.499,0.182-0.904,0.553-1.128,1.034l-3.602,7.724l-8.49-0.743c-0.529-0.051-1.054,0.119-1.46,0.46
	c-0.406,0.341-0.661,0.83-0.707,1.358l-0.743,8.489l-8.232,2.206c-0.512,0.137-0.949,0.472-1.214,0.932s-0.337,1.005-0.2,1.518
	l2.206,8.232l-6.981,4.888c-0.435,0.304-0.73,0.769-0.823,1.291c-0.092,0.522,0.027,1.06,0.332,1.495L7.154,50l-4.889,6.981
	c-0.304,0.435-0.423,0.972-0.332,1.495c0.092,0.522,0.388,0.987,0.823,1.291l6.981,4.888l-2.206,8.231
	c-0.138,0.512-0.065,1.058,0.2,1.518s0.702,0.794,1.214,0.932l8.232,2.206l0.743,8.494c0.046,0.528,0.3,1.017,0.707,1.358
	c0.406,0.34,0.931,0.506,1.46,0.46l8.489-0.746l3.602,7.723c0.224,0.481,0.63,0.853,1.128,1.034c0.5,0.183,1.05,0.157,1.53-0.067
	l7.722-3.602l6.026,6.026c0.39,0.391,0.902,0.586,1.414,0.586s1.023-0.195,1.414-0.586l6.026-6.025l7.723,3.601
	c1.003,0.467,2.191,0.033,2.658-0.967l3.602-7.724l8.49,0.743c0.523,0.045,1.053-0.12,1.46-0.46c0.406-0.341,0.661-0.83,0.707-1.358
	l0.743-8.489l8.232-2.207c0.513-0.137,0.949-0.472,1.214-0.932c0.266-0.459,0.337-1.005,0.2-1.518l-2.206-8.231l6.982-4.887
	c0.435-0.305,0.73-0.769,0.823-1.292c0.092-0.522-0.027-1.06-0.332-1.495L92.846,50z"/>
</svg>
