<?xml version="1.0" encoding="utf-8"?>
<!-- Generator: Adobe Illustrator 16.0.0, SVG Export Plug-In . SVG Version: 6.00 Build 0)  -->
<!DOCTYPE svg PUBLIC "-//W3C//DTD SVG 1.1//EN" "http://www.w3.org/Graphics/SVG/1.1/DTD/svg11.dtd">
<svg version="1.1" id="Layer_4" xmlns="http://www.w3.org/2000/svg" xmlns:xlink="http://www.w3.org/1999/xlink" x="0px" y="0px"
	 width="100px" height="100px" viewBox="0 0 100 100" enable-background="new 0 0 100 100" xml:space="preserve">
<path d="M4.603,48.269L44.3,25.345c0.618-0.357,1.381-0.357,2,0c0.618,0.357,1,1.018,1,1.732v9.599l0.001,0
	c0.279,0.036,28.08,3.903,47.527,30.506l1.21,1.735c0.538,0.772,0.466,1.814-0.175,2.504c-0.639,0.688-1.674,0.841-2.483,0.361
	l-1.813-1.071c-0.346-0.206-1.096-0.63-1.141-0.656c-10.484-6.259-20.815-9.433-30.706-9.433c-7.401,0-11.849,1.86-12.419,2.108
	L47.3,72.923c0,0.714-0.382,1.375-1,1.732c-0.31,0.179-0.655,0.268-1,0.268s-0.69-0.089-1-0.268L4.603,51.733
	c-0.618-0.357-1-1.018-1-1.732S3.984,48.626,4.603,48.269z"/>
</svg>
