<?xml version="1.0" encoding="utf-8"?>
<!-- Generator: Adobe Illustrator 16.0.0, SVG Export Plug-In . SVG Version: 6.00 Build 0)  -->
<!DOCTYPE svg PUBLIC "-//W3C//DTD SVG 1.1//EN" "http://www.w3.org/Graphics/SVG/1.1/DTD/svg11.dtd">
<svg version="1.1" id="Layer_1" xmlns="http://www.w3.org/2000/svg" xmlns:xlink="http://www.w3.org/1999/xlink" x="0px" y="0px"
	 width="100px" height="100px" viewBox="0 0 100 100" enable-background="new 0 0 100 100" xml:space="preserve">
<g>
	<path d="M32.846,46.274c-2.348-0.676-4.696-1.019-6.98-1.019c-3.527,0-6.47,0.806-8.752,1.793
		c2.2-8.054,7.485-21.951,18.013-23.516c0.975-0.145,1.774-0.85,2.04-1.799l2.301-8.23c0.194-0.696,0.079-1.441-0.318-2.045
		s-1.035-1.007-1.75-1.105c-0.777-0.106-1.569-0.16-2.354-0.16c-12.637,0-25.152,13.19-30.433,32.076
		C1.513,53.349,0.604,70.008,8.24,80.492c4.273,5.867,10.507,9,18.529,9.313c0.033,0.001,0.065,0.002,0.098,0.002
		c9.898,0,18.675-6.666,21.345-16.209c1.595-5.705,0.874-11.689-2.032-16.85C43.305,51.641,38.57,47.921,32.846,46.274z"/>
	<path d="M94.805,56.748c-2.875-5.107-7.61-8.827-13.334-10.474c-2.348-0.676-4.696-1.019-6.98-1.019
		c-3.527,0-6.47,0.806-8.752,1.793c2.2-8.054,7.485-21.951,18.013-23.516c0.975-0.145,1.774-0.85,2.04-1.799l2.301-8.23
		c0.194-0.696,0.079-1.441-0.318-2.045s-1.035-1.007-1.75-1.105c-0.777-0.106-1.569-0.16-2.354-0.16
		c-12.637,0-25.152,13.19-30.433,32.076c-3.099,11.08-4.008,27.739,3.628,38.224c4.273,5.867,10.507,9,18.529,9.313
		c0.033,0.001,0.065,0.002,0.098,0.002c9.898,0,18.675-6.666,21.345-16.209C98.432,67.893,97.71,61.909,94.805,56.748z"/>
</g>
</svg>
