<?xml version="1.0" encoding="utf-8"?>
<!-- Generator: Adobe Illustrator 16.0.0, SVG Export Plug-In . SVG Version: 6.00 Build 0)  -->
<!DOCTYPE svg PUBLIC "-//W3C//DTD SVG 1.1//EN" "http://www.w3.org/Graphics/SVG/1.1/DTD/svg11.dtd">
<svg version="1.1" id="Layer_4" xmlns="http://www.w3.org/2000/svg" xmlns:xlink="http://www.w3.org/1999/xlink" x="0px" y="0px"
	 width="100px" height="100px" viewBox="0 0 100 100" enable-background="new 0 0 100 100" xml:space="preserve">
<g>
	<path d="M42.32,4.167C33.922,4.54,26.425,7.889,20.64,13.852C5.304,29.661,5.599,59.463,5.683,62.759l0.001,31.078
		c0,1.104,0.896,2,2,2h30.691c1.104,0,2-0.896,2-2V63.145c0-1.104-0.896-2-2-2H22.69c0.003-2.563,0.313-25.309,10.186-35.455
		c2.672-2.747,5.836-4.214,9.674-4.485c1.048-0.074,1.859-0.945,1.859-1.995V6.166c0-0.546-0.223-1.068-0.617-1.445
		C43.397,4.343,42.873,4.133,42.32,4.167z"/>
	<path d="M93.716,4.72c-0.395-0.377-0.907-0.587-1.472-0.553c-8.398,0.372-15.896,3.721-21.681,9.685
		C55.228,29.661,55.522,59.463,55.606,62.759l0.001,31.078c0,1.104,0.896,2,2,2h30.691c1.104,0,2-0.896,2-2V63.145
		c0-1.104-0.896-2-2-2H72.615c0.003-2.563,0.313-25.309,10.185-35.455c2.672-2.747,5.836-4.214,9.674-4.485
		c1.048-0.074,1.859-0.945,1.859-1.995V6.166C94.333,5.62,94.11,5.098,93.716,4.72z"/>
</g>
</svg>
