<?xml version="1.0" encoding="utf-8"?>
<!-- Generator: Adobe Illustrator 16.0.0, SVG Export Plug-In . SVG Version: 6.00 Build 0)  -->
<!DOCTYPE svg PUBLIC "-//W3C//DTD SVG 1.1//EN" "http://www.w3.org/Graphics/SVG/1.1/DTD/svg11.dtd">
<svg version="1.1" id="Layer_4" xmlns="http://www.w3.org/2000/svg" xmlns:xlink="http://www.w3.org/1999/xlink" x="0px" y="0px"
	 width="100px" height="100px" viewBox="0 0 100 100" enable-background="new 0 0 100 100" xml:space="preserve">
<g>
	<path d="M10.837,50.001c0-0.638,0.341-1.228,0.893-1.547l28.083-16.217V29.53c0-0.638-0.341-1.228-0.894-1.547
		s-1.233-0.319-1.785,0L1.684,48.454c-0.552,0.319-0.894,0.909-0.894,1.547c0,0.638,0.342,1.228,0.894,1.546l35.45,20.47
		c0.276,0.16,0.585,0.239,0.893,0.239s0.616-0.08,0.893-0.239c0.553-0.319,0.894-0.909,0.894-1.547v-2.707L11.729,51.547
		C11.178,51.229,10.837,50.639,10.837,50.001z"/>
	<path d="M98.89,66.894l-1.08-1.55c-17.367-23.757-42.193-27.21-42.442-27.242h-0.001V29.53c0-0.638-0.341-1.228-0.894-1.547
		s-1.233-0.319-1.786,0L17.237,48.454c-0.553,0.319-0.894,0.909-0.894,1.547c0,0.638,0.341,1.228,0.894,1.546l35.449,20.47
		c0.277,0.16,0.586,0.239,0.894,0.239s0.616-0.08,0.893-0.239c0.553-0.319,0.894-0.909,0.894-1.547l0.001-9.101
		c0.509-0.221,4.48-1.883,11.09-1.883c8.832,0,18.059,2.834,27.421,8.423c0.04,0.023,0.71,0.402,1.019,0.586l1.619,0.957
		c0.724,0.429,1.647,0.292,2.218-0.323C99.306,68.514,99.37,67.583,98.89,66.894z"/>
</g>
</svg>
