<?xml version="1.0" encoding="utf-8"?>
<!-- Generator: Adobe Illustrator 16.0.0, SVG Export Plug-In . SVG Version: 6.00 Build 0)  -->
<!DOCTYPE svg PUBLIC "-//W3C//DTD SVG 1.1//EN" "http://www.w3.org/Graphics/SVG/1.1/DTD/svg11.dtd">
<svg version="1.1" id="Layer_1" xmlns="http://www.w3.org/2000/svg" xmlns:xlink="http://www.w3.org/1999/xlink" x="0px" y="0px"
	 width="100px" height="100px" viewBox="0 0 100 100" enable-background="new 0 0 100 100" xml:space="preserve">
<g>
	<path d="M2.938,12.903c-1.092,0-1.977,0.886-1.977,1.978v70.238c0,1.092,0.885,1.978,1.977,1.978h42.511V12.903H2.938z
		 M32.692,34.71c0.646,0.314,1.055,0.969,1.055,1.686v27.21c0,0.717-0.409,1.372-1.055,1.685c-0.645,0.313-1.413,0.231-1.978-0.212
		L13.42,51.473c-0.451-0.354-0.715-0.898-0.715-1.473s0.264-1.117,0.715-1.473l17.295-13.604c0.337-0.265,0.746-0.401,1.158-0.401
		C32.152,34.521,32.433,34.584,32.692,34.71z"/>
	<path d="M97.063,87.097c1.092,0,1.977-0.886,1.977-1.978V14.881c0-1.092-0.885-1.978-1.977-1.978H54.552v74.193H97.063z
		 M67.308,65.29c-0.646-0.314-1.055-0.969-1.055-1.686v-27.21c0-0.717,0.409-1.372,1.055-1.685c0.645-0.313,1.413-0.231,1.978,0.212
		L86.58,48.527c0.451,0.354,0.715,0.898,0.715,1.473s-0.264,1.117-0.715,1.473L69.285,65.077c-0.337,0.265-0.746,0.401-1.158,0.401
		C67.848,65.479,67.567,65.416,67.308,65.29z"/>
	<path d="M54.552,96.191v-9.095h-9.104v9.095c0,0.818,0.664,1.482,1.482,1.482h6.139C53.888,97.674,54.552,97.01,54.552,96.191z"/>
	<path d="M54.552,3.809c0-0.818-0.664-1.482-1.482-1.482h-6.139c-0.818,0-1.482,0.664-1.482,1.482v9.095h9.104V3.809z"/>
</g>
</svg>
