<?xml version="1.0" encoding="utf-8"?>
<!-- Generator: Adobe Illustrator 16.0.0, SVG Export Plug-In . SVG Version: 6.00 Build 0)  -->
<!DOCTYPE svg PUBLIC "-//W3C//DTD SVG 1.1//EN" "http://www.w3.org/Graphics/SVG/1.1/DTD/svg11.dtd">
<svg version="1.1" id="Layer_4" xmlns="http://www.w3.org/2000/svg" xmlns:xlink="http://www.w3.org/1999/xlink" x="0px" y="0px"
	 width="100px" height="100px" viewBox="0 0 100 100" enable-background="new 0 0 100 100" xml:space="preserve">
<path d="M50,1.5C23.258,1.5,1.5,23.257,1.5,50S23.258,98.5,50,98.5S98.5,76.743,98.5,50S76.742,1.5,50,1.5z M24.957,50
	c0-13.809,11.234-25.043,25.043-25.043S75.043,36.191,75.043,50S63.809,75.043,50,75.043S24.957,63.809,24.957,50z M79.304,62.492
	c1.642-3.838,2.554-8.061,2.554-12.492s-0.912-8.654-2.554-12.492l7.813-7.813C90.43,35.726,92.318,42.646,92.318,50
	c0,7.354-1.889,14.274-5.202,20.306L79.304,62.492z M70.306,12.883l-7.813,7.813c-3.839-1.642-8.062-2.554-12.493-2.554
	s-8.654,0.912-12.493,2.554l-7.813-7.813C35.727,9.57,42.646,7.681,50,7.681S64.274,9.57,70.306,12.883z M12.884,29.694l7.813,7.813
	c-1.642,3.838-2.554,8.061-2.554,12.492c0,4.432,0.912,8.654,2.555,12.493l-7.813,7.813C9.57,64.274,7.682,57.354,7.682,50
	S9.57,35.726,12.884,29.694z M29.694,87.117l7.813-7.813c3.839,1.642,8.061,2.554,12.492,2.554s8.653-0.912,12.492-2.554
	l7.813,7.813C64.274,90.43,57.354,92.319,50,92.319C42.646,92.319,35.727,90.43,29.694,87.117z"/>
</svg>
