<?xml version="1.0" encoding="utf-8"?>
<!-- Generator: Adobe Illustrator 16.0.0, SVG Export Plug-In . SVG Version: 6.00 Build 0)  -->
<!DOCTYPE svg PUBLIC "-//W3C//DTD SVG 1.1//EN" "http://www.w3.org/Graphics/SVG/1.1/DTD/svg11.dtd">
<svg version="1.1" id="Layer_2" xmlns="http://www.w3.org/2000/svg" xmlns:xlink="http://www.w3.org/1999/xlink" x="0px" y="0px"
	 width="100px" height="100px" viewBox="0 0 100 100" enable-background="new 0 0 100 100" xml:space="preserve">
<path d="M83.917,16.082c-18.731-18.731-49.103-18.731-67.835,0c-18.732,18.732-18.732,49.104,0,67.836
	c18.732,18.731,49.104,18.731,67.835,0C102.649,65.186,102.649,34.814,83.917,16.082z M60.299,14.327
	c0.096-0.429,0.375-0.794,0.762-1c0.389-0.205,0.848-0.23,1.256-0.068c5.521,2.192,10.473,5.458,14.721,9.705
	c4.246,4.247,7.512,9.199,9.703,14.719c0.162,0.408,0.137,0.867-0.068,1.256c-0.205,0.388-0.57,0.666-1,0.762l-22.947,5.113
	c-0.01,0.002-0.02,0.001-0.029,0.003c-0.68-1.666-1.69-3.199-3.004-4.513c-1.312-1.31-2.842-2.318-4.506-2.998
	c0.002-0.01,0-0.021,0.002-0.03L60.299,14.327z M54.215,54.213C53.086,55.34,51.59,55.959,50,55.959s-3.086-0.619-4.213-1.744
	c-1.127-1.128-1.746-2.624-1.746-4.215s0.619-3.087,1.744-4.213c1.129-1.127,2.625-1.746,4.215-1.746s3.086,0.619,4.213,1.744
	c1.127,1.128,1.746,2.624,1.746,4.215S55.34,53.087,54.215,54.213z M13.26,37.683c2.191-5.519,5.457-10.471,9.703-14.719
	c4.25-4.248,9.201-7.513,14.721-9.705c0.408-0.162,0.867-0.137,1.256,0.068c0.387,0.206,0.666,0.571,0.762,1l5.111,22.948
	c0.002,0.01,0,0.021,0.002,0.03c-1.665,0.681-3.197,1.69-4.511,3.002c-1.311,1.312-2.319,2.843-3,4.508
	c-0.009-0.002-0.019-0.001-0.028-0.003L14.328,39.7c-0.43-0.096-0.795-0.374-1-0.762C13.123,38.55,13.098,38.091,13.26,37.683z
	 M39.701,85.673c-0.096,0.429-0.375,0.794-0.764,1c-0.219,0.115-0.459,0.174-0.701,0.174c-0.188,0-0.375-0.035-0.553-0.106
	c-5.523-2.194-10.477-5.459-14.721-9.704c-4.246-4.247-7.512-9.199-9.703-14.72c-0.162-0.408-0.137-0.867,0.068-1.256
	c0.205-0.388,0.57-0.666,1-0.762l22.947-5.112c0.01-0.002,0.02,0,0.029-0.002c0.681,1.666,1.69,3.198,3.004,4.512
	c1.312,1.31,2.842,2.318,4.506,2.998c-0.002,0.01,0,0.02-0.002,0.029L39.701,85.673z M86.74,62.316
	c-2.191,5.521-5.457,10.473-9.703,14.72c-4.246,4.245-9.197,7.51-14.721,9.704c-0.178,0.071-0.365,0.106-0.553,0.106
	c-0.242,0-0.482-0.059-0.701-0.174c-0.389-0.206-0.668-0.571-0.764-1l-5.111-22.949c-0.002-0.01,0-0.02-0.002-0.029
	c1.665-0.681,3.197-1.69,4.511-3.002c1.311-1.312,2.319-2.842,2.999-4.508c0.01,0.002,0.02,0,0.029,0.002l22.947,5.112
	c0.43,0.096,0.795,0.374,1,0.762C86.877,61.449,86.902,61.908,86.74,62.316z"/>
</svg>
