<?xml version="1.0" encoding="utf-8"?>
<!-- Generator: Adobe Illustrator 16.0.0, SVG Export Plug-In . SVG Version: 6.00 Build 0)  -->
<!DOCTYPE svg PUBLIC "-//W3C//DTD SVG 1.1//EN" "http://www.w3.org/Graphics/SVG/1.1/DTD/svg11.dtd">
<svg version="1.1" id="Layer_3" xmlns="http://www.w3.org/2000/svg" xmlns:xlink="http://www.w3.org/1999/xlink" x="0px" y="0px"
	 width="100px" height="100px" viewBox="0 0 100 100" enable-background="new 0 0 100 100" xml:space="preserve">
<path d="M76.946,39.386c-0.358-0.616-1.017-0.995-1.729-0.995H54.187l14.711-33.72c0.27-0.618,0.21-1.331-0.16-1.896
	s-0.999-0.904-1.673-0.904H43.697c-0.848,0-1.604,0.535-1.886,1.334L22.597,57.633c-0.216,0.612-0.122,1.291,0.253,1.821
	c0.375,0.53,0.984,0.845,1.633,0.845h22.636L36.112,95.533c-0.189,0.607-0.079,1.269,0.298,1.781
	c0.377,0.513,0.975,0.815,1.611,0.815h5.449c0.719,0,1.382-0.386,1.738-1.01l31.747-55.738
	C77.308,40.762,77.304,40.002,76.946,39.386z"/>
</svg>
