<?xml version="1.0" encoding="utf-8"?>
<!-- Generator: Adobe Illustrator 16.0.0, SVG Export Plug-In . SVG Version: 6.00 Build 0)  -->
<!DOCTYPE svg PUBLIC "-//W3C//DTD SVG 1.1//EN" "http://www.w3.org/Graphics/SVG/1.1/DTD/svg11.dtd">
<svg version="1.1" id="Layer_4" xmlns="http://www.w3.org/2000/svg" xmlns:xlink="http://www.w3.org/1999/xlink" x="0px" y="0px"
	 width="100px" height="100px" viewBox="0 0 100 100" enable-background="new 0 0 100 100" xml:space="preserve">
<g>
	<g>
		<path d="M79.484,9.759c3.207,4.848,3.566,12.041,1.078,21.434c6.193,2.121,14.082,8.084,15.953,24.516
			c1.613,14.15-0.691,24.827-6.857,31.734c-4.977,5.579-11.988,8.407-20.84,8.407c-14.852,0-31.035-8.331-34.131-10.002
			c-2.996-1.619-4.857-4.741-4.857-8.146V38.236c0-4.497,3.213-8.331,7.646-9.118c1.334-0.235,13.113-2.533,15.66-10.566
			C55.91,9.803,62.234,4.15,69.248,4.15C73.387,4.15,77.117,6.193,79.484,9.759z M40.053,77.122
			c3.143,1.646,16.955,8.505,28.766,8.505c5.895,0,10.217-1.633,13.213-4.99c4.143-4.641,5.598-12.638,4.328-23.771
			c-1.215-10.653-5.619-16.543-12.404-16.583l-7.16-0.042l2.367-6.759c2.982-8.516,3.654-15.275,1.801-18.076
			c-0.314-0.471-0.865-1.033-1.715-1.033c-1.971,0-4.871,2.548-6.367,7.268c-3.992,12.593-18.35,16.476-22.828,17.392V77.122z"/>
	</g>
	<g>
		<path d="M22.998,85.11V33.323c0-1.118-0.906-2.024-2.025-2.024H5.01c-1.117,0-2.023,0.906-2.023,2.024V85.11
			c0,1.119,0.906,2.024,2.023,2.024h15.963C22.092,87.135,22.998,86.229,22.998,85.11z M16.914,79.16
			c0,2.162-1.76,3.922-3.922,3.922S9.07,81.322,9.07,79.16s1.76-3.922,3.922-3.922S16.914,76.998,16.914,79.16z"/>
	</g>
</g>
</svg>
