<?xml version="1.0" encoding="utf-8"?>
<!-- Generator: Adobe Illustrator 16.0.0, SVG Export Plug-In . SVG Version: 6.00 Build 0)  -->
<!DOCTYPE svg PUBLIC "-//W3C//DTD SVG 1.1//EN" "http://www.w3.org/Graphics/SVG/1.1/DTD/svg11.dtd">
<svg version="1.1" id="Layer_1" xmlns="http://www.w3.org/2000/svg" xmlns:xlink="http://www.w3.org/1999/xlink" x="0px" y="0px"
	 width="100px" height="100px" viewBox="0 0 100 100" enable-background="new 0 0 100 100" xml:space="preserve">
<g>
	<path d="M92.272,7.727c-4.464-4.463-10.407-6.921-16.737-6.921S63.262,3.264,58.798,7.728L45.065,21.461
		c-4.459,4.458-6.922,10.378-6.935,16.67H38.13c-6.291,0.013-12.211,2.476-16.669,6.933L7.728,58.798
		c-9.229,9.229-9.229,24.246,0,33.475c4.462,4.462,10.406,6.92,16.737,6.921c6.33,0,12.273-2.458,16.737-6.921L54.935,78.54
		c4.459-4.458,6.922-10.378,6.935-16.671h0.001c6.291-0.013,12.211-2.476,16.669-6.933l13.733-13.733
		C101.501,31.973,101.501,16.957,92.272,7.727z M83.688,32.619L69.957,46.351c-2.274,2.274-5.336,3.479-8.549,3.365
		c-0.956-0.042-1.912,0.336-2.599,1.022l-8.072,8.072c-0.687,0.687-1.058,1.627-1.023,2.598c0.111,3.184-1.113,6.299-3.36,8.547
		L32.618,83.689c-2.173,2.174-5.068,3.372-8.152,3.372s-5.979-1.197-8.154-3.373c-2.174-2.174-3.371-5.07-3.371-8.154
		s1.197-5.98,3.371-8.153l13.735-13.734c2.172-2.174,5.045-3.372,8.09-3.372c0.148,0,0.296,0.003,0.445,0.009
		c0.974,0.035,1.919-0.333,2.608-1.022l8.072-8.072c0.687-0.687,1.058-1.627,1.023-2.598c-0.111-3.184,1.113-6.299,3.36-8.547
		L67.383,16.31c2.173-2.174,5.068-3.371,8.152-3.371s5.979,1.197,8.153,3.373c2.174,2.174,3.371,5.07,3.371,8.154
		S85.862,30.445,83.688,32.619z"/>
	<path d="M69.234,25.816L25.816,69.233c-1.367,1.367-1.367,3.583,0,4.95c0.684,0.684,1.579,1.025,2.475,1.025
		s1.791-0.342,2.475-1.025l43.418-43.417c1.367-1.367,1.367-3.583,0-4.95C72.816,24.45,70.602,24.45,69.234,25.816z"/>
</g>
</svg>
