<?xml version="1.0" encoding="utf-8"?>
<!-- Generator: Adobe Illustrator 16.0.0, SVG Export Plug-In . SVG Version: 6.00 Build 0)  -->
<!DOCTYPE svg PUBLIC "-//W3C//DTD SVG 1.1//EN" "http://www.w3.org/Graphics/SVG/1.1/DTD/svg11.dtd">
<svg version="1.1" id="Layer_1" xmlns="http://www.w3.org/2000/svg" xmlns:xlink="http://www.w3.org/1999/xlink" x="0px" y="0px"
	 width="100px" height="100px" viewBox="0 0 100 100" enable-background="new 0 0 100 100" xml:space="preserve">
<path d="M82.038,42.271h-5.7V28.004C76.338,13.481,64.523,1.666,50,1.666S23.662,13.481,23.662,28.004v14.267h-5.7
	c-1.104,0-2,0.896-2,2v52.063c0,1.104,0.896,2,2,2h64.076c1.104,0,2-0.896,2-2V44.271C84.038,43.166,83.143,42.271,82.038,42.271z
	 M45.624,75.866c-1.302-1.218-2.02-2.871-2.02-4.656c0-3.527,2.869-6.396,6.396-6.396s6.396,2.869,6.396,6.396
	c0,1.785-0.717,3.438-2.02,4.656c-0.404,0.378-0.634,0.907-0.634,1.461v6.782c0,2.064-1.679,3.743-3.743,3.743
	s-3.743-1.679-3.743-3.743v-6.782C46.257,76.773,46.028,76.244,45.624,75.866z M50,15.863c6.694,0,12.14,5.446,12.14,12.141v14.267
	H37.86V28.004C37.86,21.31,43.306,15.863,50,15.863z"/>
</svg>
