<?xml version="1.0" encoding="utf-8"?>
<!-- Generator: Adobe Illustrator 16.0.0, SVG Export Plug-In . SVG Version: 6.00 Build 0)  -->
<!DOCTYPE svg PUBLIC "-//W3C//DTD SVG 1.1//EN" "http://www.w3.org/Graphics/SVG/1.1/DTD/svg11.dtd">
<svg version="1.1" id="Layer_4" xmlns="http://www.w3.org/2000/svg" xmlns:xlink="http://www.w3.org/1999/xlink" x="0px" y="0px"
	 width="100px" height="100px" viewBox="0 0 100 100" enable-background="new 0 0 100 100" xml:space="preserve">
<path d="M79.59,38.073h-3.128v-8.945C76.462,14.538,64.591,2.667,50,2.667S23.538,14.538,23.538,29.128v8.945H20.41
	c-1.104,0-2,0.896-2,2v55.26c0,1.104,0.896,2,2,2H79.59c1.104,0,2-0.896,2-2v-55.26C81.59,38.969,80.695,38.073,79.59,38.073z
	 M50,13.848c8.426,0,15.281,6.854,15.281,15.28v8.945H34.719v-8.945C34.719,20.703,41.574,13.848,50,13.848z"/>
</svg>
