<?xml version="1.0" encoding="utf-8"?>
<!-- Generator: Adobe Illustrator 16.0.0, SVG Export Plug-In . SVG Version: 6.00 Build 0)  -->
<!DOCTYPE svg PUBLIC "-//W3C//DTD SVG 1.1//EN" "http://www.w3.org/Graphics/SVG/1.1/DTD/svg11.dtd">
<svg version="1.1" id="Layer_4" xmlns="http://www.w3.org/2000/svg" xmlns:xlink="http://www.w3.org/1999/xlink" x="0px" y="0px"
	 width="100px" height="100px" viewBox="0 0 100 100" enable-background="new 0 0 100 100" xml:space="preserve">
<g>
	<path d="M95.713,37.828H61.659V27.223c0-0.715-0.381-1.375-1-1.732s-1.381-0.357-2,0L19.213,48.268c-0.619,0.357-1,1.018-1,1.732
		s0.381,1.375,1,1.732L58.659,74.51c0.31,0.179,0.655,0.268,1,0.268c0.346,0,0.69-0.089,1-0.268c0.619-0.357,1-1.018,1-1.732V62.172
		h34.054c1.104,0,2-0.896,2-2V39.828C97.713,38.724,96.817,37.828,95.713,37.828z"/>
	<path d="M57.807,87.834H17.059c-2.631,0-4.771-2.141-4.771-4.771V16.938c0-2.631,2.141-4.771,4.771-4.771h40.748
		c1.104,0,2-0.896,2-2v-6c0-1.104-0.896-2-2-2H17.059c-8.146,0-14.771,6.627-14.771,14.771v66.125
		c0,8.145,6.626,14.771,14.771,14.771h40.748c1.104,0,2-0.896,2-2v-6C59.807,88.729,58.911,87.834,57.807,87.834z"/>
</g>
</svg>
