<?xml version="1.0" encoding="utf-8"?>
<!-- Generator: Adobe Illustrator 16.0.0, SVG Export Plug-In . SVG Version: 6.00 Build 0)  -->
<!DOCTYPE svg PUBLIC "-//W3C//DTD SVG 1.1//EN" "http://www.w3.org/Graphics/SVG/1.1/DTD/svg11.dtd">
<svg version="1.1" id="Layer_2" xmlns="http://www.w3.org/2000/svg" xmlns:xlink="http://www.w3.org/1999/xlink" x="0px" y="0px"
	 width="100px" height="100px" viewBox="0 0 100 100" enable-background="new 0 0 100 100" xml:space="preserve">
<g>
	<path d="M62.697,85.447H12.893V14.553h49.805c1.105,0,2-0.896,2-2V5.188c0-1.104-0.895-2-2-2H3.529c-1.104,0-2,0.896-2,2v89.623
		c0,1.104,0.896,2,2,2h59.168c1.105,0,2-0.896,2-2v-7.364C64.697,86.343,63.803,85.447,62.697,85.447z"/>
	<path d="M97.885,48.586l-26.922-26.92c-0.75-0.751-2.078-0.75-2.828,0l-6.387,6.388c-0.781,0.781-0.781,2.047,0,2.828l12.16,12.162
		H21.266c-1.104,0-2,0.896-2,2v9.912c0,1.104,0.896,2,2,2h52.643l-12.16,12.162c-0.781,0.781-0.781,2.047,0,2.828l6.387,6.388
		c0.375,0.375,0.885,0.586,1.414,0.586c0.531,0,1.039-0.211,1.414-0.586l26.922-26.92c0.375-0.375,0.586-0.884,0.586-1.414
		S98.26,48.961,97.885,48.586z"/>
</g>
</svg>
