<?xml version="1.0" encoding="utf-8"?>
<!-- Generator: Adobe Illustrator 16.0.0, SVG Export Plug-In . SVG Version: 6.00 Build 0)  -->
<!DOCTYPE svg PUBLIC "-//W3C//DTD SVG 1.1//EN" "http://www.w3.org/Graphics/SVG/1.1/DTD/svg11.dtd">
<svg version="1.1" id="Layer_1" xmlns="http://www.w3.org/2000/svg" xmlns:xlink="http://www.w3.org/1999/xlink" x="0px" y="0px"
	 width="100px" height="100px" viewBox="0 0 100 100" enable-background="new 0 0 100 100" xml:space="preserve">
<g>
	<path d="M70.004,86.86H28.047l-0.001,0.001H12.841l0.001-57.163l43.857-0.001L67.62,18.776H3.817c-1.048,0-1.897,0.851-1.897,1.897
		v75.211c0,1.047,0.85,1.897,1.897,1.897h75.211c1.048,0,1.897-0.851,1.897-1.897V33.273L70.005,44.196L70.004,86.86z"/>
	<path d="M96.08,2.218H69.959c-1.104,0-2,0.896-2,2v5.661c0,1.104,0.896,2,2,2h11.629L44.104,49.364
		c-0.781,0.781-0.781,2.047,0,2.828l4.004,4.004c0.375,0.375,0.884,0.586,1.414,0.586s1.039-0.211,1.414-0.586l37.483-37.487v11.63
		c0,1.104,0.896,2,2,2h5.661c1.104,0,2-0.896,2-2V4.218C98.08,3.113,97.185,2.218,96.08,2.218z"/>
</g>
</svg>
