<?xml version="1.0" encoding="utf-8"?>
<!-- Generator: Adobe Illustrator 16.0.0, SVG Export Plug-In . SVG Version: 6.00 Build 0)  -->
<!DOCTYPE svg PUBLIC "-//W3C//DTD SVG 1.1//EN" "http://www.w3.org/Graphics/SVG/1.1/DTD/svg11.dtd">
<svg version="1.1" id="Layer_2" xmlns="http://www.w3.org/2000/svg" xmlns:xlink="http://www.w3.org/1999/xlink" x="0px" y="0px"
	 width="100px" height="100px" viewBox="0 0 100 100" enable-background="new 0 0 100 100" xml:space="preserve">
<g>
	<path d="M87.5,48.569v30.277h-75V28.513h32.169l11.749-10H4.5c-1.104,0-2,0.896-2,2v66.333c0,1.104,0.896,2,2,2h91
		c1.104,0,2-0.896,2-2V38.792L87.5,48.569z"/>
	<path d="M29.214,57.762c-0.423,0.896-0.126,1.966,0.698,2.516c0.339,0.227,0.726,0.337,1.109,0.337c0.548,0,1.09-0.225,1.481-0.656
		c18.599-20.485,36.11-23.547,44.894-23.549v8.354c0,0.809,0.487,1.538,1.234,1.848c0.748,0.309,1.606,0.139,2.18-0.434
		l15.804-15.805c0.781-0.781,0.781-2.047,0-2.828L80.811,11.74c-0.573-0.572-1.432-0.744-2.18-0.434
		c-0.747,0.31-1.234,1.039-1.234,1.848v7.371C48.409,23.379,34.044,47.517,29.214,57.762z"/>
</g>
</svg>
