<?xml version="1.0" encoding="utf-8"?>
<!-- Generator: Adobe Illustrator 16.0.0, SVG Export Plug-In . SVG Version: 6.00 Build 0)  -->
<!DOCTYPE svg PUBLIC "-//W3C//DTD SVG 1.1//EN" "http://www.w3.org/Graphics/SVG/1.1/DTD/svg11.dtd">
<svg version="1.1" id="Layer_3" xmlns="http://www.w3.org/2000/svg" xmlns:xlink="http://www.w3.org/1999/xlink" x="0px" y="0px"
	 width="100px" height="100px" viewBox="0 0 100 100" enable-background="new 0 0 100 100" xml:space="preserve">
<g>
	<path d="M83.656,55.176c-0.051,0-0.102-0.008-0.152-0.008v5.451v6.398v18.873H14.107V16.495h30.717c0-0.06-0.006-0.118-0.006-0.178
		V5.962c0-0.129,0.016-0.253,0.018-0.381H5.242c-1.131,0-2.049,0.918-2.049,2.049v87.126c0,1.132,0.918,2.05,2.049,2.05h87.127
		c1.133,0,2.049-0.918,2.049-2.05V56.103v-0.944c-0.115,0.003-0.229,0.018-0.342,0.018H83.656z"/>
	<path d="M67.969,20.151L28.881,59.239c-0.375,0.375-0.586,0.884-0.586,1.414s0.211,1.039,0.586,1.414l9.045,9.045
		c0.391,0.391,0.902,0.586,1.414,0.586s1.023-0.195,1.414-0.586l39.088-39.088l9.611,9.609c0.545,0.545,1.348,0.727,2.074,0.474
		c0.725-0.254,1.24-0.9,1.326-1.664l3.941-35.025c0.068-0.604-0.143-1.208-0.574-1.638c-0.43-0.431-1.035-0.644-1.637-0.573
		L59.559,7.148c-0.764,0.086-1.41,0.602-1.664,1.326c-0.254,0.726-0.068,1.532,0.475,2.075L67.969,20.151z"/>
</g>
</svg>
