<?xml version="1.0" encoding="utf-8"?>
<!-- Generator: Adobe Illustrator 16.0.0, SVG Export Plug-In . SVG Version: 6.00 Build 0)  -->
<!DOCTYPE svg PUBLIC "-//W3C//DTD SVG 1.1//EN" "http://www.w3.org/Graphics/SVG/1.1/DTD/svg11.dtd">
<svg version="1.1" id="Layer_1" xmlns="http://www.w3.org/2000/svg" xmlns:xlink="http://www.w3.org/1999/xlink" x="0px" y="0px"
	 width="100px" height="100px" viewBox="0 0 100 100" enable-background="new 0 0 100 100" xml:space="preserve">
<g>
	<path d="M2.732,20.779H44.49c0.398,0,0.779-0.158,1.061-0.439s0.439-0.663,0.439-1.061V9.391c0-0.829-0.672-1.5-1.5-1.5H2.732
		c-0.828,0-1.5,0.671-1.5,1.5v9.889C1.232,20.108,1.904,20.779,2.732,20.779z"/>
	<path d="M2.732,44.556H44.49c0.398,0,0.779-0.158,1.061-0.439s0.439-0.663,0.439-1.061v-9.888c0-0.829-0.672-1.5-1.5-1.5H2.732
		c-0.828,0-1.5,0.671-1.5,1.5v9.888C1.232,43.884,1.904,44.556,2.732,44.556z"/>
	<path d="M97.209,79.221H2.732c-0.828,0-1.5,0.671-1.5,1.5v9.889c0,0.829,0.672,1.5,1.5,1.5h94.477c0.398,0,0.779-0.158,1.061-0.439
		s0.439-0.663,0.439-1.061v-9.889C98.709,79.892,98.037,79.221,97.209,79.221z"/>
	<path d="M2.754,55.444c-0.828,0-1.5,0.671-1.5,1.5v9.888c0,0.829,0.672,1.5,1.5,1.5h94.514c0.398,0,0.779-0.158,1.061-0.439
		s0.439-0.663,0.439-1.061v-9.888c0-0.829-0.672-1.5-1.5-1.5H2.754z"/>
	<path d="M95.236,7.891H64.992c-0.699,0-1.264,0.566-1.264,1.264v21.994l-0.354-0.01c-4.326,0-7.848,3.52-7.848,7.847
		c0,4.327,3.521,7.847,7.848,7.847c4.252,0,7.77-3.459,7.842-7.686l0.004-0.121c0.002-0.016,0.002-0.031,0.002-0.047V19.014h17.783
		v12.134l-0.354-0.01c-4.326,0-7.846,3.52-7.846,7.847c0,4.327,3.52,7.847,7.846,7.847c7.77,0,7.848-7.832,7.848-7.847V9.154
		C96.5,8.457,95.936,7.891,95.236,7.891z"/>
</g>
</svg>
