<?xml version="1.0" encoding="utf-8"?>
<!-- Generator: Adobe Illustrator 16.0.0, SVG Export Plug-In . SVG Version: 6.00 Build 0)  -->
<!DOCTYPE svg PUBLIC "-//W3C//DTD SVG 1.1//EN" "http://www.w3.org/Graphics/SVG/1.1/DTD/svg11.dtd">
<svg version="1.1" id="Layer_4" xmlns="http://www.w3.org/2000/svg" xmlns:xlink="http://www.w3.org/1999/xlink" x="0px" y="0px"
	 width="100px" height="100px" viewBox="0 0 100 100" enable-background="new 0 0 100 100" xml:space="preserve">
<g>
	<path d="M72.728,17.983c-0.431-0.43-1.127-0.43-1.557,0L7.356,81.799c-0.43,0.43-0.43,1.126,0,1.556l12.711,12.711
		c0.43,0.43,1.126,0.43,1.557,0l63.815-63.815c0.429-0.43,0.43-1.126,0-1.557L72.728,17.983z M65.854,44.054l-6.485-6.485
		l11.803-11.803l6.485,6.485L65.854,44.054z"/>
	<polygon points="61.872,13.461 63.746,14.323 62.884,12.449 63.746,10.576 61.872,11.437 59.999,10.576 60.86,12.449 
		59.999,14.323 	"/>
	<polygon points="92.967,22.024 91.093,22.885 89.22,22.024 90.081,23.897 89.22,25.77 91.093,24.909 92.967,25.77 92.105,23.897 	
		"/>
	<polygon points="85.097,10.997 89.892,13.201 87.688,8.406 89.892,3.611 85.097,5.815 80.301,3.611 82.506,8.406 80.301,13.202 	
		"/>
</g>
</svg>
