<?xml version="1.0" encoding="utf-8"?>
<!-- Generator: Adobe Illustrator 16.0.0, SVG Export Plug-In . SVG Version: 6.00 Build 0)  -->
<!DOCTYPE svg PUBLIC "-//W3C//DTD SVG 1.1//EN" "http://www.w3.org/Graphics/SVG/1.1/DTD/svg11.dtd">
<svg version="1.1" id="Layer_2" xmlns="http://www.w3.org/2000/svg" xmlns:xlink="http://www.w3.org/1999/xlink" x="0px" y="0px"
	 width="100px" height="100px" viewBox="0 0 100 100" enable-background="new 0 0 100 100" xml:space="preserve">
<g>
	<path d="M80.12,57.517c-3.735-6.055-13.433-10.234-25.94-11.183c-0.563-0.047-1.099,0.147-1.506,0.522
		c-0.273,0.252-0.581,0.602-0.924,0.998c-0.568,0.661-1.155,1.345-1.737,1.515h-0.001c-0.58-0.169-1.168-0.854-1.772-1.557
		c-0.315-0.364-0.621-0.712-0.895-0.962c-0.407-0.373-0.952-0.563-1.5-0.52c-12.5,0.937-22.209,5.139-26.011,11.306
		c-0.591,1.046-14.342,25.778-2.999,40.165c0.379,0.481,0.958,0.762,1.57,0.762H81.62c0.612,0,1.191-0.28,1.57-0.762
		C94.675,83.236,80.299,57.825,80.12,57.517z M53.678,83.329c-0.006,0.234-0.066,0.464-0.178,0.67l-2.179,4.054
		c-0.262,0.486-0.77,0.79-1.321,0.79s-1.06-0.304-1.321-0.79L46.5,83.999c-0.111-0.206-0.172-0.436-0.178-0.67L45.55,54.263
		c-0.014-0.493,0.217-0.961,0.614-1.252l2.95-2.153c0.527-0.385,1.241-0.385,1.769,0l2.952,2.153
		c0.398,0.291,0.629,0.759,0.615,1.252L53.678,83.329z"/>
	<path d="M49.651,43.835c11.688,0,21.198-9.511,21.198-21.2c0-11.688-9.51-21.198-21.198-21.198c-11.689,0-21.2,9.51-21.2,21.198
		C28.451,34.324,37.962,43.835,49.651,43.835z"/>
</g>
</svg>
