<?xml version="1.0" encoding="utf-8"?>
<!-- Generator: Adobe Illustrator 16.0.0, SVG Export Plug-In . SVG Version: 6.00 Build 0)  -->
<!DOCTYPE svg PUBLIC "-//W3C//DTD SVG 1.1//EN" "http://www.w3.org/Graphics/SVG/1.1/DTD/svg11.dtd">
<svg version="1.1" id="Layer_3" xmlns="http://www.w3.org/2000/svg" xmlns:xlink="http://www.w3.org/1999/xlink" x="0px" y="0px"
	 width="100px" height="100px" viewBox="0 0 100 100" enable-background="new 0 0 100 100" xml:space="preserve">
<g>
	<path d="M85.628,17.314l-5.294-5.294c-0.375-0.375-0.884-0.586-1.414-0.586s-1.039,0.211-1.414,0.586L60.225,29.301H39.775
		L22.494,12.02c-0.75-0.75-2.078-0.75-2.828,0l-5.294,5.294c-0.781,0.781-0.781,2.047,0,2.828l19.454,19.455v57.723
		c0,1.104,0.896,2,2,2h9.081c1.104,0,2-0.896,2-2V66.096h6.186v31.224c0,1.104,0.896,2,2,2h9.081c1.104,0,2-0.896,2-2V39.597
		l19.454-19.455C86.409,19.361,86.409,18.095,85.628,17.314z"/>
	<path d="M50,27.487c7.391,0,13.403-6.013,13.403-13.403S57.391,0.681,50,0.681S36.597,6.693,36.597,14.084S42.609,27.487,50,27.487
		z"/>
</g>
</svg>
