<?xml version="1.0" encoding="utf-8"?>
<!-- Generator: Adobe Illustrator 16.0.0, SVG Export Plug-In . SVG Version: 6.00 Build 0)  -->
<!DOCTYPE svg PUBLIC "-//W3C//DTD SVG 1.1//EN" "http://www.w3.org/Graphics/SVG/1.1/DTD/svg11.dtd">
<svg version="1.1" id="Layer_2" xmlns="http://www.w3.org/2000/svg" xmlns:xlink="http://www.w3.org/1999/xlink" x="0px" y="0px"
	 width="100px" height="100px" viewBox="0 0 100 100" enable-background="new 0 0 100 100" xml:space="preserve">
<g>
	<path d="M96.64,31.461c-0.538-0.373-1.228-0.459-1.84-0.229l-25.446,9.512c0.776-1.416,1.478-2.805,2.085-4.131
		c1.375-3.01,2.072-6.254,2.072-9.639C73.511,14.01,62.964,3.463,50,3.463S26.489,14.01,26.489,26.975
		c0,1.205,0.095,2.428,0.282,3.631L3.84,38.621C3.037,38.9,2.5,39.658,2.5,40.508V90.83c0,0.648,0.313,1.256,0.843,1.631
		c0.528,0.375,1.206,0.469,1.817,0.256l27.16-9.49l32.535,13.164c0.24,0.098,0.495,0.146,0.75,0.146
		c0.236,0,0.473-0.041,0.698-0.125l29.895-11.137C96.98,84.984,97.5,84.236,97.5,83.4V33.105
		C97.5,32.449,97.179,31.836,96.64,31.461z M65.179,33.721c-4.159,9.102-12.133,18.707-14.478,21.434
		c-0.176,0.205-0.431,0.322-0.701,0.322c-0.27,0-0.525-0.117-0.7-0.322C46.954,52.426,38.98,42.82,34.822,33.721
		c-0.965-2.113-1.454-4.398-1.454-6.789c0-9.172,7.462-16.633,16.632-16.633c9.171,0,16.632,7.461,16.632,16.633
		C66.632,29.322,66.143,31.607,65.179,33.721z"/>
	<path d="M50,18.291c-4.763,0-8.639,3.877-8.639,8.641S45.237,35.57,50,35.57s8.639-3.875,8.639-8.639S54.763,18.291,50,18.291z"/>
</g>
</svg>
