<?xml version="1.0" encoding="utf-8"?>
<!-- Generator: Adobe Illustrator 16.0.0, SVG Export Plug-In . SVG Version: 6.00 Build 0)  -->
<!DOCTYPE svg PUBLIC "-//W3C//DTD SVG 1.1//EN" "http://www.w3.org/Graphics/SVG/1.1/DTD/svg11.dtd">
<svg version="1.1" id="Layer_2" xmlns="http://www.w3.org/2000/svg" xmlns:xlink="http://www.w3.org/1999/xlink" x="0px" y="0px"
	 width="100px" height="100px" viewBox="0 0 100 100" enable-background="new 0 0 100 100" xml:space="preserve">
<g>
	<path d="M50,26.853c7.086,0,12.852-5.765,12.852-12.851S57.086,1.151,50,1.151S37.148,6.916,37.148,14.001S42.914,26.853,50,26.853
		z"/>
	<path d="M86.039,38.746c0.486-0.426,0.736-1.06,0.672-1.704c-0.064-0.643-0.434-1.216-0.996-1.537
		C82.908,33.896,72.037,28.647,50,28.647c-22.043,0-32.91,5.25-35.717,6.859c-0.561,0.321-0.932,0.894-0.994,1.537
		c-0.064,0.644,0.188,1.278,0.674,1.703c1.84,1.61,7.945,5.487,24.826,6.711c-3.256,4.52-6.588,10.094-9.902,16.568
		c-11.492,22.438-10.902,32.168-10.115,35.31c0.156,0.627,0.607,1.139,1.209,1.375s1.279,0.168,1.82-0.185
		c2.711-1.762,12.336-9.036,22.387-28.664c1.531-2.991,1.807-3.527,4.799-9.343L50,58.546l1.016,1.973
		c2.99,5.815,3.266,6.351,4.797,9.343c10.053,19.63,19.678,26.903,22.387,28.664c0.33,0.214,0.709,0.323,1.09,0.323
		c0.248,0,0.496-0.046,0.732-0.139c0.6-0.236,1.051-0.748,1.207-1.375c0.789-3.14,1.381-12.866-10.113-35.311
		c-3.314-6.474-6.646-12.048-9.904-16.567v0C78.094,44.234,84.197,40.356,86.039,38.746z"/>
</g>
</svg>
