<?xml version="1.0" encoding="utf-8"?>
<!-- Generator: Adobe Illustrator 16.0.0, SVG Export Plug-In . SVG Version: 6.00 Build 0)  -->
<!DOCTYPE svg PUBLIC "-//W3C//DTD SVG 1.1//EN" "http://www.w3.org/Graphics/SVG/1.1/DTD/svg11.dtd">
<svg version="1.1" id="Layer_1" xmlns="http://www.w3.org/2000/svg" xmlns:xlink="http://www.w3.org/1999/xlink" x="0px" y="0px"
	 width="100px" height="100px" viewBox="0 0 100 100" enable-background="new 0 0 100 100" xml:space="preserve">
<g>
	<path d="M93.417,5.333H6.583c-1.654,0-3,1.346-3,3v13.334c0,1.654,1.346,3,3,3h86.833c1.654,0,3-1.346,3-3V8.333
		C96.417,6.679,95.071,5.333,93.417,5.333z"/>
	<path d="M93.417,40.333H6.583c-1.654,0-3,1.346-3,3v13.334c0,1.654,1.346,3,3,3h86.833c1.654,0,3-1.346,3-3V43.333
		C96.417,41.679,95.071,40.333,93.417,40.333z"/>
	<path d="M93.417,75.333H6.583c-1.654,0-3,1.346-3,3v13.334c0,1.654,1.346,3,3,3h86.833c1.654,0,3-1.346,3-3V78.333
		C96.417,76.679,95.071,75.333,93.417,75.333z"/>
</g>
</svg>
