<?xml version="1.0" encoding="utf-8"?>
<!-- Generator: Adobe Illustrator 16.0.0, SVG Export Plug-In . SVG Version: 6.00 Build 0)  -->
<!DOCTYPE svg PUBLIC "-//W3C//DTD SVG 1.1//EN" "http://www.w3.org/Graphics/SVG/1.1/DTD/svg11.dtd">
<svg version="1.1" id="Layer_4" xmlns="http://www.w3.org/2000/svg" xmlns:xlink="http://www.w3.org/1999/xlink" x="0px" y="0px"
	 width="100px" height="100px" viewBox="0 0 100 100" enable-background="new 0 0 100 100" xml:space="preserve">
<g>
	<path d="M95.412,2.451H4.588c-1.178,0-2.137,0.958-2.137,2.137v90.824c0,1.178,0.958,2.137,2.137,2.137h90.824
		c1.178,0,2.137-0.958,2.137-2.137V4.588C97.549,3.41,96.59,2.451,95.412,2.451z M88.551,88.551H11.449V11.449h77.102V88.551z"/>
	<path d="M20.309,59.708h59.382c0.447,0,0.809-0.362,0.809-0.809V41.101c0-0.447-0.362-0.809-0.809-0.809H20.309
		c-0.447,0-0.809,0.362-0.809,0.809v17.798C19.5,59.346,19.862,59.708,20.309,59.708z"/>
</g>
</svg>
