<?xml version="1.0" encoding="utf-8"?>
<!-- Generator: Adobe Illustrator 16.0.0, SVG Export Plug-In . SVG Version: 6.00 Build 0)  -->
<!DOCTYPE svg PUBLIC "-//W3C//DTD SVG 1.1//EN" "http://www.w3.org/Graphics/SVG/1.1/DTD/svg11.dtd">
<svg version="1.1" id="Layer_4" xmlns="http://www.w3.org/2000/svg" xmlns:xlink="http://www.w3.org/1999/xlink" x="0px" y="0px"
	 width="100px" height="100px" viewBox="0 0 100 100" enable-background="new 0 0 100 100" xml:space="preserve">
<g>
	<path d="M94.833,25H5.167c-1.104,0-2,0.896-2,2v46c0,1.104,0.896,2,2,2h89.666c1.104,0,2-0.896,2-2V27
		C96.833,25.896,95.938,25,94.833,25z M90.833,54.152c0,0.752-0.557,1.387-1.302,1.487c-6.26,0.835-11.205,5.792-12.023,12.055
		C77.411,68.441,76.774,69,76.021,69H23.979c-0.753,0-1.39-0.559-1.487-1.306c-0.818-6.263-5.763-11.22-12.023-12.055
		c-0.745-0.1-1.302-0.735-1.302-1.487v-8.305c0-0.752,0.557-1.387,1.302-1.487c6.26-0.835,11.205-5.792,12.023-12.055
		C22.589,31.559,23.226,31,23.979,31h52.042c0.753,0,1.39,0.559,1.487,1.306c0.818,6.263,5.763,11.22,12.023,12.055
		c0.745,0.1,1.302,0.735,1.302,1.487V54.152z"/>
	<path d="M50,32.333c-7.18,0-13,7.91-13,17.667s5.82,17.667,13,17.667S63,59.757,63,50S57.18,32.333,50,32.333z M55.901,59.861
		c0,0.829-0.671,1.5-1.5,1.5h-7.406c-0.829,0-1.5-0.671-1.5-1.5v-0.602c0-0.829,0.671-1.5,1.5-1.5h0.964l-0.003-14.381l-1.414,0.823
		c-0.415,0.242-0.919,0.269-1.358,0.078c-0.439-0.193-0.76-0.584-0.862-1.053l-0.189-0.865c-0.144-0.657,0.167-1.329,0.76-1.645
		l3.57-1.901c0.217-0.116,0.459-0.176,0.705-0.176h2.528c0.829,0,1.5,0.671,1.5,1.5v17.62h1.204c0.829,0,1.5,0.671,1.5,1.5V59.861z"
		/>
</g>
</svg>
