<?xml version="1.0" encoding="utf-8"?>
<!-- Generator: Adobe Illustrator 16.0.0, SVG Export Plug-In . SVG Version: 6.00 Build 0)  -->
<!DOCTYPE svg PUBLIC "-//W3C//DTD SVG 1.1//EN" "http://www.w3.org/Graphics/SVG/1.1/DTD/svg11.dtd">
<svg version="1.1" id="Layer_2" xmlns="http://www.w3.org/2000/svg" xmlns:xlink="http://www.w3.org/1999/xlink" x="0px" y="0px"
	 width="100px" height="100px" viewBox="0 0 100 100" enable-background="new 0 0 100 100" xml:space="preserve">
<g>
	<path d="M95.269,8.111H4.731c-1.324,0-2.4,1.077-2.4,2.4v63.438c0,1.322,1.077,2.4,2.4,2.4h90.537c1.324,0,2.4-1.078,2.4-2.4
		V10.512C97.669,9.188,96.593,8.111,95.269,8.111z M90.468,69.148H9.532V15.313h80.936V69.148z"/>
	<path d="M67.403,84.087h-4.801v-4.402c0-0.663-0.538-1.2-1.2-1.2H38.598c-0.663,0-1.2,0.537-1.2,1.2v4.402h-4.801
		c-0.663,0-1.2,0.537-1.2,1.2v5.401c0,0.663,0.538,1.2,1.2,1.2h34.806c0.663,0,1.2-0.537,1.2-1.2v-5.401
		C68.603,84.624,68.065,84.087,67.403,84.087z"/>
	<path d="M17.634,21.408c-1.104,0-2,0.896-2,2V40.08l18.671-18.672H17.634z"/>
</g>
</svg>
