<?xml version="1.0" encoding="utf-8"?>
<!-- Generator: Adobe Illustrator 16.0.0, SVG Export Plug-In . SVG Version: 6.00 Build 0)  -->
<!DOCTYPE svg PUBLIC "-//W3C//DTD SVG 1.1//EN" "http://www.w3.org/Graphics/SVG/1.1/DTD/svg11.dtd">
<svg version="1.1" id="Layer_3" xmlns="http://www.w3.org/2000/svg" xmlns:xlink="http://www.w3.org/1999/xlink" x="0px" y="0px"
	 width="100px" height="100px" viewBox="0 0 100 100" enable-background="new 0 0 100 100" xml:space="preserve">
<g>
	<path d="M6,96h88c1.104,0,2-0.896,2-2V6c0-1.104-0.896-2-2-2H6C4.896,4,4,4.896,4,6v88C4,95.104,4.896,96,6,96z M33.651,19.662
		c0-0.512,0.384-0.971,0.979-1.166c0.59-0.197,1.271-0.088,1.723,0.273l38.034,30.338c0.309,0.247,0.465,0.57,0.465,0.893
		s-0.156,0.646-0.465,0.892L36.353,81.23c-0.452,0.361-1.133,0.469-1.723,0.273c-0.595-0.194-0.979-0.654-0.979-1.166V19.662z"/>
</g>
</svg>
