<?xml version="1.0" encoding="utf-8"?>
<!-- Generator: Adobe Illustrator 16.0.0, SVG Export Plug-In . SVG Version: 6.00 Build 0)  -->
<!DOCTYPE svg PUBLIC "-//W3C//DTD SVG 1.1//EN" "http://www.w3.org/Graphics/SVG/1.1/DTD/svg11.dtd">
<svg version="1.1" id="Layer_1" xmlns="http://www.w3.org/2000/svg" xmlns:xlink="http://www.w3.org/1999/xlink" x="0px" y="0px"
	 width="100px" height="100px" viewBox="0 0 100 100" enable-background="new 0 0 100 100" xml:space="preserve">
<path d="M95.634,3.777H23.833c-1.657,0-3,1.343-3,3v52.212l-0.837-0.024c-10.272,0-18.63,8.357-18.63,18.629
	s8.357,18.629,18.63,18.629c10.093,0,18.444-8.212,18.615-18.245l0.011-0.286c0.001-0.037,0.002-0.075,0.002-0.112V30.184H80.84
	v28.805l-0.836-0.024c-10.271,0-18.628,8.357-18.628,18.629s8.356,18.629,18.628,18.629c18.63,0,18.63-18.592,18.63-18.629V6.777
	C98.634,5.121,97.291,3.777,95.634,3.777z"/>
</svg>
