<?xml version="1.0" encoding="utf-8"?>
<!-- Generator: Adobe Illustrator 16.0.0, SVG Export Plug-In . SVG Version: 6.00 Build 0)  -->
<!DOCTYPE svg PUBLIC "-//W3C//DTD SVG 1.1//EN" "http://www.w3.org/Graphics/SVG/1.1/DTD/svg11.dtd">
<svg version="1.1" id="Layer_4" xmlns="http://www.w3.org/2000/svg" xmlns:xlink="http://www.w3.org/1999/xlink" x="0px" y="0px"
	 width="100px" height="100px" viewBox="0 0 100 100" enable-background="new 0 0 100 100" xml:space="preserve">
<g>
	<path d="M67.262,57.702V45.016L40.305,71.973c2.766,1.885,6.104,2.99,9.695,2.99C59.519,74.963,67.262,67.22,67.262,57.702z"/>
	<path d="M77.744,47.382h-3.437c-1.104,0-2,0.896-2,2v7.029c0,12.3-10.007,22.308-22.308,22.308c-4.654,0-8.979-1.435-12.559-3.882
		l-5.245,5.245c4.037,3.084,8.856,5.177,14.086,5.835v4.98H30.931c-1.104,0-2,0.896-2,2v3.436c0,1.104,0.896,2,2,2h38.139
		c1.104,0,2-0.896,2-2v-3.436c0-1.104-0.896-2-2-2H53.718v-4.98c14.594-1.838,26.026-14.799,26.026-29.506v-7.029
		C79.744,48.277,78.849,47.382,77.744,47.382z"/>
	<path d="M87.639,9.361c-2.146-2.147-5.631-2.147-7.777,0l-12.6,12.6v-3.032C67.262,9.41,59.519,1.667,50,1.667
		S32.738,9.41,32.738,18.929v37.555l-4.552,4.551c-0.317-1.493-0.494-3.038-0.494-4.624v-7.029c0-1.104-0.896-2-2-2h-3.437
		c-1.104,0-2,0.896-2,2v7.029c0,3.67,0.726,7.226,2.022,10.533l-9.917,9.917c-2.148,2.148-2.148,5.63,0,7.778
		c1.073,1.074,2.481,1.611,3.889,1.611s2.815-0.537,3.889-1.611l67.5-67.5C89.787,14.991,89.787,11.509,87.639,9.361z"/>
</g>
</svg>
