<?xml version="1.0" encoding="utf-8"?>
<!-- Generator: Adobe Illustrator 16.0.0, SVG Export Plug-In . SVG Version: 6.00 Build 0)  -->
<!DOCTYPE svg PUBLIC "-//W3C//DTD SVG 1.1//EN" "http://www.w3.org/Graphics/SVG/1.1/DTD/svg11.dtd">
<svg version="1.1" id="Layer_2" xmlns="http://www.w3.org/2000/svg" xmlns:xlink="http://www.w3.org/1999/xlink" x="0px" y="0px"
	 width="100px" height="100px" viewBox="0 0 100 100" enable-background="new 0 0 100 100" xml:space="preserve">
<path d="M96.132,19H3.868c-1.104,0-2,0.896-2,2v58c0,1.104,0.896,2,2,2h92.264c1.104,0,2-0.896,2-2V21
	C98.132,19.896,97.236,19,96.132,19z M92.797,36.693c0,0.548-0.299,1.052-0.779,1.315L50.729,60.618
	c-0.225,0.123-0.473,0.185-0.721,0.185s-0.496-0.062-0.721-0.184L7.983,38.009c-0.481-0.263-0.78-0.768-0.78-1.316v-7.55
	c0-0.525,0.274-1.011,0.724-1.283c0.447-0.271,1.008-0.29,1.472-0.046l39.684,20.762c0.552,0.29,1.301,0.289,1.856-0.001
	l39.663-20.76c0.464-0.244,1.022-0.226,1.472,0.046c0.449,0.272,0.724,0.758,0.724,1.283V36.693z"/>
</svg>
