<?xml version="1.0" encoding="utf-8"?>
<!-- Generator: Adobe Illustrator 16.0.0, SVG Export Plug-In . SVG Version: 6.00 Build 0)  -->
<!DOCTYPE svg PUBLIC "-//W3C//DTD SVG 1.1//EN" "http://www.w3.org/Graphics/SVG/1.1/DTD/svg11.dtd">
<svg version="1.1" id="Layer_4" xmlns="http://www.w3.org/2000/svg" xmlns:xlink="http://www.w3.org/1999/xlink" x="0px" y="0px"
	 width="100px" height="100px" viewBox="0 0 100 100" enable-background="new 0 0 100 100" xml:space="preserve">
<g>
	<path d="M67.492,73.354c0.547,0.049,1.077-0.121,1.489-0.475l5.482-4.705l-0.033,28.367c0,0.531,0.21,1.041,0.585,1.416
		s0.885,0.586,1.415,0.586h5.229c1.105,0,2-0.895,2-2V59.734c0-1.104-0.895-2-2-2h-4.892c-0.453,0-0.892,0.154-1.246,0.436
		l-11.236,8.947c-0.416,0.332-0.684,0.814-0.742,1.342c-0.06,0.529,0.095,1.059,0.427,1.475l2.146,2.68
		C66.457,73.035,66.953,73.303,67.492,73.354z"/>
	<path d="M91.889,10.156c-1.217-2.703-2.99-4.797-5.27-6.223c-2.275-1.424-4.962-2.145-7.982-2.145
		c-4.296,0-7.747,1.301-10.257,3.867c-2.506,2.563-3.776,6.084-3.776,10.465c0,4.064,1.051,7.297,3.122,9.605
		c2.086,2.322,4.969,3.5,8.567,3.5c2.141,0,3.956-0.365,5.399-1.086c1.161-0.584,2.225-1.514,3.161-2.766
		c-0.219,2.402-0.728,4.354-1.51,5.795c-0.905,1.664-2.229,2.9-3.934,3.678c-1.745,0.793-4.013,1.195-6.737,1.195
		c-1.018,0-2.024-0.076-2.99-0.223c-0.578-0.084-1.162,0.08-1.605,0.459c-0.442,0.381-0.696,0.936-0.696,1.518v3.637
		c0,1.021,0.768,1.877,1.781,1.988c1.101,0.121,2.474,0.182,4.082,0.182c6.82,0,11.996-2.01,15.385-5.973
		c3.367-3.945,5.074-9.963,5.074-17.889C93.703,16.055,93.092,12.83,91.889,10.156z M82.678,20.232
		c-1.128,1.039-2.449,1.543-4.041,1.543c-1.671,0-2.869-0.49-3.668-1.502c-0.813-1.025-1.225-2.459-1.225-4.262
		c0-2.121,0.457-3.756,1.358-4.857c0.887-1.084,2.097-1.611,3.696-1.611c1.609,0,2.9,0.664,3.943,2.031
		c1.063,1.395,1.602,3.137,1.602,5.174C84.344,18.066,83.8,19.207,82.678,20.232z"/>
	<path d="M44.449,67.053h-8.011V3.457c0-1.105-0.896-2-2-2h-16.13c-1.104,0-2,0.895-2,2v63.596H8.297
		c-0.77,0-1.472,0.443-1.804,1.137c-0.332,0.695-0.236,1.518,0.246,2.117l18.076,26.955c0.38,0.473,0.952,0.746,1.558,0.746
		s1.179-0.273,1.559-0.746l18.075-26.955c0.482-0.6,0.578-1.422,0.246-2.117C45.921,67.496,45.219,67.053,44.449,67.053z"/>
</g>
</svg>
