<?xml version="1.0" encoding="utf-8"?>
<!-- Generator: Adobe Illustrator 16.0.0, SVG Export Plug-In . SVG Version: 6.00 Build 0)  -->
<!DOCTYPE svg PUBLIC "-//W3C//DTD SVG 1.1//EN" "http://www.w3.org/Graphics/SVG/1.1/DTD/svg11.dtd">
<svg version="1.1" id="Layer_2" xmlns="http://www.w3.org/2000/svg" xmlns:xlink="http://www.w3.org/1999/xlink" x="0px" y="0px"
	 width="100px" height="100px" viewBox="0 0 100 100" enable-background="new 0 0 100 100" xml:space="preserve">
<g>
	<path d="M50,19.931c-27.095,0-49.139,22.043-49.139,49.139c0,3.123,0.306,6.279,0.909,9.381c0.183,0.94,1.006,1.619,1.963,1.619
		h92.533c0.957,0,1.78-0.679,1.963-1.619c0.604-3.103,0.909-6.259,0.909-9.381C99.139,41.974,77.095,19.931,50,19.931z M50,25.637
		c2.83,0,5.134,2.303,5.134,5.133c-0.001,2.83-2.305,5.133-5.135,5.133c-1.371,0-2.66-0.534-3.63-1.503
		c-0.969-0.97-1.503-2.259-1.503-3.63C44.866,27.939,47.17,25.637,50,25.637z M11.7,74.203c-2.83,0-5.133-2.303-5.133-5.133
		s2.303-5.133,5.133-5.133c2.831,0,5.134,2.303,5.134,5.133S14.531,74.203,11.7,74.203z M26.548,45.617
		c-0.97,0.97-2.259,1.504-3.63,1.504s-2.66-0.534-3.63-1.504c-0.97-0.969-1.503-2.258-1.503-3.629s0.533-2.66,1.504-3.63
		c0.969-0.97,2.258-1.504,3.629-1.504s2.66,0.534,3.63,1.503c0.97,0.97,1.503,2.259,1.503,3.63S27.518,44.648,26.548,45.617z
		 M58.57,73.808c-5.479,4.554-13.64,3.803-18.195-1.675c-4.555-5.478-3.804-13.64,1.675-18.196
		c5.478-4.554,37.343-14.242,37.343-14.242S64.047,69.253,58.57,73.808z M88.3,74.203c-2.831,0-5.134-2.303-5.134-5.133
		s2.303-5.133,5.134-5.133c2.83,0,5.133,2.303,5.133,5.133S91.13,74.203,88.3,74.203z"/>
	<path d="M53.42,68.105c2.055-1.708,2.337-4.769,0.629-6.823c-1.709-2.055-4.77-2.336-6.824-0.629
		c-2.053,1.709-2.337,4.77-0.628,6.824C48.305,69.532,51.365,69.813,53.42,68.105z"/>
</g>
</svg>
