<?xml version="1.0" encoding="utf-8"?>
<!-- Generator: Adobe Illustrator 16.0.0, SVG Export Plug-In . SVG Version: 6.00 Build 0)  -->
<!DOCTYPE svg PUBLIC "-//W3C//DTD SVG 1.1//EN" "http://www.w3.org/Graphics/SVG/1.1/DTD/svg11.dtd">
<svg version="1.1" id="Layer_1" xmlns="http://www.w3.org/2000/svg" xmlns:xlink="http://www.w3.org/1999/xlink" x="0px" y="0px"
	 width="100px" height="100px" viewBox="0 0 100 100" enable-background="new 0 0 100 100" xml:space="preserve">
<path d="M97.41,86.063H86.947c6.945-9.213,10.77-20.733,10.77-32.438c0-28.344-21.407-51.403-47.72-51.403
	s-47.72,23.06-47.72,51.403c0,11.706,3.823,23.226,10.767,32.438H2.59c-1.104,0-2,0.896-2,2v7.714c0,1.104,0.896,2,2,2h28.551
	c1.104,0,2-0.896,2-2v-8.593c0-0.475-0.169-0.935-0.477-1.296l-0.111-0.131c-0.112-0.132-0.242-0.249-0.385-0.348
	c-9.826-6.809-15.931-18.987-15.931-31.784c0-20.646,15.145-37.443,33.76-37.443c18.614,0,33.759,16.797,33.759,37.443
	c0,12.85-6.143,25.054-16.029,31.85c-0.543,0.373-0.867,0.99-0.867,1.648v8.653c0,1.104,0.896,2,2,2H97.41c1.104,0,2-0.896,2-2
	v-7.714C99.41,86.959,98.515,86.063,97.41,86.063z"/>
</svg>
