<?xml version="1.0" encoding="utf-8"?>
<!-- Generator: Adobe Illustrator 16.0.0, SVG Export Plug-In . SVG Version: 6.00 Build 0)  -->
<!DOCTYPE svg PUBLIC "-//W3C//DTD SVG 1.1//EN" "http://www.w3.org/Graphics/SVG/1.1/DTD/svg11.dtd">
<svg version="1.1" id="Layer_2" xmlns="http://www.w3.org/2000/svg" xmlns:xlink="http://www.w3.org/1999/xlink" x="0px" y="0px"
	 width="100px" height="100px" viewBox="0 0 100 100" enable-background="new 0 0 100 100" xml:space="preserve">
<path d="M86.885,33.284c-3.19-3.184-7.174-4.752-11.214-4.421c-3.191,0.264-5.515,1.723-7.563,3.012
	c-1.57,0.986-2.935,1.844-4.563,2.087c-2.486-0.018-3.659-2.269-3.805-3.11c-0.311-1.775,0.133-3.139,0.691-4.868
	c0.207-0.634,0.403-1.247,0.542-1.779c1.618-5.76,0.591-11.714-2.818-16.334c-3.098-4.196-7.678-6.678-12.573-6.822
	c-6.97-0.383-19.183,5.155-28.188,16.227c-7.598,9.34-11.578,20.94-11.508,33.547C6.024,74.31,21.925,92.016,36.815,96.75
	c17.627,5.597,35.605,0.436,46.916-13.47c0-0.001,0-0.001,0-0.001c5.234-6.434,8.744-14.391,10.15-23.011l0.04-0.323
	C94.862,48.22,92.362,38.752,86.885,33.284z M75.554,76.377c-5.028,6.183-12.124,8.738-15.846,5.711
	c-3.723-3.029-2.664-10.494,2.365-16.677c5.026-6.181,12.123-8.74,15.845-5.711C81.641,62.728,80.581,70.196,75.554,76.377z"/>
</svg>
