<?xml version="1.0" encoding="utf-8"?>
<!-- Generator: Adobe Illustrator 16.0.0, SVG Export Plug-In . SVG Version: 6.00 Build 0)  -->
<!DOCTYPE svg PUBLIC "-//W3C//DTD SVG 1.1//EN" "http://www.w3.org/Graphics/SVG/1.1/DTD/svg11.dtd">
<svg version="1.1" id="Layer_4" xmlns="http://www.w3.org/2000/svg" xmlns:xlink="http://www.w3.org/1999/xlink" x="0px" y="0px"
	 width="100px" height="100px" viewBox="0 0 100 100" enable-background="new 0 0 100 100" xml:space="preserve">
<path d="M95.268,1.817c-0.697-0.469-1.6-0.494-2.32-0.066L4.836,54.032c-0.748,0.444-1.158,1.291-1.043,2.152
	c0.113,0.861,0.732,1.572,1.568,1.805l22.389,6.233c0.68,0.189,1.409,0.037,1.956-0.41l35.768-29.219L40.523,66.44
	c-0.301,0.382-0.462,0.854-0.462,1.339v28.602c0,0.965,0.636,1.814,1.563,2.083c0.201,0.059,0.405,0.087,0.607,0.087
	c0.728,0,1.425-0.367,1.83-1.004l15.577-24.451l22.773,6.338c0.597,0.167,1.24,0.068,1.764-0.27
	c0.521-0.339,0.873-0.885,0.966-1.499L96.202,3.94C96.326,3.112,95.963,2.285,95.268,1.817z"/>
</svg>
