<?xml version="1.0" encoding="utf-8"?>
<!-- Generator: Adobe Illustrator 16.0.0, SVG Export Plug-In . SVG Version: 6.00 Build 0)  -->
<!DOCTYPE svg PUBLIC "-//W3C//DTD SVG 1.1//EN" "http://www.w3.org/Graphics/SVG/1.1/DTD/svg11.dtd">
<svg version="1.1" id="Layer_4" xmlns="http://www.w3.org/2000/svg" xmlns:xlink="http://www.w3.org/1999/xlink" x="0px" y="0px"
	 width="100px" height="100px" viewBox="0 0 100 100" enable-background="new 0 0 100 100" xml:space="preserve">
<path d="M94.155,1.582c-0.98-0.654-2.359-0.692-3.368-0.094L5.996,51.799c-1.09,0.645-1.686,1.874-1.519,3.131
	c0.169,1.257,1.065,2.286,2.281,2.619l24.516,6.837l0.02,32.095c0,1.084,0.729,2.054,1.761,2.355c0.226,0.065,0.457,0.1,0.695,0.1
	c0.742,0,1.429-0.329,1.892-0.892L61.41,72.76l19.475,5.42c0.279,0.08,0.569,0.121,0.863,0.121c0.616,0,1.21-0.175,1.716-0.503
	c0.761-0.49,1.274-1.286,1.408-2.18L95.513,4.68C95.7,3.481,95.168,2.265,94.155,1.582z M79.987,72.421L42.529,61.654l23.954-24.738
	c1.128-0.923,1.297-2.595,0.377-3.727c-0.89-1.091-2.632-1.273-3.729-0.384L31.098,58.82l-18.068-5.03L89.601,8.358L79.987,72.421z"
	/>
</svg>
