<?xml version="1.0" encoding="utf-8"?>
<!-- Generator: Adobe Illustrator 16.0.0, SVG Export Plug-In . SVG Version: 6.00 Build 0)  -->
<!DOCTYPE svg PUBLIC "-//W3C//DTD SVG 1.1//EN" "http://www.w3.org/Graphics/SVG/1.1/DTD/svg11.dtd">
<svg version="1.1" id="Layer_1" xmlns="http://www.w3.org/2000/svg" xmlns:xlink="http://www.w3.org/1999/xlink" x="0px" y="0px"
	 width="100px" height="100px" viewBox="0 0 100 100" enable-background="new 0 0 100 100" xml:space="preserve">
<g>
	<path d="M33.523,19.59h36.162c1.104,0,2-0.896,2-2V4.511c0-1.104-0.896-2-2-2H33.523c-1.104,0-2,0.896-2,2V17.59
		C31.523,18.694,32.42,19.59,33.523,19.59z"/>
	<path d="M94.09,28.483H33.523c-1.104,0-2,0.896-2,2v13.079c0,1.104,0.896,2,2,2H94.09c1.105,0,2-0.896,2-2V30.483
		C96.09,29.379,95.195,28.483,94.09,28.483z"/>
	<path d="M33.523,71.538h36.162c1.104,0,2-0.896,2-2V56.459c0-1.104-0.896-2-2-2H33.523c-1.104,0-2,0.896-2,2v13.079
		C31.523,70.643,32.42,71.538,33.523,71.538z"/>
	<path d="M94.09,80.432H33.523c-1.104,0-2,0.896-2,2v13.079c0,1.104,0.896,2,2,2H94.09c1.105,0,2-0.896,2-2V82.432
		C96.09,81.327,95.195,80.432,94.09,80.432z"/>
	<path d="M26.045,31.523H14.889v-1.479c0-0.809-0.488-1.538-1.234-1.848c-0.75-0.31-1.607-0.14-2.18,0.434l-6.979,6.979
		c-0.781,0.781-0.781,2.047,0,2.828l6.979,6.979c0.383,0.383,0.893,0.586,1.414,0.586c0.258,0,0.518-0.05,0.766-0.152
		c0.746-0.31,1.234-1.039,1.234-1.848v-1.479h11.156c1.104,0,2-0.896,2-2v-6.998C28.045,32.419,27.148,31.523,26.045,31.523z"/>
	<path d="M6.051,9.489h18.883c1.104,0,2-0.896,2-2v-3c0-1.104-0.896-2-2-2H6.051c-1.105,0-2,0.896-2,2v3
		C4.051,8.594,4.945,9.489,6.051,9.489z"/>
	<path d="M24.934,64.538H6.051c-1.105,0-2,0.896-2,2v3c0,1.104,0.895,2,2,2h18.883c1.104,0,2-0.896,2-2v-3
		C26.934,65.434,26.037,64.538,24.934,64.538z"/>
</g>
</svg>
