<?xml version="1.0" encoding="utf-8"?>
<!-- Generator: Adobe Illustrator 16.0.0, SVG Export Plug-In . SVG Version: 6.00 Build 0)  -->
<!DOCTYPE svg PUBLIC "-//W3C//DTD SVG 1.1//EN" "http://www.w3.org/Graphics/SVG/1.1/DTD/svg11.dtd">
<svg version="1.1" id="Layer_1" xmlns="http://www.w3.org/2000/svg" xmlns:xlink="http://www.w3.org/1999/xlink" x="0px" y="0px"
	 width="100px" height="100px" viewBox="0 0 100 100" enable-background="new 0 0 100 100" xml:space="preserve">
<g>
	<path d="M96.944,13.971V3.958c0-1.258-1.018-2.277-2.276-2.277H38.602c-11.383,0-19.871,2.442-25.952,7.47
		c-6.364,5.265-9.594,12.724-9.594,22.167c0,10.367,3.124,18.054,9.547,23.499c6.399,5.422,15.696,8.174,27.63,8.174h10.38v33.052
		c0,1.258,1.02,2.277,2.278,2.277h7.096c1.257,0,2.276-1.02,2.276-2.277V16.247h9.147v79.795c0,1.258,1.02,2.277,2.277,2.277h6.873
		c1.257,0,2.277-1.02,2.277-2.277V16.247h11.83C95.927,16.247,96.944,15.228,96.944,13.971z"/>
</g>
</svg>
