<?xml version="1.0" encoding="utf-8"?>
<!-- Generator: Adobe Illustrator 16.0.0, SVG Export Plug-In . SVG Version: 6.00 Build 0)  -->
<!DOCTYPE svg PUBLIC "-//W3C//DTD SVG 1.1//EN" "http://www.w3.org/Graphics/SVG/1.1/DTD/svg11.dtd">
<svg version="1.1" id="Layer_4" xmlns="http://www.w3.org/2000/svg" xmlns:xlink="http://www.w3.org/1999/xlink" x="0px" y="0px"
	 width="100px" height="100px" viewBox="0 0 100 100" enable-background="new 0 0 100 100" xml:space="preserve">
<g>
	<path d="M49.188,51.944c-7.557,0-14.04,2.775-19.267,8.248c-7.376,7.724-9.636,17.947-9.548,19.862
		c0.186,4.025,1.796,7.211,4.532,8.97c0.946,0.609,1.954,0.917,2.998,0.917c2.522,0,5.288-1.704,8.49-3.675
		c0.429-0.263,0.925-0.604,1.481-0.983c2.643-1.806,6.637-4.537,10.921-4.537c4.636,0,9.584,3.364,12.243,5.17l0.825,0.555
		c2.972,1.958,5.772,3.801,8.265,3.801c0.93,0,1.838-0.25,2.702-0.744c3.208-1.822,5.293-4.131,5.052-9.485
		C77.633,74.468,71.742,51.944,49.188,51.944z"/>
	<path d="M34.82,44.762c0.418,0,0.838-0.029,1.26-0.087c6.943-0.96,11.512-9.561,10.184-19.171
		C45.041,16.657,39.003,9.728,32.52,9.728c-0.418,0-0.84,0.029-1.262,0.087c-3.27,0.452-6.136,2.638-8.07,6.154
		c-2.017,3.666-2.767,8.29-2.113,13.019C22.298,37.833,28.335,44.762,34.82,44.762z"/>
	<path d="M9.951,38.299c-0.62,0-1.24,0.078-1.846,0.233c-5.261,1.35-7.928,8.081-6.068,15.324
		c1.622,6.324,6.084,10.741,10.853,10.741c0.62,0,1.24-0.078,1.845-0.233c5.262-1.35,7.929-8.081,6.071-15.323
		C19.184,42.716,14.72,38.299,9.951,38.299z"/>
	<path d="M63.92,44.675c6.971,0.961,13.704-6.273,15.006-15.688c0.653-4.729-0.097-9.353-2.113-13.019
		c-1.935-3.516-4.801-5.702-8.07-6.154c-0.422-0.058-0.844-0.087-1.262-0.087c-6.483,0-12.521,6.93-13.744,15.777
		C52.408,35.115,56.977,43.715,63.92,44.675z"/>
	<path d="M91.895,38.532c-0.605-0.155-1.226-0.233-1.846-0.233c-4.769,0-9.232,4.417-10.854,10.742
		c-1.857,7.242,0.81,13.973,6.071,15.323c0.604,0.155,1.225,0.233,1.845,0.233c4.769,0.001,9.23-4.416,10.853-10.741
		C99.822,46.613,97.155,39.882,91.895,38.532z"/>
</g>
</svg>
