<?xml version="1.0" encoding="utf-8"?>
<!-- Generator: Adobe Illustrator 16.0.0, SVG Export Plug-In . SVG Version: 6.00 Build 0)  -->
<!DOCTYPE svg PUBLIC "-//W3C//DTD SVG 1.1//EN" "http://www.w3.org/Graphics/SVG/1.1/DTD/svg11.dtd">
<svg version="1.1" id="Layer_1" xmlns="http://www.w3.org/2000/svg" xmlns:xlink="http://www.w3.org/1999/xlink" x="0px" y="0px"
	 width="100px" height="100px" viewBox="0 0 100 100" enable-background="new 0 0 100 100" xml:space="preserve">
<path d="M97.555,24.42L75.562,2.43c-0.35-0.35-0.798-0.544-1.258-0.58c-0.08-0.009-0.174-0.016-0.281-0.016
	c-0.438,0-0.779,0.115-0.988,0.212c-0.214,0.099-0.409,0.234-0.575,0.401L6.131,68.76c-0.26,0.26-0.443,0.586-0.53,0.943
	L5.54,69.957c-0.015,0.062-0.027,0.123-0.036,0.187L1.829,95.712c-0.087,0.662,0.148,1.343,0.641,1.836
	c0.406,0.398,0.944,0.618,1.516,0.618c0.095,0,0.189-0.007,0.284-0.021l25.624-3.669c0.501-0.048,0.958-0.267,1.337-0.643
	l66.302-66.322c0.423-0.412,0.657-0.966,0.657-1.559C98.189,25.367,97.96,24.819,97.555,24.42z M20.782,74.373
	c-0.384,0-0.768-0.146-1.061-0.439l-2.549-2.549c-0.281-0.281-0.439-0.663-0.439-1.061s0.158-0.779,0.439-1.061L61.49,24.944
	c0.586-0.586,1.535-0.586,2.121,0l2.55,2.55c0.281,0.281,0.439,0.663,0.439,1.061s-0.158,0.779-0.439,1.061L21.843,73.934
	C21.55,74.227,21.166,74.373,20.782,74.373z M75.056,38.51l-44.32,44.318c-0.281,0.281-0.663,0.439-1.061,0.439h0
	c-0.398,0-0.779-0.158-1.061-0.439l-2.549-2.551c-0.585-0.586-0.585-1.535,0-2.121l44.318-44.318
	c0.281-0.281,0.663-0.439,1.061-0.439s0.779,0.158,1.061,0.439l2.55,2.551C75.642,36.975,75.642,37.924,75.056,38.51z"/>
</svg>
