<?xml version="1.0" encoding="utf-8"?>
<!-- Generator: Adobe Illustrator 16.0.0, SVG Export Plug-In . SVG Version: 6.00 Build 0)  -->
<!DOCTYPE svg PUBLIC "-//W3C//DTD SVG 1.1//EN" "http://www.w3.org/Graphics/SVG/1.1/DTD/svg11.dtd">
<svg version="1.1" id="Layer_2" xmlns="http://www.w3.org/2000/svg" xmlns:xlink="http://www.w3.org/1999/xlink" x="0px" y="0px"
	 width="100px" height="100px" viewBox="0 0 100 100" enable-background="new 0 0 100 100" xml:space="preserve">
<path d="M50,2C23.49,2,2,23.49,2,50S23.49,98,50,98S98,76.51,98,50S76.51,2,50,2z M50,6.993c5.658,0,10.262,4.603,10.262,10.261
	S55.658,27.517,50,27.517s-10.262-4.604-10.262-10.262S44.342,6.993,50,6.993z M78.778,37.014
	c-1.471,1.286-6.345,4.382-19.826,5.359v0c2.602,3.609,5.262,8.06,7.909,13.229c9.178,17.922,8.706,25.688,8.076,28.196
	c-0.125,0.5-0.485,0.91-0.964,1.098c-0.188,0.074-0.387,0.111-0.585,0.111c-0.304,0-0.606-0.087-0.87-0.258
	c-2.163-1.406-9.849-7.213-17.876-22.889c-1.223-2.389-1.443-2.816-3.831-7.46L50,52.824l-0.81,1.575
	c-2.389,4.644-2.609,5.072-3.832,7.46c-8.025,15.674-15.711,21.482-17.876,22.889c-0.432,0.282-0.973,0.336-1.454,0.147
	c-0.48-0.188-0.84-0.598-0.965-1.098c-0.628-2.509-1.1-10.278,8.077-28.195c2.646-5.169,5.308-9.621,7.907-13.23
	c-13.479-0.977-18.355-4.073-19.824-5.358c-0.388-0.34-0.589-0.846-0.538-1.36c0.05-0.513,0.346-0.971,0.794-1.227
	C23.721,33.142,32.398,28.95,50,28.95c17.597,0,26.278,4.191,28.519,5.476c0.449,0.256,0.744,0.714,0.795,1.228
	C79.366,36.167,79.166,36.674,78.778,37.014z"/>
</svg>
