<?xml version="1.0" encoding="utf-8"?>
<!-- Generator: Adobe Illustrator 16.0.0, SVG Export Plug-In . SVG Version: 6.00 Build 0)  -->
<!DOCTYPE svg PUBLIC "-//W3C//DTD SVG 1.1//EN" "http://www.w3.org/Graphics/SVG/1.1/DTD/svg11.dtd">
<svg version="1.1" id="Layer_2" xmlns="http://www.w3.org/2000/svg" xmlns:xlink="http://www.w3.org/1999/xlink" x="0px" y="0px"
	 width="100px" height="100px" viewBox="0 0 100 100" enable-background="new 0 0 100 100" xml:space="preserve">
<path d="M95.816,20.674H4.184c-1.104,0-2,0.896-2,2v54.652c0,1.104,0.896,2,2,2h91.633c1.104,0,2-0.896,2-2V22.674
	C97.816,21.569,96.921,20.674,95.816,20.674z M27.532,27.437c5.44,0,9.85,4.409,9.85,9.849c0,5.44-4.409,9.851-9.85,9.851
	s-9.85-4.41-9.85-9.851C17.683,31.846,22.092,27.437,27.532,27.437z M42.821,72.563H27.7H12.579
	c-5.938-6.783,1.117-19.046,1.117-19.046c2.038-3.304,7.271-4.883,12.24-5.233c0.585-0.042,1.175,1.251,1.764,1.423
	c0.589-0.172,1.179-1.465,1.764-1.423c4.969,0.351,10.202,1.93,12.24,5.233C41.704,53.518,48.759,65.78,42.821,72.563z M88.75,69.25
	c0,0.828-0.672,1.5-1.5,1.5h-24.5c-0.828,0-1.5-0.672-1.5-1.5v-4.125c0-0.828,0.672-1.5,1.5-1.5h24.5c0.828,0,1.5,0.672,1.5,1.5
	V69.25z M88.75,56.25c0,0.828-0.672,1.5-1.5,1.5h-24.5c-0.828,0-1.5-0.672-1.5-1.5v-4.125c0-0.828,0.672-1.5,1.5-1.5h24.5
	c0.828,0,1.5,0.672,1.5,1.5V56.25z M88.75,43.25c0,0.828-0.672,1.5-1.5,1.5h-37.5c-0.828,0-1.5-0.672-1.5-1.5v-12.5
	c0-0.828,0.672-1.5,1.5-1.5h37.5c0.828,0,1.5,0.672,1.5,1.5V43.25z"/>
</svg>
