<?xml version="1.0" encoding="utf-8"?>
<!-- Generator: Adobe Illustrator 16.0.0, SVG Export Plug-In . SVG Version: 6.00 Build 0)  -->
<!DOCTYPE svg PUBLIC "-//W3C//DTD SVG 1.1//EN" "http://www.w3.org/Graphics/SVG/1.1/DTD/svg11.dtd">
<svg version="1.1" id="Layer_4" xmlns="http://www.w3.org/2000/svg" xmlns:xlink="http://www.w3.org/1999/xlink" x="0px" y="0px"
	 width="100px" height="100px" viewBox="0 0 100 100" enable-background="new 0 0 100 100" xml:space="preserve">
<path d="M95.412,2.451H4.588c-1.18,0-2.137,0.957-2.137,2.137v90.824c0,1.18,0.957,2.137,2.137,2.137h90.824
	c1.18,0,2.137-0.957,2.137-2.137V4.588C97.549,3.408,96.592,2.451,95.412,2.451z M82.011,71.84l-7.928,7.928
	c-0.069,0.069-0.144,0.132-0.226,0.187l-0.186,0.128c-1.995,1.595-4.623,2.404-7.815,2.404c-8.94,0-21.318-6.601-31.534-16.817
	C19.966,51.314,13.658,34.002,19.961,26.257l0.015-0.017c0.07-0.125,0.157-0.241,0.261-0.344l7.915-7.915
	c0.624-0.624,1.634-0.624,2.257,0l13.54,13.54c0.299,0.299,0.468,0.705,0.468,1.128c0,0.423-0.169,0.829-0.468,1.128l-7.072,7.072
	c0.616,1.729,3.103,7.845,9.238,13.98c5.914,5.913,11.053,7.793,12.987,8.328l7.113-7.113c0.623-0.623,1.632-0.623,2.256,0
	l13.54,13.54c0.299,0.299,0.467,0.705,0.467,1.128S82.31,71.541,82.011,71.84z"/>
</svg>
