<?xml version="1.0" encoding="utf-8"?>
<!-- Generator: Adobe Illustrator 16.0.0, SVG Export Plug-In . SVG Version: 6.00 Build 0)  -->
<!DOCTYPE svg PUBLIC "-//W3C//DTD SVG 1.1//EN" "http://www.w3.org/Graphics/SVG/1.1/DTD/svg11.dtd">
<svg version="1.1" id="Layer_4" xmlns="http://www.w3.org/2000/svg" xmlns:xlink="http://www.w3.org/1999/xlink" x="0px" y="0px"
	 width="100px" height="100px" viewBox="0 0 100 100" enable-background="new 0 0 100 100" xml:space="preserve">
<g>
	<path d="M95.412,2.451H4.588c-1.178,0-2.137,0.958-2.137,2.137v90.824c0,1.178,0.958,2.137,2.137,2.137h90.824
		c1.178,0,2.137-0.958,2.137-2.137V4.588C97.549,3.41,96.59,2.451,95.412,2.451z M88.551,88.551H11.449V11.449h77.102V88.551z"/>
	<path d="M64.148,78.985c2.849,0,5.193-0.721,6.973-2.145l0.166-0.114c0.073-0.049,0.139-0.105,0.201-0.167l7.073-7.073
		c0.267-0.267,0.417-0.629,0.417-1.006c0-0.377-0.15-0.739-0.417-1.006L66.48,55.393c-0.557-0.556-1.457-0.556-2.013,0l-6.347,6.347
		c-1.726-0.477-6.311-2.155-11.587-7.431c-5.475-5.474-7.693-10.932-8.243-12.474l6.311-6.31c0.267-0.267,0.417-0.629,0.417-1.006
		s-0.15-0.739-0.417-1.006L32.52,21.432c-0.556-0.557-1.457-0.557-2.014,0l-7.062,7.062c-0.092,0.091-0.17,0.195-0.233,0.307
		l-0.013,0.015c-5.624,6.91,0.004,22.356,12.813,35.165C45.127,73.096,56.171,78.985,64.148,78.985z"/>
</g>
</svg>
