<?xml version="1.0" encoding="utf-8"?>
<!-- Generator: Adobe Illustrator 16.0.0, SVG Export Plug-In . SVG Version: 6.00 Build 0)  -->
<!DOCTYPE svg PUBLIC "-//W3C//DTD SVG 1.1//EN" "http://www.w3.org/Graphics/SVG/1.1/DTD/svg11.dtd">
<svg version="1.1" id="Layer_3" xmlns="http://www.w3.org/2000/svg" xmlns:xlink="http://www.w3.org/1999/xlink" x="0px" y="0px"
	 width="100px" height="100px" viewBox="0 0 100 100" enable-background="new 0 0 100 100" xml:space="preserve">
<g>
	<path d="M96.833,18.579H28.04v-2.031c0-1.104-0.896-2-2-2H9.59c-1.104,0-2,0.896-2,2v2.031H3.167c-1.104,0-2,0.896-2,2v62.873
		c0,1.104,0.896,2,2,2h93.666c1.104,0,2-0.896,2-2V20.579C98.833,19.475,97.938,18.579,96.833,18.579z M64.945,36.97
		c3.997,3.989,6.29,9.473,6.29,15.046c0,5.574-2.292,11.058-6.289,15.045c-0.573,0.572-0.745,1.432-0.437,2.18
		c0.31,0.748,1.039,1.236,1.849,1.236h26.808v9.308H6.834v-9.308h26.808c0.007,0,0.015,0.001,0.02,0c1.105,0,2-0.896,2-2
		c0-0.635-0.296-1.202-0.758-1.568c-3.903-3.977-6.139-9.393-6.139-14.894c0-5.572,2.293-11.057,6.291-15.046
		c0.572-0.571,0.744-1.432,0.436-2.18c-0.31-0.748-1.039-1.236-1.849-1.236H6.834v-9.308h86.332v9.308H66.358
		c-0.81,0-1.539,0.488-1.849,1.236C64.201,35.538,64.373,36.398,64.945,36.97z"/>
	<path d="M50,38.433c-7.49,0-13.584,6.093-13.584,13.583c0,7.49,6.094,13.583,13.584,13.583s13.584-6.094,13.584-13.583
		C63.584,44.526,57.49,38.433,50,38.433z"/>
</g>
</svg>
