<?xml version="1.0" encoding="utf-8"?>
<!-- Generator: Adobe Illustrator 16.0.0, SVG Export Plug-In . SVG Version: 6.00 Build 0)  -->
<!DOCTYPE svg PUBLIC "-//W3C//DTD SVG 1.1//EN" "http://www.w3.org/Graphics/SVG/1.1/DTD/svg11.dtd">
<svg version="1.1" id="Layer_1" xmlns="http://www.w3.org/2000/svg" xmlns:xlink="http://www.w3.org/1999/xlink" x="0px" y="0px"
	 width="100px" height="100px" viewBox="0 0 100 100" enable-background="new 0 0 100 100" xml:space="preserve">
<g>
	<path d="M66.752,12.425h-16.28l-2.389-9.601c-0.273-1.098-1.26-1.868-2.393-1.868H26.59c-1.131,0-2.117,0.771-2.391,1.87
		l-2.383,9.6H5.547c-1.361,0-2.465,1.103-2.465,2.464v45.409c0,1.36,1.104,2.462,2.465,2.462h61.205
		c1.361,0,2.462-1.102,2.462-2.462V14.889C69.214,13.528,68.113,12.425,66.752,12.425z M36.149,51.484
		c-7.66,0-13.894-6.232-13.894-13.893c0-7.66,6.233-13.891,13.894-13.891S50.04,29.932,50.04,37.592
		C50.04,45.252,43.81,51.484,36.149,51.484z"/>
	<path d="M94.807,33.981H74.844v18.585h9.551V72.84l-0.588-0.017c-7.23,0-13.109,5.881-13.109,13.111s5.879,13.111,13.109,13.111
		c13.111,0,13.111-13.084,13.111-13.111v-49.84C96.918,34.927,95.973,33.981,94.807,33.981z"/>
	<path d="M42.162,72.84l-0.59-0.017c-7.229,0-13.111,5.881-13.111,13.111s5.883,13.111,13.111,13.111
		c7.104,0,12.983-5.78,13.104-12.84l0.006-0.202c0-0.026,0.002-0.052,0.002-0.079V68.389H42.162V72.84z"/>
</g>
</svg>
