<?xml version="1.0" encoding="utf-8"?>
<!-- Generator: Adobe Illustrator 16.0.0, SVG Export Plug-In . SVG Version: 6.00 Build 0)  -->
<!DOCTYPE svg PUBLIC "-//W3C//DTD SVG 1.1//EN" "http://www.w3.org/Graphics/SVG/1.1/DTD/svg11.dtd">
<svg version="1.1" id="Layer_2" xmlns="http://www.w3.org/2000/svg" xmlns:xlink="http://www.w3.org/1999/xlink" x="0px" y="0px"
	 width="100px" height="100px" viewBox="0 0 100 100" enable-background="new 0 0 100 100" xml:space="preserve">
<path d="M50,0.749c-19.835,0-35.972,16.138-35.972,35.974c0,5.174,1.059,10.114,3.146,14.684
	c8.994,19.681,26.238,40.46,31.31,46.359c0.38,0.442,0.934,0.696,1.517,0.696s1.137-0.254,1.517-0.696
	c5.071-5.898,22.314-26.675,31.311-46.359c2.087-4.57,3.145-9.51,3.145-14.684C85.972,16.887,69.835,0.749,50,0.749z M50,55.408
	c-10.303,0-18.686-8.383-18.686-18.686c0-10.304,8.383-18.687,18.686-18.687s18.686,8.383,18.686,18.687
	C68.686,47.025,60.303,55.408,50,55.408z"/>
</svg>
