<?xml version="1.0" encoding="utf-8"?>
<!-- Generator: Adobe Illustrator 16.0.0, SVG Export Plug-In . SVG Version: 6.00 Build 0)  -->
<!DOCTYPE svg PUBLIC "-//W3C//DTD SVG 1.1//EN" "http://www.w3.org/Graphics/SVG/1.1/DTD/svg11.dtd">
<svg version="1.1" id="Layer_1" xmlns="http://www.w3.org/2000/svg" xmlns:xlink="http://www.w3.org/1999/xlink" x="0px" y="0px"
	 width="100px" height="100px" viewBox="0 0 100 100" enable-background="new 0 0 100 100" xml:space="preserve">
<path d="M95.328,2.125H4.672c-1.406,0-2.547,1.14-2.547,2.546v90.657c0,1.406,1.141,2.546,2.547,2.546h90.656
	c1.406,0,2.547-1.14,2.547-2.546V4.671C97.875,3.265,96.734,2.125,95.328,2.125z M69.036,52.408L40.754,74.656
	c-0.551,0.433-1.221,0.656-1.895,0.656c-0.456,0-0.914-0.102-1.339-0.308c-1.056-0.514-1.726-1.583-1.726-2.756V27.752
	c0-1.174,0.67-2.244,1.726-2.756c1.054-0.511,2.311-0.378,3.233,0.348l28.282,22.248c0.738,0.581,1.169,1.469,1.169,2.408
	S69.774,51.826,69.036,52.408z"/>
</svg>
