<?xml version="1.0" encoding="utf-8"?>
<!-- Generator: Adobe Illustrator 16.0.0, SVG Export Plug-In . SVG Version: 6.00 Build 0)  -->
<!DOCTYPE svg PUBLIC "-//W3C//DTD SVG 1.1//EN" "http://www.w3.org/Graphics/SVG/1.1/DTD/svg11.dtd">
<svg version="1.1" id="Layer_4" xmlns="http://www.w3.org/2000/svg" xmlns:xlink="http://www.w3.org/1999/xlink" x="0px" y="0px"
	 width="100px" height="100px" viewBox="0 0 100 100" enable-background="new 0 0 100 100" xml:space="preserve">
<g>
	<path d="M97.549,95.412V4.588c0-1.178-0.959-2.137-2.137-2.137H4.588c-1.178,0-2.137,0.959-2.137,2.137v90.824
		c0,1.178,0.959,2.137,2.137,2.137h90.824C96.59,97.549,97.549,96.59,97.549,95.412z M11.449,88.551V11.449h77.102v77.102H11.449z"
		/>
	<path d="M32.064,23.586v52.83c0,0.445,0.333,0.846,0.852,1.015c0.514,0.171,1.105,0.077,1.5-0.237l33.115-26.416
		c0.269-0.215,0.404-0.496,0.404-0.776s-0.136-0.562-0.404-0.777L34.416,22.809c-0.395-0.314-0.986-0.41-1.5-0.238
		C32.397,22.74,32.064,23.141,32.064,23.586z"/>
</g>
</svg>
