<?xml version="1.0" encoding="utf-8"?>
<!-- Generator: Adobe Illustrator 16.0.0, SVG Export Plug-In . SVG Version: 6.00 Build 0)  -->
<!DOCTYPE svg PUBLIC "-//W3C//DTD SVG 1.1//EN" "http://www.w3.org/Graphics/SVG/1.1/DTD/svg11.dtd">
<svg version="1.1" id="Layer_3" xmlns="http://www.w3.org/2000/svg" xmlns:xlink="http://www.w3.org/1999/xlink" x="0px" y="0px"
	 width="100px" height="100px" viewBox="0 0 100 100" enable-background="new 0 0 100 100" xml:space="preserve">
<g>
	<path d="M97.258,48.413H66.127c-0.604,0-1.094,0.49-1.094,1.093v13.499c0,1.206-0.98,2.187-2.187,2.187H37.153
		c-1.206,0-2.187-0.981-2.187-2.187V49.506c0-0.604-0.489-1.093-1.094-1.093H2.741c-0.604,0-1.093,0.49-1.093,1.093v44.796
		c0,0.604,0.489,1.093,1.093,1.093h94.517c0.604,0,1.094-0.49,1.094-1.093V49.506C98.352,48.903,97.862,48.413,97.258,48.413z"/>
	<path d="M57.918,59.758c0.5,0,0.904-0.405,0.904-0.904v-8.37c0-0.5-0.404-0.904-0.904-0.904H42.082c-0.5,0-0.904,0.405-0.904,0.904
		v8.37c0,0.5,0.404,0.904,0.904,0.904H57.918z"/>
	<path d="M97.258,15.948H67.084V7.885c0-1.812-1.469-3.28-3.28-3.28H36.196c-1.812,0-3.28,1.469-3.28,3.28v8.063H2.741
		c-0.604,0-1.093,0.49-1.093,1.094v25.11c0,0.604,0.489,1.093,1.093,1.093h94.517c0.604,0,1.094-0.489,1.094-1.093v-25.11
		C98.352,16.438,97.862,15.948,97.258,15.948z M39.477,11.165h21.047v4.783H39.477V11.165z"/>
</g>
</svg>
