<?xml version="1.0" encoding="utf-8"?>
<!-- Generator: Adobe Illustrator 16.0.0, SVG Export Plug-In . SVG Version: 6.00 Build 0)  -->
<!DOCTYPE svg PUBLIC "-//W3C//DTD SVG 1.1//EN" "http://www.w3.org/Graphics/SVG/1.1/DTD/svg11.dtd">
<svg version="1.1" id="Layer_4" xmlns="http://www.w3.org/2000/svg" xmlns:xlink="http://www.w3.org/1999/xlink" x="0px" y="0px"
	 width="100px" height="100px" viewBox="0 0 100 100" enable-background="new 0 0 100 100" xml:space="preserve">
<g>
	<path d="M96.051,30.719H82.083v6.447c0,1.104-0.896,2-2,2H19.917c-1.104,0-2-0.896-2-2v-6.447H3.949
		c-0.57,0-1.033,0.462-1.033,1.033v36.496c0,0.57,0.462,1.033,1.033,1.033h13.968v-6.447c0-1.104,0.896-2,2-2h60.166
		c1.104,0,2,0.896,2,2v6.447h13.968c0.57,0,1.033-0.462,1.033-1.033V31.752C97.083,31.182,96.621,30.719,96.051,30.719z
		 M85.894,55.542c-2.424,0-4.39-1.965-4.39-4.39c0-2.424,1.966-4.39,4.39-4.39s4.39,1.966,4.39,4.39
		C90.283,53.577,88.317,55.542,85.894,55.542z"/>
	<path d="M78.533,25.438c0-0.549-0.218-1.073-0.605-1.46L64.486,10.535c-0.388-0.387-0.913-0.605-1.461-0.605H23.532
		c-1.141,0-2.065,0.925-2.065,2.066V35.75h57.066V25.438z M61.2,28.39c-0.278,0-0.545-0.109-0.742-0.306
		c-0.196-0.197-0.307-0.463-0.307-0.742l0.001-12.498L73.698,28.39H61.2z"/>
	<path d="M21.467,88.004c0,1.141,0.925,2.066,2.065,2.066h52.936c1.141,0,2.065-0.925,2.065-2.066V64.583H21.467V88.004z"/>
</g>
</svg>
