<?xml version="1.0" encoding="utf-8"?>
<!-- Generator: Adobe Illustrator 16.0.0, SVG Export Plug-In . SVG Version: 6.00 Build 0)  -->
<!DOCTYPE svg PUBLIC "-//W3C//DTD SVG 1.1//EN" "http://www.w3.org/Graphics/SVG/1.1/DTD/svg11.dtd">
<svg version="1.1" id="Layer_3" xmlns="http://www.w3.org/2000/svg" xmlns:xlink="http://www.w3.org/1999/xlink" x="0px" y="0px"
	 width="100px" height="100px" viewBox="0 0 100 100" enable-background="new 0 0 100 100" xml:space="preserve">
<g>
	<path d="M96.667,48.582L72.548,24.463c-0.75-0.75-2.078-0.75-2.828,0l-5.229,5.229c-0.781,0.781-0.781,2.047,0,2.828l17.476,17.475
		L64.493,67.472c-0.781,0.781-0.781,2.047,0,2.828l5.228,5.229c0.375,0.375,0.884,0.586,1.414,0.586s1.039-0.211,1.414-0.586
		L96.667,51.41C97.448,50.629,97.448,49.363,96.667,48.582z"/>
	<path d="M35.508,67.472L18.033,49.996L35.51,32.521c0.375-0.375,0.586-0.883,0.586-1.414c0-0.53-0.21-1.039-0.586-1.414
		l-5.229-5.229c-0.375-0.375-0.884-0.586-1.414-0.586s-1.039,0.211-1.414,0.586L3.334,48.582c-0.781,0.781-0.781,2.047,0,2.828
		l24.118,24.119c0.375,0.375,0.884,0.586,1.414,0.586s1.039-0.211,1.414-0.586l5.229-5.229C36.29,69.52,36.29,68.253,35.508,67.472z
		"/>
	<path d="M63.715,16.348c-0.253-0.466-0.682-0.812-1.19-0.962l-4.239-1.251c-1.058-0.314-2.172,0.293-2.484,1.352L36.123,82.13
		c-0.15,0.509-0.092,1.056,0.161,1.522c0.253,0.466,0.682,0.812,1.19,0.962l4.239,1.251c0.189,0.056,0.38,0.083,0.567,0.083
		c0.863,0,1.66-0.564,1.917-1.434L63.876,17.87C64.027,17.361,63.969,16.814,63.715,16.348z"/>
</g>
</svg>
