<?xml version="1.0" encoding="utf-8"?>
<!-- Generator: Adobe Illustrator 16.0.0, SVG Export Plug-In . SVG Version: 6.00 Build 0)  -->
<!DOCTYPE svg PUBLIC "-//W3C//DTD SVG 1.1//EN" "http://www.w3.org/Graphics/SVG/1.1/DTD/svg11.dtd">
<svg version="1.1" id="Layer_4" xmlns="http://www.w3.org/2000/svg" xmlns:xlink="http://www.w3.org/1999/xlink" x="0px" y="0px"
	 width="100px" height="100px" viewBox="0 0 100 100" enable-background="new 0 0 100 100" xml:space="preserve">
<g>
	<path d="M57.679,95.833c8.398-0.372,15.896-3.722,21.681-9.685c15.336-15.81,15.041-45.611,14.957-48.907L94.316,6.164
		c0-1.104-0.896-2-2-2H61.625c-1.104,0-2,0.896-2,2v30.691c0,1.104,0.896,2,2,2h15.685c-0.003,2.563-0.313,25.309-10.186,35.455
		c-2.672,2.747-5.836,4.215-9.674,4.485c-1.048,0.074-1.859,0.945-1.859,1.995v13.044c0,0.546,0.223,1.067,0.617,1.445
		C56.602,95.657,57.126,95.867,57.679,95.833z"/>
	<path d="M6.284,95.28c0.395,0.377,0.907,0.587,1.472,0.553c8.398-0.372,15.896-3.722,21.681-9.685
		c15.336-15.81,15.041-45.611,14.957-48.907L44.392,6.164c0-1.104-0.896-2-2-2H11.701c-1.104,0-2,0.896-2,2v30.691
		c0,1.104,0.896,2,2,2h15.684C27.381,41.418,27.071,64.164,17.2,74.31c-2.672,2.747-5.836,4.215-9.674,4.485
		c-1.048,0.074-1.859,0.945-1.859,1.995v13.044C5.667,94.38,5.889,94.902,6.284,95.28z"/>
</g>
</svg>
