<?xml version="1.0" encoding="utf-8"?>
<!-- Generator: Adobe Illustrator 16.0.0, SVG Export Plug-In . SVG Version: 6.00 Build 0)  -->
<!DOCTYPE svg PUBLIC "-//W3C//DTD SVG 1.1//EN" "http://www.w3.org/Graphics/SVG/1.1/DTD/svg11.dtd">
<svg version="1.1" id="Layer_1" xmlns="http://www.w3.org/2000/svg" xmlns:xlink="http://www.w3.org/1999/xlink" x="0px" y="0px"
	 width="100px" height="100px" viewBox="0 0 100 100" enable-background="new 0 0 100 100" xml:space="preserve">
<g>
	<path d="M71.497,89.554l-48.979,0.031l0.122-73.418h-6.518c-1.444,0-2.614,1.17-2.614,2.614V96.09c0,1.444,1.17,2.614,2.614,2.614
		h52.739c0.008,0,0.017,0,0.021,0c1.443,0,2.613-1.17,2.613-2.614C71.496,95.977,71.497,89.554,71.497,89.554z"/>
	<path d="M86.487,3.91c0-1.444-1.17-2.614-2.614-2.614H31.137c-1.443,0-2.613,1.17-2.613,2.614v77.309
		c0,1.444,1.17,2.614,2.613,2.614h52.741c0.693,0,1.357-0.275,1.848-0.766c0.49-0.49,0.766-1.155,0.766-1.848L86.487,3.91z"/>
</g>
</svg>
