<?xml version="1.0" encoding="utf-8"?>
<!-- Generator: Adobe Illustrator 16.0.0, SVG Export Plug-In . SVG Version: 6.00 Build 0)  -->
<!DOCTYPE svg PUBLIC "-//W3C//DTD SVG 1.1//EN" "http://www.w3.org/Graphics/SVG/1.1/DTD/svg11.dtd">
<svg version="1.1" id="Layer_1" xmlns="http://www.w3.org/2000/svg" xmlns:xlink="http://www.w3.org/1999/xlink" x="0px" y="0px"
	 width="100px" height="100px" viewBox="0 0 100 100" enable-background="new 0 0 100 100" xml:space="preserve">
<g>
	<path d="M83.109,21.588H16.891c-1.104,0-2,0.896-2,2v72.754c0,1.104,0.896,2,2,2h66.219c1.104,0,2-0.896,2-2V23.588
		C85.109,22.483,84.214,21.588,83.109,21.588z M40.476,86.713c0,0.828-0.672,1.5-1.5,1.5H28.646c-0.828,0-1.5-0.672-1.5-1.5V33.217
		c0-0.828,0.672-1.5,1.5-1.5h10.329c0.828,0,1.5,0.672,1.5,1.5V86.713z M72.854,86.713c0,0.828-0.672,1.5-1.5,1.5H61.024
		c-0.828,0-1.5-0.672-1.5-1.5V33.217c0-0.828,0.672-1.5,1.5-1.5h10.329c0.828,0,1.5,0.672,1.5,1.5V86.713z"/>
	<path d="M84.561,8.184H61.588c0.002-0.033,0.01-0.063,0.01-0.097V3.658c0-1.104-0.896-2-2-2H40.402c-1.104,0-2,0.896-2,2v4.429
		c0,0.033,0.008,0.063,0.01,0.097H15.439c-1.104,0-2,0.896-2,2v5.623c0,1.104,0.896,2,2,2h69.121c1.104,0,2-0.896,2-2v-5.623
		C86.561,9.079,85.665,8.184,84.561,8.184z M57.949,8.395H42.051V6.142c0-0.704,0.571-1.275,1.275-1.275h13.348
		c0.704,0,1.275,0.571,1.275,1.275V8.395z"/>
</g>
</svg>
