<?xml version="1.0" encoding="utf-8"?>
<!-- Generator: Adobe Illustrator 16.0.0, SVG Export Plug-In . SVG Version: 6.00 Build 0)  -->
<!DOCTYPE svg PUBLIC "-//W3C//DTD SVG 1.1//EN" "http://www.w3.org/Graphics/SVG/1.1/DTD/svg11.dtd">
<svg version="1.1" id="Layer_4" xmlns="http://www.w3.org/2000/svg" xmlns:xlink="http://www.w3.org/1999/xlink" x="0px" y="0px"
	 width="100px" height="100px" viewBox="0 0 100 100" enable-background="new 0 0 100 100" xml:space="preserve">
<g>
	<path d="M88.583,14.49h-19.17V9.138c0-4.229-3.44-7.671-7.669-7.671H38.257c-4.229,0-7.669,3.441-7.669,7.671v5.353h-19.17
		c-1.104,0-2,0.896-2,2v5.587c0,1.104,0.896,2,2,2h7.212l0.008,65.828c0,4.758,3.871,8.628,8.628,8.628h45.469
		c4.757,0,8.628-3.87,8.628-8.628V24.097l7.219,0.005h0.001c0.53,0,1.039-0.211,1.414-0.585c0.375-0.375,0.586-0.885,0.586-1.415
		V16.49C90.583,15.386,89.688,14.49,88.583,14.49z M38.257,14.49V9.138h23.486l0.003,5.353H38.257z M71.776,25.674v63.272H28.224
		V25.674H71.776z"/>
	<path d="M38.459,78.276h3.669c1.104,0,2-0.896,2-2V38.344c0-1.104-0.896-2-2-2h-3.669c-1.104,0-2,0.896-2,2v37.933
		C36.459,77.381,37.354,78.276,38.459,78.276z"/>
	<path d="M57.872,78.276h3.669c1.104,0,2-0.896,2-2V38.344c0-1.104-0.896-2-2-2h-3.669c-1.104,0-2,0.896-2,2v37.933
		C55.872,77.381,56.768,78.276,57.872,78.276z"/>
</g>
</svg>
