<?xml version="1.0" encoding="utf-8"?>
<!-- Generator: Adobe Illustrator 16.0.0, SVG Export Plug-In . SVG Version: 6.00 Build 0)  -->
<!DOCTYPE svg PUBLIC "-//W3C//DTD SVG 1.1//EN" "http://www.w3.org/Graphics/SVG/1.1/DTD/svg11.dtd">
<svg version="1.1" id="Layer_3" xmlns="http://www.w3.org/2000/svg" xmlns:xlink="http://www.w3.org/1999/xlink" x="0px" y="0px"
	 width="100px" height="100px" viewBox="0 0 100 100" enable-background="new 0 0 100 100" xml:space="preserve">
<g>
	<path d="M51.584,2.375h-4.5c-1.104,0-2,0.895-2,2v31.457h-7.75V4.375c0-1.105-0.895-2-2-2h-5c-1.104,0-2,0.895-2,2v31.457h-7.75
		V4.375c0-1.105-0.895-2-2-2h-4.5c-1.104,0-2,0.895-2,2v29.25c0,8.844,5.938,16.74,14.438,19.199v42.801c0,1.104,0.896,2,2,2h8.625
		c1.105,0,2-0.896,2-2V52.824c8.502-2.459,14.438-10.355,14.438-19.199V4.375C53.584,3.27,52.689,2.375,51.584,2.375z"/>
	<path d="M87.896,95.34L87.836,4.387c0-0.539-0.219-1.055-0.605-1.432c-0.387-0.375-0.902-0.59-1.447-0.566
		c-7.471,0.193-24.85,2.646-24.85,21.203v31.535c0,0.531,0.211,1.039,0.586,1.414s0.885,0.586,1.414,0.586c0,0,0,0,0.002,0
		l12.436-0.004v38.502c0,1.104,0.896,2,2,2h8.525c0.008,0,0.016,0,0.02,0c1.105,0,2-0.896,2-2
		C87.916,95.527,87.908,95.432,87.896,95.34z"/>
</g>
</svg>
