<?xml version="1.0" encoding="utf-8"?>
<!-- Generator: Adobe Illustrator 16.0.0, SVG Export Plug-In . SVG Version: 6.00 Build 0)  -->
<!DOCTYPE svg PUBLIC "-//W3C//DTD SVG 1.1//EN" "http://www.w3.org/Graphics/SVG/1.1/DTD/svg11.dtd">
<svg version="1.1" id="Layer_4" xmlns="http://www.w3.org/2000/svg" xmlns:xlink="http://www.w3.org/1999/xlink" x="0px" y="0px"
	 width="100px" height="100px" viewBox="0 0 100 100" enable-background="new 0 0 100 100" xml:space="preserve">
<g>
	<path d="M97.59,58.811c-0.33-0.701-1.035-1.148-1.81-1.148h-6.955V22.949c0-1.104-0.896-2-2-2H28.896
		c-0.776,0-1.482,0.449-1.812,1.152c-0.329,0.703-0.222,1.533,0.275,2.129l7.474,8.963c0.38,0.456,0.943,0.719,1.536,0.719h39.491
		v23.75h-6.955c-0.774,0-1.479,0.447-1.81,1.148c-0.33,0.701-0.226,1.529,0.268,2.126l13.437,16.25
		c0.38,0.459,0.945,0.726,1.542,0.726s1.162-0.266,1.542-0.726l13.437-16.25C97.816,60.339,97.92,59.511,97.59,58.811z"/>
	<path d="M65.165,66.807c-0.38-0.456-0.943-0.719-1.536-0.719h-39.49v-23.75h6.954c0.007,0,0.013,0,0.02,0c1.104,0,2-0.896,2-2
		c0-0.574-0.242-1.091-0.628-1.456l-13.286-16.07c-0.38-0.459-0.945-0.726-1.542-0.726s-1.162,0.266-1.542,0.726L2.678,39.064
		C2.184,39.661,2.08,40.489,2.41,41.19c0.33,0.701,1.035,1.148,1.81,1.148h6.956v34.713c0,1.104,0.896,2,2,2h57.928
		c0.776,0,1.482-0.449,1.812-1.152c0.329-0.703,0.222-1.533-0.275-2.129L65.165,66.807z"/>
</g>
</svg>
