<?xml version="1.0" encoding="utf-8"?>
<!-- Generator: Adobe Illustrator 16.0.0, SVG Export Plug-In . SVG Version: 6.00 Build 0)  -->
<!DOCTYPE svg PUBLIC "-//W3C//DTD SVG 1.1//EN" "http://www.w3.org/Graphics/SVG/1.1/DTD/svg11.dtd">
<svg version="1.1" id="Layer_1" xmlns="http://www.w3.org/2000/svg" xmlns:xlink="http://www.w3.org/1999/xlink" x="0px" y="0px"
	 width="100px" height="100px" viewBox="0 0 100 100" enable-background="new 0 0 100 100" xml:space="preserve">
<g>
	<path d="M66.477,19.59H30.314c-1.104,0-2-0.896-2-2V4.511c0-1.104,0.896-2,2-2h36.162c1.104,0,2,0.896,2,2V17.59
		C68.477,18.694,67.58,19.59,66.477,19.59z"/>
	<path d="M5.91,28.483h60.566c1.104,0,2,0.896,2,2v13.079c0,1.104-0.896,2-2,2H5.91c-1.105,0-2-0.896-2-2V30.483
		C3.91,29.379,4.805,28.483,5.91,28.483z"/>
	<path d="M66.477,71.538H30.314c-1.104,0-2-0.896-2-2V56.459c0-1.104,0.896-2,2-2h36.162c1.104,0,2,0.896,2,2v13.079
		C68.477,70.643,67.58,71.538,66.477,71.538z"/>
	<path d="M5.91,80.432h60.566c1.104,0,2,0.896,2,2v13.079c0,1.104-0.896,2-2,2H5.91c-1.105,0-2-0.896-2-2V82.432
		C3.91,81.327,4.805,80.432,5.91,80.432z"/>
	<path d="M73.955,31.523h11.156v-1.479c0-0.809,0.488-1.538,1.234-1.848c0.75-0.31,1.607-0.14,2.18,0.434l6.979,6.979
		c0.781,0.781,0.781,2.047,0,2.828l-6.979,6.979c-0.383,0.383-0.893,0.586-1.414,0.586c-0.258,0-0.518-0.05-0.766-0.152
		c-0.746-0.31-1.234-1.039-1.234-1.848v-1.479H73.955c-1.104,0-2-0.896-2-2v-6.998C71.955,32.419,72.852,31.523,73.955,31.523z"/>
	<path d="M93.949,9.489H75.066c-1.104,0-2-0.896-2-2v-3c0-1.104,0.896-2,2-2h18.883c1.105,0,2,0.896,2,2v3
		C95.949,8.594,95.055,9.489,93.949,9.489z"/>
	<path d="M75.066,64.538h18.883c1.105,0,2,0.896,2,2v3c0,1.104-0.895,2-2,2H75.066c-1.104,0-2-0.896-2-2v-3
		C73.066,65.434,73.963,64.538,75.066,64.538z"/>
</g>
</svg>
