<?xml version="1.0" encoding="utf-8"?>
<!-- Generator: Adobe Illustrator 16.0.0, SVG Export Plug-In . SVG Version: 6.00 Build 0)  -->
<!DOCTYPE svg PUBLIC "-//W3C//DTD SVG 1.1//EN" "http://www.w3.org/Graphics/SVG/1.1/DTD/svg11.dtd">
<svg version="1.1" id="Layer_3" xmlns="http://www.w3.org/2000/svg" xmlns:xlink="http://www.w3.org/1999/xlink" x="0px" y="0px"
	 width="100px" height="100px" viewBox="0 0 100 100" enable-background="new 0 0 100 100" xml:space="preserve">
<path d="M60.101,2.007c-0.59-0.127-1.205,0.023-1.673,0.403c-0.468,0.38-0.74,0.951-0.74,1.554v8.225
	c0,0.911,0.616,1.708,1.498,1.936C75.297,18.3,86.549,32.842,86.549,49.488c0,20.153-16.396,36.549-36.549,36.549
	S13.451,69.642,13.451,49.488c0-16.646,11.252-31.188,27.363-35.363c0.882-0.229,1.498-1.025,1.498-1.936V3.964
	c0-0.603-0.272-1.174-0.74-1.554s-1.082-0.528-1.673-0.403C17.621,6.716,1.451,26.685,1.451,49.488
	c0,26.77,21.779,48.549,48.549,48.549s48.549-21.779,48.549-48.549C98.549,26.685,82.379,6.716,60.101,2.007z"/>
</svg>
