<?xml version="1.0" encoding="utf-8"?>
<!-- Generator: Adobe Illustrator 16.0.0, SVG Export Plug-In . SVG Version: 6.00 Build 0)  -->
<!DOCTYPE svg PUBLIC "-//W3C//DTD SVG 1.1//EN" "http://www.w3.org/Graphics/SVG/1.1/DTD/svg11.dtd">
<svg version="1.1" id="Layer_2" xmlns="http://www.w3.org/2000/svg" xmlns:xlink="http://www.w3.org/1999/xlink" x="0px" y="0px"
	 width="100px" height="100px" viewBox="0 0 100 100" enable-background="new 0 0 100 100" xml:space="preserve">
<g>
	<path d="M93.107,4.893H6.893c-1.104,0-2,0.896-2,2v86.215c0,1.104,0.896,2,2,2h86.215c1.104,0,2-0.896,2-2V6.893
		C95.107,5.788,94.212,4.893,93.107,4.893z M83.5,81.5c0,1.104-0.896,2-2,2h-63c-1.104,0-2-0.896-2-2v-6.589
		c0-1.074,0.85-1.944,1.913-1.991h4.862c1.104,0,2-0.896,2-2V58.581c0-1.104-0.896-2-2-2H18.5v-0.012c-1.104,0-2-0.896-2-2v-9.139
		c0-1.085,0.865-1.963,1.941-1.994h4.834c1.104,0,2-0.896,2-2V29.098c0-1.104-0.896-2-2-2H18.5v-0.009c-1.104,0-2-0.896-2-2V18.5
		c0-1.104,0.896-2,2-2h63c1.104,0,2,0.896,2,2V81.5z"/>
	<path d="M59.5,29.584c-11.119,0-20.166,9.047-20.166,20.166S48.381,69.916,59.5,69.916s20.166-9.047,20.166-20.166
		S70.619,29.584,59.5,29.584z M59.5,63.805c-7.75,0-14.055-6.305-14.055-14.055S51.75,35.695,59.5,35.695S73.555,42,73.555,49.75
		S67.25,63.805,59.5,63.805z"/>
	<path d="M63.171,50.567c-0.104,0.3-0.354,0.527-0.662,0.602c-0.31,0.075-0.636-0.012-0.866-0.23l-3.439-3.269
		c-0.23-0.22-0.333-0.54-0.274-0.854c0.06-0.312,0.273-0.573,0.567-0.692l5.307-2.148c-2.883-2.153-6.982-1.862-9.523,0.811
		c-2.741,2.885-2.625,7.443,0.259,10.184c2.884,2.741,7.442,2.625,10.184-0.259c2.541-2.674,2.623-6.783,0.325-9.553L63.171,50.567z
		"/>
</g>
</svg>
