<?xml version="1.0" encoding="utf-8"?>
<!-- Generator: Adobe Illustrator 16.0.0, SVG Export Plug-In . SVG Version: 6.00 Build 0)  -->
<!DOCTYPE svg PUBLIC "-//W3C//DTD SVG 1.1//EN" "http://www.w3.org/Graphics/SVG/1.1/DTD/svg11.dtd">
<svg version="1.1" id="Layer_2" xmlns="http://www.w3.org/2000/svg" xmlns:xlink="http://www.w3.org/1999/xlink" x="0px" y="0px"
	 width="100px" height="100px" viewBox="0 0 100 100" enable-background="new 0 0 100 100" xml:space="preserve">
<path d="M96.766,85.37L64.284,52.889c-1.929-1.929-4.59-2.671-7.087-2.235c9.043-12.216,8.036-29.584-3.028-40.647
	c-12.176-12.176-31.988-12.176-44.164,0c-12.176,12.175-12.176,31.987,0,44.162c11.064,11.064,28.432,12.072,40.647,3.03
	c-0.435,2.497,0.307,5.157,2.235,7.086L85.37,96.766c3.147,3.147,8.25,3.148,11.396,0.001C99.914,93.619,99.913,88.517,96.766,85.37
	z M46.476,46.477c-7.934,7.935-20.843,7.934-28.777,0c-7.935-7.934-7.935-20.844,0-28.777c7.934-7.935,20.843-7.935,28.777,0
	C54.411,25.632,54.411,38.543,46.476,46.477z"/>
</svg>
