<?xml version="1.0" encoding="utf-8"?>
<!-- Generator: Adobe Illustrator 16.0.0, SVG Export Plug-In . SVG Version: 6.00 Build 0)  -->
<!DOCTYPE svg PUBLIC "-//W3C//DTD SVG 1.1//EN" "http://www.w3.org/Graphics/SVG/1.1/DTD/svg11.dtd">
<svg version="1.1" id="Layer_2" xmlns="http://www.w3.org/2000/svg" xmlns:xlink="http://www.w3.org/1999/xlink" x="0px" y="0px"
	 width="100px" height="100px" viewBox="0 0 100 100" enable-background="new 0 0 100 100" xml:space="preserve">
<path d="M94.552,28.922c-0.118-1.174-1.107-2.068-2.288-2.068c-15.959,0-40.379-24.66-40.624-24.908
	c-0.432-0.441-1.035-0.66-1.639-0.66c-0.604,0-1.208,0.221-1.641,0.66C48.115,2.193,23.71,26.854,7.736,26.854
	c-1.181,0-2.17,0.895-2.288,2.068C4.071,42.625,20.098,72.604,34.285,88.287C40.543,95.207,45.831,98.715,50,98.715
	s9.457-3.508,15.715-10.428C79.902,72.604,95.929,42.625,94.552,28.922z M50,88.433c0,0.546-0.297,1.049-0.774,1.313
	C49,89.87,48.75,89.933,48.5,89.933c-0.277,0-0.554-0.077-0.797-0.229c-1.467-0.92-3.956-2.836-7.485-6.739
	c-7.044-7.787-14.547-19.296-20.068-30.784c-0.224-0.464-0.192-1.012,0.082-1.448s0.754-0.701,1.27-0.701H48.5
	c0.828,0,1.5,0.672,1.5,1.5V88.433z M86.041,35.61c-0.813,3.702-2.467,8.383-4.779,13.534c-0.241,0.539-0.777,0.886-1.368,0.886
	H51.5c-0.828,0-1.5-0.672-1.5-1.5V14.895c0-0.591,0.347-1.126,0.885-1.368c0.537-0.242,1.167-0.146,1.61,0.246
	c8.35,7.403,20.762,16.895,32.474,20.067C85.741,34.05,86.213,34.828,86.041,35.61z"/>
</svg>
