<?xml version="1.0" encoding="utf-8"?>
<!-- Generator: Adobe Illustrator 16.0.0, SVG Export Plug-In . SVG Version: 6.00 Build 0)  -->
<!DOCTYPE svg PUBLIC "-//W3C//DTD SVG 1.1//EN" "http://www.w3.org/Graphics/SVG/1.1/DTD/svg11.dtd">
<svg version="1.1" id="Layer_4" xmlns="http://www.w3.org/2000/svg" xmlns:xlink="http://www.w3.org/1999/xlink" x="0px" y="0px"
	 width="100px" height="100px" viewBox="0 0 100 100" enable-background="new 0 0 100 100" xml:space="preserve">
<path d="M84.75,3.199h-69.5c-1.104,0-2,0.896-2,2V43.58c0,20.506,9.461,33.743,17.399,41.236c8.556,8.08,17.159,11.336,17.52,11.47
	l1.043,0.389c0.225,0.084,0.462,0.126,0.698,0.126c0.235,0,0.469-0.041,0.693-0.124l1.049-0.387
	c0.365-0.136,9.033-3.415,17.602-11.464C77.236,77.33,86.75,64.089,86.75,43.58V5.199C86.75,4.095,85.854,3.199,84.75,3.199z
	 M49.934,86.543C43.777,83.586,23.25,71.646,23.25,43.971V13.59H50L49.934,86.543z"/>
</svg>
