<?xml version="1.0" encoding="utf-8"?>
<!-- Generator: Adobe Illustrator 16.0.0, SVG Export Plug-In . SVG Version: 6.00 Build 0)  -->
<!DOCTYPE svg PUBLIC "-//W3C//DTD SVG 1.1//EN" "http://www.w3.org/Graphics/SVG/1.1/DTD/svg11.dtd">
<svg version="1.1" id="Layer_2" xmlns="http://www.w3.org/2000/svg" xmlns:xlink="http://www.w3.org/1999/xlink" x="0px" y="0px"
	 width="100px" height="100px" viewBox="0 0 100 100" enable-background="new 0 0 100 100" xml:space="preserve">
<path d="M82.76,28.097h-6.858v-8.246C75.901,9.622,67.579,1.3,57.35,1.3c-3.144,0-6.269,0.821-9.037,2.374
	C45.521,2.099,42.471,1.3,39.25,1.3C29.021,1.3,20.7,9.622,20.7,19.851v8.246H17.24c-1.104,0-2,0.896-2,2V96.7c0,1.104,0.896,2,2,2
	h10.018c1.104,0,2-0.896,2-2V30.097c0-0.681-0.34-1.282-0.859-1.643v-8.604c0-5.983,4.868-10.852,10.851-10.852
	c0.961,0,1.912,0.124,2.826,0.37c-2.143,3.104-3.276,6.729-3.276,10.481v8.246h-5.407c-1.104,0-2,0.896-2,2V96.7
	c0,1.104,0.896,2,2,2H82.76c1.104,0,2-0.896,2-2V30.097C84.76,28.992,83.864,28.097,82.76,28.097z M68.202,28.097H46.5v-8.246
	c0-5.983,4.868-10.852,10.851-10.852c5.984,0,10.852,4.868,10.852,10.852V28.097z"/>
</svg>
