<?xml version="1.0" encoding="utf-8"?>
<!-- Generator: Adobe Illustrator 16.0.0, SVG Export Plug-In . SVG Version: 6.00 Build 0)  -->
<!DOCTYPE svg PUBLIC "-//W3C//DTD SVG 1.1//EN" "http://www.w3.org/Graphics/SVG/1.1/DTD/svg11.dtd">
<svg version="1.1" id="Layer_2" xmlns="http://www.w3.org/2000/svg" xmlns:xlink="http://www.w3.org/1999/xlink" x="0px" y="0px"
	 width="100px" height="100px" viewBox="0 0 100 100" enable-background="new 0 0 100 100" xml:space="preserve">
<g>
	<path d="M98.768,14.235c-0.373-0.542-0.989-0.866-1.647-0.866H24.086L22.673,8c-0.197-0.923-1.012-1.583-1.956-1.583H2.879
		c-1.104,0-2,0.896-2,2v3.492c0,1.104,0.896,2,2,2H13.79L27.86,76.491c0.205,0.913,1.016,1.561,1.951,1.561h47.61
		c2.41,0,4.371-1.96,4.371-4.371s-1.961-4.371-4.371-4.371H36.363l-1.171-7.11h44.827c0.83,0,1.573-0.512,1.869-1.287L98.99,16.083
		C99.224,15.468,99.142,14.777,98.768,14.235z"/>
	<path d="M39.778,80.455c-3.963,0-7.188,3.225-7.188,7.189s3.225,7.188,7.188,7.188c3.964,0,7.189-3.225,7.189-7.188
		S43.742,80.455,39.778,80.455z"/>
	<path d="M73.571,80.455c-3.964,0-7.188,3.225-7.188,7.189s3.225,7.188,7.188,7.188s7.188-3.225,7.188-7.188
		S77.535,80.455,73.571,80.455z"/>
</g>
</svg>
