<?xml version="1.0" encoding="utf-8"?>
<!-- Generator: Adobe Illustrator 16.0.0, SVG Export Plug-In . SVG Version: 6.00 Build 0)  -->
<!DOCTYPE svg PUBLIC "-//W3C//DTD SVG 1.1//EN" "http://www.w3.org/Graphics/SVG/1.1/DTD/svg11.dtd">
<svg version="1.1" id="Layer_4" xmlns="http://www.w3.org/2000/svg" xmlns:xlink="http://www.w3.org/1999/xlink" x="0px" y="0px"
	 width="100px" height="100px" viewBox="0 0 100 100" enable-background="new 0 0 100 100" xml:space="preserve">
<g>
	<path d="M71.146,38.719l6.636,0.004l-0.007,3.512c-0.001,0.686,0.364,1.321,0.958,1.666c0.593,0.343,1.326,0.344,1.921,0.003
		l16.145-9.284c0.595-0.342,0.962-0.976,0.963-1.662c0.001-0.686-0.364-1.32-0.957-1.665L80.693,21.95
		c-0.595-0.345-1.326-0.346-1.921-0.004c-0.595,0.342-0.962,0.976-0.964,1.662l-0.006,3.497l-6.656-0.004
		c-10.232,0-17.68,9.469-24.883,18.627c-6.009,7.643-12.224,15.545-18.084,15.545H4.159c-1.061,0-1.921,0.86-1.921,1.921v7.776
		c0,1.061,0.86,1.921,1.921,1.921h24.019c11.5,0,19.848-10.611,27.213-19.976C60.88,45.936,66.556,38.719,71.146,38.719z"/>
	<path d="M96.799,65.38l-16.145-9.284c-0.595-0.342-1.328-0.342-1.921,0.003c-0.594,0.344-0.959,0.979-0.958,1.666l0.007,3.512
		l-6.634,0.004c-3.481,0-7.718-4.472-10.603-7.834l-7.832,8.701c4.442,5.005,10.553,10.752,18.436,10.752l6.654-0.004l0.006,3.496
		c0.001,0.687,0.369,1.32,0.964,1.662c0.296,0.17,0.626,0.255,0.957,0.255c0.333,0,0.666-0.086,0.964-0.259l16.111-9.343
		c0.594-0.344,0.958-0.979,0.957-1.665C97.761,66.356,97.394,65.723,96.799,65.38z"/>
	<path d="M28.178,27.11H4.159c-1.061,0-1.921,0.86-1.921,1.92v7.776c0,1.061,0.86,1.921,1.921,1.921h24.019
		c4.341,0,8.833,4.511,11.835,7.904l7.739-8.743C43.482,33.262,36.807,27.11,28.178,27.11z"/>
</g>
</svg>
