<?xml version="1.0" encoding="utf-8"?>
<!-- Generator: Adobe Illustrator 16.0.0, SVG Export Plug-In . SVG Version: 6.00 Build 0)  -->
<!DOCTYPE svg PUBLIC "-//W3C//DTD SVG 1.1//EN" "http://www.w3.org/Graphics/SVG/1.1/DTD/svg11.dtd">
<svg version="1.1" id="Layer_2" xmlns="http://www.w3.org/2000/svg" xmlns:xlink="http://www.w3.org/1999/xlink" x="0px" y="0px"
	 width="100px" height="100px" viewBox="0 0 100 100" enable-background="new 0 0 100 100" xml:space="preserve">
<g>
	<path d="M75.498,38.759v6.316c0,0.756,0.426,1.446,1.1,1.786c0.675,0.34,1.483,0.271,2.09-0.179l18.311-13.565
		c0.509-0.377,0.81-0.974,0.81-1.607s-0.3-1.229-0.81-1.606L78.688,16.338c-0.607-0.451-1.416-0.52-2.09-0.18s-1.1,1.031-1.1,1.786
		v6.316H48.725c-0.718,0-1.38,0.385-1.736,1.008L26.436,61.233H4.192c-1.104,0-2,0.896-2,2v10.498c0,1.104,0.896,2,2,2h29.497
		c0.718,0,1.38-0.385,1.736-1.008l20.552-35.965H75.498z"/>
	<path d="M96.999,66.883L78.688,53.317c-0.607-0.449-1.416-0.519-2.09-0.179c-0.674,0.34-1.1,1.03-1.1,1.786v6.316H55.977
		l-4.696-8.218l-8.349,14.61l4.056,7.098c0.356,0.623,1.019,1.008,1.736,1.008h26.773v6.316c0,0.755,0.426,1.446,1.1,1.786
		s1.483,0.271,2.09-0.18l18.311-13.565c0.509-0.377,0.81-0.973,0.81-1.606S97.508,67.26,96.999,66.883z"/>
	<path d="M4.192,38.767h22.244l4.692,8.21l8.349-14.61l-4.052-7.09c-0.356-0.623-1.019-1.008-1.736-1.008H4.192
		c-1.104,0-2,0.896-2,2v10.498C2.192,37.871,3.087,38.767,4.192,38.767z"/>
</g>
</svg>
