<?xml version="1.0" encoding="utf-8"?>
<!-- Generator: Adobe Illustrator 16.0.0, SVG Export Plug-In . SVG Version: 6.00 Build 0)  -->
<!DOCTYPE svg PUBLIC "-//W3C//DTD SVG 1.1//EN" "http://www.w3.org/Graphics/SVG/1.1/DTD/svg11.dtd">
<svg version="1.1" id="Layer_4" xmlns="http://www.w3.org/2000/svg" xmlns:xlink="http://www.w3.org/1999/xlink" x="0px" y="0px"
	 width="100px" height="100px" viewBox="0 0 100 100" enable-background="new 0 0 100 100" xml:space="preserve">
<g>
	<path d="M43.88,66.715h-8.011V3.119c0-1.105-0.896-2-2-2h-16.13c-1.104,0-2,0.895-2,2v63.596H7.728
		c-0.77,0-1.472,0.443-1.804,1.137c-0.333,0.695-0.237,1.518,0.246,2.117l18.076,26.955c0.38,0.473,0.953,0.746,1.558,0.746
		s1.178-0.273,1.558-0.746l18.076-26.955c0.482-0.6,0.578-1.422,0.246-2.117C45.352,67.158,44.65,66.715,43.88,66.715z"/>
	<path d="M94.158,96.217L80.829,58.443c-0.282-0.799-1.038-1.334-1.886-1.334h-3.861c-0.107,0-0.213,0.008-0.318,0.025
		c-0.104-0.018-0.21-0.025-0.318-0.025h-3.76c-0.849,0-1.605,0.535-1.887,1.336L55.522,96.219c-0.215,0.611-0.12,1.289,0.255,1.818
		s0.983,0.844,1.632,0.844h5.774c0.88,0,1.657-0.574,1.913-1.416l2.536-8.324h14.419l2.536,8.324
		c0.256,0.842,1.033,1.416,1.913,1.416h5.771c0.649,0,1.258-0.314,1.633-0.844C94.279,97.506,94.374,96.828,94.158,96.217z
		 M70.024,81.186c2.398-7.77,4.02-13.166,4.82-16.041l4.928,16.041H70.024z"/>
	<path d="M88.416,35.172H70.598L89.526,7.967c0.233-0.336,0.358-0.734,0.358-1.143V3.408c0-1.104-0.896-2-2-2H61.813
		c-1.104,0-2,0.896-2,2v3.844c0,1.105,0.896,2,2,2h16.782L59.641,36.428c-0.234,0.336-0.359,0.734-0.359,1.145v3.441
		c0,1.105,0.896,2,2,2h27.135c1.104,0,2-0.895,2-2v-3.842C90.416,36.066,89.521,35.172,88.416,35.172z"/>
</g>
</svg>
