<?xml version="1.0" encoding="utf-8"?>
<!-- Generator: Adobe Illustrator 16.0.0, SVG Export Plug-In . SVG Version: 6.00 Build 0)  -->
<!DOCTYPE svg PUBLIC "-//W3C//DTD SVG 1.1//EN" "http://www.w3.org/Graphics/SVG/1.1/DTD/svg11.dtd">
<svg version="1.1" id="Layer_4" xmlns="http://www.w3.org/2000/svg" xmlns:xlink="http://www.w3.org/1999/xlink" x="0px" y="0px"
	 width="100px" height="100px" viewBox="0 0 100 100" enable-background="new 0 0 100 100" xml:space="preserve">
<g>
	<path d="M48.865,41.899h26.761c0.654,0,1.183-0.527,1.183-1.18V26.653c0-0.652-0.528-1.18-1.183-1.18H48.865
		c-0.652,0-1.182,0.527-1.182,1.18V40.72C47.684,41.372,48.213,41.899,48.865,41.899z"/>
	<path d="M48.865,18.274h15.122c0.652,0,1.182-0.529,1.182-1.182V3.028c0-0.654-0.529-1.182-1.182-1.182H48.865
		c-0.652,0-1.182,0.527-1.182,1.182v14.064C47.684,17.745,48.213,18.274,48.865,18.274z"/>
	<path d="M48.865,70.024h36.98c0.652,0,1.181-0.527,1.181-1.18V54.78c0-0.652-0.528-1.182-1.181-1.182h-36.98
		c-0.652,0-1.182,0.529-1.182,1.182v14.064C47.684,69.497,48.213,70.024,48.865,70.024z"/>
	<path d="M96.063,81.728H48.865c-0.652,0-1.182,0.527-1.182,1.182v14.063c0,0.652,0.529,1.182,1.182,1.182h47.198
		c0.653,0,1.181-0.529,1.181-1.182V82.909C97.244,82.255,96.717,81.728,96.063,81.728z"/>
	<path d="M40.907,67.32h-8.011V3.725c0-1.105-0.896-2-2-2h-16.13c-1.104,0-2,0.895-2,2V67.32H4.756
		c-0.771,0-1.472,0.443-1.804,1.137c-0.333,0.695-0.237,1.518,0.245,2.117l18.076,26.955c0.38,0.473,0.953,0.746,1.559,0.746
		s1.178-0.273,1.558-0.746l18.076-26.955c0.482-0.6,0.578-1.422,0.245-2.117C42.379,67.764,41.678,67.32,40.907,67.32z"/>
</g>
</svg>
