<?xml version="1.0" encoding="utf-8"?>
<!-- Generator: Adobe Illustrator 16.0.0, SVG Export Plug-In . SVG Version: 6.00 Build 0)  -->
<!DOCTYPE svg PUBLIC "-//W3C//DTD SVG 1.1//EN" "http://www.w3.org/Graphics/SVG/1.1/DTD/svg11.dtd">
<svg version="1.1" id="Layer_4" xmlns="http://www.w3.org/2000/svg" xmlns:xlink="http://www.w3.org/1999/xlink" x="0px" y="0px"
	 width="100px" height="100px" viewBox="0 0 100 100" enable-background="new 0 0 100 100" xml:space="preserve">
<path d="M50.027,79.003c0,1.638-0.947,3.128-2.429,3.823c-0.573,0.27-1.187,0.402-1.797,0.402c-0.966,0-1.923-0.332-2.696-0.972
	l-23.098-19.14H7.705c-2.333,0-4.225-1.893-4.225-4.226V42.057c0-2.334,1.892-4.226,4.225-4.226h12.303l23.098-19.14
	c1.262-1.046,3.012-1.269,4.493-0.569c1.481,0.695,2.429,2.185,2.429,3.823V79.003z M66.264,72.4
	c-0.102,0.007-0.202,0.011-0.303,0.011c-1.117,0-2.193-0.441-2.988-1.237l-0.566-0.568c-1.482-1.479-1.655-3.822-0.407-5.504
	c3.163-4.265,4.834-9.323,4.834-14.628c0-5.706-1.897-11.058-5.485-15.478c-1.366-1.68-1.24-4.12,0.291-5.65l0.564-0.565
	c0.844-0.844,1.975-1.304,3.2-1.231c1.192,0.06,2.305,0.621,3.06,1.545c4.977,6.09,7.607,13.484,7.607,21.38
	c0,7.354-2.326,14.354-6.725,20.241C68.611,71.697,67.487,72.313,66.264,72.4z M83.732,85.457c-0.764,0.903-1.869,1.445-3.052,1.495
	c-0.058,0.002-0.117,0.004-0.177,0.004c-1.119,0-2.193-0.443-2.988-1.237l-0.555-0.555c-1.551-1.55-1.656-4.029-0.246-5.707
	c6.815-8.104,10.568-18.397,10.568-28.983c0-11.011-4.018-21.611-11.313-29.847c-1.479-1.672-1.405-4.203,0.169-5.783l0.554-0.555
	c0.822-0.826,1.889-1.281,3.115-1.242c1.163,0.033,2.263,0.547,3.037,1.417c8.817,9.928,13.674,22.718,13.674,36.01
	C96.52,63.264,91.979,75.688,83.732,85.457z"/>
</svg>
