<?xml version="1.0" encoding="utf-8"?>
<!-- Generator: Adobe Illustrator 16.0.0, SVG Export Plug-In . SVG Version: 6.00 Build 0)  -->
<!DOCTYPE svg PUBLIC "-//W3C//DTD SVG 1.1//EN" "http://www.w3.org/Graphics/SVG/1.1/DTD/svg11.dtd">
<svg version="1.1" id="Layer_1" xmlns="http://www.w3.org/2000/svg" xmlns:xlink="http://www.w3.org/1999/xlink" x="0px" y="0px"
	 width="100px" height="100px" viewBox="0 0 100 100" enable-background="new 0 0 100 100" xml:space="preserve">
<g>
	<path d="M50,18.332c-26.957,0-48.889,21.931-48.889,48.889c0,3.652,0.418,7.333,1.244,10.94c0.47,2.052,2.296,3.508,4.401,3.508
		h86.487c2.105,0,3.932-1.456,4.402-3.508c0.825-3.607,1.244-7.288,1.244-10.94C98.889,40.263,76.957,18.332,50,18.332z M50,25.637
		c2.831,0,5.134,2.303,5.134,5.133c0,1.371-0.534,2.66-1.503,3.63c-0.969,0.969-2.258,1.503-3.629,1.503
		c-2.83,0-5.134-2.303-5.135-5.133C44.866,27.939,47.169,25.637,50,25.637z M11.7,74.203c-2.83,0-5.133-2.303-5.133-5.133
		s2.303-5.133,5.133-5.133c2.831,0,5.134,2.303,5.134,5.133S14.531,74.203,11.7,74.203z M26.548,45.617
		c-0.969,0.97-2.258,1.504-3.629,1.504s-2.661-0.534-3.63-1.504c-0.969-0.969-1.503-2.258-1.503-3.629
		c0-1.371,0.534-2.66,1.504-3.63s2.259-1.504,3.63-1.504s2.66,0.534,3.629,1.503c0.97,0.97,1.504,2.259,1.504,3.63
		S27.518,44.648,26.548,45.617z M55.172,75.413c-5.847,2.799-12.882,0.318-15.681-5.53c-2.798-5.848-4.25-36.12-4.25-36.12
		s22.664,20.121,25.462,25.968C63.501,65.581,61.02,72.615,55.172,75.413z M80.712,45.617c-0.97,0.97-2.259,1.504-3.63,1.504
		s-2.66-0.534-3.629-1.504c-0.97-0.969-1.503-2.258-1.503-3.629s0.534-2.661,1.503-3.63c0.969-0.969,2.258-1.503,3.629-1.503
		s2.66,0.534,3.63,1.504s1.503,2.259,1.504,3.63C82.215,43.359,81.681,44.648,80.712,45.617z M88.3,74.203
		c-2.831,0-5.134-2.303-5.134-5.133s2.303-5.133,5.134-5.133c2.83,0,5.133,2.303,5.133,5.133S91.13,74.203,88.3,74.203z"/>
	<path d="M48.194,60.831c-2.193,1.05-3.124,3.688-2.074,5.88c1.049,2.194,3.687,3.124,5.88,2.074
		c2.193-1.049,3.123-3.687,2.074-5.88C53.024,60.712,50.387,59.781,48.194,60.831z"/>
</g>
</svg>
