<?xml version="1.0" encoding="utf-8"?>
<!-- Generator: Adobe Illustrator 16.0.0, SVG Export Plug-In . SVG Version: 6.00 Build 0)  -->
<!DOCTYPE svg PUBLIC "-//W3C//DTD SVG 1.1//EN" "http://www.w3.org/Graphics/SVG/1.1/DTD/svg11.dtd">
<svg version="1.1" id="Layer_2" xmlns="http://www.w3.org/2000/svg" xmlns:xlink="http://www.w3.org/1999/xlink" x="0px" y="0px"
	 width="100px" height="100px" viewBox="0 0 100 100" enable-background="new 0 0 100 100" xml:space="preserve">
<g>
	<circle cx="50" cy="35.391" r="17.934"/>
	<path d="M87.954,88.375L72.438,56.936l9.552-5.066c1.983-1.052,2.939-3.363,2.281-5.51l-3.365-10.969l3.365-10.968
		c0.658-2.146-0.298-4.459-2.281-5.511l-10.135-5.375L66.477,3.4c-1.052-1.982-3.364-2.941-5.509-2.28L50,4.486L39.031,1.12
		c-2.147-0.663-4.457,0.298-5.509,2.28l-5.375,10.137l-10.135,5.375c-1.984,1.052-2.941,3.364-2.283,5.511l3.366,10.968
		l-3.366,10.969c-0.658,2.146,0.299,4.458,2.283,5.51l9.552,5.066L12.046,88.375c-0.199,0.402-0.136,0.884,0.159,1.222
		c0.296,0.338,0.765,0.466,1.191,0.325l12.697-4.242l4.355,12.658c0.098,0.282,0.302,0.509,0.561,0.635
		c0.13,0.065,0.271,0.103,0.42,0.113c0.45,0.029,0.87-0.215,1.07-0.618l15.588-31.585c0,0,0.226-0.586,1.914-0.586
		s1.915,0.587,1.915,0.587l15.586,31.584c0.2,0.403,0.621,0.647,1.069,0.618c0.15-0.011,0.293-0.048,0.421-0.113
		c0.258-0.126,0.462-0.353,0.561-0.635l4.355-12.658l12.697,4.242c0.426,0.141,0.895,0.013,1.191-0.325
		C88.09,89.259,88.153,88.777,87.954,88.375z M24.004,35.391C24.004,21.033,35.642,9.396,50,9.396
		c14.356,0,25.996,11.638,25.996,25.995S64.356,61.386,50,61.386C35.642,61.386,24.004,49.748,24.004,35.391z"/>
</g>
</svg>
