<?xml version="1.0" encoding="utf-8"?>
<!-- Generator: Adobe Illustrator 16.0.0, SVG Export Plug-In . SVG Version: 6.00 Build 0)  -->
<!DOCTYPE svg PUBLIC "-//W3C//DTD SVG 1.1//EN" "http://www.w3.org/Graphics/SVG/1.1/DTD/svg11.dtd">
<svg version="1.1" id="Layer_1" xmlns="http://www.w3.org/2000/svg" xmlns:xlink="http://www.w3.org/1999/xlink" x="0px" y="0px"
	 width="100px" height="100px" viewBox="0 0 100 100" enable-background="new 0 0 100 100" xml:space="preserve">
<g>
	<path d="M96.248,3H3.752c-1.104,0-2,0.896-2,2v26.305h96.496V5C98.248,3.896,97.353,3,96.248,3z"/>
	<path d="M1.752,68.695V95c0,1.104,0.896,2,2,2h92.496c1.104,0,2-0.896,2-2V68.695H1.752z"/>
	<path d="M3.752,54.742H21.87c1.104,0,2-0.896,2-2V46.21c0-1.104-0.896-2-2-2H3.752c-1.104,0-2,0.896-2,2v6.532
		C1.752,53.847,2.647,54.742,3.752,54.742z"/>
	<path d="M96.248,44.21H80.141c-1.104,0-2,0.896-2,2v6.532c0,1.104,0.896,2,2,2h16.107c1.104,0,2-0.896,2-2V46.21
		C98.248,45.105,97.353,44.21,96.248,44.21z"/>
	<path d="M60.063,54.742c1.104,0,2-0.896,2-2V46.21c0-1.104-0.896-2-2-2H41.946c-1.104,0-2,0.896-2,2v6.532c0,1.104,0.896,2,2,2
		H60.063z"/>
</g>
</svg>
