<?xml version="1.0" encoding="utf-8"?>
<!-- Generator: Adobe Illustrator 16.0.0, SVG Export Plug-In . SVG Version: 6.00 Build 0)  -->
<!DOCTYPE svg PUBLIC "-//W3C//DTD SVG 1.1//EN" "http://www.w3.org/Graphics/SVG/1.1/DTD/svg11.dtd">
<svg version="1.1" id="Layer_2" xmlns="http://www.w3.org/2000/svg" xmlns:xlink="http://www.w3.org/1999/xlink" x="0px" y="0px"
	 width="100px" height="100px" viewBox="0 0 100 100" enable-background="new 0 0 100 100" xml:space="preserve">
<g>
	<path d="M13.805,73.555c-6.969,0-12.639,5.67-12.639,12.639s5.67,12.638,12.639,12.638s12.639-5.669,12.639-12.638
		S20.773,73.555,13.805,73.555z"/>
	<path d="M3.268,37.551c-0.545-0.013-1.066,0.184-1.457,0.562c-0.39,0.377-0.609,0.896-0.609,1.438v16.216
		c0,1.069,0.841,1.949,1.909,1.998c21.334,0.973,38.156,17.795,39.129,39.129c0.049,1.068,0.929,1.909,1.998,1.909h16.218
		c0.542,0,1.061-0.22,1.438-0.609s0.579-0.916,0.562-1.457c-0.517-15.548-6.888-30.197-17.938-41.248
		C33.466,44.439,18.817,38.069,3.268,37.551z"/>
	<path d="M70.219,29.786C52.285,11.854,28.5,1.691,3.242,1.171c-0.54-0.026-1.058,0.194-1.44,0.571
		C1.418,2.118,1.201,2.633,1.201,3.17v16.208c0,1.085,0.865,1.972,1.95,2c40.601,1.02,74.459,34.878,75.476,75.474
		c0.026,1.085,0.914,1.95,1.999,1.95h16.208c0.537,0,1.053-0.216,1.429-0.601c0.376-0.384,0.582-0.903,0.571-1.441
		C98.312,71.501,88.149,47.715,70.219,29.786z"/>
</g>
</svg>
