<?xml version="1.0" encoding="utf-8"?>
<!-- Generator: Adobe Illustrator 16.0.0, SVG Export Plug-In . SVG Version: 6.00 Build 0)  -->
<!DOCTYPE svg PUBLIC "-//W3C//DTD SVG 1.1//EN" "http://www.w3.org/Graphics/SVG/1.1/DTD/svg11.dtd">
<svg version="1.1" id="Layer_4" xmlns="http://www.w3.org/2000/svg" xmlns:xlink="http://www.w3.org/1999/xlink" x="0px" y="0px"
	 width="100px" height="100px" viewBox="0 0 100 100" enable-background="new 0 0 100 100" xml:space="preserve">
<path d="M98.911,42.794c-0.104-0.585-0.462-1.095-0.978-1.39l-15.381-8.779l0.087-17.711c0.003-0.595-0.259-1.16-0.714-1.542
	c-0.456-0.382-1.056-0.542-1.643-0.436L62.855,16.1L51.539,2.475c-0.76-0.914-2.317-0.914-3.077,0L37.145,16.1l-17.426-3.163
	c-0.586-0.105-1.187,0.054-1.643,0.436c-0.456,0.383-0.717,0.947-0.714,1.542l0.089,17.711L2.068,41.404
	c-0.517,0.295-0.875,0.805-0.979,1.39c-0.103,0.586,0.06,1.187,0.444,1.641l11.45,13.513L6.845,74.559
	c-0.206,0.558-0.153,1.179,0.144,1.693s0.808,0.871,1.394,0.972l17.457,2.99l5.975,16.672c0.201,0.56,0.64,1.001,1.199,1.204
	c0.558,0.204,1.178,0.148,1.693-0.151L50,89.007l15.294,8.932c0.31,0.181,0.658,0.272,1.009,0.272c0.23,0,0.462-0.04,0.684-0.12
	c0.559-0.204,0.998-0.646,1.199-1.205l5.977-16.672l17.455-2.989c0.586-0.101,1.097-0.457,1.395-0.972s0.35-1.136,0.144-1.693
	l-6.139-16.612l11.45-13.513C98.851,43.98,99.014,43.38,98.911,42.794z M50,78.669c-14.996,0-27.195-12.2-27.195-27.196
	c0-14.995,12.2-27.195,27.195-27.195s27.195,12.2,27.195,27.195C77.195,66.469,64.996,78.669,50,78.669z"/>
</svg>
