<?xml version="1.0" encoding="utf-8"?>
<!-- Generator: Adobe Illustrator 16.0.0, SVG Export Plug-In . SVG Version: 6.00 Build 0)  -->
<!DOCTYPE svg PUBLIC "-//W3C//DTD SVG 1.1//EN" "http://www.w3.org/Graphics/SVG/1.1/DTD/svg11.dtd">
<svg version="1.1" id="Layer_1" xmlns="http://www.w3.org/2000/svg" xmlns:xlink="http://www.w3.org/1999/xlink" x="0px" y="0px"
	 width="100px" height="100px" viewBox="0 0 100 100" enable-background="new 0 0 100 100" xml:space="preserve">
<g>
	<path d="M95.329,2.125H4.671c-1.406,0-2.546,1.14-2.546,2.546v90.657c0,1.406,1.14,2.546,2.546,2.546h90.657
		c1.406,0,2.546-1.14,2.546-2.546V4.671C97.875,3.265,96.735,2.125,95.329,2.125z M40.408,38.826c0,1.125-0.912,2.037-2.037,2.037
		h-3.565v45.128c0,1.125-0.912,2.037-2.037,2.037H21.733c-1.125,0-2.037-0.912-2.037-2.037V40.863h-3.565
		c-1.125,0-2.037-0.912-2.037-2.037v-6.961c0-1.125,0.912-2.037,2.037-2.037h3.565V14.009c0-1.125,0.912-2.037,2.037-2.037h11.036
		c1.125,0,2.037,0.912,2.037,2.037v15.819h3.565c1.125,0,2.037,0.912,2.037,2.037V38.826z M85.906,52.717
		c0,1.125-0.912,2.037-2.037,2.037h-3.565v31.237c0,1.125-0.912,2.037-2.037,2.037H67.231c-1.125,0-2.037-0.912-2.037-2.037V54.754
		h-3.565c-1.125,0-2.037-0.912-2.037-2.037v-6.961c0-1.125,0.912-2.037,2.037-2.037h3.565v-29.71c0-1.125,0.912-2.037,2.037-2.037
		h11.036c1.125,0,2.037,0.912,2.037,2.037v29.71h3.565c1.125,0,2.037,0.912,2.037,2.037V52.717z"/>
</g>
</svg>
