<?xml version="1.0" encoding="utf-8"?>
<!-- Generator: Adobe Illustrator 16.0.0, SVG Export Plug-In . SVG Version: 6.00 Build 0)  -->
<!DOCTYPE svg PUBLIC "-//W3C//DTD SVG 1.1//EN" "http://www.w3.org/Graphics/SVG/1.1/DTD/svg11.dtd">
<svg version="1.1" id="Layer_2" xmlns="http://www.w3.org/2000/svg" xmlns:xlink="http://www.w3.org/1999/xlink" x="0px" y="0px"
	 width="100px" height="100px" viewBox="0 0 100 100" enable-background="new 0 0 100 100" xml:space="preserve">
<g>
	<path d="M84.629,1.233H15.371c-1.932,0-3.502,1.57-3.502,3.502v90.529c0,1.932,1.57,3.502,3.502,3.502h69.258
		c1.932,0,3.502-1.57,3.502-3.502V4.735C88.131,2.804,86.561,1.233,84.629,1.233z M50,96.141c-1.683,0-3.047-1.365-3.047-3.047
		c0-1.683,1.364-3.048,3.047-3.048s3.047,1.365,3.047,3.048C53.047,94.775,51.683,96.141,50,96.141z M81.127,87.97H18.873V8.237
		h62.254V87.97z"/>
	<path d="M28.204,14.606c-1.637,0-2.964,1.327-2.964,2.964v24.704l27.667-27.668H28.204z"/>
</g>
</svg>
