<?xml version="1.0" encoding="utf-8"?>
<!-- Generator: Adobe Illustrator 16.0.0, SVG Export Plug-In . SVG Version: 6.00 Build 0)  -->
<!DOCTYPE svg PUBLIC "-//W3C//DTD SVG 1.1//EN" "http://www.w3.org/Graphics/SVG/1.1/DTD/svg11.dtd">
<svg version="1.1" id="Layer_2" xmlns="http://www.w3.org/2000/svg" xmlns:xlink="http://www.w3.org/1999/xlink" x="0px" y="0px"
	 width="100px" height="100px" viewBox="0 0 100 100" enable-background="new 0 0 100 100" xml:space="preserve">
<path d="M98.223,1.777c-0.375-0.375-0.884-0.586-1.414-0.586h-0.002L63.699,1.217c-0.532,0-1.043,0.213-1.419,0.592L1.771,62.864
	c-0.774,0.782-0.771,2.044,0.007,2.822l32.536,32.536c0.391,0.391,0.902,0.586,1.414,0.586c0.509,0,1.018-0.193,1.408-0.58
	l61.056-60.51c0.378-0.375,0.592-0.886,0.592-1.419l0.025-33.106C98.809,2.662,98.599,2.153,98.223,1.777z M82.293,28.836
	c-3.068,3.066-8.061,3.066-11.127,0c-3.068-3.068-3.068-8.062,0-11.129c3.066-3.066,8.059-3.066,11.127,0
	C85.359,20.774,85.359,25.768,82.293,28.836z"/>
</svg>
