<?xml version="1.0" encoding="utf-8"?>
<!-- Generator: Adobe Illustrator 16.0.0, SVG Export Plug-In . SVG Version: 6.00 Build 0)  -->
<!DOCTYPE svg PUBLIC "-//W3C//DTD SVG 1.1//EN" "http://www.w3.org/Graphics/SVG/1.1/DTD/svg11.dtd">
<svg version="1.1" id="Layer_3" xmlns="http://www.w3.org/2000/svg" xmlns:xlink="http://www.w3.org/1999/xlink" x="0px" y="0px"
	 width="100px" height="100px" viewBox="0 0 100 100" enable-background="new 0 0 100 100" xml:space="preserve">
<g>
	<path d="M50,1.752C23.396,1.752,1.752,23.396,1.752,50S23.396,98.248,50,98.248S98.248,76.604,98.248,50S76.604,1.752,50,1.752z
		 M50,90.248C27.808,90.248,9.752,72.192,9.752,50S27.808,9.752,50,9.752S90.248,27.808,90.248,50S72.192,90.248,50,90.248z"/>
	<path d="M50,18.119c-17.579,0-31.881,14.302-31.881,31.881S32.421,81.881,50,81.881S81.881,67.579,81.881,50
		S67.579,18.119,50,18.119z M50,73.881c-13.168,0-23.881-10.713-23.881-23.881S36.832,26.119,50,26.119S73.881,36.832,73.881,50
		S63.168,73.881,50,73.881z"/>
	<circle cx="50" cy="50" r="14.881"/>
</g>
</svg>
