<?xml version="1.0" encoding="utf-8"?>
<!-- Generator: Adobe Illustrator 16.0.0, SVG Export Plug-In . SVG Version: 6.00 Build 0)  -->
<!DOCTYPE svg PUBLIC "-//W3C//DTD SVG 1.1//EN" "http://www.w3.org/Graphics/SVG/1.1/DTD/svg11.dtd">
<svg version="1.1" id="Layer_3" xmlns="http://www.w3.org/2000/svg" xmlns:xlink="http://www.w3.org/1999/xlink" x="0px" y="0px"
	 width="100px" height="100px" viewBox="0 0 100 100" enable-background="new 0 0 100 100" xml:space="preserve">
<g>
	<path d="M90.264,76.749H2.438c-0.635,0-1.232,0.301-1.609,0.812c-0.377,0.511-0.49,1.17-0.303,1.776
		c1.146,3.724,4.531,6.226,8.428,6.226H83.75c3.895,0,7.279-2.502,8.426-6.226c0.188-0.606,0.074-1.266-0.303-1.776
		C91.496,77.05,90.898,76.749,90.264,76.749z"/>
	<path d="M81.037,16.635c-0.521,0-1.061,0.027-1.701,0.086v-0.284c0-1.104-0.895-2-2-2H15.475c-1.104,0-2,0.896-2,2v49.171
		c0,4.32,3.516,7.834,7.836,7.834h50.191c4.32,0,7.834-3.515,7.834-7.834V53.602c0.639,0.059,1.18,0.086,1.701,0.086
		c12.293,0,18.525-6.233,18.525-18.526C99.563,23.561,92.637,16.635,81.037,16.635z M81.037,43.894
		c-0.561,0-1.133-0.057-1.701-0.169V26.597h0.002c0.566-0.112,1.139-0.168,1.699-0.168c6.201,0,8.732,2.53,8.732,8.733
		C89.77,42.575,87.48,43.894,81.037,43.894z"/>
</g>
</svg>
