<?xml version="1.0" encoding="utf-8"?>
<!-- Generator: Adobe Illustrator 16.0.0, SVG Export Plug-In . SVG Version: 6.00 Build 0)  -->
<!DOCTYPE svg PUBLIC "-//W3C//DTD SVG 1.1//EN" "http://www.w3.org/Graphics/SVG/1.1/DTD/svg11.dtd">
<svg version="1.1" id="Layer_1" xmlns="http://www.w3.org/2000/svg" xmlns:xlink="http://www.w3.org/1999/xlink" x="0px" y="0px"
	 width="100px" height="100px" viewBox="0 0 100 100" enable-background="new 0 0 100 100" xml:space="preserve">
<g>
	<path d="M91.567,28.473H8.433c-1.104,0-2,0.896-2,2v13.079c0,1.104,0.896,2,2,2h83.135c1.104,0,2-0.896,2-2V30.473
		C93.567,29.368,92.672,28.473,91.567,28.473z"/>
	<g>
		<path d="M79.365,2.5h-58.73c-1.104,0-2,0.896-2,2v13.079c0,1.104,0.896,2,2,2h58.73c1.104,0,2-0.896,2-2V4.5
			C81.365,3.396,80.47,2.5,79.365,2.5z"/>
		<path d="M79.365,54.448h-58.73c-1.104,0-2,0.896-2,2v13.079c0,1.104,0.896,2,2,2h58.73c1.104,0,2-0.896,2-2V56.448
			C81.365,55.344,80.47,54.448,79.365,54.448z"/>
	</g>
	<path d="M91.567,80.421H8.433c-1.104,0-2,0.896-2,2V95.5c0,1.104,0.896,2,2,2h83.135c1.104,0,2-0.896,2-2V82.421
		C93.567,81.316,92.672,80.421,91.567,80.421z"/>
</g>
</svg>
