<?xml version="1.0" encoding="utf-8"?>
<!-- Generator: Adobe Illustrator 16.0.0, SVG Export Plug-In . SVG Version: 6.00 Build 0)  -->
<!DOCTYPE svg PUBLIC "-//W3C//DTD SVG 1.1//EN" "http://www.w3.org/Graphics/SVG/1.1/DTD/svg11.dtd">
<svg version="1.1" id="Layer_1" xmlns="http://www.w3.org/2000/svg" xmlns:xlink="http://www.w3.org/1999/xlink" x="0px" y="0px"
	 width="100px" height="100px" viewBox="0 0 100 100" enable-background="new 0 0 100 100" xml:space="preserve">
<g>
	<path d="M91.567,19.579h-58.73c-1.104,0-2-0.896-2-2V4.5c0-1.104,0.896-2,2-2h58.73c1.104,0,2,0.896,2,2v13.079
		C93.567,18.684,92.672,19.579,91.567,19.579z"/>
	<path d="M8.433,28.473h83.135c1.104,0,2,0.896,2,2v13.079c0,1.104-0.896,2-2,2H8.433c-1.104,0-2-0.896-2-2V30.473
		C6.433,29.368,7.328,28.473,8.433,28.473z"/>
	<path d="M91.567,71.527h-58.73c-1.104,0-2-0.896-2-2V56.448c0-1.104,0.896-2,2-2h58.73c1.104,0,2,0.896,2,2v13.079
		C93.567,70.632,92.672,71.527,91.567,71.527z"/>
	<path d="M8.433,80.421h83.135c1.104,0,2,0.896,2,2V95.5c0,1.104-0.896,2-2,2H8.433c-1.104,0-2-0.896-2-2V82.421
		C6.433,81.316,7.328,80.421,8.433,80.421z"/>
</g>
</svg>
