<?xml version="1.0" encoding="utf-8"?>
<!-- Generator: Adobe Illustrator 16.0.0, SVG Export Plug-In . SVG Version: 6.00 Build 0)  -->
<!DOCTYPE svg PUBLIC "-//W3C//DTD SVG 1.1//EN" "http://www.w3.org/Graphics/SVG/1.1/DTD/svg11.dtd">
<svg version="1.1" id="Layer_1" xmlns="http://www.w3.org/2000/svg" xmlns:xlink="http://www.w3.org/1999/xlink" x="0px" y="0px"
	 width="100px" height="100px" viewBox="0 0 100 100" enable-background="new 0 0 100 100" xml:space="preserve">
<g>
	<path d="M28.914,45.975c0.279,0.805,1.037,1.345,1.889,1.345h5.59c0.656,0,1.271-0.322,1.645-0.862s0.459-1.229,0.227-1.843
		L25.699,11.259c-0.293-0.779-1.039-1.295-1.871-1.295h-6.869c-0.826,0-1.568,0.509-1.865,1.28L2.201,44.65
		c-0.236,0.615-0.156,1.308,0.217,1.852c0.373,0.543,0.99,0.868,1.65,0.868h5.07c0.836,0,1.584-0.52,1.875-1.303l2.695-7.247h12.723
		L28.914,45.975z M16.094,31.941l4.154-12.524l3.9,12.524H16.094z"/>
	<path d="M41.779,47.319h10.01c3.275,0,9.371,0,13.273-4.488c2.139-2.482,2.389-7.353,1.609-9.807
		c-0.836-2.395-2.43-4.028-5.102-5.193c2.014-1.046,3.436-2.515,4.234-4.382c1.207-2.857,0.596-6.954-1.434-9.55
		C61.588,10.428,56.77,9.96,52.42,9.96L41.777,9.964c-1.104,0-1.998,0.896-1.998,2v33.355
		C39.779,46.424,40.674,47.319,41.779,47.319z M57.443,37.979c-0.586,1.227-1.814,2.361-6.811,2.361h-1.285v-8.712l1.813-0.001
		c2.971,0,4.705,0.295,5.93,1.894C57.945,34.655,57.988,36.874,57.443,37.979z M56.693,22.366c-0.855,1.514-2.039,2.333-5.713,2.333
		h-1.633v-7.808l1.848-0.001c2.609,0.064,4.123,0.343,5.115,1.658C57.117,19.66,57.074,21.526,56.693,22.366z"/>
	<path d="M97.744,40.838c-0.031-0.632-0.359-1.212-0.885-1.563c-0.525-0.353-1.188-0.436-1.783-0.224
		c-4.801,1.706-8.121,1.787-11.17,0.258c-3.76-1.946-5.666-5.227-5.824-9.99c-0.061-4.17,0.529-8.79,5.359-11.445
		c1.416-0.775,3.07-1.168,4.92-1.168c2.461,0,4.9,0.723,6.514,1.328c0.598,0.227,1.266,0.149,1.799-0.199
		c0.535-0.351,0.869-0.935,0.9-1.572l0.18-3.542c0.047-0.94-0.568-1.787-1.477-2.031c-2.006-0.541-5.15-1.185-8.746-1.185
		c-3.873,0-7.264,0.733-10.084,2.183c-7.836,4.055-9.102,11.791-9.279,14.92c-0.18,2.901-0.123,12.788,8.117,18.195
		c3.883,2.5,8.541,3.024,11.764,3.024c2.816,0,5.813-0.417,8.438-1.175c0.891-0.258,1.488-1.094,1.443-2.02L97.744,40.838z"/>
	<path d="M90.521,51.462c-0.068-0.532-0.346-1.016-0.773-1.34c-0.428-0.325-0.967-0.463-1.498-0.388
		C67.352,52.765,49.828,66.7,41.014,75.002l-16.85-19.697c-0.717-0.84-1.98-0.938-2.818-0.221l-6.471,5.533
		c-0.404,0.346-0.654,0.836-0.695,1.365c-0.041,0.528,0.131,1.053,0.475,1.455l21.268,24.861c1.061,1.238,2.525,2.003,4.041,2.146
		c0.17,0.023,0.393,0.052,0.738,0.052c1.039,0,3.023-0.273,4.646-2.104c0.203-0.226,20.568-22.684,44.559-26.253
		c1.076-0.16,1.826-1.151,1.689-2.23L90.521,51.462z"/>
</g>
</svg>
