<?xml version="1.0" encoding="utf-8"?>
<!-- Generator: Adobe Illustrator 16.0.0, SVG Export Plug-In . SVG Version: 6.00 Build 0)  -->
<!DOCTYPE svg PUBLIC "-//W3C//DTD SVG 1.1//EN" "http://www.w3.org/Graphics/SVG/1.1/DTD/svg11.dtd">
<svg version="1.1" id="Layer_4" xmlns="http://www.w3.org/2000/svg" xmlns:xlink="http://www.w3.org/1999/xlink" x="0px" y="0px"
	 width="100px" height="100px" viewBox="0 0 100 100" enable-background="new 0 0 100 100" xml:space="preserve">
<g>
	<path d="M24.644,89.417h50.713V25.083h-4.689v-6.5c0-4.411-3.589-8-8-8H37.333c-4.411,0-8,3.589-8,8v6.5h-4.689V89.417z
		 M37.333,18.583h25.334l0.002,6.5H37.333V18.583z"/>
	<path d="M91.667,25.083h-5.978v64.334h5.978c2.209,0,4-1.791,4-4V29.083C95.667,26.874,93.876,25.083,91.667,25.083z"/>
	<path d="M14.311,25.083H8.333c-2.209,0-4,1.791-4,4v56.334c0,2.209,1.791,4,4,4h5.978V25.083z"/>
</g>
</svg>
