<?xml version="1.0" encoding="utf-8"?>
<!-- Generator: Adobe Illustrator 16.0.0, SVG Export Plug-In . SVG Version: 6.00 Build 0)  -->
<!DOCTYPE svg PUBLIC "-//W3C//DTD SVG 1.1//EN" "http://www.w3.org/Graphics/SVG/1.1/DTD/svg11.dtd">
<svg version="1.1" id="Layer_4" xmlns="http://www.w3.org/2000/svg" xmlns:xlink="http://www.w3.org/1999/xlink" x="0px" y="0px"
	 width="100px" height="100px" viewBox="0 0 100 100" enable-background="new 0 0 100 100" xml:space="preserve">
<g>
	<path d="M95.17,14.667H31.443c-1.104,0-2,0.896-2,2v9.756l-8.954,0.029c-0.762,0-1.457,0.433-1.794,1.115l-8.017,18.024H9.899
		c-0.762,0-1.457,0.433-1.794,1.115l-1.34,2.718H6.652c-1.104,0-2,0.896-2,2v19.477c-1.021,0.09-1.822,0.947-1.822,1.992v1.687
		c0,1.104,0.896,2,2,2h5.654c1.002,0,1.85-0.741,1.982-1.734c0.86-6.424,6.4-11.268,12.888-11.268
		c6.485,0,12.025,4.844,12.887,11.268c0.134,0.993,0.98,1.734,1.982,1.734h18.054c1.002,0,1.85-0.741,1.982-1.734
		c0.86-6.424,6.4-11.268,12.886-11.268c6.486,0,12.027,4.844,12.889,11.268c0.134,0.993,0.98,1.734,1.982,1.734h7.153
		c1.104,0,2-0.896,2-2V16.667C97.17,15.563,96.274,14.667,95.17,14.667z"/>
	<path d="M25.354,67.763c-4.845,0-8.786,3.941-8.786,8.785s3.941,8.785,8.786,8.785c4.844,0,8.784-3.941,8.784-8.785
		S30.198,67.763,25.354,67.763z"/>
	<path d="M73.146,67.763c-4.844,0-8.784,3.941-8.784,8.785s3.94,8.785,8.784,8.785c4.845,0,8.786-3.941,8.786-8.785
		S77.99,67.763,73.146,67.763z"/>
</g>
</svg>
