<?xml version="1.0" encoding="utf-8"?>
<!-- Generator: Adobe Illustrator 16.0.0, SVG Export Plug-In . SVG Version: 6.00 Build 0)  -->
<!DOCTYPE svg PUBLIC "-//W3C//DTD SVG 1.1//EN" "http://www.w3.org/Graphics/SVG/1.1/DTD/svg11.dtd">
<svg version="1.1" id="Layer_2" xmlns="http://www.w3.org/2000/svg" xmlns:xlink="http://www.w3.org/1999/xlink" x="0px" y="0px"
	 width="100px" height="100px" viewBox="0 0 100 100" enable-background="new 0 0 100 100" xml:space="preserve">
<path d="M98.234,29.477c-0.475-0.761-1.4-1.115-2.259-0.861c-1.602,0.469-3.636,0.895-6.047,1.266
	c2.233-1.142,4.011-2.365,5.281-3.635c0.687-0.687,0.781-1.768,0.224-2.563c-0.558-0.794-1.605-1.076-2.485-0.663
	c-2.331,1.091-4.868,1.652-7.542,1.667c-4.556-9.769-12.691-13.385-13.004-13.521c-4.966-2.253-9.696-2.929-13.926-1.99
	C47.147,11.693,41.965,25.167,43.66,36.208C40.649,36,24.607,34.385,4.451,22.941c-0.625-0.354-1.392-0.348-2.011,0.021
	C1.823,23.33,1.45,24,1.464,24.719c0.234,11.954,11.154,17.659,15.838,19.557c-0.99,0.102-2.515,0.124-3.994,0.063
	c-0.888-0.038-1.706,0.528-1.982,1.381s0.048,1.786,0.794,2.282c3.279,2.184,6.566,3.617,9.77,4.26
	c-0.693,0.048-1.415,0.081-2.117,0.103c-0.892,0.028-1.657,0.644-1.876,1.509c-0.218,0.866,0.163,1.771,0.936,2.219
	c2.998,1.741,7.652,3.817,12.814,3.817l0.372-0.004l-0.001,0c-0.569,0.21-1.208,0.395-1.903,0.549
	c-0.212,0.047-0.425,0.091-0.637,0.13c-0.903,0.169-1.574,0.932-1.628,1.848c-0.055,0.917,0.522,1.752,1.399,2.026
	c3.797,1.187,7.34,1.463,10.351,0.793c0.567-0.126,1.127-0.29,1.66-0.485l0.001,0c-0.081,3.069-1.695,13.383-19.041,17.237
	l-0.227,0.049c-1.088,0.242-3.392,0.524-6.305,0.524c-1.2,0-2.403-0.047-3.578-0.139c-0.969-0.083-1.846,0.551-2.091,1.488
	c-0.245,0.937,0.216,1.915,1.095,2.321c6.643,3.073,13.941,4.75,21.694,4.983c0.021,0,0.04,0.001,0.061,0.001
	c4.157,0,8.313-0.455,12.354-1.352c7.411-1.646,14.611-4.807,21.399-9.395l0.003-0.001c0.149-0.057,0.292-0.132,0.424-0.223
	c9.662-6.666,16.77-15.995,21.125-27.727c0.015-0.04,0.028-0.081,0.041-0.122c1.761-5.874,2.371-11.186,1.814-15.788
	c3.432-1.106,6.117-2.701,7.983-4.741C98.618,31.223,98.709,30.239,98.234,29.477z"/>
</svg>
