<?xml version="1.0" encoding="utf-8"?>
<!-- Generator: Adobe Illustrator 16.0.0, SVG Export Plug-In . SVG Version: 6.00 Build 0)  -->
<!DOCTYPE svg PUBLIC "-//W3C//DTD SVG 1.1//EN" "http://www.w3.org/Graphics/SVG/1.1/DTD/svg11.dtd">
<svg version="1.1" id="Layer_1" xmlns="http://www.w3.org/2000/svg" xmlns:xlink="http://www.w3.org/1999/xlink" x="0px" y="0px"
	 width="100px" height="100px" viewBox="0 0 100 100" enable-background="new 0 0 100 100" xml:space="preserve">
<g>
	<path d="M78.983,3.066H66.435c-1.104,0-2,0.896-2,2v42.117c0,0.514,0.006,1.054,0.013,1.611c0.067,5.981,0.169,15.021-7.857,18.893
		c-1.734,0.854-4.137,1.325-6.764,1.326c-2.593,0-5.141-0.5-6.816-1.336c-7.501-3.745-7.4-11.289-7.326-16.796
		c0.007-0.497,0.013-0.976,0.013-1.433V5.066c0-1.104-0.896-2-2-2h-12.68c-1.104,0-2,0.896-2,2v43.985
		c-0.005,11.043-0.01,20.581,14.223,27.569c4.093,2.054,10.371,3.232,17.226,3.233c6.237,0,12.133-1.005,15.799-2.702
		c13.583-6.539,14.72-17.964,14.72-29.105V5.066C80.983,3.962,80.088,3.066,78.983,3.066z"/>
	<path d="M78.972,84.473H21.034c-1.104,0-2,0.896-2,2v8.461c0,1.104,0.896,2,2,2h57.938c1.104,0,2-0.896,2-2v-8.461
		C80.972,85.368,80.076,84.473,78.972,84.473z"/>
</g>
</svg>
