<?xml version="1.0" encoding="utf-8"?>
<!-- Generator: Adobe Illustrator 16.0.0, SVG Export Plug-In . SVG Version: 6.00 Build 0)  -->
<!DOCTYPE svg PUBLIC "-//W3C//DTD SVG 1.1//EN" "http://www.w3.org/Graphics/SVG/1.1/DTD/svg11.dtd">
<svg version="1.1" id="Layer_4" xmlns="http://www.w3.org/2000/svg" xmlns:xlink="http://www.w3.org/1999/xlink" x="0px" y="0px"
	 width="100px" height="100px" viewBox="0 0 100 100" enable-background="new 0 0 100 100" xml:space="preserve">
<path d="M73.012,3.594c-14.299,0-25.934,11.635-25.934,25.934v8.764H3.055c-0.529,0-1.039,0.211-1.414,0.586
	c-0.375,0.377-0.586,0.885-0.586,1.416l0.041,54.115c0,1.104,0.896,1.998,2,1.998l0,0l57.916-0.041c1.104,0,1.998-0.895,1.998-2
	V40.252c0-0.533-0.213-1.045-0.592-1.42c-0.373-0.373-0.881-0.58-1.408-0.58c-0.004,0-0.01,0-0.016,0l-2.959,0.023v-8.748
	c0-8.258,6.719-14.977,14.977-14.977s14.975,6.719,14.975,14.977v6.764c0,1.105,0.896,2,2,2h6.959c1.104,0,2-0.895,2-2v-6.764
	C98.945,15.229,87.311,3.594,73.012,3.594z"/>
</svg>
