<?xml version="1.0" encoding="utf-8"?>
<!-- Generator: Adobe Illustrator 16.0.0, SVG Export Plug-In . SVG Version: 6.00 Build 0)  -->
<!DOCTYPE svg PUBLIC "-//W3C//DTD SVG 1.1//EN" "http://www.w3.org/Graphics/SVG/1.1/DTD/svg11.dtd">
<svg version="1.1" id="Layer_4" xmlns="http://www.w3.org/2000/svg" xmlns:xlink="http://www.w3.org/1999/xlink" x="0px" y="0px"
	 width="100px" height="100px" viewBox="0 0 100 100" enable-background="new 0 0 100 100" xml:space="preserve">
<path d="M81.204,44.693c-0.383-0.384-0.904-0.596-1.446-0.596c-0.004,0-0.01,0-0.016,0l-2.807,0.021V28.976
	c0-14.684-11.948-26.632-26.632-26.632S23.671,14.292,23.671,28.976v0.528c0,1.135,0.92,2.054,2.054,2.054h7.146
	c1.133,0,2.054-0.919,2.054-2.054v-0.528c0-8.479,6.898-15.38,15.378-15.38c8.48,0,15.38,6.9,15.38,15.38v15.146l-0.232,0.017
	H20.242c-0.543,0-1.067,0.216-1.452,0.602c-0.385,0.387-0.602,0.908-0.602,1.454l0.042,49.411c0,1.133,0.921,2.052,2.054,2.052
	l59.476-0.042c1.133,0,2.052-0.919,2.052-2.054V46.151C81.812,45.604,81.593,45.078,81.204,44.693z"/>
</svg>
