<?xml version="1.0" encoding="utf-8"?>
<!-- Generator: Adobe Illustrator 16.0.0, SVG Export Plug-In . SVG Version: 6.00 Build 0)  -->
<!DOCTYPE svg PUBLIC "-//W3C//DTD SVG 1.1//EN" "http://www.w3.org/Graphics/SVG/1.1/DTD/svg11.dtd">
<svg version="1.1" id="Layer_1" xmlns="http://www.w3.org/2000/svg" xmlns:xlink="http://www.w3.org/1999/xlink" x="0px" y="0px"
	 width="100px" height="100px" viewBox="0 0 100 100" enable-background="new 0 0 100 100" xml:space="preserve">
<g>
	<path d="M12.903,97.063c0,1.092,0.885,1.977,1.977,1.977H85.12c1.092,0,1.977-0.885,1.977-1.977V54.552H12.903V97.063z
		 M34.71,67.308c0.314-0.646,0.969-1.055,1.686-1.055h27.209c0.718,0,1.373,0.409,1.685,1.055c0.313,0.645,0.232,1.413-0.212,1.978
		L51.473,86.58c-0.354,0.451-0.898,0.715-1.473,0.715c-0.574,0-1.117-0.264-1.473-0.715L34.923,69.285
		c-0.265-0.337-0.401-0.746-0.401-1.158C34.522,67.848,34.584,67.567,34.71,67.308z"/>
	<path d="M87.097,2.938c0-1.092-0.885-1.977-1.977-1.977H14.88c-1.092,0-1.977,0.885-1.977,1.977v42.511h74.193V2.938z
		 M65.29,32.692c-0.314,0.646-0.969,1.055-1.686,1.055H36.395c-0.718,0-1.373-0.409-1.685-1.055
		c-0.313-0.645-0.232-1.413,0.212-1.978L48.527,13.42c0.354-0.451,0.898-0.715,1.473-0.715c0.574,0,1.117,0.264,1.473,0.715
		l13.604,17.295c0.265,0.337,0.401,0.746,0.401,1.158C65.478,32.152,65.416,32.433,65.29,32.692z"/>
	<path d="M96.191,45.448h-9.095v9.104h9.095c0.819,0,1.482-0.664,1.482-1.482v-6.139C97.674,46.112,97.01,45.448,96.191,45.448z"/>
	<path d="M3.809,45.448c-0.819,0-1.482,0.664-1.482,1.482v6.139c0,0.818,0.664,1.482,1.482,1.482h9.095v-9.104H3.809z"/>
</g>
</svg>
