<?xml version="1.0" encoding="utf-8"?>
<!-- Generator: Adobe Illustrator 16.0.0, SVG Export Plug-In . SVG Version: 6.00 Build 0)  -->
<!DOCTYPE svg PUBLIC "-//W3C//DTD SVG 1.1//EN" "http://www.w3.org/Graphics/SVG/1.1/DTD/svg11.dtd">
<svg version="1.1" id="Layer_4" xmlns="http://www.w3.org/2000/svg" xmlns:xlink="http://www.w3.org/1999/xlink" x="0px" y="0px"
	 width="100px" height="100px" viewBox="0 0 100 100" enable-background="new 0 0 100 100" xml:space="preserve">
<g>
	<path d="M93.125,62.998H63.588v13.406c0,4.686-3.813,8.5-8.5,8.5H44.912c-4.687,0-8.5-3.814-8.5-8.5V62.998H6.875
		c-1.104,0-2,0.895-2,2v31.75c0,1.104,0.896,2,2,2h86.25c1.104,0,2-0.896,2-2v-31.75C95.125,63.893,94.229,62.998,93.125,62.998z"/>
	<path d="M28.822,37.625c0.375,0.375,0.884,0.586,1.414,0.586S31.275,38,31.65,37.625l11.262-11.262v50.045c0,1.105,0.896,2,2,2
		h10.176c1.104,0,2-0.895,2-2V26.363L68.35,37.625c0.781,0.781,2.048,0.781,2.828,0l6.598-6.598
		c0.375-0.375,0.586-0.885,0.586-1.414c0-0.531-0.211-1.039-0.586-1.414L51.413,1.838c-0.375-0.375-0.884-0.586-1.414-0.586
		s-1.039,0.211-1.414,0.586l-26.36,26.361c-0.781,0.781-0.781,2.047,0,2.828L28.822,37.625z"/>
</g>
</svg>
