<?xml version="1.0" encoding="utf-8"?>
<!-- Generator: Adobe Illustrator 16.0.0, SVG Export Plug-In . SVG Version: 6.00 Build 0)  -->
<!DOCTYPE svg PUBLIC "-//W3C//DTD SVG 1.1//EN" "http://www.w3.org/Graphics/SVG/1.1/DTD/svg11.dtd">
<svg version="1.1" id="Layer_2" xmlns="http://www.w3.org/2000/svg" xmlns:xlink="http://www.w3.org/1999/xlink" x="0px" y="0px"
	 width="100px" height="100px" viewBox="0 0 100 100" enable-background="new 0 0 100 100" xml:space="preserve">
<path d="M95.816,4.424H4.184c-1.104,0-2,0.896-2,2v87.152c0,1.104,0.896,2,2,2h91.633c1.104,0,2-0.896,2-2V6.424
	C97.816,5.319,96.921,4.424,95.816,4.424z M27.79,12.625c5.44,0,9.85,4.409,9.85,9.849c0,5.44-4.409,9.851-9.85,9.851
	s-9.85-4.41-9.85-9.851C17.94,17.034,22.35,12.625,27.79,12.625z M13.786,38.706c2.038-3.304,7.271-4.883,12.24-5.233
	c0.585-0.042,1.175,1.251,1.764,1.423c0.589-0.172,1.179-1.465,1.764-1.423c4.969,0.351,10.202,1.93,12.24,5.233
	c0,0,7.055,12.263,1.117,19.046H27.79H12.669C6.731,50.969,13.786,38.706,13.786,38.706z M88.75,85c0,0.828-0.672,1.5-1.5,1.5h-75.5
	c-0.828,0-1.5-0.672-1.5-1.5v-4.125c0-0.828,0.672-1.5,1.5-1.5h75.5c0.828,0,1.5,0.672,1.5,1.5V85z M88.75,70
	c0,0.828-0.672,1.5-1.5,1.5h-75.5c-0.828,0-1.5-0.672-1.5-1.5v-4.125c0-0.828,0.672-1.5,1.5-1.5h75.5c0.828,0,1.5,0.672,1.5,1.5V70z
	 M88.75,55c0,0.828-0.672,1.5-1.5,1.5h-24.5c-0.828,0-1.5-0.672-1.5-1.5v-4.125c0-0.828,0.672-1.5,1.5-1.5h24.5
	c0.828,0,1.5,0.672,1.5,1.5V55z M88.75,40c0,0.828-0.672,1.5-1.5,1.5h-24.5c-0.828,0-1.5-0.672-1.5-1.5v-4.125
	c0-0.828,0.672-1.5,1.5-1.5h24.5c0.828,0,1.5,0.672,1.5,1.5V40z M88.75,27c0,0.828-0.672,1.5-1.5,1.5h-37.5
	c-0.828,0-1.5-0.672-1.5-1.5V14.5c0-0.828,0.672-1.5,1.5-1.5h37.5c0.828,0,1.5,0.672,1.5,1.5V27z"/>
</svg>
