<?xml version="1.0" encoding="utf-8"?>
<!-- Generator: Adobe Illustrator 16.0.0, SVG Export Plug-In . SVG Version: 6.00 Build 0)  -->
<!DOCTYPE svg PUBLIC "-//W3C//DTD SVG 1.1//EN" "http://www.w3.org/Graphics/SVG/1.1/DTD/svg11.dtd">
<svg version="1.1" id="Layer_3" xmlns="http://www.w3.org/2000/svg" xmlns:xlink="http://www.w3.org/1999/xlink" x="0px" y="0px"
	 width="100px" height="100px" viewBox="0 0 100 100" enable-background="new 0 0 100 100" xml:space="preserve">
<path d="M95.517,2.414H4.483c-1.143,0-2.069,0.927-2.069,2.069v91.034c0,1.142,0.927,2.069,2.069,2.069h91.033
	c1.143,0,2.069-0.927,2.069-2.069V4.483C97.586,3.341,96.659,2.414,95.517,2.414z M79.361,34.96L41.015,73.306
	c-0.24,0.24-0.555,0.36-0.869,0.36s-0.63-0.12-0.869-0.36L20.639,54.67c-0.23-0.23-0.36-0.543-0.36-0.869
	c0-0.326,0.13-0.639,0.36-0.869l6.542-6.542c0.461-0.461,1.277-0.461,1.738,0l11.227,11.226l30.936-30.936
	c0.461-0.461,1.277-0.461,1.738,0l6.542,6.542c0.23,0.23,0.36,0.543,0.36,0.869S79.592,34.729,79.361,34.96z"/>
</svg>
