<?xml version="1.0" encoding="utf-8"?>
<!-- Generator: Adobe Illustrator 16.0.0, SVG Export Plug-In . SVG Version: 6.00 Build 0)  -->
<!DOCTYPE svg PUBLIC "-//W3C//DTD SVG 1.1//EN" "http://www.w3.org/Graphics/SVG/1.1/DTD/svg11.dtd">
<svg version="1.1" id="Layer_3" xmlns="http://www.w3.org/2000/svg" xmlns:xlink="http://www.w3.org/1999/xlink" x="0px" y="0px"
	 width="100px" height="100px" viewBox="0 0 100 100" enable-background="new 0 0 100 100" xml:space="preserve">
<g>
	<path d="M50,0.875C22.912,0.875,0.875,22.913,0.875,50S22.912,99.125,50,99.125S99.125,77.087,99.125,50S77.088,0.875,50,0.875z
		 M50,89.125c-21.574,0-39.125-17.551-39.125-39.125S28.426,10.875,50,10.875S89.125,28.426,89.125,50S71.574,89.125,50,89.125z"/>
	<path d="M78.171,33.902l-6.276-6.277c-0.443-0.442-1.227-0.442-1.668,0L40.545,57.307L29.773,46.536
		c-0.441-0.442-1.225-0.442-1.668,0l-6.276,6.277c-0.222,0.221-0.346,0.521-0.346,0.834c0,0.313,0.124,0.613,0.346,0.834
		l17.882,17.88c0.23,0.23,0.531,0.346,0.834,0.346c0.301,0,0.604-0.115,0.834-0.346L78.171,35.57
		c0.222-0.221,0.346-0.521,0.346-0.834C78.517,34.423,78.393,34.123,78.171,33.902z"/>
</g>
</svg>
