<?xml version="1.0" encoding="utf-8"?>
<!-- Generator: Adobe Illustrator 16.0.0, SVG Export Plug-In . SVG Version: 6.00 Build 0)  -->
<!DOCTYPE svg PUBLIC "-//W3C//DTD SVG 1.1//EN" "http://www.w3.org/Graphics/SVG/1.1/DTD/svg11.dtd">
<svg version="1.1" id="Layer_1" xmlns="http://www.w3.org/2000/svg" xmlns:xlink="http://www.w3.org/1999/xlink" x="0px" y="0px"
	 width="100px" height="100px" viewBox="0 0 100 100" enable-background="new 0 0 100 100" xml:space="preserve">
<path d="M83.801,18.48L67.532,2.236c-0.469-0.469-1.104-0.732-1.768-0.732H17.967c-1.381,0-2.5,1.119-2.5,2.5v91.992
	c0,1.381,1.119,2.5,2.5,2.5h64.066c1.381,0,2.5-1.119,2.5-2.5V20.248C84.533,19.585,84.27,18.949,83.801,18.48z M68.403,58.198
	c0,0.472-0.274,0.9-0.703,1.097c-0.427,0.196-0.933,0.125-1.29-0.183l-7.119-6.13v6.992c0,0.688-0.561,1.249-1.25,1.249H32.846
	c-0.688,0-1.249-0.561-1.249-1.249V40.026c0-0.688,0.561-1.249,1.249-1.249h25.195c0.689,0,1.25,0.561,1.25,1.249v6.992l7.119-6.13
	c0.357-0.308,0.862-0.379,1.29-0.183c0.429,0.197,0.703,0.625,0.703,1.097V58.198z M63.555,23.847c-0.337,0-0.659-0.134-0.897-0.372
	c-0.237-0.238-0.372-0.561-0.372-0.897l0.002-15.126l16.395,16.396H63.555z"/>
</svg>
