<?xml version="1.0" encoding="utf-8"?>
<!-- Generator: Adobe Illustrator 16.0.0, SVG Export Plug-In . SVG Version: 6.00 Build 0)  -->
<!DOCTYPE svg PUBLIC "-//W3C//DTD SVG 1.1//EN" "http://www.w3.org/Graphics/SVG/1.1/DTD/svg11.dtd">
<svg version="1.1" id="Layer_2" xmlns="http://www.w3.org/2000/svg" xmlns:xlink="http://www.w3.org/1999/xlink" x="0px" y="0px"
	 width="100px" height="100px" viewBox="0 0 100 100" enable-background="new 0 0 100 100" xml:space="preserve">
<g>
	<path d="M50,61.59c8.271,0,15-6.729,15-15.002V23.75H35v22.838C35,54.86,41.729,61.59,50,61.59z"/>
	<path d="M50,0.764c-7.77,0-14.338,6.063-14.953,13.803h29.905C64.338,6.826,57.77,0.764,50,0.764z"/>
	<path d="M76.513,29.424h-3.285c-1.104,0-2,0.896-2,2v13.73c0,11.705-9.522,21.229-21.228,21.229s-21.228-9.523-21.228-21.229
		v-13.73c0-1.104-0.896-2-2-2h-3.285c-1.104,0-2,0.896-2,2v13.73c0,13.879,10.329,25.983,24.027,28.158l0.843,0.134v17.808H34.796
		c-2.201,0-3.991,1.791-3.991,3.992c0,2.2,1.791,3.99,3.991,3.99h30.408c2.201,0,3.991-1.79,3.991-3.99
		c0-2.201-1.791-3.992-3.991-3.992H53.643V73.446l0.843-0.134c13.698-2.175,24.027-14.279,24.027-28.158v-13.73
		C78.513,30.319,77.617,29.424,76.513,29.424z"/>
</g>
</svg>
