<?xml version="1.0" encoding="utf-8"?>
<!-- Generator: Adobe Illustrator 16.0.0, SVG Export Plug-In . SVG Version: 6.00 Build 0)  -->
<!DOCTYPE svg PUBLIC "-//W3C//DTD SVG 1.1//EN" "http://www.w3.org/Graphics/SVG/1.1/DTD/svg11.dtd">
<svg version="1.1" id="Layer_4" xmlns="http://www.w3.org/2000/svg" xmlns:xlink="http://www.w3.org/1999/xlink" x="0px" y="0px"
	 width="100px" height="100px" viewBox="0 0 100 100" enable-background="new 0 0 100 100" xml:space="preserve">
<g>
	<path d="M31.359,58.074h-8.334c-1.104,0-2,0.896-2,2v29.868c0,1.104,0.896,2,2,2h8.334c1.104,0,2-0.896,2-2V60.074
		C33.359,58.97,32.464,58.074,31.359,58.074z"/>
	<path d="M13.62,75.813H5.286c-1.104,0-2,0.896-2,2v12.129c0,1.104,0.896,2,2,2h8.334c1.104,0,2-0.896,2-2V77.813
		C15.62,76.709,14.725,75.813,13.62,75.813z"/>
	<path d="M52.477,41.402h-8.333c-1.104,0-2,0.896-2,2v46.54c0,1.104,0.896,2,2,2h8.333c1.104,0,2-0.896,2-2v-46.54
		C54.477,42.298,53.581,41.402,52.477,41.402z"/>
	<path d="M73.596,24.73h-8.333c-1.104,0-2,0.896-2,2v63.212c0,1.104,0.896,2,2,2h8.333c1.104,0,2-0.896,2-2V26.73
		C75.596,25.626,74.7,24.73,73.596,24.73z"/>
	<path d="M94.714,8.058H86.38c-1.104,0-2,0.896-2,2v79.885c0,1.104,0.896,2,2,2h8.334c1.104,0,2-0.896,2-2V10.058
		C96.714,8.953,95.818,8.058,94.714,8.058z"/>
</g>
</svg>
