<?xml version="1.0" encoding="utf-8"?>
<!-- Generator: Adobe Illustrator 16.0.0, SVG Export Plug-In . SVG Version: 6.00 Build 0)  -->
<!DOCTYPE svg PUBLIC "-//W3C//DTD SVG 1.1//EN" "http://www.w3.org/Graphics/SVG/1.1/DTD/svg11.dtd">
<svg version="1.1" id="Layer_3" xmlns="http://www.w3.org/2000/svg" xmlns:xlink="http://www.w3.org/1999/xlink" x="0px" y="0px"
	 width="100px" height="100px" viewBox="0 0 100 100" enable-background="new 0 0 100 100" xml:space="preserve">
<path d="M96.535,76.263L51.556,11.092c-0.354-0.511-0.935-0.816-1.556-0.816s-1.202,0.306-1.555,0.816L3.465,76.263
	c-0.398,0.577-0.443,1.329-0.117,1.95c0.326,0.622,0.971,1.012,1.672,1.012H94.98c0.701,0,1.347-0.39,1.672-1.012
	C96.979,77.592,96.934,76.84,96.535,76.263z M55.207,70.983c0,0.501-0.406,0.906-0.907,0.906h-8.599
	c-0.501,0-0.907-0.405-0.907-0.906v-7.951c0-0.501,0.406-0.907,0.907-0.907H54.3c0.501,0,0.907,0.406,0.907,0.907V70.983z
	 M55.224,56.603c-0.013,0.491-0.415,0.882-0.906,0.882h-8.634c-0.491,0-0.893-0.391-0.906-0.881l-0.762-27.562
	c-0.006-0.245,0.086-0.482,0.257-0.657c0.171-0.176,0.405-0.274,0.649-0.274h10.156c0.244,0,0.479,0.099,0.649,0.274
	c0.171,0.175,0.263,0.412,0.257,0.656L55.224,56.603z"/>
</svg>
