<?xml version="1.0" encoding="utf-8"?>
<!-- Generator: Adobe Illustrator 16.0.0, SVG Export Plug-In . SVG Version: 6.00 Build 0)  -->
<!DOCTYPE svg PUBLIC "-//W3C//DTD SVG 1.1//EN" "http://www.w3.org/Graphics/SVG/1.1/DTD/svg11.dtd">
<svg version="1.1" id="Layer_3" xmlns="http://www.w3.org/2000/svg" xmlns:xlink="http://www.w3.org/1999/xlink" x="0px" y="0px"
	 width="100px" height="100px" viewBox="0 0 100 100" enable-background="new 0 0 100 100" xml:space="preserve">
<path d="M50,2.451C23.739,2.451,2.451,23.738,2.451,50c0,26.26,21.288,47.549,47.549,47.549S97.549,76.26,97.549,50
	C97.549,23.738,76.261,2.451,50,2.451z M58.066,82.508c0,0.775-0.629,1.404-1.405,1.404H43.34c-0.775,0-1.404-0.629-1.404-1.404
	V70.189c0-0.776,0.629-1.405,1.404-1.405h13.321c0.776,0,1.405,0.629,1.405,1.405V82.508z M58.093,60.229
	c-0.021,0.761-0.644,1.366-1.403,1.366H43.313c-0.761,0-1.384-0.605-1.404-1.365l-1.18-42.699c-0.011-0.379,0.133-0.746,0.397-1.018
	c0.265-0.272,0.627-0.426,1.007-0.426h15.732c0.38,0,0.742,0.153,1.007,0.426c0.265,0.271,0.408,0.639,0.397,1.018L58.093,60.229z"
	/>
</svg>
