<?xml version="1.0" encoding="utf-8"?>
<!-- Generator: Adobe Illustrator 16.0.0, SVG Export Plug-In . SVG Version: 6.00 Build 0)  -->
<!DOCTYPE svg PUBLIC "-//W3C//DTD SVG 1.1//EN" "http://www.w3.org/Graphics/SVG/1.1/DTD/svg11.dtd">
<svg version="1.1" id="Layer_1" xmlns="http://www.w3.org/2000/svg" xmlns:xlink="http://www.w3.org/1999/xlink" x="0px" y="0px"
	 width="100px" height="100px" viewBox="0 0 100 100" enable-background="new 0 0 100 100" xml:space="preserve">
<g>
	<rect x="42.833" y="49.017" width="14.333" height="14.332"/>
	<rect x="42.833" y="69.017" width="14.333" height="14.332"/>
	<rect x="19.833" y="69.017" width="14.333" height="14.332"/>
	<rect x="19.833" y="49.017" width="14.333" height="14.332"/>
	<path d="M96.736,15.73H85.691V3.965c0-1.104-0.896-2-2-2H67.074c-1.104,0-2,0.896-2,2V15.73H34.926V3.965c0-1.104-0.896-2-2-2
		H16.309c-1.104,0-2,0.896-2,2V15.73H3.264c-1.104,0-2,0.896-2,2v78.305c0,1.104,0.896,2,2,2h93.473c1.104,0,2-0.896,2-2V17.73
		C98.736,16.626,97.841,15.73,96.736,15.73z M70.909,9.301c0-0.828,0.671-1.5,1.5-1.5h5.947c0.829,0,1.5,0.672,1.5,1.5v20.34
		c0,0.828-0.671,1.5-1.5,1.5h-5.947c-0.829,0-1.5-0.672-1.5-1.5V9.301z M20.144,9.301c0-0.828,0.671-1.5,1.5-1.5h5.947
		c0.829,0,1.5,0.672,1.5,1.5v20.34c0,0.828-0.671,1.5-1.5,1.5h-5.947c-0.829,0-1.5-0.672-1.5-1.5V9.301z M88.333,86.166
		c0,0.828-0.671,1.5-1.5,1.5H13.167c-0.829,0-1.5-0.672-1.5-1.5v-40c0-0.828,0.671-1.5,1.5-1.5h73.666c0.829,0,1.5,0.672,1.5,1.5
		V86.166z"/>
	<rect x="65.833" y="49.017" width="14.333" height="14.332"/>
	<rect x="65.833" y="69.017" width="14.333" height="14.332"/>
</g>
</svg>
