<?xml version="1.0" encoding="utf-8"?>
<!-- Generator: Adobe Illustrator 16.0.0, SVG Export Plug-In . SVG Version: 6.00 Build 0)  -->
<!DOCTYPE svg PUBLIC "-//W3C//DTD SVG 1.1//EN" "http://www.w3.org/Graphics/SVG/1.1/DTD/svg11.dtd">
<svg version="1.1" id="Layer_3" xmlns="http://www.w3.org/2000/svg" xmlns:xlink="http://www.w3.org/1999/xlink" x="0px" y="0px"
	 width="100px" height="100px" viewBox="0 0 100 100" enable-background="new 0 0 100 100" xml:space="preserve">
<path d="M83.801,18.506L67.532,2.236c-0.469-0.469-1.104-0.732-1.768-0.732H17.967c-1.381,0-2.5,1.119-2.5,2.5v91.992
	c0,1.381,1.119,2.5,2.5,2.5h64.066c1.381,0,2.5-1.119,2.5-2.5V20.273C84.533,19.609,84.27,18.975,83.801,18.506z M73.25,42.488
	c0,0.277-0.224,0.5-0.5,0.5h-2.006l-8.396,31.881c-0.058,0.219-0.256,0.373-0.483,0.373h-5.099c-0.227,0-0.425-0.152-0.483-0.371
	L50,51.344l-6.283,23.527c-0.058,0.219-0.256,0.371-0.483,0.371h-5.099c-0.227,0-0.426-0.154-0.483-0.373l-8.396-31.881H27.25
	c-0.276,0-0.5-0.223-0.5-0.5v-5.23c0-0.275,0.224-0.5,0.5-0.5h6.574c0.228,0,0.426,0.154,0.484,0.375l6.411,24.574l6.418-24.379
	c0.058-0.221,0.256-0.373,0.483-0.373h4.76c0.227,0,0.426,0.152,0.483,0.373l6.418,24.379l6.411-24.574
	c0.058-0.221,0.256-0.375,0.484-0.375h6.574c0.276,0,0.5,0.225,0.5,0.5V42.488z M63.555,23.846c-0.337,0-0.659-0.133-0.897-0.371
	c-0.237-0.238-0.372-0.561-0.372-0.897l0.002-15.126l16.395,16.395H63.555z"/>
</svg>
