<?xml version="1.0" encoding="utf-8"?>
<!-- Generator: Adobe Illustrator 16.0.0, SVG Export Plug-In . SVG Version: 6.00 Build 0)  -->
<!DOCTYPE svg PUBLIC "-//W3C//DTD SVG 1.1//EN" "http://www.w3.org/Graphics/SVG/1.1/DTD/svg11.dtd">
<svg version="1.1" id="Layer_2" xmlns="http://www.w3.org/2000/svg" xmlns:xlink="http://www.w3.org/1999/xlink" x="0px" y="0px"
	 width="100px" height="100px" viewBox="0 0 100 100" enable-background="new 0 0 100 100" xml:space="preserve">
<g>
	<path d="M50.67,53.343L39.204,86.662c3.425,1.004,7.046,1.558,10.798,1.558c4.449,0,8.719-0.77,12.689-2.167
		c-0.101-0.164-0.195-0.338-0.271-0.527L50.67,53.343z"/>
	<path d="M11.782,49.998c0,15.129,8.792,28.202,21.541,34.396l-18.23-49.948C12.973,39.197,11.782,44.458,11.782,49.998z"/>
	<path d="M75.799,48.07c0-4.723-1.696-7.993-3.15-10.541c-1.939-3.148-3.754-5.813-3.754-8.962c0-3.513,2.664-6.783,6.418-6.783
		c0.17,0,0.33,0.021,0.496,0.029c-6.798-6.227-15.856-10.031-25.807-10.031c-13.354,0-25.101,6.85-31.932,17.227
		c0.896,0.027,1.739,0.046,2.459,0.046c3.998,0,10.187-0.485,10.187-0.485c2.062-0.124,2.302,2.903,0.245,3.146
		c0,0-2.071,0.243-4.374,0.365l13.915,41.397l8.363-25.085L42.91,32.08c-2.058-0.122-4.007-0.365-4.007-0.365
		c-2.058-0.12-1.818-3.268,0.241-3.146c0,0,6.313,0.485,10.066,0.485c3.997,0,10.188-0.485,10.188-0.485
		c2.062-0.122,2.303,2.903,0.243,3.146c0,0-2.073,0.243-4.374,0.365L69.08,73.163l3.811-12.738
		C74.543,55.138,75.799,51.341,75.799,48.07z"/>
	<path d="M83.535,31.663c0.164,1.216,0.257,2.525,0.257,3.93c0,3.878-0.722,8.238-2.905,13.689L69.213,83.033
		C80.574,76.407,88.218,64.098,88.218,50C88.22,43.354,86.521,37.106,83.535,31.663z"/>
	<path d="M50,1.51C23.22,1.51,1.511,23.22,1.511,50S23.22,98.49,50,98.49S98.489,76.78,98.489,50S76.78,1.51,50,1.51z
		 M50.002,92.507c-23.44,0-42.507-19.068-42.507-42.509c0-23.438,19.066-42.505,42.507-42.505c23.437,0,42.503,19.068,42.503,42.505
		C92.505,73.438,73.438,92.507,50.002,92.507z"/>
</g>
</svg>
