<?xml version="1.0" encoding="utf-8"?>
<!-- Generator: Adobe Illustrator 16.0.0, SVG Export Plug-In . SVG Version: 6.00 Build 0)  -->
<!DOCTYPE svg PUBLIC "-//W3C//DTD SVG 1.1//EN" "http://www.w3.org/Graphics/SVG/1.1/DTD/svg11.dtd">
<svg version="1.1" id="Layer_3" xmlns="http://www.w3.org/2000/svg" xmlns:xlink="http://www.w3.org/1999/xlink" x="0px" y="0px"
	 width="100px" height="100px" viewBox="0 0 100 100" enable-background="new 0 0 100 100" xml:space="preserve">
<g>
	<path d="M81.624,13.587V11.46c0-1.001-0.811-1.813-1.813-1.813H2.729c-1.001,0-1.813,0.813-1.813,1.813v77.08
		c0,1.001,0.811,1.813,1.813,1.813h77.082c1.001,0,1.813-0.813,1.813-1.813V49.693v-1.009l-9.656,9.654v22.358H10.573V19.303h61.395
		v3.94L81.624,13.587z"/>
	<path d="M48.57,51.219c-0.19,0.189-0.303,0.444-0.315,0.693l-1.847,12.851c-0.045,0.338,0.07,0.684,0.312,0.926
		c0.207,0.206,0.48,0.32,0.773,0.32c0.053,0,0.104-0.004,0.156-0.012l12.792-1.84c0.286-0.007,0.547-0.12,0.755-0.328l29.019-29.026
		l-12.61-12.61L48.57,51.219z"/>
	<path d="M99.083,25.478c0-0.293-0.114-0.567-0.322-0.772L87.701,13.645c-0.395-0.399-1.15-0.399-1.547-0.001l-5.221,5.221
		l12.609,12.609l5.221-5.223C98.969,26.045,99.083,25.771,99.083,25.478z"/>
</g>
</svg>
