<?xml version="1.0" encoding="utf-8"?>
<!-- Generator: Adobe Illustrator 16.0.0, SVG Export Plug-In . SVG Version: 6.00 Build 0)  -->
<!DOCTYPE svg PUBLIC "-//W3C//DTD SVG 1.1//EN" "http://www.w3.org/Graphics/SVG/1.1/DTD/svg11.dtd">
<svg version="1.1" id="Layer_3" xmlns="http://www.w3.org/2000/svg" xmlns:xlink="http://www.w3.org/1999/xlink" x="0px" y="0px"
	 width="100px" height="100px" viewBox="0 0 100 100" enable-background="new 0 0 100 100" xml:space="preserve">
<g>
	<path d="M83.801,18.506L67.532,2.236c-0.469-0.469-1.104-0.732-1.768-0.732h-9.528v6.883h-2.581V6.488H50l0.007-4.984h-32.04
		c-1.381,0-2.5,1.119-2.5,2.5v91.992c0,1.381,1.119,2.5,2.5,2.5h64.066c1.381,0,2.5-1.119,2.5-2.5V20.273
		C84.533,19.609,84.27,18.975,83.801,18.506z M53.656,15.455v-1.899h2.581v8.387h-2.581v-1.899H50v-4.588H53.656z M50,33.51v-4.588
		h3.656v-1.9h2.581v8.387h-2.581V33.51H50z M43.763,6.819h2.581v1.897H50v4.589h-3.656v1.9h-2.581V6.819z M43.763,20.284h2.581
		v1.898H50v4.587h-3.656v1.9h-2.581V20.284z M50,58.861c-3.625,0-6.563-2.809-6.563-7.046c0-10.919,2.938-15.057,6.563-15.057
		s6.563,4.138,6.563,15.057C56.563,56.053,53.625,58.861,50,58.861z M63.555,23.846c-0.337,0-0.659-0.133-0.897-0.371
		c-0.237-0.238-0.372-0.561-0.372-0.897l0.002-15.126l16.395,16.395H63.555z"/>
	<path d="M50.985,51.815h-1.971c-1.268,0-2.292,1.026-2.292,2.294c0,1.266,1.025,2.293,2.292,2.293h1.971
		c1.269,0,2.293-1.027,2.293-2.293C53.278,52.842,52.253,51.815,50.985,51.815z"/>
</g>
</svg>
