<svg xmlns="http://www.w3.org/2000/svg" xmlns:xlink="http://www.w3.org/1999/xlink" version="1.1" x="0px" y="0px" viewBox="0 0 512 512" enable-background="new 0 0 512 512" xml:space="preserve"><g><path fill="#000000" d="M387.25,215.031V75.781L256,0L124.75,75.781v139.25L4.156,284.656v151.562L135.406,512L256,442.375   L376.594,512l131.25-75.781V284.656L387.25,215.031z M146.062,88.094L256,24.625l109.906,63.469v126.922L256,278.484   l-109.938-63.469V88.094z M25.5,423.906V296.969l109.906-63.453l109.906,63.453v126.938l-109.906,63.453L25.5,423.906z    M486.5,423.906l-109.906,63.453l-109.938-63.453V296.969l109.938-63.453L486.5,296.969V423.906z"></path><path fill="#000000" d="M298.656,307.109c-5.875,0-10.656,4.766-10.656,10.656v85.344c0,5.891,4.781,10.656,10.656,10.656   c5.906,0,10.656-4.766,10.656-10.656v-85.344C309.312,311.875,304.562,307.109,298.656,307.109z"></path><path fill="#000000" d="M263.219,57.406c-2.938-5.094-9.469-6.844-14.562-3.906L174.75,96.172   c-5.094,2.938-6.844,9.469-3.906,14.562c2.938,5.109,9.469,6.859,14.562,3.906l73.906-42.656   C264.406,69.031,266.156,62.516,263.219,57.406z"></path><path fill="#000000" d="M216.656,305.047l-73.906-42.656c-5.094-2.953-11.625-1.203-14.562,3.906   c-2.969,5.094-1.219,11.625,3.906,14.562l73.875,42.672c5.125,2.938,11.625,1.188,14.594-3.906   C223.5,314.516,221.75,308,216.656,305.047z"></path></g></svg>